<svg width="315" height="256" viewBox="0 0 315 256" fill="none" xmlns="http://www.w3.org/2000/svg">
<path d="M179.463 5.94434C183.369 7.28033 186.997 9.31222 190.169 11.9403C192.658 14.0829 194.886 16.5366 197.323 18.9384L198.072 16.1737H198.437C202.407 22.3363 204.241 29.6171 203.66 36.909L206.375 35.0256C206.375 37.4274 206.549 39.7256 206.375 41.9373C205.983 46.722 205.09 51.4532 203.712 56.0546C201.543 63.2701 197.997 70.0046 193.267 75.8913C189.899 80.1388 185.902 83.8557 181.413 86.9156C177.437 89.493 172.949 91.1903 168.253 91.8921C164.492 92.531 160.684 92.8661 156.869 92.8943C149.745 92.8038 142.715 91.2752 136.206 88.4016C132.486 86.8945 128.976 84.9201 125.761 82.5266C120.421 78.388 116.322 72.8789 113.907 66.595C111.844 61.316 110.634 55.7468 110.321 50.0932C110.044 46.13 110.143 42.1498 110.617 38.205C110.636 37.8769 110.636 37.5481 110.617 37.22C110.513 37.22 110.426 37.22 110.373 37.22L108.633 38.1013C108.481 37.5381 108.41 36.9563 108.424 36.3734C109.172 32.2609 110.721 28.5804 114.534 26.2822C115.23 25.8675 115.108 25.3145 115.056 24.6752C114.581 20.6914 114.954 16.6529 116.153 12.8215C116.561 11.2543 117.55 9.8972 118.92 9.02007C119.303 8.84144 119.699 8.69128 120.104 8.5708C120.452 10.869 120.4 13.1326 121.845 14.9469C121.919 15.8269 122.424 16.6148 123.194 17.0559C123.965 17.497 124.905 17.5354 125.709 17.1587C125.907 17.095 126.111 17.0545 126.319 17.0377C129.226 16.8131 132.133 16.6403 135.022 16.3465C135.735 16.2795 136.41 15.9959 136.954 15.5344C138.526 14.0021 140.459 12.8852 142.577 12.2859C144.039 11.923 145.571 11.7848 147.086 11.5429L147.19 11.9748C146.563 12.4759 145.728 12.8561 145.362 13.5127C144.216 15.4521 143.204 17.467 142.333 19.5432C141.51 21.4036 142.268 23.5798 144.074 24.537C146.852 26.4911 150.101 27.6831 153.491 27.9929C154.414 28.0792 154.588 28.5112 154.397 29.3406C153.873 30.8153 152.819 32.0461 151.437 32.7965C149.975 33.8678 148.321 34.6973 146.72 35.6476C148.19 37.6344 148.769 40.1349 148.321 42.5594C148.165 43.5961 147.904 43.8381 146.807 43.5616C144.843 43.0629 142.84 42.7334 140.819 42.5767C139.078 42.4557 138.208 43.4234 138.504 44.6848C139.217 49.1176 142.49 52.7192 146.859 53.8774C148.953 54.6247 151.27 54.4356 153.213 53.359C155.071 52.3067 157.096 51.5763 159.201 51.1991C162.562 50.7598 165.776 52.7113 166.913 55.8818C163.175 56.5406 159.774 58.4418 157.269 61.273C156.018 62.6817 154.302 63.6008 152.43 63.8649C150.323 64.245 148.182 64.3487 145.989 64.5906C149.784 67.8078 154.239 70.1664 159.044 71.5024C162.843 72.554 166.898 72.1914 170.446 70.4829C174.192 68.4884 177.23 65.4002 179.15 61.6358C179.829 60.409 180.438 59.1476 181.082 57.9035H181.465L182.04 63.3983C182.818 62.2069 183.527 60.9723 184.163 59.7005C185.638 55.7861 186.232 51.5987 185.904 47.4322C185.904 45.7042 185.73 44.0973 185.643 42.2484C187.784 42.8704 188.237 44.6847 189.124 46.3609C191.666 40.3476 190.117 34.6454 188.48 28.9605L188.759 28.684L192.031 29.9454C191.295 25.3843 188.797 21.2874 185.069 18.5237C182.029 16.3841 178.652 14.7608 175.077 13.7201C174.711 13.5991 174.433 13.1844 174.102 12.9079C174.433 12.5796 174.694 12.0958 175.094 11.9748C176.01 11.7285 176.94 11.538 177.879 11.4046C176.33 8.10426 173.023 7.94875 170.342 6.63551C171.627 6.28109 172.945 6.05533 174.276 5.96162C175.964 6.03073 177.723 6.01345 179.463 5.94434Z" fill="#C75305"/>
<path d="M179.463 5.94453C177.722 5.94453 175.982 5.94453 174.241 6.15188C172.91 6.2456 171.592 6.47136 170.307 6.82578C172.97 8.13901 176.295 8.29453 177.844 11.5949C176.905 11.7283 175.975 11.9187 175.059 12.1651C174.676 12.3033 174.398 12.7872 174.067 13.0982C174.38 13.3747 174.659 13.7894 175.042 13.9103C178.617 14.951 181.994 16.5744 185.034 18.714C188.762 21.4777 191.26 25.5746 191.997 30.1357L188.724 28.8743L188.445 29.1507C190.082 34.8529 191.631 40.5378 189.089 46.5511C188.219 44.8231 187.767 43.0952 185.608 42.4386C185.695 44.1665 185.817 45.8945 185.869 47.6224C186.197 51.7889 185.603 55.9763 184.128 59.8908C183.492 61.1625 182.783 62.3971 182.005 63.5885L181.43 58.0937H181.047C180.403 59.3378 179.794 60.5992 179.115 61.826C177.195 65.5904 174.157 68.6786 170.411 70.6731C166.863 72.3816 162.808 72.7441 159.009 71.6926C154.204 70.3566 149.749 67.998 145.954 64.7808C148.147 64.5389 150.288 64.4352 152.395 64.0551C154.267 63.791 155.983 62.8719 157.234 61.4632C159.739 58.632 163.14 56.7309 166.878 56.072C165.741 52.9015 162.527 50.9501 159.166 51.3893C157.061 51.7665 155.036 52.4969 153.178 53.5492C151.235 54.6258 148.918 54.8149 146.824 54.0676C142.455 52.9094 139.182 49.3078 138.469 44.875C138.173 43.6136 139.078 42.6459 140.784 42.7669C142.805 42.9236 144.808 43.2531 146.772 43.7518C147.869 44.011 148.13 43.7518 148.287 42.7496C148.734 40.3251 148.155 37.8246 146.685 35.8379C148.287 34.8875 149.94 34.1099 151.402 32.9868C152.784 32.2363 153.838 31.0056 154.362 29.5309C154.553 28.7188 154.362 28.2868 153.457 28.1831C150.066 27.8734 146.817 26.6813 144.039 24.7272C142.233 23.77 141.475 21.5938 142.298 19.7335C143.169 17.6572 144.181 15.6424 145.327 13.703C145.693 13.0636 146.528 12.6662 147.155 12.1651L147.051 11.7331C145.554 11.975 144.022 12.1133 142.542 12.4761C140.424 13.0755 138.491 14.1924 136.919 15.7247C136.375 16.1862 135.7 16.4698 134.987 16.5368C132.098 16.8305 129.191 17.0033 126.284 17.228C126.076 17.2447 125.872 17.2853 125.674 17.3489C124.87 17.7257 123.93 17.6873 123.159 17.2462C122.389 16.805 121.885 16.0172 121.81 15.1372C125.847 11.2398 130.491 8.01329 135.562 5.58167C140.744 3.06017 146.338 1.48009 152.081 0.916233C161.503 0.00525298 170.993 1.74794 179.463 5.94453Z" fill="#044DA0"/>
<path d="M93.0702 179.498H122.872V179.705L108.737 184.578C109.485 185.943 110.164 187.274 110.93 188.552C115.504 196.314 120.864 203.592 126.928 210.273C135.234 219.641 145.244 227.373 156.433 233.064C157.072 233.43 157.849 233.468 158.522 233.168C163.144 231.262 167.438 228.65 171.247 225.427C174.728 222.524 178.21 219.517 181.413 216.303C187.844 209.862 193.818 202.985 199.29 195.723C202.232 191.801 205.139 187.861 207.994 183.939C208.087 183.762 208.163 183.577 208.22 183.386L196.662 179.74V179.533H221.676C220.127 182.885 218.734 186.341 216.976 189.589C214.086 195.076 210.738 200.313 206.967 205.244C203.938 209.132 200.979 213.089 197.602 216.649C193.434 221.029 189.048 225.198 184.459 229.142C180.247 232.77 175.755 236.054 171.229 239.319C167.4 241.998 163.292 244.296 159.288 246.749C158.236 247.605 156.744 247.676 155.615 246.922C152.725 245.039 149.662 243.466 146.789 241.514C143.517 239.319 140.279 237.038 137.181 234.602C133.699 231.837 130.096 229.055 126.858 225.962C121.798 221.327 117.09 216.325 112.775 210.998C109.834 207.214 106.857 203.43 104.072 199.49C100.274 194.009 96.9321 188.231 94.0798 182.211C93.8535 181.226 93.4009 180.345 93.0702 179.498Z" fill="#044DA0"/>
<path d="M194.364 117.69H194.243L192.972 117.483H192.85H192.728L191.457 117.275H191.336H191.214L189.943 117.068H189.821H189.717L188.446 116.861H188.324H188.22L186.949 116.653H186.827H186.723L185.452 116.446H185.33H185.226L183.955 116.239H183.833H183.729L182.458 116.031H182.179H182.075L180.804 115.824H180.682H180.578L179.29 115.617H179.168H179.063L178.054 115.167H219.257C219.733 115.128 220.205 115.047 220.667 114.925V107.201V105.232C220.768 104.8 220.832 104.361 220.859 103.918C220.859 100.687 220.702 97.4732 220.684 94.242C220.684 88.1596 220.684 82.1464 220.684 75.9776C220.639 75.5088 220.545 75.0456 220.406 74.5953C220.344 74.6151 220.277 74.6151 220.214 74.5953C219.779 74.5001 219.337 74.4366 218.892 74.4052H209.283C208.847 74.4052 208.412 74.4052 208.012 74.4052L207.681 70.9493V69.9644C207.681 68.7894 207.855 67.6144 207.873 66.5085C207.873 64.003 207.873 61.4975 207.873 58.8538C208.639 58.8538 209.265 58.8538 209.874 58.8538C211.058 58.8538 212.242 58.681 213.356 58.5946C214.47 58.5082 215.584 58.3527 216.698 58.1972L241.347 54.7413C242.792 54.5339 244.254 54.292 245.699 54.0674C245.748 54.2487 245.783 54.4336 245.803 54.6203C245.682 63.3464 245.681 72.0898 245.386 80.8159C245.107 89.1618 244.585 97.4905 244.028 105.836C243.645 112.383 242.772 118.892 241.417 125.31L239.432 125.76L237.953 125.518L236.473 125.276L234.993 125.034L233.514 124.792L232.034 124.55L230.554 124.308L229.075 124.066L227.595 123.824L226.116 123.582L224.636 123.34L223.156 123.099H222.895L221.642 122.874H221.381L220.145 122.649H219.884L218.648 122.425H218.387L217.133 122.2H216.872L215.619 121.975H215.358L214.104 121.751H213.843L212.59 121.526H212.346L211.093 121.301H210.849L209.596 121.077H209.352L208.099 120.852H207.855L206.602 120.628H206.48H206.358L205.105 120.403H204.861L203.608 120.178H203.364L202.111 119.954H201.989H201.867L200.596 119.729H200.474H200.353L199.099 119.504H198.977H198.856L197.602 119.28H197.48H197.359L196.088 119.072H195.966H195.844L194.364 117.69Z" fill="#044DA0"/>
<path d="M101.13 120.886H100.869L99.6157 121.111H99.3546L98.1012 121.336H97.8575L96.6042 121.56H96.3431L95.0898 121.785H94.8286L93.5753 122.01H93.4012L92.1479 122.234H91.8868L90.4072 122.476L88.9275 122.718L87.4479 122.96L85.9683 123.202L84.4886 123.444L83.009 123.686L81.5294 123.928L80.0498 124.17L78.5701 124.411L77.0905 124.653L75.6109 124.895L73.6264 124.411C73.4748 123.842 73.3528 123.265 73.2609 122.684C72.3383 114.942 71.2242 107.132 70.5453 99.4428C69.936 92.531 69.6923 85.6192 69.5183 78.6211C69.3094 70.5516 69.3268 62.4649 69.2397 54.43C69.2397 54.0671 69.2397 53.7042 69.2397 53.2031C72.4427 53.7215 75.5412 54.2572 78.6398 54.7237C83.5312 55.4667 88.4227 56.1925 93.3142 56.8491C96.0646 57.2292 98.8498 57.4711 101.618 57.7649L107.171 58.1796C107.171 61.4799 107.171 64.6939 107.171 67.9079C107.202 68.3497 107.266 68.7886 107.362 69.2211V70.206L107.014 73.6619H96.1516C95.7066 73.6933 95.2644 73.7568 94.8286 73.852C94.7666 73.8731 94.6992 73.8731 94.6372 73.852C94.5002 74.2142 94.4067 74.5912 94.3586 74.9751C94.2658 84.3291 94.1846 93.6772 94.1149 103.02C94.1428 103.502 94.2068 103.981 94.3064 104.454V106.424C94.3064 108.739 94.1672 111.054 94.1149 113.335C94.1538 113.606 94.2361 113.868 94.3586 114.113C94.8205 114.235 95.2924 114.316 95.7686 114.355H137.007L135.945 114.804H135.841H135.719L134.431 115.011H134.326H134.204L132.933 115.219H132.829H132.707L131.436 115.426H131.332H131.21L129.939 115.634H129.835H129.713L128.425 115.841H128.321H128.199L126.928 116.048H126.823H126.475L125.205 116.256H125.1H124.978L123.708 116.463H123.586H123.464L122.193 116.67H122.071H121.949L120.679 116.878H120.557H120.435L119.164 117.102H119.042H118.921L117.65 117.31H117.528H117.406L116.153 117.534H116.031H115.909L114.638 117.759H114.516H114.395L113.124 117.984H113.002H112.88L111.627 118.208H111.383L110.13 118.433H109.886L108.633 118.657H108.511H108.389L107.136 118.882H106.892L105.639 119.107H105.395L104.142 119.331H103.898L102.645 119.556H102.401L101.13 120.886Z" fill="#044DA0"/>
<path d="M93.07 179.497C93.4704 180.361 93.8533 181.225 94.2537 182.072C97.106 188.091 100.448 193.87 104.246 199.351C106.979 203.291 109.955 207.075 112.949 210.859C117.264 216.186 121.971 221.188 127.032 225.823C130.27 228.916 133.821 231.698 137.354 234.463C140.453 236.882 143.691 239.18 146.963 241.375C149.836 243.293 152.882 244.83 155.789 246.783C156.917 247.536 158.41 247.466 159.462 246.61C163.466 244.174 167.574 241.876 171.403 239.18C175.964 235.983 180.438 232.631 184.633 229.003C189.221 225.059 193.608 220.889 197.776 216.51C201.153 212.95 204.129 208.993 207.141 205.105C210.912 200.173 214.26 194.937 217.15 189.45C218.891 186.202 220.283 182.746 221.85 179.393C221.899 179.369 221.957 179.369 222.007 179.393C223.591 179.393 225.175 179.393 226.759 179.497C227.178 179.568 227.588 179.69 227.977 179.86C223.792 188.952 218.702 197.606 212.781 205.693C209.038 210.876 204.982 215.715 200.874 220.536C198.03 223.835 195.015 226.984 191.84 229.97C185.898 235.761 179.436 241.001 172.535 245.625C167.957 248.615 163.152 251.224 158.47 254.04C157.889 254.42 157.136 254.42 156.555 254.04C149.63 250.232 142.981 245.948 136.658 241.219C129.083 235.497 122.018 229.138 115.543 222.212C110.516 216.89 105.863 211.232 101.617 205.278C96.7747 198.542 92.479 191.435 88.7704 184.024C88.0741 182.607 87.5344 181.104 86.9252 179.635L92.9133 179.411C92.9776 179.409 93.0379 179.442 93.07 179.497Z" fill="#C75305"/>
<path d="M101.373 57.9897C98.6048 57.6959 95.8197 57.4367 93.0693 57.0739C88.1778 56.4172 83.2863 55.6915 78.3949 54.9485C75.2964 54.4819 72.1978 53.9463 68.9949 53.4279C68.9949 53.929 68.9949 54.2919 68.9949 54.6547C68.9949 62.7415 68.9949 70.8282 69.2734 78.8459C69.4649 85.7576 69.7086 92.6694 70.3004 99.6675C70.9793 107.426 72.0412 115.219 73.016 122.908C73.1079 123.49 73.2299 124.067 73.3815 124.636V125.587C72.3545 125.759 71.3449 125.949 70.3178 126.088C69.5867 126.191 69.0123 126.26 68.8382 125.189C68.2638 121.509 67.4282 117.863 66.9408 114.182C66.3141 109.396 65.879 104.592 65.4438 99.7885C65.1827 96.9028 64.9912 94.0172 64.939 91.1488C64.6488 76.6111 64.3935 62.0734 64.173 47.5356C64.1673 47.432 64.1673 47.3282 64.173 47.2246C78.0989 51.6136 92.7037 52.0801 107.204 53.5834C107.204 55.0522 107.204 56.5036 107.204 57.9378L101.373 57.9897Z" fill="#C75305"/>
<path d="M241.556 124.671C242.912 118.253 243.785 111.744 244.167 105.197C244.707 96.8683 245.229 88.5223 245.525 80.1764C245.821 71.4503 245.821 62.7069 245.943 53.9808C245.923 53.7941 245.888 53.6092 245.838 53.4279C244.376 53.6525 242.931 53.8944 241.487 54.1018L216.838 57.5577C215.724 57.7132 214.61 57.8342 213.495 57.9551H207.734V53.6007C222.199 52.0974 236.734 51.6309 250.782 47.2246C250.782 47.4492 250.782 47.7948 250.782 48.1404C250.782 58.3353 250.782 68.5301 250.504 78.7249C250.364 84.9282 249.929 91.1315 249.546 97.3175C249.268 101.81 249.041 106.32 248.484 110.778C247.875 115.616 246.865 120.386 246.117 125.206C245.943 126.278 245.368 126.226 244.637 126.105C243.61 125.949 242.601 125.777 241.574 125.604C241.574 125.293 241.568 124.982 241.556 124.671Z" fill="#C75305"/>
<path d="M126.057 201.737V192.458C126.875 192.458 127.797 191.922 128.319 192.959C130.245 191.857 132.661 192.086 134.342 193.529C135.5 192.52 137.054 192.082 138.572 192.337C140.292 192.336 141.702 193.689 141.758 195.395C141.88 197.486 141.758 199.611 141.758 201.754H139.669C139.669 200.026 139.669 198.488 139.669 196.881C139.669 195.274 138.903 194.099 137.528 194.082C136.153 194.065 135.056 195.17 135.004 196.916C134.952 198.661 135.004 200.061 135.004 201.719H132.828C132.828 200.078 132.828 198.471 132.828 196.864C132.828 195.257 132.079 194.099 130.687 194.082C129.294 194.065 128.232 195.188 128.198 196.933C128.163 198.678 128.198 200.078 128.198 201.719L126.057 201.737Z" fill="white"/>
<path d="M188.445 201.961L186.374 201.477C186.2 201.453 186.025 201.453 185.851 201.477C184.7 201.66 183.536 201.747 182.37 201.736C180.988 201.581 179.945 200.421 179.945 199.041C179.945 197.661 180.988 196.5 182.37 196.345C183.606 196.224 184.842 196.345 186.078 196.345C186.182 194.859 185.59 194.081 184.337 194.064C183.591 194.008 182.844 194.157 182.178 194.496C180.89 195.325 180.438 194.634 180.194 193.615C182.136 192.048 184.839 191.802 187.035 192.993C187.725 193.566 188.177 194.372 188.306 195.256C188.567 197.399 188.445 199.559 188.445 201.961ZM186.252 197.641C185.231 197.658 184.213 197.751 183.205 197.917C182.721 198.091 182.356 198.493 182.231 198.989C182.328 199.485 182.64 199.915 183.084 200.164C183.868 200.502 184.777 200.379 185.442 199.846C186.108 199.312 186.42 198.456 186.252 197.624V197.641Z" fill="white"/>
<path d="M144.021 197.106C144.178 194.457 146.388 192.389 149.061 192.389C151.733 192.389 153.943 194.457 154.1 197.106C153.943 199.754 151.733 201.822 149.061 201.822C146.388 201.822 144.178 199.754 144.021 197.106ZM149.017 194.064C148.236 194.095 147.501 194.437 146.977 195.013C146.453 195.588 146.184 196.349 146.232 197.123C146.189 197.915 146.47 198.692 147.01 199.277C147.55 199.862 148.305 200.206 149.104 200.233C150.704 200.047 151.901 198.687 151.872 197.088C151.887 195.517 150.681 194.2 149.104 194.064H149.017Z" fill="white"/>
<path d="M163.396 200.234V201.841H155.04C155.229 201.147 155.504 200.48 155.858 199.854C157.286 197.988 158.8 196.173 160.437 194.152H155.406V192.579H163.57C163.348 193.297 163.045 193.986 162.665 194.635C161.272 196.467 159.775 198.229 158.156 200.234H163.396Z" fill="white"/>
<path d="M179.411 190.056L174.815 203.085H173.231C173.388 202.514 173.509 202.013 173.683 201.547C174.902 198.091 176.19 194.635 177.339 191.179C177.705 190.039 178.192 189.624 179.411 190.056Z" fill="white"/>
<path d="M174.659 190.056L169.994 203.067H168.41C168.567 202.497 168.688 201.996 168.863 201.512C170.081 198.056 171.369 194.6 172.518 191.144C172.936 190.038 173.475 189.624 174.659 190.056Z" fill="white"/>
<path d="M221.337 115.017C220.875 115.139 220.403 115.22 219.927 115.259H178.723L179.733 115.708L177 115.415V115L221.337 115.017Z" fill="#4D6784"/>
<path d="M135.604 114.691L136.666 114.242H95.41C94.9337 114.203 94.4619 114.122 94 114H138.076V114.415L135.604 114.691Z" fill="#4D6784"/>
<path d="M220.475 74.0938C220.614 74.5441 220.708 75.0072 220.754 75.4761C220.754 81.5584 220.754 87.5717 220.754 93.7404C220.754 96.9716 220.893 100.186 220.928 103.417C220.901 103.859 220.837 104.298 220.736 104.73C220.736 102.017 220.562 99.2871 220.527 96.5742C220.475 89.1268 220.475 81.6448 220.475 74.0938Z" fill="#4D6784"/>
<path d="M94.1153 104.765C94.0156 104.292 93.9516 103.813 93.9238 103.331C93.9935 93.9768 94.0747 84.6286 94.1675 75.2862C94.2156 74.9023 94.3091 74.5253 94.446 74.1631C94.446 81.2707 94.4054 88.384 94.3242 95.5031C94.3242 98.3139 94.3242 101.125 94.3242 103.935C94.2765 104.217 94.2067 104.494 94.1153 104.765Z" fill="#4D6784"/>
<path d="M167.713 193.684C167.731 194.067 167.571 194.436 167.278 194.686C166.986 194.936 166.594 195.038 166.216 194.963C165.38 194.963 164.876 194.531 164.876 193.667C164.876 192.803 165.485 192.337 166.442 192.354C167.4 192.371 167.696 192.838 167.713 193.684Z" fill="white"/>
<path d="M164.771 200.891C164.962 199.422 165.676 199.249 166.512 199.318C167.347 199.387 167.678 200.009 167.608 200.787C167.601 201.172 167.404 201.53 167.081 201.743C166.758 201.957 166.35 202 165.989 201.858C165.537 201.72 165.102 201.133 164.771 200.891Z" fill="white"/>
<path d="M94.6198 74.0942C95.0555 73.9991 95.4977 73.9355 95.9427 73.9041H106.805L107.153 70.4482L107.327 74.0942H94.6198Z" fill="#4D6784"/>
<path d="M207.716 70.4307L208.047 73.8865C208.447 73.8865 208.882 73.8865 209.317 73.8865H218.926C219.371 73.9179 219.813 73.9815 220.249 74.0766H207.49L207.716 70.4307Z" fill="#4D6784"/>
<path d="M101.374 57.9893H107.136C107.136 61.8253 107.136 65.6613 107.136 69.4973C107.04 69.0648 106.976 68.6259 106.944 68.1841C106.944 64.9701 106.944 61.7389 106.944 58.4558L101.374 57.9893Z" fill="#4D6784"/>
<path d="M207.734 57.9375H213.495C212.312 58.0239 211.128 58.1276 210.014 58.1967C209.405 58.1967 208.795 58.1967 208.012 58.1967C208.012 60.8404 208.012 63.3805 208.012 65.8515C208.012 67.0265 207.89 68.2187 207.821 69.3073C207.763 65.5865 207.734 61.7966 207.734 57.9375Z" fill="#4D6784"/>
<path d="M94.1492 114.476C94.0267 114.232 93.9444 113.969 93.9055 113.699C93.9055 111.383 94.0274 109.068 94.097 106.787L94.1492 114.476Z" fill="#4D6784"/>
<path d="M227.926 179.948C227.536 179.778 227.127 179.656 226.707 179.585C225.123 179.585 223.539 179.585 221.955 179.481C223.696 179.481 225.436 179.481 227.073 179.481C227.438 179.499 227.647 179.792 227.926 179.948Z" fill="#C75305"/>
<path d="M92.9133 179.499L86.9252 179.719C87.8826 179.719 88.84 179.532 89.7974 179.499C90.7548 179.465 91.8689 179.499 92.9133 179.499Z" fill="#C75305"/>
<path d="M73.2953 125.604V124.653L75.2797 125.137L73.2953 125.604Z" fill="#4D6784"/>
<path d="M241.556 124.671C241.556 124.982 241.556 125.293 241.556 125.604L239.554 125.137L241.556 124.671Z" fill="#4D6784"/>
<path d="M223.016 122.477L224.496 122.714L223.016 122.477Z" fill="#4D6784"/>
<path d="M88.8586 122.887L90.3383 122.649L88.8586 122.887Z" fill="#4D6784"/>
<path d="M224.531 122.649L226.011 122.887L224.531 122.649Z" fill="#4D6784"/>
<path d="M90.3547 122.645L91.8344 122.407L90.3547 122.645Z" fill="#4D6784"/>
<path d="M87.3605 123.146L88.8401 122.908L87.3605 123.146Z" fill="#4D6784"/>
<path d="M226.029 122.908L227.508 123.146L226.029 122.908Z" fill="#4D6784"/>
<path d="M85.8458 123.388L87.3255 123.15L85.8458 123.388Z" fill="#4D6784"/>
<path d="M227.525 123.15L229.005 123.388L227.525 123.15Z" fill="#4D6784"/>
<path d="M84.3494 123.629L85.829 123.392L84.3494 123.629Z" fill="#4D6784"/>
<path d="M229.04 123.392L230.519 123.629L229.04 123.392Z" fill="#4D6784"/>
<path d="M82.8348 123.888L84.3145 123.65L82.8348 123.888Z" fill="#4D6784"/>
<path d="M230.536 123.65L232.016 123.888L230.536 123.65Z" fill="#4D6784"/>
<path d="M81.3385 124.201L82.8181 123.963L81.3385 124.201Z" fill="#4D6784"/>
<path d="M232.051 123.893L233.53 124.13L232.051 123.893Z" fill="#4D6784"/>
<path d="M79.8403 124.389L81.32 124.151L79.8403 124.389Z" fill="#4D6784"/>
<path d="M233.549 124.204L235.028 124.442L233.549 124.204Z" fill="#4D6784"/>
<path d="M78.3257 124.632L79.8053 124.395L78.3257 124.632Z" fill="#4D6784"/>
<path d="M235.062 124.395L236.541 124.632L235.062 124.395Z" fill="#4D6784"/>
<path d="M76.8293 124.874L78.309 124.636L76.8293 124.874Z" fill="#4D6784"/>
<path d="M236.56 124.636L238.039 124.874L236.56 124.636Z" fill="#4D6784"/>
<path d="M75.3149 125.133L76.7946 124.896L75.3149 125.133Z" fill="#4D6784"/>
<path d="M238.074 124.896L239.554 125.133L238.074 124.896Z" fill="#4D6784"/>
<path d="M113.159 118.896L114.43 118.675L113.159 118.896Z" fill="#4D6784"/>
<path d="M198.941 118.434L200.195 118.654L198.941 118.434Z" fill="#4D6784"/>
<path d="M114.674 118.654L115.944 118.434L114.674 118.654Z" fill="#4D6784"/>
<path d="M191.405 117.189L192.676 117.393L191.405 117.189Z" fill="#4D6784"/>
<path d="M122.194 117.411L123.464 117.207L122.194 117.411Z" fill="#4D6784"/>
<path d="M189.89 116.947L191.161 117.151L189.89 116.947Z" fill="#4D6784"/>
<path d="M123.69 117.151L124.961 116.947L123.69 117.151Z" fill="#4D6784"/>
<path d="M188.394 116.705L189.665 116.909L188.394 116.705Z" fill="#4D6784"/>
<path d="M125.205 116.909L126.475 116.705L125.205 116.909Z" fill="#4D6784"/>
<path d="M186.896 116.446L188.166 116.65L186.896 116.446Z" fill="#4D6784"/>
<path d="M126.701 116.667L127.972 116.463L126.701 116.667Z" fill="#4D6784"/>
<path d="M185.381 116.204L186.652 116.408L185.381 116.204Z" fill="#4D6784"/>
<path d="M128.216 116.408L129.504 116.204L128.216 116.408Z" fill="#4D6784"/>
<path d="M183.92 115.944L185.19 116.148L183.92 115.944Z" fill="#4D6784"/>
<path d="M197.428 118.19L198.682 118.411L197.428 118.19Z" fill="#4D6784"/>
<path d="M129.714 116.166L130.984 115.962L129.714 116.166Z" fill="#4D6784"/>
<path d="M182.37 115.702L183.641 115.906L182.37 115.702Z" fill="#4D6784"/>
<path d="M116.17 118.395L117.423 118.174L116.17 118.395Z" fill="#4D6784"/>
<path d="M131.21 115.906L132.481 115.702L131.21 115.906Z" fill="#4D6784"/>
<path d="M180.874 115.461L182.145 115.665L180.874 115.461Z" fill="#4D6784"/>
<path d="M132.725 115.665L133.995 115.461L132.725 115.665Z" fill="#4D6784"/>
<path d="M179.359 115.201L180.647 115.405L179.359 115.201Z" fill="#4D6784"/>
<path d="M134.221 115.424L135.509 115.22L134.221 115.424Z" fill="#4D6784"/>
<path d="M195.914 117.932L197.185 118.136L195.914 117.932Z" fill="#4D6784"/>
<path d="M117.685 118.153L118.955 117.949L117.685 118.153Z" fill="#4D6784"/>
<path d="M194.364 117.689L195.635 117.893L194.364 117.689Z" fill="#4D6784"/>
<path d="M119.181 117.894L120.452 117.673L119.181 117.894Z" fill="#4D6784"/>
<path d="M192.901 117.447L194.172 117.651L192.901 117.447Z" fill="#4D6784"/>
<path d="M120.679 117.651L121.95 117.447L120.679 117.651Z" fill="#4D6784"/>
<path d="M96.621 121.626L97.8743 121.405L96.621 121.626Z" fill="#4D6784"/>
<path d="M216.994 121.405L218.248 121.626L216.994 121.405Z" fill="#4D6784"/>
<path d="M95.1411 121.885L96.3944 121.664L95.1411 121.885Z" fill="#4D6784"/>
<path d="M218.509 121.664L219.745 121.885L218.509 121.664Z" fill="#4D6784"/>
<path d="M93.61 122.127L94.8633 121.906L93.61 122.127Z" fill="#4D6784"/>
<path d="M220.005 121.906L221.241 122.127L220.005 121.906Z" fill="#4D6784"/>
<path d="M92.1136 122.386L93.367 122.165L92.1136 122.386Z" fill="#4D6784"/>
<path d="M221.52 122.165L222.773 122.386L221.52 122.165Z" fill="#4D6784"/>
<path d="M215.496 121.163L216.749 121.384L215.496 121.163Z" fill="#4D6784"/>
<path d="M98.119 121.384L99.3724 121.163L98.119 121.384Z" fill="#4D6784"/>
<path d="M213.981 120.921L215.234 121.142L213.981 120.921Z" fill="#4D6784"/>
<path d="M99.6335 121.125L100.887 120.904L99.6335 121.125Z" fill="#4D6784"/>
<path d="M212.485 120.748L213.738 120.969L212.485 120.748Z" fill="#4D6784"/>
<path d="M101.13 120.883L102.383 120.662L101.13 120.883Z" fill="#4D6784"/>
<path d="M210.97 120.421L212.224 120.642L210.97 120.421Z" fill="#4D6784"/>
<path d="M102.626 120.642L103.879 120.421L102.626 120.642Z" fill="#4D6784"/>
<path d="M209.474 120.179L210.727 120.4L209.474 120.179Z" fill="#4D6784"/>
<path d="M104.141 120.382L105.394 120.161L104.141 120.382Z" fill="#4D6784"/>
<path d="M207.959 119.919L209.213 120.14L207.959 119.919Z" fill="#4D6784"/>
<path d="M105.586 120.14L106.839 119.919L105.586 120.14Z" fill="#4D6784"/>
<path d="M206.461 119.678L207.715 119.899L206.461 119.678Z" fill="#4D6784"/>
<path d="M107.154 119.899L108.407 119.678L107.154 119.899Z" fill="#4D6784"/>
<path d="M204.949 119.435L206.202 119.655L204.949 119.435Z" fill="#4D6784"/>
<path d="M108.65 119.639L109.903 119.418L108.65 119.639Z" fill="#4D6784"/>
<path d="M203.45 119.177L204.704 119.398L203.45 119.177Z" fill="#4D6784"/>
<path d="M110.165 119.398L111.418 119.177L110.165 119.398Z" fill="#4D6784"/>
<path d="M201.936 118.934L203.189 119.154L201.936 118.934Z" fill="#4D6784"/>
<path d="M111.661 119.139L112.914 118.918L111.661 119.139Z" fill="#4D6784"/>
<path d="M200.439 118.675L201.71 118.896L200.439 118.675Z" fill="#4D6784"/>
<path d="M10.6321 141.182H15.1918V156.395C15.1918 157.801 14.8757 159.023 14.2436 160.06C13.6186 161.097 12.7486 161.896 11.6335 162.457C10.5185 163.018 9.2223 163.298 7.74503 163.298C6.43111 163.298 5.23793 163.067 4.16548 162.606C3.10014 162.137 2.25497 161.427 1.62997 160.475C1.00497 159.516 0.696023 158.312 0.703125 156.864H5.29474C5.30895 157.439 5.42614 157.933 5.64631 158.344C5.87358 158.749 6.18253 159.062 6.57315 159.282C6.97088 159.495 7.43963 159.602 7.9794 159.602C8.54759 159.602 9.02699 159.481 9.41761 159.239C9.81534 158.991 10.1172 158.629 10.3232 158.153C10.5291 157.677 10.6321 157.091 10.6321 156.395V141.182ZM26.3139 163.32C24.6591 163.32 23.228 162.968 22.0206 162.265C20.8203 161.555 19.8935 160.567 19.2401 159.303C18.5866 158.032 18.2599 156.558 18.2599 154.882C18.2599 153.192 18.5866 151.714 19.2401 150.45C19.8935 149.179 20.8203 148.192 22.0206 147.489C23.228 146.778 24.6591 146.423 26.3139 146.423C27.9688 146.423 29.3963 146.778 30.5966 147.489C31.804 148.192 32.7344 149.179 33.3878 150.45C34.0412 151.714 34.3679 153.192 34.3679 154.882C34.3679 156.558 34.0412 158.032 33.3878 159.303C32.7344 160.567 31.804 161.555 30.5966 162.265C29.3963 162.968 27.9688 163.32 26.3139 163.32ZM26.3352 159.804C27.0881 159.804 27.7166 159.591 28.2209 159.165C28.7251 158.732 29.1051 158.142 29.3608 157.396C29.6236 156.651 29.755 155.802 29.755 154.85C29.755 153.898 29.6236 153.05 29.3608 152.304C29.1051 151.558 28.7251 150.969 28.2209 150.536C27.7166 150.102 27.0881 149.886 26.3352 149.886C25.5753 149.886 24.9361 150.102 24.4176 150.536C23.9063 150.969 23.5192 151.558 23.2564 152.304C23.0007 153.05 22.8729 153.898 22.8729 154.85C22.8729 155.802 23.0007 156.651 23.2564 157.396C23.5192 158.142 23.9063 158.732 24.4176 159.165C24.9361 159.591 25.5753 159.804 26.3352 159.804ZM37.3189 163V146.636H41.8572V163H37.3189ZM39.5987 144.527C38.924 144.527 38.3452 144.303 37.8622 143.856C37.3864 143.401 37.1484 142.858 37.1484 142.226C37.1484 141.601 37.3864 141.065 37.8622 140.617C38.3452 140.163 38.924 139.935 39.5987 139.935C40.2734 139.935 40.8487 140.163 41.3246 140.617C41.8075 141.065 42.049 141.601 42.049 142.226C42.049 142.858 41.8075 143.401 41.3246 143.856C40.8487 144.303 40.2734 144.527 39.5987 144.527ZM50.0311 153.54V163H45.4927V146.636H49.818V149.523H50.0098C50.372 148.572 50.9792 147.819 51.8315 147.265C52.6838 146.704 53.7172 146.423 54.9316 146.423C56.068 146.423 57.0588 146.672 57.9039 147.169C58.7491 147.666 59.4061 148.376 59.8748 149.3C60.3436 150.216 60.5779 151.31 60.5779 152.581V163H56.0396V153.391C56.0467 152.389 55.791 151.608 55.2726 151.047C54.7541 150.479 54.0403 150.195 53.1312 150.195C52.5204 150.195 51.9806 150.326 51.5119 150.589C51.0502 150.852 50.688 151.235 50.4252 151.739C50.1696 152.237 50.0382 152.837 50.0311 153.54ZM83.0194 147.457C82.9341 146.597 82.5684 145.93 81.9221 145.454C81.2757 144.978 80.3986 144.74 79.2907 144.74C78.5378 144.74 77.9022 144.847 77.3837 145.06C76.8652 145.266 76.4675 145.553 76.1905 145.923C75.9206 146.292 75.7857 146.711 75.7857 147.18C75.7715 147.57 75.8532 147.911 76.0307 148.202C76.2154 148.494 76.4675 148.746 76.7871 148.959C77.1067 149.165 77.476 149.346 77.8951 149.502C78.3141 149.651 78.7615 149.779 79.2374 149.886L81.1976 150.354C82.1493 150.567 83.0229 150.852 83.8184 151.207C84.6138 151.562 85.3027 151.999 85.8851 152.517C86.4675 153.036 86.9185 153.646 87.2381 154.349C87.5648 155.053 87.7317 155.859 87.7388 156.768C87.7317 158.103 87.3908 159.261 86.7161 160.241C86.0485 161.214 85.0826 161.97 83.8184 162.51C82.5613 163.043 81.0449 163.309 79.2694 163.309C77.508 163.309 75.9739 163.039 74.6671 162.499C73.3674 161.96 72.3517 161.161 71.6202 160.102C70.8958 159.037 70.5158 157.719 70.4803 156.15H74.9441C74.9938 156.881 75.2033 157.492 75.5726 157.982C75.949 158.465 76.4498 158.831 77.0748 159.08C77.7069 159.321 78.4206 159.442 79.2161 159.442C79.9973 159.442 80.6756 159.328 81.2509 159.101C81.8333 158.874 82.2843 158.558 82.6039 158.153C82.9235 157.748 83.0833 157.283 83.0833 156.757C83.0833 156.267 82.9377 155.855 82.6465 155.521C82.3624 155.187 81.9434 154.903 81.3894 154.669C80.8425 154.435 80.1713 154.222 79.3759 154.03L77.0002 153.433C75.1607 152.986 73.7083 152.286 72.6429 151.335C71.5776 150.383 71.0485 149.101 71.0556 147.489C71.0485 146.168 71.4 145.013 72.1103 144.026C72.8276 143.039 73.8113 142.268 75.0613 141.714C76.3113 141.161 77.7317 140.884 79.3226 140.884C80.9419 140.884 82.3553 141.161 83.5627 141.714C84.7772 142.268 85.7218 143.039 86.3965 144.026C87.0712 145.013 87.4192 146.157 87.4405 147.457H83.0194ZM90.8416 163V141.182H99.4496C101.097 141.182 102.504 141.477 103.668 142.066C104.84 142.648 105.732 143.476 106.342 144.548C106.96 145.614 107.269 146.867 107.269 148.309C107.269 149.758 106.957 151.004 106.332 152.048C105.707 153.085 104.801 153.881 103.615 154.435C102.436 154.989 101.009 155.266 99.3324 155.266H93.5689V151.558H98.5866C99.4673 151.558 100.199 151.437 100.781 151.196C101.364 150.955 101.797 150.592 102.081 150.109C102.372 149.626 102.518 149.026 102.518 148.309C102.518 147.585 102.372 146.974 102.081 146.477C101.797 145.979 101.36 145.603 100.771 145.347C100.188 145.085 99.4531 144.953 98.5653 144.953H95.4545V163H90.8416ZM102.624 153.071L108.047 163H102.955L97.6491 153.071H102.624ZM110.529 141.182H116.218L122.227 155.841H122.482L128.491 141.182H134.18V163H129.705V148.799H129.524L123.878 162.893H120.831L115.185 148.746H115.004V163H110.529V141.182ZM137.98 163V141.182H142.593V150.802H142.881L150.732 141.182H156.262L148.165 150.951L156.357 163H150.839L144.862 154.03L142.593 156.8V163H137.98ZM158.43 163V160.262L169.317 144.985H158.408V141.182H175.113V143.92L164.214 159.197H175.134V163H158.43ZM183.287 141.182V163H178.674V141.182H183.287ZM187.082 163V141.182H191.695V159.197H201.048V163H187.082ZM204.103 163V141.182H208.716V159.197H218.07V163H204.103ZM225.442 163H220.499L228.031 141.182H233.975L241.497 163H236.554L231.088 146.168H230.918L225.442 163ZM225.133 154.424H236.809V158.025H225.133V154.424ZM269.316 141.182V163H265.331L255.839 149.268H255.679V163H251.066V141.182H255.115L264.532 154.903H264.724V141.182H269.316ZM280.435 163.32C278.78 163.32 277.349 162.968 276.142 162.265C274.941 161.555 274.015 160.567 273.361 159.303C272.708 158.032 272.381 156.558 272.381 154.882C272.381 153.192 272.708 151.714 273.361 150.45C274.015 149.179 274.941 148.192 276.142 147.489C277.349 146.778 278.78 146.423 280.435 146.423C282.09 146.423 283.517 146.778 284.718 147.489C285.925 148.192 286.855 149.179 287.509 150.45C288.162 151.714 288.489 153.192 288.489 154.882C288.489 156.558 288.162 158.032 287.509 159.303C286.855 160.567 285.925 161.555 284.718 162.265C283.517 162.968 282.09 163.32 280.435 163.32ZM280.456 159.804C281.209 159.804 281.838 159.591 282.342 159.165C282.846 158.732 283.226 158.142 283.482 157.396C283.745 156.651 283.876 155.802 283.876 154.85C283.876 153.898 283.745 153.05 283.482 152.304C283.226 151.558 282.846 150.969 282.342 150.536C281.838 150.102 281.209 149.886 280.456 149.886C279.696 149.886 279.057 150.102 278.539 150.536C278.027 150.969 277.64 151.558 277.377 152.304C277.122 153.05 276.994 153.898 276.994 154.85C276.994 155.802 277.122 156.651 277.377 157.396C277.64 158.142 278.027 158.732 278.539 159.165C279.057 159.591 279.696 159.804 280.456 159.804ZM294.258 163L289.805 146.636H294.396L296.932 157.631H297.081L299.723 146.636H304.229L306.914 157.567H307.053L309.545 146.636H314.126L309.684 163H304.879L302.067 152.709H301.864L299.052 163H294.258Z" fill="#F1F1F1"/>
</svg>
