<svg width="222" height="321" viewBox="0 0 222 321" fill="none" xmlns="http://www.w3.org/2000/svg">
<path d="M211.053 256.69C223.27 263.78 223.336 275.29 211.199 282.38L154.209 315.682C142.072 322.772 122.327 322.772 110.098 315.682L52.7349 282.38C40.5187 275.29 40.4523 263.78 52.5888 256.69L109.58 223.388C121.716 216.298 141.461 216.298 153.691 223.388L211.053 256.69Z" fill="#FF644E" fill-opacity="0.8"/>
<g clip-path="url(#clip0_166_161)">
<path d="M190.303 171.613C202.52 178.681 202.586 190.156 190.449 197.225L133.455 230.425C121.318 237.494 101.572 237.494 89.3418 230.425L31.9761 197.225C19.7593 190.156 19.6929 178.681 31.83 171.613L88.8239 138.413C100.961 131.344 120.707 131.344 132.937 138.413L190.303 171.613Z" stroke="white" stroke-miterlimit="10"/>
<path d="M210.434 151.086L138.913 192.752C123.682 201.631 98.9028 201.631 83.5654 192.752L11.5794 151.086C3.86425 146.613 3.42248e-05 140.756 0.0265924 134.898L3.42245e-05 143.192C-0.0132449 149.049 3.83769 154.906 11.5529 159.379L83.5389 201.045C98.8762 209.925 123.655 209.925 138.886 201.045L210.407 159.379C217.976 154.973 221.761 149.195 221.788 143.418L221.814 135.125C221.801 140.902 218.003 146.68 210.434 151.086Z" fill="#A6D0F4"/>
<path d="M210.461 118.964C225.798 127.843 225.878 142.22 210.646 151.099L139.152 192.752C123.921 201.631 99.1551 201.631 83.8178 192.752L11.8451 151.085C-3.49231 142.206 -3.57199 127.829 11.6591 118.95L83.1538 77.3107C98.3849 68.4316 123.15 68.4316 138.488 77.3107L210.447 118.964H210.461Z" fill="white"/>
<g clip-path="url(#clip1_166_161)">
<path d="M133.721 231.078C134.305 231.411 135.022 231.424 135.606 231.078L138.448 229.427C139.696 228.708 139.696 226.898 138.448 226.166C137.864 225.833 137.147 225.82 136.562 226.166L133.721 227.816C132.472 228.535 132.472 230.346 133.721 231.078Z" fill="white"/>
<path d="M142.684 225.899C143.268 226.232 143.985 226.245 144.57 225.899L181.313 204.626C182.561 203.908 182.561 202.097 181.313 201.365C180.729 201.019 180.011 201.019 179.427 201.365L142.684 222.638C141.436 223.356 141.436 225.167 142.684 225.899Z" fill="white"/>
</g>
</g>
<g clip-path="url(#clip2_166_161)">
<path d="M73.3518 17.7449L73.3252 15.2195C73.3252 15.2195 72.833 10.2881 73.3518 9.67666C73.8706 9.06523 75.2674 9.13169 75.2674 9.13169C75.2674 9.13169 76.4247 6.72583 77.8879 7.00496C79.3512 7.28409 79.9232 10.102 80.2691 12.0825C80.6149 14.063 78.7526 16.429 78.7526 16.429L77.6618 19.0476L73.3651 17.7449H73.3518Z" fill="#FF9554"/>
<path d="M54.6353 50.2305C54.6353 50.2305 64.2795 40.2615 66.2749 36.2739C67.9111 33.004 70.3454 23.8325 71.7688 17.7846C72.1546 16.1231 73.8839 15.1395 75.5068 15.6712C76.0788 15.8573 76.6774 16.163 77.2494 16.6681C78.9122 18.9942 78.2471 20.3234 78.2471 20.3234C78.2471 20.3234 77.5819 35.9416 75.9191 39.9292C74.2563 43.9168 62.6167 60.8642 58.9586 60.8642C55.3004 60.8642 51.3097 57.5412 54.6353 50.2305Z" fill="#E1E8F2"/>
<path d="M69.3611 171.84C86.9932 171.84 101.287 162.913 101.287 151.902C101.287 140.89 86.9932 131.964 69.3611 131.964C51.729 131.964 37.4353 140.89 37.4353 151.902C37.4353 162.913 51.729 171.84 69.3611 171.84Z" fill="#CBDCEB"/>
<path d="M55.7128 147.223L55.4335 151.105C55.3936 151.729 55.7394 152.314 56.3114 152.554C56.8435 152.779 57.6151 152.939 58.6261 152.793C60.8609 152.447 61.8851 151.251 62.231 150.56C62.5769 149.869 67.0332 146.785 66.5144 145.243C65.663 143.701 64.1199 145.243 62.5636 145.243C61.0072 145.243 57.7614 144.472 55.6995 147.21L55.7128 147.223Z" fill="#171E26"/>
<path d="M56.7504 87.6749C56.7504 87.6749 55.7261 113.887 56.2316 122.115C56.2316 122.115 54.1697 142.677 55.2073 147.556C55.2073 147.556 58.8123 150.121 61.8984 148.074C62.67 147.821 62.67 146.785 62.67 146.785C62.67 146.785 64.7318 127.511 65.2373 121.596C65.7561 115.681 69.8666 97.9496 69.095 94.095C68.3235 90.2403 63.4415 84.8437 56.7504 87.6749Z" fill="#171E26"/>
<path d="M73.3385 152.7C73.3385 152.7 71.9284 157.073 72.9527 158.096C73.977 159.12 75.2673 159.385 76.2118 159.08C77.1563 158.774 78.0608 158.349 78.0608 158.349L78.3668 157.445L78.7127 158.043C78.7127 158.043 79.2314 157.963 79.9099 157.578C80.6016 157.192 82.5704 156.421 83.3818 155.903C84.1932 155.385 85.6565 154.494 85.7762 153.377C85.856 152.261 81.8786 152.646 80.8011 152.686C79.7236 152.726 79.0452 152.301 78.6594 152.301C78.2737 152.301 74.11 152.819 74.11 152.819" fill="#171E26"/>
<path d="M79.8567 87.1827C79.8567 87.1827 80.9342 91.0906 80.9342 98.9861C80.9342 106.882 80.2425 126.74 80.2425 126.74C80.2425 126.74 79.8966 146.957 79.5507 152.101C79.5507 152.101 77.1563 155.185 73.0326 152.792C70.9707 150.4 71.6624 148.685 71.6624 148.685C71.6624 148.685 68.9221 136.35 69.9464 125.038C69.9464 125.038 66.1685 102.083 65.4901 99.3317C64.7984 96.5935 52.8395 95.4105 57.522 82.0254L79.8567 87.196V87.1827Z" fill="#1F2F3F"/>
<path d="M56.4045 83.8992C56.7371 82.8757 56.9499 81.2009 56.9765 79.6989C56.8169 76.5753 56.4045 73.1858 55.8059 71.2717C54.3826 66.779 53.3317 62.3926 53.0257 58.4715C52.5202 51.9982 55.7128 47.0802 61.0072 47.572C62.9094 47.7448 66.4612 49.6588 69.8932 51.4666C72.6601 52.9287 76.9301 55.5738 80.0695 57.674C81.4929 58.6177 82.3176 60.2393 82.2378 61.954C82.1314 64.5327 81.9185 67.55 81.6791 70.1685C81.4131 73.0263 80.5484 79.3134 80.1094 83.5802C80.1094 83.5802 81.5594 87.4615 81.5594 90.4522C81.5594 93.4429 75.5733 94.7721 73.9105 95.1044C72.2477 95.4367 65.9291 95.4367 60.9407 93.4429C55.9523 91.4491 54.8482 88.671 56.3912 83.9125L56.4045 83.8992Z" fill="#F9FBFC"/>
<path d="M76.6907 45.8977C77.2228 44.2495 77.3957 37.5503 76.7306 35.2109C75.8793 32.2202 72.966 29.6149 68.6029 29.8276C64.4126 30.027 61.3264 31.8746 60.3022 34.9982C59.6902 36.8458 59.8366 40.0891 60.954 42.4285C61.7122 44.0102 63.4282 45.4192 65.3172 46.4161C66.6341 47.1737 70.3588 48.8884 72.1945 49.4334C74.3362 50.0581 75.9192 48.3036 76.6907 45.911V45.8977Z" fill="#FF9554"/>
<path d="M64.3594 44.7413C66.4611 43.9039 71.2766 44.8078 72.9527 46.1902C72.9527 46.1902 71.2899 52.8628 71.2766 52.8628C68.2171 53.0223 63.8539 51.4937 62.8163 50.2443L64.3727 44.7413H64.3594Z" fill="#FF9554"/>
<path d="M72.9527 41.6181C72.0748 40.4351 70.3188 40.8604 70.3188 42.7479C70.3188 44.9544 71.822 46.1905 72.9527 46.1905C72.9527 44.7816 73.0059 43.3062 72.9527 41.6181Z" fill="#FF9554"/>
<path d="M63.4415 48.1705C63.4415 48.1705 65.929 50.3105 71.8486 51.1745L72.966 53.1417C72.966 53.1417 70.4784 53.9127 67.5652 53.5671C64.652 53.2215 62.2443 50.9087 61.9915 50.3903L61.7388 49.8719L63.4548 48.1572L63.4415 48.1705Z" fill="#F9FBFC"/>
<path d="M58.799 36.5266C58.799 36.5266 58.2403 31.3427 63.0025 29.1628C67.7648 26.9829 73.977 28.4317 76.4246 31.7813C78.1007 34.6125 75.7861 36.9254 75.2673 37.9488C74.7485 38.9723 75.2673 41.0326 74.7485 41.8035C74.2297 42.5745 74.8816 43.7309 74.8816 43.7309L73.977 44.5018C73.977 44.5018 73.0724 42.827 72.5669 42.4416C72.0481 42.0561 70.4652 43.4651 70.811 44.8341C71.1569 46.2032 72.4339 46.9742 72.4339 46.9742C72.4339 46.9742 71.9151 47.3198 71.4096 47.6653C70.8908 48.0109 69.8666 48.2635 68.2437 48.2635C66.6208 48.2635 64.386 47.4925 63.5213 46.9742C62.67 46.4558 60.0893 44.5816 59.065 42.3485C58.0407 40.1155 57.7747 37.9754 58.8123 36.5266H58.799Z" fill="#673E29"/>
<path d="M94.3696 19.3268L94.7021 16.3361C94.7021 16.3361 94.7021 13.1725 95.0347 12.1889C95.3672 11.2053 96.6975 11.192 96.6975 11.192C96.6975 11.192 98.8525 8.86592 99.5176 8.69312C100.183 8.52032 101.513 11.3515 101.673 12.3484C101.832 13.3453 102.005 16.8412 101.513 17.5058C101.021 18.1704 99.0254 19.3401 99.0254 19.3401L98.3603 21.1744L94.3696 19.3401V19.3268Z" fill="#FF9554"/>
<path d="M73.9238 60.5319C73.9238 60.5319 83.5681 50.5629 85.5634 46.5753C87.1996 43.3054 91.2968 26.1587 92.7201 20.1108C93.1059 18.4493 94.8352 17.4657 96.4581 17.9973C97.0301 18.1834 97.6287 18.4891 98.2007 18.9942C99.8635 21.3204 99.1984 22.6496 99.1984 22.6496C99.1984 22.6496 96.8705 46.243 95.2077 50.2306C93.5449 54.2182 81.9053 71.1656 78.2471 71.1656C74.5889 71.1656 70.5982 67.8426 73.9238 60.5319Z" fill="#F9FBFC"/>
</g>
<path d="M142.816 125.551C162.204 129.852 178.939 128.75 180.195 123.089C181.451 117.427 166.752 109.351 147.364 105.049C127.976 100.748 111.241 101.85 109.985 107.511C108.729 113.173 123.428 121.249 142.816 125.551Z" fill="#CBDCEB"/>
<path d="M116.711 46.0282L110.287 48.1614C110.499 48.0902 110.727 48.0547 110.974 48.0369C111.22 48.0369 111.449 47.9836 111.66 47.9125L118.084 45.7793C117.873 45.8504 117.644 45.886 117.398 45.9037C117.151 45.9037 116.922 45.9571 116.711 46.0282Z" fill="#FF8D02"/>
<path d="M133.343 112.175C133.096 112.371 132.832 112.513 132.568 112.602L138.992 110.469C139.256 110.38 139.52 110.237 139.767 110.042C140.013 109.846 140.259 109.704 140.541 109.615L134.117 111.748C133.853 111.837 133.589 111.98 133.343 112.175Z" fill="#FF8D02"/>
<path d="M123.188 36.0203C122.572 35.7892 121.991 35.7892 121.498 35.9492L115.074 38.0824C115.585 37.9224 116.166 37.9224 116.764 38.1535C117.362 38.3846 117.943 38.3846 118.454 38.2246L124.877 36.0914C124.367 36.2692 123.786 36.2514 123.188 36.0203Z" fill="#FF8D02"/>
<path d="M143.867 115.926C143.498 116.584 143.005 116.993 142.442 117.171L148.866 115.038C149.429 114.86 149.922 114.451 150.291 113.793C150.661 113.153 151.154 112.744 151.717 112.549L145.293 114.682C144.73 114.878 144.219 115.286 143.867 115.926Z" fill="#FF8D02"/>
<path d="M132.181 29.9944C131.917 29.8699 131.671 29.71 131.407 29.5144C131.143 29.3011 130.879 29.1411 130.615 29.0167C129.964 28.7145 129.295 28.6789 128.732 28.8745L122.308 31.0076C122.889 30.8121 123.54 30.8477 124.191 31.1499C124.455 31.2743 124.719 31.4343 124.983 31.6476C125.229 31.8609 125.493 32.0209 125.757 32.1276C126.409 32.4298 127.077 32.4653 127.658 32.2698L134.082 30.1366C133.501 30.3321 132.832 30.2966 132.181 29.9944Z" fill="#FF8D02"/>
<path d="M156.046 113.1C155.166 113.384 154.462 114.202 154.216 115.446C153.952 116.709 153.248 117.491 152.385 117.775L158.809 115.642C159.672 115.358 160.376 114.558 160.64 113.313C160.904 112.069 161.608 111.269 162.47 110.967L156.046 113.1Z" fill="#FF8D02"/>
<path d="M182.058 75.8399C180.334 74.08 180.017 70.9869 181.39 69.4048C183.061 67.4849 182.182 63.5386 179.77 62.2231C177.799 61.1387 176.761 58.1523 177.606 56.0013C178.521 53.6903 177.254 50.5972 175.247 49.6728C174.983 49.5484 174.702 49.4595 174.42 49.424C174.139 49.3884 173.875 49.2995 173.611 49.1751C171.974 48.4107 170.759 46.1886 170.953 44.0199C171.164 41.7801 169.897 39.5935 168.295 38.8647C167.715 38.5981 167.099 38.5269 166.5 38.6869C165.902 38.8469 165.286 38.7758 164.705 38.5092C163.438 37.9225 162.364 36.4471 162.083 34.6517C161.801 32.8029 160.692 31.363 159.461 30.7941C158.845 30.5097 158.176 30.4386 157.577 30.6342L154.797 31.5585C154.568 31.5052 154.339 31.4519 154.11 31.3452C153.195 30.9186 152.35 30.0298 151.858 28.7854C151.347 27.5233 150.52 26.6522 149.622 26.2256C148.971 25.9234 148.302 25.87 147.686 26.0656L142.125 27.9143C141.826 27.6655 141.544 27.3811 141.28 27.0077C140.805 26.3322 140.242 25.87 139.661 25.6034C139.01 25.3012 138.341 25.2479 137.743 25.4612L131.319 27.5944C131.917 27.3988 132.586 27.4344 133.237 27.7366C133.818 28.0032 134.364 28.4654 134.856 29.1409C135.332 29.7987 135.895 30.2609 136.476 30.5275C137.127 30.8297 137.795 30.883 138.394 30.6875L143.938 28.8565C144.536 29.3365 145.064 30.0298 145.416 30.9186C145.926 32.1629 146.754 33.0518 147.669 33.4784C148.302 33.7806 148.971 33.8339 149.587 33.6384L152.35 32.714C152.579 32.7673 152.79 32.8207 153.019 32.9273C154.251 33.4962 155.36 34.9361 155.641 36.7848C155.923 38.5803 156.997 40.0557 158.264 40.6424C158.845 40.909 159.461 40.9979 160.059 40.8201C160.657 40.6601 161.273 40.7312 161.854 40.9979C163.456 41.7445 164.723 43.9132 164.512 46.1531C164.3 48.3218 165.515 50.5439 167.169 51.3083C167.433 51.4327 167.697 51.5038 167.979 51.5572C168.26 51.5927 168.542 51.6816 168.806 51.806C170.812 52.7304 172.079 55.8235 171.164 58.1345C170.319 60.2854 171.358 63.2719 173.329 64.3563C175.722 65.6717 176.602 69.6181 174.948 71.538C173.575 73.1201 173.892 76.2132 175.617 77.9731C177.711 80.1241 177.641 83.9994 175.494 85.0482C173.716 85.9014 173.294 88.799 174.596 91.0922C175.793 93.1898 175.494 95.643 174.227 96.7451L172.062 97.4562C170.495 97.9717 169.703 100.105 170.372 102.38C170.707 103.536 170.671 104.62 170.372 105.473L165.286 107.162C164.089 107.553 163.262 108.94 163.35 110.771C163.456 112.655 162.593 113.988 161.414 114.379L167.838 112.246C169.017 111.855 169.879 110.522 169.774 108.638C169.739 107.98 169.827 107.376 170.02 106.86L175.107 105.171C176.62 104.673 177.5 102.594 176.814 100.247C176.268 98.4161 176.708 96.6918 177.711 95.803L179.876 95.0741C181.794 94.4342 182.463 91.4122 181.038 88.9412C179.735 86.6481 180.175 83.7505 181.935 82.8972C184.082 81.8484 184.153 77.9731 182.058 75.8221V75.8399ZM142.917 28.4121C142.759 28.341 142.6 28.2521 142.442 28.1454C142.688 28.181 142.952 28.2521 143.199 28.3765C143.339 28.4476 143.498 28.5365 143.639 28.6432C143.392 28.6076 143.163 28.5365 142.917 28.4299V28.4121Z" fill="#FF8D02"/>
<path d="M153.037 32.927C154.269 33.4959 155.377 34.9358 155.659 36.7846C155.941 38.58 157.014 40.0554 158.281 40.6421C158.862 40.9087 159.478 40.9976 160.076 40.8198C160.675 40.6421 161.291 40.731 161.872 40.9976C163.473 41.7442 164.74 43.913 164.529 46.1528C164.318 48.3215 165.532 50.5436 167.187 51.308C167.451 51.4324 167.715 51.5035 167.996 51.5569C168.278 51.5924 168.559 51.6813 168.823 51.8057C170.83 52.7301 172.097 55.8232 171.182 58.1342C170.337 60.2852 171.375 63.2716 173.347 64.356C175.74 65.6715 176.62 69.6179 174.966 71.5377C173.593 73.1198 173.91 76.2129 175.634 77.9728C177.729 80.1238 177.658 83.9991 175.511 85.0479C173.734 85.9012 173.311 88.7987 174.614 91.0919C176.198 93.8651 175.177 97.2959 172.766 97.3493C170.777 97.4026 169.633 99.8202 170.39 102.398C171.305 105.509 169.439 108.175 166.993 107.251C164.969 106.486 163.227 108.193 163.368 110.788C163.508 113.597 161.555 115.179 159.531 114.255C159.267 114.13 159.003 113.97 158.757 113.757C158.51 113.544 158.246 113.384 157.982 113.259C156.345 112.495 154.673 113.401 154.251 115.446C153.811 117.579 152.086 118.361 150.485 117.632C149.922 117.366 149.358 116.903 148.883 116.246C148.408 115.588 147.845 115.126 147.264 114.841C145.997 114.255 144.659 114.61 143.92 115.926C143.163 117.295 141.808 117.579 140.559 117.01C139.661 116.601 138.816 115.73 138.323 114.468C137.813 113.224 136.986 112.335 136.071 111.908C135.156 111.482 134.17 111.535 133.396 112.175C132.604 112.833 131.636 112.868 130.738 112.459C129.506 111.89 128.397 110.451 128.116 108.602C127.834 106.806 126.761 105.331 125.493 104.744C124.913 104.478 124.297 104.389 123.698 104.567C123.1 104.727 122.484 104.655 121.903 104.389C120.302 103.642 119.034 101.473 119.246 99.2336C119.457 97.0648 118.242 94.8428 116.606 94.0784C116.342 93.9539 116.078 93.8651 115.796 93.8295C115.514 93.794 115.233 93.7051 114.986 93.5806C112.963 92.6385 111.713 89.5631 112.611 87.2522C113.455 85.1012 112.399 82.1148 110.446 81.0304C108.052 79.6972 107.172 75.7685 108.827 73.8487C110.199 72.2666 109.883 69.1734 108.158 67.3958C106.063 65.2448 106.134 61.3695 108.281 60.3385C110.059 59.4852 110.481 56.5876 109.179 54.2945C107.595 51.5213 108.615 48.0904 111.044 48.0193C113.033 47.966 114.177 45.5484 113.42 42.9886C112.505 39.8599 114.37 37.2112 116.834 38.1356C118.858 38.9 120.601 37.2112 120.46 34.598C120.302 31.8071 122.273 30.2072 124.279 31.1316C124.543 31.2561 124.807 31.416 125.071 31.6294C125.317 31.8427 125.581 32.0027 125.845 32.1093C127.482 32.8737 129.154 31.9849 129.594 29.9228C130.034 27.7896 131.759 26.9897 133.343 27.7363C133.924 28.0029 134.469 28.4651 134.962 29.1406C135.437 29.7984 136 30.2606 136.581 30.5272C137.848 31.1138 139.186 30.7583 139.943 29.4428C140.699 28.074 142.055 27.7718 143.304 28.3585C144.202 28.7673 145.029 29.6384 145.539 30.9183C146.05 32.1627 146.877 33.0515 147.792 33.4781C148.707 33.9048 149.693 33.8514 150.467 33.2115C151.259 32.5537 152.227 32.5182 153.125 32.927H153.037Z" fill="#FFC757"/>
<g clip-path="url(#clip3_166_161)">
<path d="M146.937 47.5566C147.83 47.8603 148.66 48.3222 149.385 48.9196C149.954 49.4067 150.464 49.9644 151.021 50.5104L151.192 49.8819H151.276C152.183 51.2828 152.603 52.9378 152.47 54.5954L153.091 54.1673C153.091 54.7132 153.131 55.2356 153.091 55.7384C153.001 56.826 152.797 57.9015 152.482 58.9475C151.986 60.5877 151.175 62.1185 150.093 63.4567C149.323 64.4222 148.409 65.2671 147.383 65.9627C146.473 66.5485 145.447 66.9344 144.373 67.0939C143.513 67.2391 142.642 67.3153 141.77 67.3217C140.141 67.3011 138.533 66.9537 137.045 66.3005C136.194 65.9579 135.392 65.5091 134.657 64.965C133.435 64.0242 132.498 62.7719 131.946 61.3435C131.474 60.1435 131.197 58.8775 131.126 57.5924C131.062 56.6915 131.085 55.7867 131.193 54.89C131.198 54.8154 131.198 54.7407 131.193 54.6661C131.17 54.6661 131.15 54.6661 131.138 54.6661L130.74 54.8664C130.705 54.7384 130.689 54.6061 130.692 54.4736C130.863 53.5388 131.217 52.7022 132.089 52.1798C132.248 52.0855 132.22 51.9598 132.208 51.8145C132.1 50.9089 132.185 49.9909 132.459 49.1199C132.553 48.7637 132.779 48.4552 133.092 48.2558C133.18 48.2152 133.27 48.1811 133.363 48.1537C133.442 48.6761 133.431 49.1906 133.761 49.6031C133.778 49.8031 133.893 49.9822 134.07 50.0825C134.246 50.1827 134.461 50.1915 134.645 50.1058C134.69 50.0914 134.737 50.0821 134.784 50.0783C135.449 50.0273 136.113 49.988 136.774 49.9212C136.937 49.906 137.092 49.8415 137.216 49.7366C137.575 49.3883 138.017 49.1344 138.502 48.9982C138.836 48.9157 139.186 48.8843 139.533 48.8293L139.557 48.9275C139.413 49.0414 139.222 49.1278 139.139 49.2771C138.877 49.7179 138.645 50.1759 138.446 50.6479C138.258 51.0708 138.431 51.5654 138.844 51.783C139.479 52.2272 140.222 52.4982 140.998 52.5686C141.209 52.5882 141.248 52.6864 141.205 52.875C141.085 53.2102 140.844 53.49 140.528 53.6606C140.194 53.9041 139.815 54.0926 139.449 54.3087C139.785 54.7603 139.918 55.3287 139.815 55.8798C139.78 56.1155 139.72 56.1705 139.469 56.1076C139.02 55.9943 138.562 55.9194 138.1 55.8837C137.702 55.8562 137.503 56.0762 137.57 56.3629C137.733 57.3706 138.482 58.1893 139.481 58.4526C139.96 58.6224 140.49 58.5795 140.934 58.3347C141.359 58.0955 141.822 57.9295 142.303 57.8437C143.072 57.7439 143.807 58.1875 144.067 58.9082C143.212 59.058 142.434 59.4901 141.861 60.1337C141.575 60.4539 141.183 60.6629 140.755 60.7229C140.273 60.8093 139.784 60.8329 139.282 60.8879C140.15 61.6192 141.169 62.1553 142.267 62.459C143.136 62.698 144.063 62.6156 144.875 62.2273C145.731 61.7739 146.426 61.0719 146.865 60.2162C147.02 59.9373 147.16 59.6506 147.307 59.3678H147.394L147.526 60.6168C147.704 60.346 147.866 60.0653 148.011 59.7763C148.349 58.8864 148.485 57.9346 148.41 56.9875C148.41 56.5947 148.37 56.2294 148.35 55.8091C148.839 55.9505 148.943 56.3629 149.146 56.7439C149.727 55.377 149.373 54.0808 148.999 52.7886L149.062 52.7257L149.811 53.0125C149.642 51.9756 149.071 51.0444 148.218 50.4161C147.523 49.9298 146.751 49.5608 145.934 49.3242C145.85 49.2967 145.786 49.2024 145.711 49.1396C145.786 49.0649 145.846 48.955 145.938 48.9275C146.147 48.8715 146.36 48.8282 146.574 48.7978C146.22 48.0476 145.464 48.0123 144.851 47.7138C145.145 47.6332 145.446 47.5819 145.75 47.5606C146.137 47.5763 146.539 47.5724 146.937 47.5566Z" fill="#C75305"/>
<path d="M146.937 47.5559C146.539 47.5559 146.14 47.5559 145.742 47.6031C145.438 47.6244 145.137 47.6757 144.843 47.7563C145.452 48.0548 146.212 48.0901 146.566 48.8403C146.352 48.8707 146.139 48.914 145.93 48.97C145.842 49.0014 145.778 49.1114 145.703 49.1821C145.774 49.2449 145.838 49.3392 145.926 49.3667C146.743 49.6033 147.515 49.9723 148.21 50.4586C149.063 51.0869 149.634 52.0181 149.803 53.055L149.054 52.7682L148.991 52.8311C149.365 54.1273 149.719 55.4195 149.138 56.7864C148.939 56.3937 148.835 56.0009 148.342 55.8516C148.362 56.2444 148.39 56.6372 148.401 57.03C148.477 57.9771 148.341 58.9289 148.003 59.8188C147.858 60.1078 147.696 60.3885 147.518 60.6593L147.386 59.4103H147.299C147.152 59.6931 147.012 59.9798 146.857 60.2587C146.418 61.1144 145.723 61.8164 144.867 62.2698C144.055 62.6581 143.128 62.7405 142.259 62.5015C141.16 62.1978 140.142 61.6617 139.274 60.9303C139.776 60.8754 140.265 60.8518 140.747 60.7654C141.175 60.7054 141.567 60.4964 141.853 60.1762C142.426 59.5326 143.204 59.1005 144.059 58.9507C143.799 58.23 143.064 57.7864 142.295 57.8862C141.814 57.972 141.351 58.138 140.926 58.3772C140.482 58.622 139.952 58.6649 139.473 58.4951C138.474 58.2318 137.725 57.4131 137.562 56.4054C137.495 56.1187 137.702 55.8987 138.092 55.9262C138.554 55.9619 139.012 56.0368 139.461 56.1501C139.712 56.209 139.772 56.1501 139.807 55.9223C139.91 55.3712 139.777 54.8028 139.441 54.3512C139.807 54.1351 140.186 53.9584 140.52 53.7031C140.836 53.5325 141.077 53.2527 141.197 52.9175C141.24 52.7329 141.197 52.6347 140.99 52.6111C140.214 52.5407 139.471 52.2697 138.836 51.8255C138.423 51.6079 138.25 51.1133 138.438 50.6904C138.637 50.2184 138.868 49.7604 139.131 49.3196C139.214 49.1742 139.405 49.0839 139.549 48.97L139.525 48.8718C139.182 48.9268 138.832 48.9582 138.494 49.0407C138.009 49.1769 137.567 49.4308 137.208 49.7791C137.083 49.884 136.929 49.9485 136.766 49.9637C136.105 50.0305 135.441 50.0698 134.776 50.1208C134.729 50.1246 134.682 50.1339 134.637 50.1483C134.453 50.234 134.238 50.2252 134.061 50.125C133.885 50.0247 133.77 49.8456 133.753 49.6456C134.676 48.7596 135.738 48.0262 136.898 47.4734C138.082 46.9003 139.362 46.5411 140.675 46.4129C142.83 46.2058 145 46.602 146.937 47.5559Z" fill="#044DA0"/>
<path d="M127.181 87.0078H133.996V87.0549L130.763 88.1626C130.935 88.4729 131.09 88.7754 131.265 89.066C132.311 90.8304 133.537 92.4848 134.923 94.0034C136.823 96.1329 139.112 97.8905 141.67 99.1842C141.816 99.2673 141.994 99.276 142.148 99.2078C143.205 98.7745 144.187 98.1808 145.058 97.4481C145.854 96.7882 146.65 96.1048 147.382 95.3742C148.853 93.91 150.219 92.3469 151.471 90.6961C152.143 89.8045 152.808 88.9089 153.461 88.0173C153.482 87.9771 153.499 87.935 153.513 87.8916L150.869 87.0628V87.0157H156.59C156.235 87.7777 155.917 88.5633 155.515 89.3017C154.854 90.5489 154.088 91.7393 153.226 92.8603C152.533 93.7441 151.857 94.6436 151.084 95.4527C150.131 96.4483 149.128 97.3961 148.079 98.2926C147.116 99.1174 146.089 99.8637 145.054 100.606C144.178 101.215 143.239 101.737 142.323 102.295C142.083 102.49 141.741 102.506 141.483 102.334C140.822 101.906 140.122 101.549 139.465 101.105C138.717 100.606 137.976 100.088 137.268 99.5338C136.472 98.9053 135.648 98.273 134.907 97.5699C133.75 96.5161 132.674 95.3792 131.687 94.1683C131.014 93.3081 130.334 92.4479 129.697 91.5524C128.828 90.3065 128.064 88.9928 127.412 87.6245C127.36 87.4006 127.257 87.2003 127.181 87.0078Z" fill="#044DA0"/>
<path d="M150.344 72.9576H150.316L150.026 72.9104H149.998H149.97L149.679 72.8633H149.652H149.624L149.333 72.8161H149.305H149.281L148.991 72.769H148.963H148.939L148.648 72.7219H148.621H148.597L148.306 72.6747H148.278H148.254L147.964 72.6276H147.936H147.912L147.621 72.5805H147.558H147.534L147.243 72.5333H147.215H147.192L146.897 72.4862H146.869H146.845L146.614 72.3841H156.036C156.145 72.3752 156.253 72.3568 156.359 72.3291V70.5733V70.1256C156.382 70.0275 156.397 69.9276 156.403 69.827C156.403 69.0925 156.367 68.3619 156.363 67.6274C156.363 66.2448 156.363 64.8779 156.363 63.4757C156.352 63.3691 156.331 63.2638 156.299 63.1614C156.285 63.1659 156.27 63.1659 156.255 63.1614C156.156 63.1398 156.055 63.1254 155.953 63.1182H153.756C153.656 63.1182 153.557 63.1182 153.465 63.1182L153.389 62.3327V62.1088C153.389 61.8417 153.429 61.5746 153.433 61.3232C153.433 60.7536 153.433 60.1841 153.433 59.5831C153.608 59.5831 153.752 59.5831 153.891 59.5831C154.162 59.5831 154.432 59.5439 154.687 59.5242C154.942 59.5046 155.197 59.4692 155.451 59.4339L161.088 58.6483C161.418 58.6012 161.753 58.5462 162.083 58.4951C162.094 58.5363 162.102 58.5784 162.107 58.6208C162.079 60.6044 162.079 62.5919 162.011 64.5755C161.948 66.4726 161.828 68.3659 161.701 70.263C161.613 71.7512 161.414 73.2308 161.104 74.6897L160.65 74.7919L160.312 74.7369L159.973 74.6819L159.635 74.6269L159.297 74.5719L158.958 74.5169L158.62 74.4619L158.282 74.4069L157.943 74.3519L157.605 74.297L157.266 74.242L156.928 74.187H156.868L156.582 74.1359H156.522L156.239 74.0849H156.18L155.897 74.0338H155.837L155.551 73.9827H155.491L155.205 73.9317H155.145L154.858 73.8806H154.798L154.512 73.8295H154.456L154.17 73.7785H154.114L153.827 73.7274H153.771L153.485 73.6764H153.429L153.143 73.6253H153.115H153.087L152.8 73.5742H152.745L152.458 73.5232H152.402L152.116 73.4721H152.088H152.06L151.769 73.421H151.741H151.714L151.427 73.37H151.399H151.371L151.085 73.3189H151.057H151.029L150.738 73.2718H150.71H150.683L150.344 72.9576Z" fill="#044DA0"/>
<path d="M129.024 73.6843H128.964L128.678 73.7354H128.618L128.331 73.7864H128.276L127.989 73.8375H127.929L127.643 73.8886H127.583L127.296 73.9396H127.257L126.97 73.9907H126.91L126.572 74.0457L126.234 74.1007L125.895 74.1557L125.557 74.2106L125.219 74.2656L124.88 74.3206L124.542 74.3756L124.203 74.4306L123.865 74.4856L123.527 74.5406L123.188 74.5956L122.735 74.4856C122.7 74.3562 122.672 74.2251 122.651 74.0928C122.44 72.3331 122.185 70.5577 122.03 68.8098C121.891 67.2387 121.835 65.6675 121.795 64.0767C121.747 62.2424 121.751 60.4042 121.732 58.5777C121.732 58.4952 121.732 58.4127 121.732 58.2988C122.464 58.4167 123.172 58.5384 123.881 58.6445C125 58.8134 126.118 58.9784 127.237 59.1276C127.866 59.214 128.503 59.269 129.135 59.3358L130.405 59.4301C130.405 60.1803 130.405 60.9109 130.405 61.6414C130.412 61.7419 130.427 61.8417 130.449 61.94V62.1639L130.369 62.9494H127.886C127.784 62.9566 127.683 62.971 127.583 62.9926C127.569 62.9974 127.553 62.9974 127.539 62.9926C127.508 63.075 127.487 63.1607 127.476 63.2479C127.454 65.3742 127.436 67.4992 127.42 69.6229C127.426 69.7325 127.441 69.8415 127.464 69.9489V70.3967C127.464 70.923 127.432 71.4494 127.42 71.9678C127.429 72.0293 127.447 72.089 127.476 72.1446C127.581 72.1723 127.689 72.1907 127.798 72.1996H137.228L136.985 72.3017H136.961H136.933L136.639 72.3488H136.615H136.587L136.297 72.396H136.273H136.245L135.954 72.4431H135.93H135.902L135.612 72.4902H135.588H135.56L135.266 72.5374H135.242H135.214L134.923 72.5845H134.899H134.82L134.529 72.6316H134.505H134.477L134.187 72.6788H134.159H134.131L133.84 72.7259H133.813H133.785L133.494 72.773H133.466H133.438L133.148 72.8241H133.12H133.092L132.802 72.8712H132.774H132.746L132.459 72.9223H132.431H132.403L132.113 72.9734H132.085H132.057L131.767 73.0244H131.739H131.711L131.424 73.0755H131.369L131.082 73.1266H131.026L130.74 73.1776H130.712H130.684L130.397 73.2287H130.342L130.055 73.2797H129.999L129.713 73.3308H129.657L129.37 73.3819H129.315L129.024 73.6843Z" fill="#044DA0"/>
<path d="M127.181 87.0082C127.272 87.2046 127.36 87.401 127.452 87.5935C128.104 88.9618 128.868 90.2755 129.736 91.5214C130.361 92.4169 131.042 93.2771 131.727 94.1373C132.713 95.3482 133.79 96.4851 134.947 97.5389C135.687 98.242 136.499 98.8743 137.308 99.5028C138.016 100.053 138.756 100.575 139.505 101.074C140.162 101.51 140.858 101.86 141.523 102.303C141.781 102.475 142.122 102.459 142.363 102.264C143.278 101.71 144.218 101.188 145.094 100.575C146.137 99.8485 147.16 99.0864 148.119 98.2616C149.168 97.3651 150.171 96.4173 151.124 95.4217C151.896 94.6126 152.577 93.7131 153.266 92.8293C154.128 91.7083 154.894 90.5179 155.555 89.2707C155.953 88.5323 156.271 87.7467 156.629 86.9847C156.641 86.9791 156.654 86.9791 156.665 86.9847C157.027 86.9847 157.39 86.9847 157.752 87.0082C157.848 87.0244 157.941 87.0521 158.031 87.0907C157.074 89.1576 155.909 91.1248 154.555 92.9629C153.7 94.1413 152.772 95.2411 151.833 96.3369C151.182 97.0868 150.493 97.8027 149.767 98.4816C148.408 99.7979 146.931 100.989 145.352 102.04C144.305 102.72 143.207 103.313 142.136 103.953C142.003 104.039 141.831 104.039 141.698 103.953C140.115 103.087 138.594 102.113 137.148 101.039C135.416 99.7379 133.801 98.2923 132.32 96.7179C131.17 95.5082 130.106 94.2221 129.135 92.8686C128.028 91.3375 127.046 89.722 126.198 88.0373C126.038 87.7153 125.915 87.3735 125.776 87.0397L127.145 86.9886C127.16 86.9881 127.174 86.9957 127.181 87.0082Z" fill="#C75305"/>
<path d="M129.079 59.3875C128.447 59.3207 127.81 59.2618 127.181 59.1793C126.062 59.0301 124.944 58.8651 123.825 58.6962C123.117 58.5901 122.408 58.4684 121.676 58.3505C121.676 58.4644 121.676 58.5469 121.676 58.6294C121.676 60.4677 121.676 62.3059 121.739 64.1284C121.783 65.6996 121.839 67.2707 121.974 68.8615C122.129 70.6251 122.372 72.3966 122.595 74.1445C122.616 74.2768 122.644 74.4079 122.679 74.5373V74.7533C122.444 74.7926 122.213 74.8358 121.978 74.8672C121.811 74.8908 121.68 74.9065 121.64 74.663C121.508 73.8264 121.317 72.9976 121.206 72.1609C121.063 71.0729 120.963 69.981 120.864 68.889C120.804 68.2331 120.76 67.5771 120.748 66.9251C120.682 63.6204 120.623 60.3158 120.573 57.0111C120.572 56.9876 120.572 56.964 120.573 56.9404C123.757 57.9381 127.097 58.0442 130.413 58.3859C130.413 58.7198 130.413 59.0497 130.413 59.3757L129.079 59.3875Z" fill="#C75305"/>
<path d="M161.136 74.5452C161.446 73.0862 161.645 71.6066 161.733 70.1184C161.856 68.2252 161.976 66.328 162.043 64.4309C162.111 62.4473 162.111 60.4598 162.139 58.4762C162.134 58.4338 162.126 58.3917 162.115 58.3505C161.78 58.4016 161.45 58.4566 161.12 58.5037L155.483 59.2893C155.228 59.3246 154.974 59.3521 154.719 59.3796H153.401V58.3898C156.709 58.0481 160.033 57.942 163.245 56.9404C163.245 56.9915 163.245 57.07 163.245 57.1486C163.245 59.4661 163.245 61.7835 163.182 64.1009C163.15 65.5111 163.05 66.9212 162.963 68.3273C162.899 69.3486 162.847 70.3738 162.72 71.3871C162.581 72.487 162.35 73.571 162.179 74.6669C162.139 74.9105 162.007 74.8987 161.84 74.8712C161.605 74.8358 161.374 74.7965 161.14 74.7573C161.14 74.6866 161.138 74.6159 161.136 74.5452Z" fill="#C75305"/>
<path d="M134.756 81.1159L135.743 79.4466L136.193 78.6925C136.46 78.2407 136.468 78.2407 137.057 78.335V79.8826C137.057 80.6682 137.057 81.4537 137.057 82.2393C137.057 82.5378 136.961 82.6321 136.683 82.5928C136.562 82.5854 136.441 82.5854 136.32 82.5928V79.9376L136.269 79.914C136.225 79.9729 136.177 80.0319 136.137 80.0947L135.043 81.9133C134.871 82.1961 134.613 82.1961 134.438 81.9133C134.04 81.2652 133.641 80.6132 133.184 79.9729V80.4011C133.184 81.0413 133.184 81.6816 133.184 82.3218C133.184 82.5339 133.112 82.6007 132.901 82.5968C132.431 82.5968 132.431 82.5968 132.431 82.1411C132.431 80.9903 132.431 79.8433 132.431 78.6925C132.431 78.555 132.328 78.3311 132.571 78.2997C132.813 78.2682 133.036 78.2211 133.204 78.5196C133.697 79.3916 134.219 80.2204 134.756 81.1159Z" fill="black"/>
<path d="M130.604 81.1942C130.863 81.5556 131.118 81.9091 131.369 82.2626C131.417 82.3491 131.457 82.4398 131.488 82.5336C131.393 82.5572 131.297 82.5886 131.201 82.6083C130.89 82.6907 130.568 82.518 130.469 82.2155C130.451 82.1836 130.429 82.1534 130.405 82.1251C129.796 81.2689 129.796 81.2689 128.686 81.3396C128.686 81.6617 128.686 81.9877 128.686 82.3098C128.686 82.514 128.634 82.5926 128.415 82.5926C127.906 82.5926 127.906 82.5926 127.906 82.0937C127.906 80.9154 127.906 79.7606 127.906 78.5901C127.906 78.3622 127.969 78.2719 128.212 78.2798C128.813 78.3033 129.406 78.2798 130.011 78.319C130.494 78.3307 130.942 78.5712 131.215 78.9652C131.487 79.3592 131.55 79.8585 131.385 80.3065C131.277 80.6797 131.098 80.88 130.604 81.1942ZM128.706 79.0143V80.6561C129.104 80.6561 129.502 80.6797 129.9 80.6561C130.357 80.6561 130.728 80.2903 130.728 79.8391C130.728 79.3879 130.357 79.0221 129.9 79.0221C129.494 78.9907 129.104 79.0143 128.702 79.0143H128.706Z" fill="black"/>
<path d="M139.704 80.8016C139.513 81.0058 139.306 81.1944 139.155 81.3947C139.099 81.466 139.067 81.5524 139.063 81.6421C139.063 81.8857 139.063 82.1331 139.063 82.3766C139.063 82.5495 138.999 82.6045 138.828 82.6123C138.283 82.632 138.283 82.6398 138.283 82.0938C138.283 80.9155 138.283 79.7764 138.283 78.6177C138.283 78.2917 138.442 78.2995 138.681 78.3034C138.92 78.3074 139.079 78.2799 139.079 78.6098C139.055 79.2068 139.079 79.7882 139.079 80.3106L140.747 78.7787C140.813 78.725 140.872 78.663 140.922 78.5941C141.145 78.2327 141.507 78.2877 141.841 78.3152C142.084 78.3349 141.985 78.4763 141.881 78.5823L140.393 80.1142C140.344 80.1561 140.292 80.1942 140.237 80.2281L141.674 81.9485C141.79 82.086 141.909 82.2195 142.021 82.3609C142.056 82.4041 142.088 82.4866 142.068 82.5259C142.048 82.5652 141.965 82.5966 141.905 82.6005C141.538 82.6849 141.156 82.5364 140.946 82.2274C140.584 81.7364 140.146 81.3004 139.704 80.8016Z" fill="black"/>
<path d="M144.899 79.0071C144.138 79.0071 143.442 79.0071 142.749 79.0071C142.427 79.0071 142.431 78.8618 142.423 78.6143C142.415 78.3668 142.478 78.2686 142.753 78.2726C143.681 78.2726 144.604 78.2726 145.54 78.2726C145.679 78.2726 145.914 78.2726 145.938 78.3629C146.027 78.5652 145.991 78.8 145.846 78.9678C145.249 79.6788 144.652 80.4015 144.087 81.1242L143.482 81.9019C143.601 81.9019 143.681 81.9255 143.76 81.9255C144.429 81.9255 145.098 81.9255 145.751 81.9255C146.037 81.9255 146.049 82.0551 146.049 82.2711C146.049 82.4872 146.049 82.6286 145.759 82.6247C144.767 82.6247 143.768 82.6247 142.781 82.6247C142.65 82.6266 142.521 82.5984 142.403 82.5422C142.378 82.3446 142.411 82.1441 142.498 81.9648C142.896 81.4345 143.326 80.9317 143.748 80.4211L144.899 79.0071Z" fill="black"/>
<path d="M155.686 82.4633C156.092 81.5625 156.497 80.663 156.9 79.7648C157.095 79.3367 157.298 78.9164 157.485 78.4804C157.593 78.2212 157.796 78.3194 157.967 78.3076C158.138 78.2958 158.273 78.2683 158.365 78.4726C158.946 79.757 159.539 81.0414 160.132 82.3219C160.228 82.53 160.18 82.6204 159.945 82.6086C159.85 82.6008 159.754 82.6008 159.659 82.6086C159.59 82.6238 159.517 82.6112 159.457 82.5736C159.398 82.5361 159.355 82.4766 159.34 82.4083C159.229 82.1294 159.157 81.7563 158.942 81.6227C158.727 81.4892 158.333 81.5716 158.023 81.5677C157.712 81.5638 157.43 81.5677 157.135 81.5677C157.052 81.5517 156.966 81.5693 156.896 81.6166C156.827 81.6639 156.779 81.7369 156.765 81.8191C156.705 81.9959 156.614 82.1648 156.538 82.3376C156.46 82.4839 156.32 82.5886 156.157 82.6235C155.993 82.6584 155.822 82.6198 155.69 82.5183C155.69 82.4998 155.689 82.4814 155.686 82.4633ZM158.683 80.9314C158.552 80.625 158.433 80.3501 158.313 80.0791C158.194 79.808 158.066 79.5449 157.915 79.2306L157.517 80.1065L157.155 80.9314H158.683Z" fill="black"/>
<path d="M126.91 78.681C126.913 78.7058 126.913 78.7308 126.91 78.7556C126.711 79.2623 126.719 79.2348 126.198 79.0856C125.858 79.0013 125.509 78.9642 125.159 78.9756C124.99 78.9959 124.833 79.0688 124.709 79.1838C124.599 79.2654 124.54 79.397 124.552 79.532C124.564 79.667 124.646 79.7863 124.769 79.8476C124.972 79.9499 125.185 80.0303 125.406 80.0872C125.724 80.1854 126.051 80.2522 126.361 80.37C126.776 80.4964 127.067 80.865 127.089 81.2931C127.137 81.7467 126.903 82.1839 126.496 82.4007C125.632 82.788 124.626 82.714 123.829 82.2043C123.535 81.9726 123.829 81.8115 123.901 81.623C123.973 81.4345 124.112 81.568 124.223 81.623C124.683 81.9234 125.244 82.0309 125.784 81.9215C125.958 81.8829 126.117 81.7924 126.238 81.6623C126.441 81.4384 126.325 81.1202 125.995 80.9906C125.732 80.8885 125.445 80.8335 125.175 80.751C124.945 80.6913 124.719 80.6192 124.498 80.535C124.098 80.3972 123.824 80.0332 123.805 79.6159C123.756 79.1832 123.964 78.7612 124.339 78.5318C125.16 78.1162 126.145 78.1734 126.91 78.681Z" fill="black"/>
<path d="M155.686 82.4628C155.687 82.4798 155.687 82.4969 155.686 82.5139C155.288 82.5453 154.922 82.5924 154.54 82.6042C153.966 82.6042 153.393 82.6042 152.82 82.6042C152.673 82.6042 152.553 82.6042 152.553 82.4C152.553 81.0998 152.553 79.7997 152.553 78.4996C152.58 78.4056 152.654 78.3316 152.748 78.3032C153.302 78.2364 153.321 78.2639 153.321 78.8178C153.321 79.75 153.321 80.6822 153.321 81.6144V81.9129C153.966 81.9129 154.583 81.9129 155.2 81.9129C155.475 81.9129 155.622 81.9561 155.571 82.2625C155.578 82.3253 155.65 82.396 155.686 82.4628Z" fill="black"/>
<path d="M149.611 81.921C150.292 81.921 150.937 81.921 151.602 81.921C151.88 81.921 151.888 82.0506 151.876 82.2509C151.864 82.4513 151.936 82.6437 151.61 82.6202C150.782 82.6202 149.95 82.6202 149.122 82.6202C148.907 82.6202 148.843 82.5416 148.843 82.3374C148.843 81.0857 148.843 79.834 148.843 78.5823C148.843 78.3741 148.911 78.2838 149.122 78.3074C149.197 78.3145 149.273 78.3145 149.349 78.3074C149.56 78.3074 149.627 78.382 149.627 78.5902C149.627 79.635 149.627 80.6798 149.627 81.7325L149.611 81.921Z" fill="black"/>
<path d="M134.724 92.0631V89.9538C134.911 89.9538 135.122 89.832 135.241 90.0677C135.682 89.8174 136.234 89.8694 136.619 90.1973C136.883 89.9679 137.239 89.8684 137.586 89.9263C137.979 89.9261 138.302 90.2338 138.314 90.6215C138.342 91.0968 138.314 91.5799 138.314 92.067H137.837C137.837 91.6742 137.837 91.3246 137.837 90.9593C137.837 90.594 137.662 90.3269 137.347 90.323C137.033 90.3191 136.782 90.5705 136.77 90.9672C136.758 91.3639 136.77 91.6821 136.77 92.0591H136.272C136.272 91.686 136.272 91.3207 136.272 90.9554C136.272 90.5901 136.101 90.3269 135.783 90.323C135.464 90.3191 135.222 90.5744 135.214 90.9711C135.206 91.3678 135.214 91.686 135.214 92.0591L134.724 92.0631Z" fill="black"/>
<path d="M147.605 80.4562C147.605 81.0768 147.605 81.6974 147.605 82.318C147.605 82.538 147.55 82.6401 147.319 82.6126C147.271 82.6062 147.223 82.6062 147.176 82.6126C146.905 82.6519 146.813 82.5498 146.817 82.2709C146.817 81.0572 146.817 79.8435 146.817 78.6298C146.817 78.2959 146.98 78.2998 147.215 78.2998C147.45 78.2998 147.613 78.2998 147.613 78.6219C147.586 79.2307 147.605 79.8435 147.605 80.4562Z" fill="black"/>
<path d="M148.991 92.114L148.517 92.004C148.477 91.9987 148.437 91.9987 148.397 92.004C148.134 92.0457 147.868 92.0654 147.601 92.0629C147.285 92.0276 147.047 91.7639 147.047 91.4502C147.047 91.1365 147.285 90.8728 147.601 90.8374C147.884 90.81 148.167 90.8374 148.449 90.8374C148.473 90.4997 148.338 90.3229 148.051 90.319C147.881 90.3062 147.71 90.3401 147.557 90.4172C147.263 90.6057 147.159 90.4486 147.104 90.2168C147.548 89.8607 148.166 89.8048 148.668 90.0754C148.826 90.2058 148.929 90.389 148.959 90.59C149.018 91.077 148.991 91.568 148.991 92.114ZM148.489 91.132C148.256 91.136 148.023 91.157 147.792 91.1949C147.682 91.2345 147.598 91.3257 147.569 91.4384C147.592 91.5513 147.663 91.649 147.764 91.7055C147.944 91.7824 148.152 91.7545 148.304 91.6333C148.456 91.512 148.527 91.3174 148.489 91.1281V91.132Z" fill="black"/>
<path d="M138.832 91.0107C138.868 90.4086 139.373 89.9385 139.984 89.9385C140.596 89.9385 141.101 90.4086 141.137 91.0107C141.101 91.6128 140.596 92.0829 139.984 92.0829C139.373 92.0829 138.868 91.6128 138.832 91.0107ZM139.974 90.3194C139.796 90.3265 139.628 90.4042 139.508 90.5349C139.388 90.6657 139.327 90.8386 139.338 91.0146C139.328 91.1948 139.392 91.3712 139.515 91.5042C139.639 91.6372 139.812 91.7156 139.994 91.7216C140.36 91.6793 140.634 91.3702 140.627 91.0068C140.631 90.6497 140.355 90.3502 139.994 90.3194H139.974Z" fill="black"/>
<path d="M143.262 91.7215V92.0868H141.352C141.395 91.9291 141.458 91.7774 141.539 91.6351C141.865 91.2109 142.212 90.7984 142.586 90.3389H141.435V89.9814H143.302C143.252 90.1445 143.182 90.3014 143.095 90.4489C142.777 90.8652 142.435 91.2659 142.064 91.7215H143.262Z" fill="black"/>
<path d="M146.925 89.4082L145.874 92.3698H145.511C145.547 92.2402 145.575 92.1262 145.615 92.0202C145.894 91.2346 146.188 90.449 146.451 89.6635C146.534 89.4042 146.646 89.31 146.925 89.4082Z" fill="black"/>
<path d="M145.838 89.4073L144.771 92.365H144.409C144.445 92.2354 144.473 92.1215 144.512 92.0115C144.791 91.2259 145.086 90.4404 145.348 89.6548C145.444 89.4034 145.567 89.3091 145.838 89.4073Z" fill="black"/>
<path d="M156.375 72.2237C156.269 72.2514 156.161 72.2698 156.052 72.2786H146.63L146.861 72.3808L146.236 72.314V72.2197L156.375 72.2237Z" fill="#4D6784"/>
<path d="M136.937 72.3847L137.18 72.2825H127.746C127.637 72.2736 127.529 72.2552 127.424 72.2275H137.502V72.3218L136.937 72.3847Z" fill="#4D6784"/>
<path d="M156.315 63.0479C156.347 63.1502 156.368 63.2555 156.379 63.3621C156.379 64.7447 156.379 66.1116 156.379 67.5138C156.379 68.2484 156.41 68.9789 156.418 69.7134C156.412 69.814 156.398 69.9139 156.375 70.012C156.375 69.3953 156.335 68.7747 156.327 68.158C156.315 66.4651 156.315 64.7643 156.315 63.0479Z" fill="#4D6784"/>
<path d="M127.42 70.0197C127.397 69.9123 127.382 69.8033 127.376 69.6937C127.392 67.5674 127.411 65.4425 127.432 63.3188C127.443 63.2315 127.464 63.1458 127.496 63.0635C127.496 64.6791 127.486 66.2961 127.468 67.9144C127.468 68.5533 127.468 69.1923 127.468 69.8312C127.457 69.8952 127.441 69.9582 127.42 70.0197Z" fill="#4D6784"/>
<path d="M144.25 90.2322C144.254 90.3192 144.217 90.4032 144.15 90.4599C144.083 90.5167 143.994 90.5399 143.907 90.5229C143.716 90.5229 143.601 90.4247 143.601 90.2283C143.601 90.0319 143.74 89.9259 143.959 89.9298C144.178 89.9337 144.246 90.0398 144.25 90.2322Z" fill="black"/>
<path d="M143.577 91.8701C143.621 91.5362 143.784 91.4969 143.975 91.5126C144.166 91.5284 144.242 91.6698 144.226 91.8465C144.224 91.9341 144.179 92.0153 144.105 92.0639C144.031 92.1125 143.938 92.1223 143.856 92.09C143.752 92.0586 143.653 91.9251 143.577 91.8701Z" fill="black"/>
<path d="M127.535 63.0475C127.635 63.0259 127.736 63.0115 127.838 63.0043H130.322L130.401 62.2188L130.441 63.0475H127.535Z" fill="#4D6784"/>
<path d="M153.397 62.2148L153.473 63.0004C153.564 63.0004 153.664 63.0004 153.763 63.0004H155.961C156.062 63.0076 156.164 63.022 156.263 63.0436H153.345L153.397 62.2148Z" fill="#4D6784"/>
<path d="M129.08 59.3867H130.397C130.397 60.2587 130.397 61.1307 130.397 62.0027C130.375 61.9044 130.361 61.8046 130.354 61.7042C130.354 60.9736 130.354 60.2391 130.354 59.4928L129.08 59.3867Z" fill="#4D6784"/>
<path d="M153.401 59.375H154.719C154.448 59.3946 154.178 59.4182 153.923 59.4339C153.783 59.4339 153.644 59.4339 153.465 59.4339C153.465 60.0349 153.465 60.6123 153.465 61.174C153.465 61.4411 153.437 61.7121 153.421 61.9595C153.408 61.1137 153.401 60.2522 153.401 59.375Z" fill="#4D6784"/>
<path d="M127.428 72.2274C127.4 72.1718 127.381 72.1121 127.372 72.0506C127.372 71.5243 127.4 70.998 127.416 70.4795L127.428 72.2274Z" fill="#4D6784"/>
<path d="M158.019 87.11C157.929 87.0714 157.836 87.0437 157.74 87.0275C157.378 87.0275 157.015 87.0275 156.653 87.0039C157.051 87.0039 157.449 87.0039 157.824 87.0039C157.907 87.0078 157.955 87.0746 158.019 87.11Z" fill="#C75305"/>
<path d="M127.145 87.0073L125.776 87.0576C125.995 87.0576 126.214 87.0151 126.433 87.0073C126.651 86.9996 126.906 87.0073 127.145 87.0073Z" fill="#C75305"/>
<path d="M122.659 74.757V74.541L123.113 74.651L122.659 74.757Z" fill="#4D6784"/>
<path d="M161.136 74.5449C161.136 74.6156 161.136 74.6863 161.136 74.757L160.678 74.651L161.136 74.5449Z" fill="#4D6784"/>
<path d="M156.896 74.0459L157.234 74.1L156.896 74.0459Z" fill="#4D6784"/>
<path d="M126.218 74.139L126.556 74.085L126.218 74.139Z" fill="#4D6784"/>
<path d="M157.242 74.085L157.581 74.139L157.242 74.085Z" fill="#4D6784"/>
<path d="M126.56 74.0843L126.898 74.0303L126.56 74.0843Z" fill="#4D6784"/>
<path d="M125.875 74.1976L126.214 74.1436L125.875 74.1976Z" fill="#4D6784"/>
<path d="M157.585 74.1436L157.923 74.1976L157.585 74.1436Z" fill="#4D6784"/>
<path d="M125.529 74.2533L125.867 74.1992L125.529 74.2533Z" fill="#4D6784"/>
<path d="M157.927 74.1992L158.265 74.2533L157.927 74.1992Z" fill="#4D6784"/>
<path d="M125.187 74.308L125.525 74.2539L125.187 74.308Z" fill="#4D6784"/>
<path d="M158.273 74.2539L158.612 74.308L158.273 74.2539Z" fill="#4D6784"/>
<path d="M124.84 74.3666L125.179 74.3125L124.84 74.3666Z" fill="#4D6784"/>
<path d="M158.616 74.3125L158.954 74.3666L158.616 74.3125Z" fill="#4D6784"/>
<path d="M124.498 74.4379L124.837 74.3838L124.498 74.4379Z" fill="#4D6784"/>
<path d="M158.962 74.3682L159.3 74.4222L158.962 74.3682Z" fill="#4D6784"/>
<path d="M124.156 74.4808L124.494 74.4268L124.156 74.4808Z" fill="#4D6784"/>
<path d="M159.305 74.4385L159.643 74.4925L159.305 74.4385Z" fill="#4D6784"/>
<path d="M123.809 74.5355L124.148 74.4814L123.809 74.5355Z" fill="#4D6784"/>
<path d="M159.65 74.4814L159.989 74.5355L159.65 74.4814Z" fill="#4D6784"/>
<path d="M123.467 74.5912L123.805 74.5371L123.467 74.5912Z" fill="#4D6784"/>
<path d="M159.993 74.5371L160.331 74.5912L159.993 74.5371Z" fill="#4D6784"/>
<path d="M123.121 74.6498L123.459 74.5957L123.121 74.6498Z" fill="#4D6784"/>
<path d="M160.339 74.5957L160.678 74.6498L160.339 74.5957Z" fill="#4D6784"/>
<path d="M131.775 73.232L132.067 73.1816L131.775 73.232Z" fill="#4D6784"/>
<path d="M151.391 73.127L151.679 73.1773L151.391 73.127Z" fill="#4D6784"/>
<path d="M132.121 73.1773L132.413 73.127L132.121 73.1773Z" fill="#4D6784"/>
<path d="M149.667 72.8438L149.959 72.8902L149.667 72.8438Z" fill="#4D6784"/>
<path d="M133.841 72.8941L134.133 72.8477L133.841 72.8941Z" fill="#4D6784"/>
<path d="M149.321 72.7891L149.613 72.8356L149.321 72.7891Z" fill="#4D6784"/>
<path d="M134.183 72.8356L134.475 72.7891L134.183 72.8356Z" fill="#4D6784"/>
<path d="M148.979 72.7344L149.271 72.7809L148.979 72.7344Z" fill="#4D6784"/>
<path d="M134.529 72.7809L134.821 72.7344L134.529 72.7809Z" fill="#4D6784"/>
<path d="M148.636 72.6748L148.928 72.7213L148.636 72.6748Z" fill="#4D6784"/>
<path d="M134.871 72.7252L135.163 72.6787L134.871 72.7252Z" fill="#4D6784"/>
<path d="M148.29 72.6201L148.582 72.6666L148.29 72.6201Z" fill="#4D6784"/>
<path d="M135.218 72.6666L135.514 72.6201L135.218 72.6666Z" fill="#4D6784"/>
<path d="M147.956 72.5615L148.248 72.608L147.956 72.5615Z" fill="#4D6784"/>
<path d="M151.045 73.0713L151.333 73.1217L151.045 73.0713Z" fill="#4D6784"/>
<path d="M135.56 72.6119L135.852 72.5654L135.56 72.6119Z" fill="#4D6784"/>
<path d="M147.601 72.5059L147.893 72.5524L147.601 72.5059Z" fill="#4D6784"/>
<path d="M132.463 73.1177L132.751 73.0674L132.463 73.1177Z" fill="#4D6784"/>
<path d="M135.902 72.5524L136.194 72.5059L135.902 72.5524Z" fill="#4D6784"/>
<path d="M147.259 72.4512L147.551 72.4977L147.259 72.4512Z" fill="#4D6784"/>
<path d="M136.249 72.4977L136.541 72.4512L136.249 72.4977Z" fill="#4D6784"/>
<path d="M146.913 72.3926L147.209 72.4391L146.913 72.3926Z" fill="#4D6784"/>
<path d="M136.591 72.443L136.887 72.3965L136.591 72.443Z" fill="#4D6784"/>
<path d="M150.698 73.0127L150.99 73.0592L150.698 73.0127Z" fill="#4D6784"/>
<path d="M132.81 73.0631L133.101 73.0166L132.81 73.0631Z" fill="#4D6784"/>
<path d="M150.344 72.958L150.636 73.0045L150.344 72.958Z" fill="#4D6784"/>
<path d="M133.152 73.0045L133.444 72.9541L133.152 73.0045Z" fill="#4D6784"/>
<path d="M150.01 72.9033L150.301 72.9498L150.01 72.9033Z" fill="#4D6784"/>
<path d="M133.494 72.9498L133.786 72.9033L133.494 72.9498Z" fill="#4D6784"/>
<path d="M127.993 73.8531L128.281 73.8027L127.993 73.8531Z" fill="#4D6784"/>
<path d="M155.519 73.8027L155.807 73.8531L155.519 73.8027Z" fill="#4D6784"/>
<path d="M127.654 73.9117L127.942 73.8613L127.654 73.9117Z" fill="#4D6784"/>
<path d="M155.865 73.8613L156.149 73.9117L155.865 73.8613Z" fill="#4D6784"/>
<path d="M127.304 73.9664L127.592 73.916L127.304 73.9664Z" fill="#4D6784"/>
<path d="M156.207 73.916L156.491 73.9664L156.207 73.916Z" fill="#4D6784"/>
<path d="M126.962 74.026L127.25 73.9756L126.962 74.026Z" fill="#4D6784"/>
<path d="M156.554 73.9756L156.842 74.026L156.554 73.9756Z" fill="#4D6784"/>
<path d="M155.176 73.7471L155.464 73.7974L155.176 73.7471Z" fill="#4D6784"/>
<path d="M128.335 73.7974L128.623 73.7471L128.335 73.7974Z" fill="#4D6784"/>
<path d="M154.83 73.6924L155.118 73.7427L154.83 73.6924Z" fill="#4D6784"/>
<path d="M128.682 73.7388L128.97 73.6885L128.682 73.7388Z" fill="#4D6784"/>
<path d="M154.488 73.6533L154.776 73.7037L154.488 73.6533Z" fill="#4D6784"/>
<path d="M129.024 73.6842L129.312 73.6338L129.024 73.6842Z" fill="#4D6784"/>
<path d="M154.141 73.5781L154.429 73.6285L154.141 73.5781Z" fill="#4D6784"/>
<path d="M129.366 73.6285L129.654 73.5781L129.366 73.6285Z" fill="#4D6784"/>
<path d="M153.799 73.5234L154.087 73.5738L153.799 73.5234Z" fill="#4D6784"/>
<path d="M129.712 73.5699L130 73.5195L129.712 73.5699Z" fill="#4D6784"/>
<path d="M153.453 73.4648L153.741 73.5152L153.453 73.4648Z" fill="#4D6784"/>
<path d="M130.043 73.5152L130.331 73.4648L130.043 73.5152Z" fill="#4D6784"/>
<path d="M153.11 73.4092L153.398 73.4595L153.11 73.4092Z" fill="#4D6784"/>
<path d="M130.401 73.4595L130.689 73.4092L130.401 73.4595Z" fill="#4D6784"/>
<path d="M152.764 73.3545L153.052 73.4049L152.764 73.3545Z" fill="#4D6784"/>
<path d="M130.744 73.401L131.031 73.3506L130.744 73.401Z" fill="#4D6784"/>
<path d="M152.422 73.2959L152.71 73.3463L152.422 73.2959Z" fill="#4D6784"/>
<path d="M131.09 73.3463L131.378 73.2959L131.09 73.3463Z" fill="#4D6784"/>
<path d="M152.076 73.2402L152.363 73.2906L152.076 73.2402Z" fill="#4D6784"/>
<path d="M131.432 73.2867L131.72 73.2363L131.432 73.2867Z" fill="#4D6784"/>
<path d="M151.733 73.1816L152.025 73.232L151.733 73.1816Z" fill="#4D6784"/>
</g>
<defs>
<clipPath id="clip0_166_161">
<rect width="222" height="165.734" fill="white" transform="translate(0 70.6553)"/>
</clipPath>
<clipPath id="clip1_166_161">
<rect width="49.4647" height="30.2181" fill="white" transform="translate(132.791 201.112)"/>
</clipPath>
<clipPath id="clip2_166_161">
<rect width="64.4235" height="164.861" fill="white" transform="translate(37.4353 6.97852)"/>
</clipPath>
<clipPath id="clip3_166_161">
<rect width="42.9905" height="58.1325" fill="white" transform="translate(120.533 46.2051)"/>
</clipPath>
</defs>
</svg>
