<svg width="40" height="40" viewBox="0 0 40 40" fill="none" xmlns="http://www.w3.org/2000/svg">
<g clip-path="url(#clip0)">
<path fill-rule="evenodd" clip-rule="evenodd" d="M39.2 20.4785C39.2 19.0587 39.0728 17.6934 38.8364 16.3828H20V24.1282H30.7637C30.3 26.6312 28.8909 28.7518 26.7728 30.1717V35.1957H33.2364C37.0182 31.7098 39.2 26.5766 39.2 20.4785Z" fill="#4285F4"/>
<path fill-rule="evenodd" clip-rule="evenodd" d="M20 40.0469C25.4 40.0469 29.9272 38.2538 33.2363 35.1957L26.7727 30.1717C24.9818 31.3731 22.6909 32.083 20 32.083C14.7909 32.083 10.3818 28.5607 8.80907 23.8279H2.12725V29.0158C5.41816 35.5598 12.1818 40.0469 20 40.0469Z" fill="#34A853"/>
<path fill-rule="evenodd" clip-rule="evenodd" d="M8.80909 23.8279C8.40909 22.6265 8.18182 21.3432 8.18182 20.0235C8.18182 18.7037 8.40909 17.4204 8.80909 16.219V11.0311H2.12727C0.772727 13.7343 0 16.7924 0 20.0235C0 23.2545 0.772727 26.3126 2.12727 29.0158L8.80909 23.8279Z" fill="#FBBC05"/>
<path fill-rule="evenodd" clip-rule="evenodd" d="M20 7.96386C22.9363 7.96386 25.5727 8.97413 27.6454 10.9583L33.3818 5.21519C29.9182 1.98414 25.3909 0 20 0C12.1818 0 5.41816 4.48707 2.12725 11.0311L8.80907 16.219C10.3818 11.4862 14.7909 7.96386 20 7.96386Z" fill="#EA4335"/>
</g>
<defs>
<clipPath id="clip0">
<rect width="40" height="39.7546" fill="white"/>
</clipPath>
</defs>
</svg>
