<svg width="40" height="40" viewBox="0 0 40 40" fill="none" xmlns="http://www.w3.org/2000/svg">
<path d="M37.3171 9.96092C35.5287 6.89661 33.1028 4.47059 30.0387 2.68232C26.9742 0.893954 23.6287 0 19.9998 0C16.3714 0 13.0248 0.894228 9.96092 2.68232C6.89661 4.4705 4.47077 6.89661 2.68232 9.96092C0.894137 13.0251 0 16.3713 0 19.9993C0 24.3573 1.27147 28.2762 3.81506 31.7569C6.35838 35.2378 9.64396 37.6465 13.6715 38.9832C14.1404 39.0702 14.4874 39.009 14.7131 38.8011C14.9388 38.593 15.0516 38.3323 15.0516 38.0202C15.0516 37.9681 15.0471 37.4996 15.0384 36.614C15.0295 35.7284 15.0253 34.9559 15.0253 34.2967L14.4263 34.4003C14.0444 34.4703 13.5626 34.4999 12.981 34.4915C12.3996 34.4834 11.7961 34.4225 11.1712 34.3092C10.546 34.1969 9.96456 33.9365 9.42633 33.5285C8.88837 33.1205 8.50647 32.5865 8.28073 31.9272L8.02032 31.328C7.84675 30.929 7.57348 30.4858 7.20016 30C6.82683 29.5138 6.44931 29.1842 6.06741 29.0106L5.88508 28.8801C5.76359 28.7933 5.65086 28.6887 5.5466 28.5673C5.44244 28.4459 5.36445 28.3244 5.31237 28.2027C5.2602 28.081 5.30343 27.9811 5.44253 27.9028C5.58163 27.8244 5.833 27.7864 6.19775 27.7864L6.71838 27.8642C7.06562 27.9338 7.49513 28.1416 8.00746 28.4891C8.51952 28.8362 8.94045 29.2875 9.27036 29.8428C9.66986 30.5548 10.1512 31.0973 10.7157 31.4706C11.2797 31.844 11.8484 32.0303 12.4212 32.0303C12.994 32.0303 13.4888 31.9869 13.9056 31.9005C14.322 31.8137 14.7126 31.6832 15.0774 31.5097C15.2336 30.346 15.659 29.4521 16.3532 28.8272C15.3638 28.7232 14.4742 28.5666 13.684 28.3584C12.8943 28.1498 12.0783 27.8115 11.2364 27.3423C10.3941 26.8737 9.69531 26.2919 9.13993 25.5978C8.58446 24.9033 8.12859 23.9916 7.77296 22.8634C7.41715 21.7347 7.23919 20.4328 7.23919 18.9572C7.23919 16.8562 7.9251 15.0682 9.29663 13.5925C8.65414 12.0129 8.7148 10.2421 9.47878 8.28036C9.98226 8.12394 10.7289 8.24133 11.7184 8.6318C12.708 9.02245 13.4326 9.3571 13.8928 9.63457C14.3531 9.91194 14.7218 10.147 14.9997 10.3376C16.6145 9.8864 18.281 9.66074 19.9996 9.66074C21.7182 9.66074 23.3851 9.8864 25.0001 10.3376L25.9896 9.71292C26.6663 9.29608 27.4654 8.91409 28.385 8.56686C29.3051 8.2198 30.0087 8.12421 30.495 8.28064C31.276 10.2425 31.3456 12.0132 30.7029 13.5927C32.0744 15.0685 32.7605 16.8569 32.7605 18.9575C32.7605 20.4331 32.5819 21.7391 32.2267 22.8764C31.871 24.0139 31.4112 24.9247 30.8471 25.6108C30.2824 26.2968 29.5792 26.8741 28.7373 27.3425C27.8953 27.8114 27.0789 28.1498 26.2892 28.3583C25.4992 28.5668 24.6096 28.7235 23.6201 28.8276C24.5226 29.6086 24.9739 30.8413 24.9739 32.5252V38.0195C24.9739 38.3316 25.0824 38.5922 25.2997 38.8004C25.5167 39.0083 25.8594 39.0695 26.3282 38.9824C30.3563 37.6459 33.6419 35.2371 36.1851 31.7561C38.7281 28.2754 40 24.3566 40 19.9985C39.9991 16.371 39.1045 13.0251 37.3171 9.96092Z" fill="black"/>
</svg>
