<?xml version="1.0" encoding="UTF-8"?>
<svg width="282px" height="469px" viewBox="0 0 282 469" version="1.1" xmlns="http://www.w3.org/2000/svg" xmlns:xlink="http://www.w3.org/1999/xlink">
    <!-- Generator: Sketch 64 (93537) - https://sketch.com -->
    <title>icon</title>
    <desc>Created with Sketch.</desc>
    <g id="Page-1" stroke="none" stroke-width="1" fill="none" fill-rule="evenodd">
        <g id="icon" transform="translate(1.000000, 0.000000)">
            <g id="Group">
                <rect id="Rectangle" fill="#22D296" x="122" y="176" width="36" height="293" rx="5"></rect>
                <g id="Combined-Shape-2" transform="translate(40.000000, 36.000000)" fill="#EE6352" stroke="#EE6352" stroke-width="2">
                    <path d="M200,0 C222.09139,0 240,17.90861 240,40 C240,41.2487772 239.942775,42.4841888 239.830804,43.7037554 C239.940983,44.1170481 240,44.551632 240,45 L240,135 C240,137.761424 237.761424,140 235,140 L40,140 L40,40 L39.9946411,39.3385269 C39.6414095,17.5522287 21.8704761,0 0,0 L0,0 L200,0 Z" id="Combined-Shape"></path>
                </g>
                <path d="M0,256 L0,216 L0.00535885717,215.338527 C0.358590478,193.552229 18.1295239,176 40,176 C62.09139,176 80,193.90861 80,216 L80,216 L80,256 L0,256 Z" id="Combined-Shape-Copy-2" stroke="#EE6352" stroke-width="2" fill="#FF644E" transform="translate(40.000000, 216.000000) scale(1, -1) translate(-40.000000, -216.000000) "></path>
                <path d="M40,36 C62.09139,36 80,53.90861 80,76 L80,76 L80,176 L0,176 L0,76 L0.00535885717,75.3385269 C0.358590478,53.5522287 18.1295239,36 40,36 Z" id="Combined-Shape-Copy-3" stroke="#EE6352" stroke-width="2"></path>
                <path d="M172,3 C173.104569,3 174,3.8954305 174,5 L174,21 C174,22.1045695 173.104569,23 172,23 L150,23 L150,49 C150,50.1045695 149.104569,51 148,51 L144,51 C142.895431,51 142,50.1045695 142,49 L142,5 C142,3.8954305 142.895431,3 144,3 L172,3 Z" id="Combined-Shape" stroke="#22D296" fill="#22D296" transform="translate(158.000000, 27.000000) rotate(12.000000) translate(-158.000000, -27.000000) "></path>
            </g>
        </g>
    </g>
</svg>