<?xml version="1.0" encoding="UTF-8"?>
<svg width="176px" height="473px" viewBox="0 0 176 473" version="1.1" xmlns="http://www.w3.org/2000/svg" xmlns:xlink="http://www.w3.org/1999/xlink">
    <g id="Page-1" stroke="none" stroke-width="1" fill="none" fill-rule="evenodd">
        <g id="undraw_next_tasks_iubr" fill-rule="nonzero">
            <path d="M73.11421,45.58782 C73.5247591,53.9525702 73.058943,62.3373204 71.72437,70.60512 C71.72437,70.60512 61.99537,92.84272 73.11421,102.57167 C84.23305,112.30062 105.08079,73.38482 105.08079,73.38482 C103.63866,64.75033 102.80738,56.63345 105.08079,51.14724 L73.11421,45.58782 Z" id="Path" fill="#FFB8B8"></path>
            <path d="M88.40257,317.99849 L88.40257,348.5752 C88.40257,348.5752 84.23301,405.55905 88.40257,419.45755 L87.01271,445.86471 L102.30107,445.86471 L106.47062,413.89815 C106.47062,413.89815 118.97927,373.5925 114.80972,348.5752 L117.58942,317.99849 L88.40257,317.99849 Z" id="Path" fill="#FFB8B8"></path>
            <path d="M66.16496,317.99849 L66.16496,348.5752 C66.16496,348.5752 70.33451,405.55905 66.16496,419.45755 L67.55481,445.86471 L52.26646,445.86471 L48.09691,413.89815 C48.09691,413.89815 35.58826,373.5925 39.75781,348.5752 L36.97811,317.99849 L66.16496,317.99849 Z" id="Path" fill="#FFB8B8"></path>
            <path d="M30.72379,203.33582 C30.72379,203.33582 22.38469,256.15013 27.94409,286.72682 C33.50349,317.30351 33.50349,327.03253 33.50349,327.03253 L68.24975,325.64263 L77.97869,268.65882 L86.31779,327.03253 L128.0133,320.08328 C128.0133,320.08328 128.0133,275.60807 129.40315,265.87912 C130.793,256.15017 130.793,200.55612 130.793,200.55612 L30.72379,203.33582 Z" id="Path" fill="#2F2E41"></path>
            <path d="M105.08079,445.86471 C105.08079,445.86471 89.79244,436.13576 82.84318,445.86471 L82.84318,462.54291 C82.84318,462.54291 77.28378,475.05156 96.74169,472.27186 C116.1996,469.49216 109.25034,459.76321 109.25034,459.76321 L105.08079,445.86471 Z" id="Path" fill="#2F2E41"></path>
            <path d="M49.48679,445.86471 C49.48679,445.86471 64.77514,436.13576 71.72439,445.86471 L71.72439,462.54291 C71.72439,462.54291 77.28379,475.05156 57.82589,472.27186 C38.36799,469.49216 45.31724,459.76321 45.31724,459.76321 L49.48679,445.86471 Z" id="Path" fill="#2F2E41"></path>
            <circle id="Oval" fill="#FFB8B8" cx="91.18227" cy="37.24875" r="22.2376"></circle>
            <path d="M81.45331,90.06306 L71.89301,67.56944 L61.99541,71.99501 L49.48679,144.26722 L50.87664,213.75973 C50.87664,213.75973 114.80975,210.98003 123.14885,215.14958 C131.48795,219.31913 113.4199,78.94426 113.4199,78.94426 L105.0808,68.54226 L81.45331,90.06306 Z" id="Path" fill="#ff644e"></path>
            <path d="M73.40238,59.48636 C73.40238,59.48636 52.26646,65.04576 52.26646,73.38486 C52.26646,73.38486 31.41871,77.55441 31.41871,81.72396 C31.41871,85.89351 30.02886,191.52213 30.02886,191.52213 C30.02886,191.52213 17.52021,215.14958 27.24916,234.60748 L25.85931,245.72628 L53.65631,248.50598 L73.11421,77.55441 L73.40238,59.48636 Z" id="Path" fill="#2F2E41"></path>
            <path d="M103.40279,59.48636 C103.40279,59.48636 124.53871,65.04576 124.53871,73.38486 C124.53871,73.38486 145.38646,77.55441 145.38646,81.72396 C145.38646,85.89351 146.77631,191.52213 146.77631,191.52213 C146.77631,191.52213 159.28496,215.14958 149.55601,234.60748 L150.94586,245.72628 L123.14886,248.50598 L103.69096,77.55441 L103.40279,59.48636 Z" id="Path" fill="#2F2E41"></path>
            <path d="M109.25032,8.0619 C109.25032,8.0619 110.64017,2.5025 103.69092,5.2822 C103.69092,5.2822 95.35182,-4.44675 87.01271,2.5025 C87.01271,2.5025 70.33451,-0.2772 70.33451,13.6213 C70.33451,27.5198 69.54834,32.10899 69.54834,32.10899 C69.54834,32.10899 74.50406,19.1807 84.23301,20.57055 C90.17848,21.41991 93.52871,20.71211 95.23528,20.03315 C97.0800575,19.2436701 99.1475941,19.1456104 101.05881,19.75695 C103.486274,20.5779403 105.452553,22.388474 106.47062,24.7401 C107.326547,26.7141849 108.333749,28.6191729 109.48323,30.43805 C111.104003,32.8612123 112.418238,35.4758907 113.39589,38.22231 L113.39589,38.22231 L116.19957,21.96039 C116.19957,21.96039 117.58942,13.62129 113.41987,10.84159 C113.41987,10.8416 114.80972,6.67205 109.25032,8.0619 Z" id="Path" fill="#2F2E41"></path>
            <path d="M5.70648,226.9633 C5.70648,226.9633 -2.63262,258.92986 9.87603,256.15016 C22.38468,253.37046 19.60498,225.57345 19.60498,225.57345 L5.70648,226.9633 Z" id="Path" fill="#FFB8B8"></path>
            <path d="M171.09865,226.9633 C171.09865,226.9633 179.43775,258.92986 166.9291,256.15016 C154.42045,253.37046 157.20015,225.57345 157.20015,225.57345 L171.09865,226.9633 Z" id="Path" fill="#FFB8B8"></path>
            <path d="M38.36796,81.72396 L34.53166,78.73754 C34.53166,78.73754 30.02886,78.94426 28.63901,81.72396 C27.24916,84.50366 5.01155,153.99617 5.01155,153.99617 C5.01155,153.99617 -1.9377,190.13228 2.23185,212.36988 L3.6217,229.04808 L23.07961,229.04808 L21.68979,202.64093 L35.58829,149.82662 L38.36796,81.72396 Z" id="Path" fill="#2F2E41"></path>
            <path d="M138.43717,81.72396 L142.27347,78.73754 C142.27347,78.73754 146.77627,78.94426 148.16612,81.72396 C149.55597,84.50366 171.79358,153.99617 171.79358,153.99617 C171.79358,153.99617 178.74283,190.13228 174.57328,212.36988 L173.18343,229.04808 L153.72552,229.04808 L155.11537,202.64093 L141.21687,149.82662 L138.43717,81.72396 Z" id="Path" fill="#2F2E41"></path>
        </g>
    </g>
</svg>