<svg width="346" height="256" viewBox="0 0 346 256" fill="none" xmlns="http://www.w3.org/2000/svg">
<path d="M174.463 5.94434C178.369 7.28033 181.997 9.31222 185.169 11.9403C187.658 14.0829 189.886 16.5366 192.323 18.9384L193.072 16.1737H193.437C197.407 22.3363 199.241 29.6171 198.66 36.909L201.375 35.0256C201.375 37.4274 201.549 39.7256 201.375 41.9373C200.983 46.722 200.09 51.4532 198.712 56.0546C196.543 63.2701 192.997 70.0046 188.267 75.8913C184.899 80.1388 180.902 83.8557 176.413 86.9156C172.437 89.493 167.949 91.1903 163.253 91.8921C159.492 92.531 155.684 92.8661 151.869 92.8943C144.745 92.8038 137.715 91.2752 131.206 88.4016C127.486 86.8945 123.976 84.9201 120.761 82.5266C115.421 78.388 111.322 72.8789 108.907 66.595C106.844 61.316 105.634 55.7468 105.321 50.0932C105.044 46.13 105.143 42.1498 105.617 38.205C105.636 37.8769 105.636 37.5481 105.617 37.2201C105.513 37.2201 105.426 37.2201 105.373 37.2201L103.633 38.1013C103.481 37.5381 103.41 36.9563 103.424 36.3734C104.172 32.2609 105.721 28.5804 109.534 26.2822C110.23 25.8675 110.108 25.3145 110.056 24.6752C109.581 20.6914 109.954 16.6529 111.153 12.8215C111.561 11.2543 112.55 9.8972 113.92 9.02007C114.303 8.84144 114.699 8.69128 115.104 8.5708C115.452 10.869 115.4 13.1326 116.845 14.9469C116.919 15.8269 117.424 16.6148 118.194 17.0559C118.965 17.497 119.905 17.5354 120.709 17.1587C120.907 17.095 121.111 17.0545 121.319 17.0377C124.226 16.8131 127.133 16.6403 130.022 16.3465C130.735 16.2795 131.41 15.9959 131.954 15.5344C133.526 14.0021 135.459 12.8852 137.577 12.2859C139.039 11.923 140.571 11.7848 142.086 11.5429L142.19 11.9748C141.563 12.4759 140.728 12.8561 140.362 13.5127C139.216 15.4521 138.204 17.467 137.333 19.5432C136.51 21.4036 137.268 23.5798 139.074 24.537C141.852 26.4911 145.101 27.6831 148.491 27.9928C149.414 28.0792 149.588 28.5112 149.397 29.3406C148.873 30.8153 147.819 32.0461 146.437 32.7965C144.975 33.8678 143.321 34.6973 141.72 35.6476C143.19 37.6344 143.769 40.1349 143.321 42.5594C143.165 43.5961 142.904 43.8381 141.807 43.5616C139.843 43.0629 137.84 42.7334 135.819 42.5767C134.078 42.4557 133.208 43.4234 133.504 44.6847C134.217 49.1176 137.49 52.7192 141.859 53.8774C143.953 54.6247 146.27 54.4356 148.213 53.359C150.071 52.3067 152.096 51.5763 154.201 51.1991C157.562 50.7598 160.776 52.7113 161.913 55.8818C158.175 56.5406 154.774 58.4418 152.269 61.273C151.018 62.6817 149.302 63.6008 147.43 63.8649C145.323 64.245 143.182 64.3487 140.989 64.5906C144.784 67.8078 149.239 70.1664 154.044 71.5024C157.843 72.554 161.898 72.1914 165.446 70.4829C169.192 68.4884 172.23 65.4002 174.15 61.6358C174.829 60.409 175.438 59.1476 176.082 57.9035H176.465L177.04 63.3983C177.818 62.2069 178.527 60.9723 179.163 59.7005C180.638 55.7861 181.232 51.5987 180.904 47.4322C180.904 45.7042 180.73 44.0973 180.643 42.2484C182.784 42.8704 183.237 44.6847 184.124 46.3609C186.666 40.3476 185.117 34.6454 183.48 28.9605L183.759 28.684L187.031 29.9454C186.295 25.3843 183.797 21.2874 180.069 18.5237C177.029 16.3841 173.652 14.7608 170.077 13.7201C169.711 13.5991 169.433 13.1844 169.102 12.9079C169.433 12.5796 169.694 12.0958 170.094 11.9748C171.01 11.7285 171.94 11.538 172.879 11.4046C171.33 8.10426 168.023 7.94875 165.342 6.63551C166.627 6.28109 167.945 6.05533 169.276 5.96162C170.964 6.03073 172.723 6.01345 174.463 5.94434Z" fill="#C75305"/>
<path d="M174.463 5.94453C172.722 5.94453 170.982 5.94453 169.241 6.15188C167.91 6.2456 166.592 6.47136 165.307 6.82578C167.97 8.13901 171.295 8.29453 172.844 11.5949C171.905 11.7283 170.975 11.9187 170.059 12.1651C169.676 12.3033 169.398 12.7872 169.067 13.0982C169.38 13.3747 169.659 13.7894 170.042 13.9103C173.617 14.951 176.994 16.5744 180.034 18.714C183.762 21.4777 186.26 25.5746 186.997 30.1357L183.724 28.8743L183.445 29.1507C185.082 34.8529 186.631 40.5378 184.089 46.5511C183.219 44.8231 182.767 43.0952 180.608 42.4386C180.695 44.1665 180.817 45.8945 180.869 47.6224C181.197 51.7889 180.603 55.9763 179.128 59.8908C178.492 61.1625 177.783 62.3971 177.005 63.5885L176.43 58.0937H176.047C175.403 59.3378 174.794 60.5992 174.115 61.826C172.195 65.5904 169.157 68.6786 165.411 70.6731C161.863 72.3816 157.808 72.7441 154.009 71.6926C149.204 70.3566 144.749 67.998 140.954 64.7808C143.147 64.5389 145.288 64.4352 147.395 64.0551C149.267 63.791 150.983 62.8719 152.234 61.4632C154.739 58.632 158.14 56.7309 161.878 56.072C160.741 52.9015 157.527 50.9501 154.166 51.3893C152.061 51.7665 150.036 52.4969 148.178 53.5492C146.235 54.6258 143.918 54.8149 141.824 54.0676C137.455 52.9094 134.182 49.3078 133.469 44.875C133.173 43.6136 134.078 42.6459 135.784 42.7669C137.805 42.9236 139.808 43.2531 141.772 43.7518C142.869 44.011 143.13 43.7518 143.287 42.7496C143.734 40.3251 143.155 37.8246 141.685 35.8379C143.287 34.8875 144.94 34.1099 146.402 32.9868C147.784 32.2363 148.838 31.0056 149.362 29.5309C149.553 28.7188 149.362 28.2868 148.457 28.1831C145.066 27.8734 141.817 26.6813 139.039 24.7272C137.233 23.77 136.475 21.5938 137.298 19.7335C138.169 17.6572 139.181 15.6424 140.327 13.703C140.693 13.0636 141.528 12.6662 142.155 12.1651L142.051 11.7331C140.554 11.975 139.022 12.1133 137.542 12.4761C135.424 13.0755 133.491 14.1924 131.919 15.7247C131.375 16.1862 130.7 16.4698 129.987 16.5368C127.098 16.8305 124.191 17.0033 121.284 17.228C121.076 17.2447 120.872 17.2853 120.674 17.3489C119.87 17.7257 118.93 17.6873 118.159 17.2462C117.389 16.805 116.885 16.0172 116.81 15.1372C120.847 11.2398 125.491 8.01329 130.562 5.58167C135.744 3.06017 141.338 1.48009 147.081 0.916233C156.503 0.00525296 165.993 1.74794 174.463 5.94453Z" fill="#044DA0"/>
<path d="M88.0702 179.498H117.872V179.705L103.737 184.578C104.485 185.943 105.164 187.274 105.93 188.552C110.504 196.314 115.864 203.592 121.928 210.273C130.234 219.641 140.244 227.373 151.433 233.064C152.072 233.43 152.849 233.468 153.522 233.168C158.144 231.262 162.438 228.65 166.247 225.427C169.728 222.524 173.21 219.517 176.413 216.303C182.844 209.862 188.818 202.985 194.29 195.723C197.232 191.801 200.139 187.861 202.994 183.939C203.087 183.762 203.163 183.577 203.22 183.386L191.662 179.74V179.533H216.676C215.127 182.885 213.734 186.341 211.976 189.589C209.086 195.076 205.738 200.313 201.967 205.244C198.938 209.132 195.979 213.089 192.602 216.649C188.434 221.029 184.048 225.198 179.459 229.142C175.247 232.77 170.755 236.054 166.229 239.319C162.4 241.998 158.292 244.296 154.288 246.749C153.236 247.605 151.744 247.676 150.615 246.922C147.725 245.039 144.662 243.466 141.789 241.514C138.517 239.319 135.279 237.038 132.181 234.602C128.699 231.837 125.096 229.055 121.858 225.962C116.798 221.327 112.09 216.325 107.775 210.998C104.834 207.214 101.857 203.43 99.0717 199.49C95.2738 194.009 91.9321 188.231 89.0798 182.211C88.8535 181.226 88.4009 180.345 88.0702 179.498Z" fill="#044DA0"/>
<path d="M189.364 117.69H189.243L187.972 117.483H187.85H187.728L186.457 117.275H186.336H186.214L184.943 117.068H184.821H184.717L183.446 116.861H183.324H183.22L181.949 116.653H181.827H181.723L180.452 116.446H180.33H180.226L178.955 116.239H178.833H178.729L177.458 116.031H177.179H177.075L175.804 115.824H175.682H175.578L174.29 115.617H174.168H174.063L173.054 115.167H214.257C214.733 115.128 215.205 115.047 215.667 114.925V107.201V105.232C215.768 104.8 215.832 104.361 215.859 103.918C215.859 100.687 215.702 97.4732 215.684 94.242C215.684 88.1596 215.684 82.1464 215.684 75.9776C215.639 75.5088 215.545 75.0456 215.406 74.5953C215.344 74.6151 215.277 74.6151 215.214 74.5953C214.779 74.5001 214.337 74.4366 213.892 74.4052H204.283C203.847 74.4052 203.412 74.4052 203.012 74.4052L202.681 70.9493V69.9644C202.681 68.7894 202.855 67.6144 202.873 66.5085C202.873 64.003 202.873 61.4975 202.873 58.8538C203.639 58.8538 204.265 58.8538 204.874 58.8538C206.058 58.8538 207.242 58.681 208.356 58.5946C209.47 58.5082 210.584 58.3527 211.698 58.1972L236.347 54.7413C237.792 54.5339 239.254 54.292 240.699 54.0674C240.748 54.2487 240.783 54.4336 240.803 54.6203C240.682 63.3464 240.682 72.0898 240.386 80.8159C240.107 89.1618 239.585 97.4905 239.028 105.836C238.645 112.383 237.772 118.892 236.417 125.31L234.432 125.76L232.953 125.518L231.473 125.276L229.993 125.034L228.514 124.792L227.034 124.55L225.554 124.308L224.075 124.066L222.595 123.824L221.116 123.582L219.636 123.34L218.156 123.099H217.895L216.642 122.874H216.381L215.145 122.649H214.884L213.648 122.425H213.387L212.133 122.2H211.872L210.619 121.975H210.358L209.104 121.751H208.843L207.59 121.526H207.346L206.093 121.301H205.849L204.596 121.077H204.352L203.099 120.852H202.855L201.602 120.628H201.48H201.358L200.105 120.403H199.861L198.608 120.178H198.364L197.111 119.954H196.989H196.867L195.596 119.729H195.474H195.353L194.099 119.504H193.977H193.856L192.602 119.28H192.48H192.359L191.088 119.072H190.966H190.844L189.364 117.69Z" fill="#044DA0"/>
<path d="M96.1301 120.886H95.869L94.6157 121.111H94.3546L93.1012 121.336H92.8575L91.6042 121.56H91.3431L90.0898 121.785H89.8286L88.5753 122.01H88.4012L87.1479 122.234H86.8868L85.4072 122.476L83.9275 122.718L82.4479 122.96L80.9683 123.202L79.4886 123.444L78.009 123.686L76.5294 123.928L75.0498 124.17L73.5701 124.411L72.0905 124.653L70.6109 124.895L68.6264 124.411C68.4748 123.842 68.3528 123.265 68.2609 122.684C67.3383 114.942 66.2242 107.132 65.5453 99.4428C64.936 92.531 64.6923 85.6192 64.5183 78.6211C64.3094 70.5516 64.3268 62.4649 64.2397 54.43C64.2397 54.0671 64.2397 53.7042 64.2397 53.2031C67.4427 53.7215 70.5412 54.2572 73.6398 54.7237C78.5312 55.4667 83.4227 56.1925 88.3142 56.8491C91.0646 57.2292 93.8498 57.4711 96.6175 57.7649L102.171 58.1796C102.171 61.4799 102.171 64.6939 102.171 67.9079C102.202 68.3497 102.266 68.7886 102.362 69.2211V70.206L102.014 73.6619H91.1516C90.7066 73.6933 90.2644 73.7568 89.8286 73.852C89.7666 73.8731 89.6992 73.8731 89.6372 73.852C89.5002 74.2142 89.4067 74.5912 89.3587 74.9751C89.2658 84.3291 89.1846 93.6772 89.1149 103.02C89.1428 103.502 89.2068 103.981 89.3064 104.454V106.424C89.3064 108.739 89.1672 111.054 89.1149 113.335C89.1538 113.606 89.2361 113.868 89.3587 114.113C89.8205 114.235 90.2924 114.316 90.7687 114.355H132.007L130.945 114.804H130.841H130.719L129.431 115.011H129.326H129.204L127.933 115.219H127.829H127.707L126.436 115.426H126.332H126.21L124.939 115.634H124.835H124.713L123.425 115.841H123.321H123.199L121.928 116.048H121.823H121.475L120.205 116.256H120.1H119.978L118.708 116.463H118.586H118.464L117.193 116.67H117.071H116.949L115.679 116.878H115.557H115.435L114.164 117.102H114.042H113.921L112.65 117.31H112.528H112.406L111.153 117.534H111.031H110.909L109.638 117.759H109.516H109.395L108.124 117.984H108.002H107.88L106.627 118.208H106.383L105.13 118.433H104.886L103.633 118.657H103.511H103.389L102.136 118.882H101.892L100.639 119.107H100.395L99.1416 119.331H98.8979L97.6446 119.556H97.4009L96.1301 120.886Z" fill="#044DA0"/>
<path d="M88.07 179.497C88.4704 180.361 88.8533 181.225 89.2537 182.072C92.106 188.091 95.4477 193.87 99.2455 199.351C101.979 203.291 104.955 207.075 107.949 210.859C112.264 216.186 116.971 221.188 122.032 225.823C125.27 228.916 128.821 231.698 132.354 234.463C135.453 236.882 138.691 239.18 141.963 241.375C144.836 243.293 147.882 244.83 150.789 246.783C151.917 247.536 153.41 247.466 154.462 246.61C158.466 244.174 162.574 241.876 166.403 239.18C170.964 235.983 175.438 232.631 179.633 229.003C184.221 225.059 188.608 220.889 192.776 216.51C196.153 212.95 199.129 208.993 202.141 205.105C205.912 200.173 209.26 194.937 212.15 189.45C213.891 186.202 215.283 182.746 216.85 179.393C216.899 179.369 216.957 179.369 217.007 179.393C218.591 179.393 220.175 179.393 221.759 179.497C222.178 179.568 222.588 179.69 222.977 179.86C218.792 188.952 213.702 197.606 207.781 205.693C204.038 210.876 199.982 215.715 195.874 220.536C193.03 223.835 190.015 226.984 186.84 229.97C180.898 235.761 174.436 241.001 167.535 245.625C162.957 248.615 158.152 251.224 153.47 254.04C152.889 254.42 152.136 254.42 151.555 254.04C144.63 250.232 137.981 245.948 131.658 241.219C124.083 235.497 117.018 229.138 110.543 222.212C105.516 216.89 100.863 211.232 96.617 205.278C91.7747 198.542 87.479 191.435 83.7704 184.024C83.0741 182.607 82.5344 181.104 81.9252 179.635L87.9133 179.411C87.9776 179.409 88.0379 179.442 88.07 179.497Z" fill="#C75305"/>
<path d="M96.3726 57.9897C93.6048 57.6959 90.8197 57.4367 88.0693 57.0739C83.1778 56.4172 78.2863 55.6915 73.3949 54.9485C70.2964 54.4819 67.1978 53.9463 63.9949 53.4279C63.9949 53.929 63.9949 54.2919 63.9949 54.6547C63.9949 62.7415 63.9949 70.8282 64.2734 78.8459C64.4649 85.7576 64.7086 92.6694 65.3004 99.6675C65.9793 107.426 67.0412 115.219 68.016 122.908C68.1079 123.49 68.2299 124.067 68.3815 124.636V125.587C67.3545 125.759 66.3449 125.949 65.3178 126.088C64.5867 126.191 64.0123 126.26 63.8382 125.189C63.2638 121.509 62.4282 117.863 61.9408 114.182C61.3141 109.396 60.879 104.592 60.4438 99.7885C60.1827 96.9028 59.9912 94.0172 59.939 91.1488C59.6488 76.6111 59.3935 62.0734 59.173 47.5356C59.1673 47.432 59.1673 47.3282 59.173 47.2246C73.0989 51.6136 87.7037 52.0801 102.204 53.5834C102.204 55.0522 102.204 56.5036 102.204 57.9378L96.3726 57.9897Z" fill="#C75305"/>
<path d="M236.556 124.671C237.912 118.253 238.785 111.744 239.167 105.197C239.707 96.8683 240.229 88.5223 240.525 80.1764C240.821 71.4503 240.821 62.7069 240.943 53.9808C240.923 53.7941 240.888 53.6092 240.838 53.4279C239.376 53.6525 237.931 53.8944 236.487 54.1018L211.838 57.5577C210.724 57.7132 209.61 57.8342 208.495 57.9551H202.734V53.6007C217.199 52.0974 231.734 51.6309 245.782 47.2246C245.782 47.4492 245.782 47.7948 245.782 48.1404C245.782 58.3353 245.782 68.5301 245.504 78.7249C245.364 84.9282 244.929 91.1315 244.546 97.3175C244.268 101.81 244.041 106.32 243.484 110.778C242.875 115.616 241.865 120.386 241.117 125.206C240.943 126.278 240.368 126.226 239.637 126.105C238.61 125.949 237.601 125.777 236.574 125.604C236.574 125.293 236.568 124.982 236.556 124.671Z" fill="#C75305"/>
<path d="M121.057 201.737V192.458C121.875 192.458 122.797 191.922 123.319 192.959C125.245 191.857 127.661 192.086 129.342 193.529C130.5 192.52 132.054 192.082 133.572 192.337C135.292 192.336 136.702 193.689 136.758 195.395C136.88 197.486 136.758 199.611 136.758 201.754H134.669C134.669 200.026 134.669 198.488 134.669 196.881C134.669 195.274 133.903 194.099 132.528 194.082C131.153 194.065 130.056 195.17 130.004 196.916C129.952 198.661 130.004 200.061 130.004 201.719H127.828C127.828 200.078 127.828 198.471 127.828 196.864C127.828 195.257 127.079 194.099 125.687 194.082C124.294 194.065 123.232 195.188 123.198 196.933C123.163 198.678 123.198 200.078 123.198 201.719L121.057 201.737Z" fill="white"/>
<path d="M183.445 201.961L181.374 201.477C181.2 201.453 181.025 201.453 180.851 201.477C179.7 201.66 178.536 201.747 177.37 201.736C175.988 201.581 174.945 200.421 174.945 199.041C174.945 197.661 175.988 196.5 177.37 196.345C178.606 196.224 179.842 196.345 181.078 196.345C181.182 194.859 180.59 194.081 179.337 194.064C178.591 194.008 177.844 194.157 177.178 194.496C175.89 195.325 175.438 194.634 175.194 193.615C177.136 192.048 179.839 191.802 182.035 192.993C182.725 193.566 183.177 194.372 183.306 195.256C183.567 197.399 183.445 199.559 183.445 201.961ZM181.252 197.641C180.231 197.658 179.213 197.751 178.205 197.917C177.721 198.091 177.356 198.493 177.231 198.989C177.328 199.485 177.64 199.915 178.084 200.164C178.868 200.502 179.777 200.379 180.442 199.846C181.108 199.312 181.42 198.456 181.252 197.624V197.641Z" fill="white"/>
<path d="M139.021 197.106C139.178 194.457 141.388 192.389 144.061 192.389C146.733 192.389 148.943 194.457 149.1 197.106C148.943 199.754 146.733 201.822 144.061 201.822C141.388 201.822 139.178 199.754 139.021 197.106ZM144.017 194.064C143.236 194.095 142.501 194.437 141.977 195.013C141.453 195.588 141.184 196.349 141.232 197.123C141.189 197.915 141.47 198.692 142.01 199.277C142.55 199.862 143.305 200.206 144.104 200.233C145.704 200.047 146.901 198.687 146.872 197.088C146.887 195.517 145.681 194.2 144.104 194.064H144.017Z" fill="white"/>
<path d="M158.396 200.234V201.841H150.04C150.229 201.147 150.504 200.48 150.858 199.854C152.286 197.988 153.8 196.173 155.437 194.152H150.406V192.579H158.57C158.348 193.297 158.045 193.986 157.665 194.635C156.272 196.467 154.775 198.229 153.156 200.234H158.396Z" fill="white"/>
<path d="M174.411 190.056L169.815 203.085H168.231C168.388 202.514 168.509 202.013 168.683 201.547C169.902 198.091 171.19 194.635 172.339 191.179C172.705 190.039 173.192 189.624 174.411 190.056Z" fill="white"/>
<path d="M169.659 190.056L164.994 203.067H163.41C163.567 202.497 163.688 201.996 163.863 201.512C165.081 198.056 166.369 194.6 167.518 191.144C167.936 190.038 168.475 189.624 169.659 190.056Z" fill="white"/>
<path d="M216.337 115.017C215.875 115.139 215.403 115.22 214.927 115.259H173.723L174.733 115.708L172 115.415V115L216.337 115.017Z" fill="#4D6784"/>
<path d="M130.604 114.691L131.666 114.242H90.41C89.9337 114.203 89.4619 114.122 89 114H133.076V114.415L130.604 114.691Z" fill="#4D6784"/>
<path d="M215.475 74.0938C215.614 74.5441 215.708 75.0072 215.754 75.4761C215.754 81.5584 215.754 87.5717 215.754 93.7404C215.754 96.9716 215.893 100.186 215.928 103.417C215.901 103.859 215.837 104.298 215.736 104.73C215.736 102.017 215.562 99.2871 215.527 96.5742C215.475 89.1268 215.475 81.6448 215.475 74.0938Z" fill="#4D6784"/>
<path d="M89.1153 104.765C89.0156 104.292 88.9516 103.813 88.9238 103.331C88.9935 93.9768 89.0747 84.6286 89.1675 75.2862C89.2156 74.9023 89.3091 74.5253 89.446 74.1631C89.446 81.2707 89.4054 88.384 89.3242 95.5031C89.3242 98.3139 89.3242 101.125 89.3242 103.935C89.2765 104.217 89.2067 104.494 89.1153 104.765Z" fill="#4D6784"/>
<path d="M162.713 193.684C162.731 194.067 162.571 194.436 162.278 194.686C161.986 194.936 161.594 195.038 161.216 194.963C160.38 194.963 159.876 194.531 159.876 193.667C159.876 192.803 160.485 192.337 161.442 192.354C162.4 192.371 162.696 192.838 162.713 193.684Z" fill="white"/>
<path d="M159.771 200.891C159.962 199.422 160.676 199.249 161.512 199.318C162.347 199.387 162.678 200.009 162.608 200.787C162.601 201.172 162.404 201.53 162.081 201.743C161.758 201.957 161.35 202 160.989 201.858C160.537 201.72 160.102 201.133 159.771 200.891Z" fill="white"/>
<path d="M89.6198 74.0942C90.0555 73.9991 90.4977 73.9355 90.9427 73.9041H101.805L102.153 70.4482L102.327 74.0942H89.6198Z" fill="#4D6784"/>
<path d="M202.716 70.4307L203.047 73.8865C203.447 73.8865 203.882 73.8865 204.317 73.8865H213.926C214.371 73.9179 214.813 73.9815 215.249 74.0766H202.49L202.716 70.4307Z" fill="#4D6784"/>
<path d="M96.374 57.9893H102.136C102.136 61.8253 102.136 65.6613 102.136 69.4973C102.04 69.0648 101.976 68.6259 101.944 68.1841C101.944 64.9701 101.944 61.7389 101.944 58.4558L96.374 57.9893Z" fill="#4D6784"/>
<path d="M202.734 57.9375H208.495C207.312 58.0239 206.128 58.1276 205.014 58.1967C204.405 58.1967 203.795 58.1967 203.012 58.1967C203.012 60.8404 203.012 63.3805 203.012 65.8515C203.012 67.0265 202.89 68.2187 202.821 69.3073C202.763 65.5865 202.734 61.7966 202.734 57.9375Z" fill="#4D6784"/>
<path d="M89.1492 114.476C89.0267 114.232 88.9444 113.969 88.9055 113.699C88.9055 111.383 89.0274 109.068 89.097 106.787L89.1492 114.476Z" fill="#4D6784"/>
<path d="M222.926 179.948C222.536 179.778 222.127 179.656 221.707 179.585C220.123 179.585 218.539 179.585 216.955 179.481C218.696 179.481 220.436 179.481 222.073 179.481C222.438 179.499 222.647 179.792 222.926 179.948Z" fill="#C75305"/>
<path d="M87.9133 179.499L81.9252 179.719C82.8826 179.719 83.84 179.532 84.7974 179.499C85.7548 179.465 86.8689 179.499 87.9133 179.499Z" fill="#C75305"/>
<path d="M68.2953 125.604V124.653L70.2797 125.137L68.2953 125.604Z" fill="#4D6784"/>
<path d="M236.556 124.671C236.556 124.982 236.556 125.293 236.556 125.604L234.554 125.137L236.556 124.671Z" fill="#4D6784"/>
<path d="M218.016 122.477L219.496 122.714L218.016 122.477Z" fill="#4D6784"/>
<path d="M83.8586 122.887L85.3383 122.649L83.8586 122.887Z" fill="#4D6784"/>
<path d="M219.531 122.649L221.011 122.887L219.531 122.649Z" fill="#4D6784"/>
<path d="M85.3547 122.645L86.8344 122.407L85.3547 122.645Z" fill="#4D6784"/>
<path d="M82.3605 123.146L83.8401 122.908L82.3605 123.146Z" fill="#4D6784"/>
<path d="M221.029 122.908L222.508 123.146L221.029 122.908Z" fill="#4D6784"/>
<path d="M80.8458 123.388L82.3255 123.15L80.8458 123.388Z" fill="#4D6784"/>
<path d="M222.525 123.15L224.005 123.388L222.525 123.15Z" fill="#4D6784"/>
<path d="M79.3494 123.629L80.829 123.392L79.3494 123.629Z" fill="#4D6784"/>
<path d="M224.04 123.392L225.519 123.629L224.04 123.392Z" fill="#4D6784"/>
<path d="M77.8348 123.888L79.3145 123.65L77.8348 123.888Z" fill="#4D6784"/>
<path d="M225.536 123.65L227.016 123.888L225.536 123.65Z" fill="#4D6784"/>
<path d="M76.3385 124.201L77.8181 123.963L76.3385 124.201Z" fill="#4D6784"/>
<path d="M227.051 123.893L228.53 124.13L227.051 123.893Z" fill="#4D6784"/>
<path d="M74.8403 124.389L76.32 124.151L74.8403 124.389Z" fill="#4D6784"/>
<path d="M228.549 124.204L230.028 124.442L228.549 124.204Z" fill="#4D6784"/>
<path d="M73.3257 124.632L74.8053 124.395L73.3257 124.632Z" fill="#4D6784"/>
<path d="M230.062 124.395L231.541 124.632L230.062 124.395Z" fill="#4D6784"/>
<path d="M71.8293 124.874L73.309 124.636L71.8293 124.874Z" fill="#4D6784"/>
<path d="M231.56 124.636L233.039 124.874L231.56 124.636Z" fill="#4D6784"/>
<path d="M70.3149 125.133L71.7946 124.896L70.3149 125.133Z" fill="#4D6784"/>
<path d="M233.074 124.896L234.554 125.133L233.074 124.896Z" fill="#4D6784"/>
<path d="M108.159 118.896L109.43 118.675L108.159 118.896Z" fill="#4D6784"/>
<path d="M193.941 118.434L195.195 118.654L193.941 118.434Z" fill="#4D6784"/>
<path d="M109.674 118.654L110.944 118.434L109.674 118.654Z" fill="#4D6784"/>
<path d="M186.405 117.189L187.676 117.393L186.405 117.189Z" fill="#4D6784"/>
<path d="M117.194 117.411L118.464 117.207L117.194 117.411Z" fill="#4D6784"/>
<path d="M184.89 116.947L186.161 117.151L184.89 116.947Z" fill="#4D6784"/>
<path d="M118.69 117.151L119.961 116.947L118.69 117.151Z" fill="#4D6784"/>
<path d="M183.394 116.705L184.665 116.909L183.394 116.705Z" fill="#4D6784"/>
<path d="M120.205 116.909L121.475 116.705L120.205 116.909Z" fill="#4D6784"/>
<path d="M181.896 116.446L183.166 116.65L181.896 116.446Z" fill="#4D6784"/>
<path d="M121.701 116.667L122.972 116.463L121.701 116.667Z" fill="#4D6784"/>
<path d="M180.381 116.204L181.652 116.408L180.381 116.204Z" fill="#4D6784"/>
<path d="M123.216 116.408L124.504 116.204L123.216 116.408Z" fill="#4D6784"/>
<path d="M178.92 115.944L180.19 116.148L178.92 115.944Z" fill="#4D6784"/>
<path d="M192.428 118.19L193.682 118.411L192.428 118.19Z" fill="#4D6784"/>
<path d="M124.714 116.166L125.984 115.962L124.714 116.166Z" fill="#4D6784"/>
<path d="M177.37 115.702L178.641 115.906L177.37 115.702Z" fill="#4D6784"/>
<path d="M111.17 118.395L112.423 118.174L111.17 118.395Z" fill="#4D6784"/>
<path d="M126.21 115.906L127.481 115.702L126.21 115.906Z" fill="#4D6784"/>
<path d="M175.874 115.461L177.145 115.665L175.874 115.461Z" fill="#4D6784"/>
<path d="M127.725 115.665L128.995 115.461L127.725 115.665Z" fill="#4D6784"/>
<path d="M174.359 115.201L175.647 115.405L174.359 115.201Z" fill="#4D6784"/>
<path d="M129.221 115.424L130.509 115.22L129.221 115.424Z" fill="#4D6784"/>
<path d="M190.914 117.932L192.185 118.136L190.914 117.932Z" fill="#4D6784"/>
<path d="M112.685 118.153L113.955 117.949L112.685 118.153Z" fill="#4D6784"/>
<path d="M189.364 117.689L190.635 117.893L189.364 117.689Z" fill="#4D6784"/>
<path d="M114.181 117.894L115.452 117.673L114.181 117.894Z" fill="#4D6784"/>
<path d="M187.901 117.447L189.172 117.651L187.901 117.447Z" fill="#4D6784"/>
<path d="M115.679 117.651L116.95 117.447L115.679 117.651Z" fill="#4D6784"/>
<path d="M91.621 121.626L92.8743 121.405L91.621 121.626Z" fill="#4D6784"/>
<path d="M211.994 121.405L213.248 121.626L211.994 121.405Z" fill="#4D6784"/>
<path d="M90.1411 121.885L91.3944 121.664L90.1411 121.885Z" fill="#4D6784"/>
<path d="M213.509 121.664L214.745 121.885L213.509 121.664Z" fill="#4D6784"/>
<path d="M88.61 122.127L89.8633 121.906L88.61 122.127Z" fill="#4D6784"/>
<path d="M215.005 121.906L216.241 122.127L215.005 121.906Z" fill="#4D6784"/>
<path d="M87.1136 122.386L88.367 122.165L87.1136 122.386Z" fill="#4D6784"/>
<path d="M216.52 122.165L217.773 122.386L216.52 122.165Z" fill="#4D6784"/>
<path d="M210.496 121.163L211.749 121.384L210.496 121.163Z" fill="#4D6784"/>
<path d="M93.119 121.384L94.3724 121.163L93.119 121.384Z" fill="#4D6784"/>
<path d="M208.981 120.921L210.234 121.142L208.981 120.921Z" fill="#4D6784"/>
<path d="M94.6335 121.125L95.8869 120.904L94.6335 121.125Z" fill="#4D6784"/>
<path d="M207.485 120.748L208.738 120.969L207.485 120.748Z" fill="#4D6784"/>
<path d="M96.1298 120.883L97.3831 120.662L96.1298 120.883Z" fill="#4D6784"/>
<path d="M205.97 120.421L207.224 120.642L205.97 120.421Z" fill="#4D6784"/>
<path d="M97.6261 120.642L98.8794 120.421L97.6261 120.642Z" fill="#4D6784"/>
<path d="M204.474 120.179L205.727 120.4L204.474 120.179Z" fill="#4D6784"/>
<path d="M99.1409 120.382L100.394 120.161L99.1409 120.382Z" fill="#4D6784"/>
<path d="M202.959 119.919L204.213 120.14L202.959 119.919Z" fill="#4D6784"/>
<path d="M100.586 120.14L101.839 119.919L100.586 120.14Z" fill="#4D6784"/>
<path d="M201.461 119.678L202.715 119.899L201.461 119.678Z" fill="#4D6784"/>
<path d="M102.154 119.899L103.407 119.678L102.154 119.899Z" fill="#4D6784"/>
<path d="M199.949 119.435L201.202 119.655L199.949 119.435Z" fill="#4D6784"/>
<path d="M103.65 119.639L104.903 119.418L103.65 119.639Z" fill="#4D6784"/>
<path d="M198.45 119.177L199.704 119.398L198.45 119.177Z" fill="#4D6784"/>
<path d="M105.165 119.398L106.418 119.177L105.165 119.398Z" fill="#4D6784"/>
<path d="M196.936 118.934L198.189 119.154L196.936 118.934Z" fill="#4D6784"/>
<path d="M106.661 119.139L107.914 118.918L106.661 119.139Z" fill="#4D6784"/>
<path d="M195.439 118.675L196.71 118.896L195.439 118.675Z" fill="#4D6784"/>
<path d="M10.6321 137.182H15.1918V152.395C15.1918 153.801 14.8757 155.023 14.2436 156.06C13.6186 157.097 12.7486 157.896 11.6335 158.457C10.5185 159.018 9.2223 159.298 7.74503 159.298C6.43111 159.298 5.23793 159.067 4.16548 158.606C3.10014 158.137 2.25497 157.427 1.62997 156.475C1.00497 155.516 0.696023 154.312 0.703125 152.864H5.29474C5.30895 153.439 5.42614 153.933 5.64631 154.344C5.87358 154.749 6.18253 155.062 6.57315 155.282C6.97088 155.495 7.43963 155.602 7.9794 155.602C8.54759 155.602 9.02699 155.481 9.41761 155.239C9.81534 154.991 10.1172 154.629 10.3232 154.153C10.5291 153.677 10.6321 153.091 10.6321 152.395V137.182ZM26.3139 159.32C24.6591 159.32 23.228 158.968 22.0206 158.265C20.8203 157.555 19.8935 156.567 19.2401 155.303C18.5866 154.032 18.2599 152.558 18.2599 150.882C18.2599 149.192 18.5866 147.714 19.2401 146.45C19.8935 145.179 20.8203 144.192 22.0206 143.489C23.228 142.778 24.6591 142.423 26.3139 142.423C27.9688 142.423 29.3963 142.778 30.5966 143.489C31.804 144.192 32.7344 145.179 33.3878 146.45C34.0412 147.714 34.3679 149.192 34.3679 150.882C34.3679 152.558 34.0412 154.032 33.3878 155.303C32.7344 156.567 31.804 157.555 30.5966 158.265C29.3963 158.968 27.9688 159.32 26.3139 159.32ZM26.3352 155.804C27.0881 155.804 27.7166 155.591 28.2209 155.165C28.7251 154.732 29.1051 154.142 29.3608 153.396C29.6236 152.651 29.755 151.802 29.755 150.85C29.755 149.898 29.6236 149.05 29.3608 148.304C29.1051 147.558 28.7251 146.969 28.2209 146.536C27.7166 146.102 27.0881 145.886 26.3352 145.886C25.5753 145.886 24.9361 146.102 24.4176 146.536C23.9063 146.969 23.5192 147.558 23.2564 148.304C23.0007 149.05 22.8729 149.898 22.8729 150.85C22.8729 151.802 23.0007 152.651 23.2564 153.396C23.5192 154.142 23.9063 154.732 24.4176 155.165C24.9361 155.591 25.5753 155.804 26.3352 155.804ZM37.3189 159V142.636H41.8572V159H37.3189ZM39.5987 140.527C38.924 140.527 38.3452 140.303 37.8622 139.856C37.3864 139.401 37.1484 138.858 37.1484 138.226C37.1484 137.601 37.3864 137.065 37.8622 136.617C38.3452 136.163 38.924 135.935 39.5987 135.935C40.2734 135.935 40.8487 136.163 41.3246 136.617C41.8075 137.065 42.049 137.601 42.049 138.226C42.049 138.858 41.8075 139.401 41.3246 139.856C40.8487 140.303 40.2734 140.527 39.5987 140.527ZM50.0311 149.54V159H45.4927V142.636H49.818V145.523H50.0098C50.372 144.572 50.9792 143.819 51.8315 143.265C52.6838 142.704 53.7172 142.423 54.9316 142.423C56.068 142.423 57.0588 142.672 57.9039 143.169C58.7491 143.666 59.4061 144.376 59.8748 145.3C60.3436 146.216 60.5779 147.31 60.5779 148.581V159H56.0396V149.391C56.0467 148.389 55.791 147.608 55.2726 147.047C54.7541 146.479 54.0403 146.195 53.1312 146.195C52.5204 146.195 51.9806 146.326 51.5119 146.589C51.0502 146.852 50.688 147.235 50.4252 147.739C50.1696 148.237 50.0382 148.837 50.0311 149.54ZM83.0194 143.457C82.9341 142.597 82.5684 141.93 81.9221 141.454C81.2757 140.978 80.3986 140.74 79.2907 140.74C78.5378 140.74 77.9022 140.847 77.3837 141.06C76.8652 141.266 76.4675 141.553 76.1905 141.923C75.9206 142.292 75.7857 142.711 75.7857 143.18C75.7715 143.57 75.8532 143.911 76.0307 144.202C76.2154 144.494 76.4675 144.746 76.7871 144.959C77.1067 145.165 77.476 145.346 77.8951 145.502C78.3141 145.651 78.7615 145.779 79.2374 145.886L81.1976 146.354C82.1493 146.567 83.0229 146.852 83.8184 147.207C84.6138 147.562 85.3027 147.999 85.8851 148.517C86.4675 149.036 86.9185 149.646 87.2381 150.349C87.5648 151.053 87.7317 151.859 87.7388 152.768C87.7317 154.103 87.3908 155.261 86.7161 156.241C86.0485 157.214 85.0826 157.97 83.8184 158.51C82.5613 159.043 81.0449 159.309 79.2694 159.309C77.508 159.309 75.9739 159.039 74.6671 158.499C73.3674 157.96 72.3517 157.161 71.6202 156.102C70.8958 155.037 70.5158 153.719 70.4803 152.15H74.9441C74.9938 152.881 75.2033 153.492 75.5726 153.982C75.949 154.465 76.4498 154.831 77.0748 155.08C77.7069 155.321 78.4206 155.442 79.2161 155.442C79.9973 155.442 80.6756 155.328 81.2509 155.101C81.8333 154.874 82.2843 154.558 82.6039 154.153C82.9235 153.748 83.0833 153.283 83.0833 152.757C83.0833 152.267 82.9377 151.855 82.6465 151.521C82.3624 151.187 81.9434 150.903 81.3894 150.669C80.8425 150.435 80.1713 150.222 79.3759 150.03L77.0002 149.433C75.1607 148.986 73.7083 148.286 72.6429 147.335C71.5776 146.383 71.0485 145.101 71.0556 143.489C71.0485 142.168 71.4 141.013 72.1103 140.026C72.8276 139.039 73.8113 138.268 75.0613 137.714C76.3113 137.161 77.7317 136.884 79.3226 136.884C80.9419 136.884 82.3553 137.161 83.5627 137.714C84.7772 138.268 85.7218 139.039 86.3965 140.026C87.0712 141.013 87.4192 142.157 87.4405 143.457H83.0194ZM90.8416 159V137.182H99.4496C101.097 137.182 102.504 137.477 103.668 138.066C104.84 138.648 105.732 139.476 106.342 140.548C106.96 141.614 107.269 142.867 107.269 144.309C107.269 145.758 106.957 147.004 106.332 148.048C105.707 149.085 104.801 149.881 103.615 150.435C102.436 150.989 101.009 151.266 99.3324 151.266H93.5689V147.558H98.5866C99.4673 147.558 100.199 147.437 100.781 147.196C101.364 146.955 101.797 146.592 102.081 146.109C102.372 145.626 102.518 145.026 102.518 144.309C102.518 143.585 102.372 142.974 102.081 142.477C101.797 141.979 101.36 141.603 100.771 141.347C100.188 141.085 99.4531 140.953 98.5653 140.953H95.4545V159H90.8416ZM102.624 149.071L108.047 159H102.955L97.6491 149.071H102.624ZM110.529 137.182H116.218L122.227 151.841H122.482L128.491 137.182H134.18V159H129.705V144.799H129.524L123.878 158.893H120.831L115.185 144.746H115.004V159H110.529V137.182ZM137.98 159V137.182H142.593V146.802H142.881L150.732 137.182H156.262L148.165 146.951L156.357 159H150.839L144.862 150.03L142.593 152.8V159H137.98ZM158.43 159V156.262L169.317 140.985H158.408V137.182H175.113V139.92L164.214 155.197H175.134V159H158.43ZM183.287 137.182V159H178.674V137.182H183.287ZM187.082 159V137.182H191.695V155.197H201.048V159H187.082ZM204.103 159V137.182H208.716V155.197H218.07V159H204.103ZM225.442 159H220.499L228.031 137.182H233.975L241.497 159H236.554L231.088 142.168H230.918L225.442 159ZM225.133 150.424H236.809V154.025H225.133V150.424ZM250.235 140.985V137.182H268.154V140.985H261.475V159H256.915V140.985H250.235ZM276.04 159.32C274.386 159.32 272.955 158.968 271.747 158.265C270.547 157.555 269.62 156.567 268.967 155.303C268.313 154.032 267.987 152.558 267.987 150.882C267.987 149.192 268.313 147.714 268.967 146.45C269.62 145.179 270.547 144.192 271.747 143.489C272.955 142.778 274.386 142.423 276.04 142.423C277.695 142.423 279.123 142.778 280.323 143.489C281.531 144.192 282.461 145.179 283.114 146.45C283.768 147.714 284.094 149.192 284.094 150.882C284.094 152.558 283.768 154.032 283.114 155.303C282.461 156.567 281.531 157.555 280.323 158.265C279.123 158.968 277.695 159.32 276.04 159.32ZM276.062 155.804C276.815 155.804 277.443 155.591 277.947 155.165C278.452 154.732 278.832 154.142 279.087 153.396C279.35 152.651 279.482 151.802 279.482 150.85C279.482 149.898 279.35 149.05 279.087 148.304C278.832 147.558 278.452 146.969 277.947 146.536C277.443 146.102 276.815 145.886 276.062 145.886C275.302 145.886 274.663 146.102 274.144 146.536C273.633 146.969 273.246 147.558 272.983 148.304C272.727 149.05 272.599 149.898 272.599 150.85C272.599 151.802 272.727 152.651 272.983 153.396C273.246 154.142 273.633 154.732 274.144 155.165C274.663 155.591 275.302 155.804 276.062 155.804ZM293.075 159.266C291.832 159.266 290.707 158.947 289.698 158.308C288.697 157.661 287.901 156.713 287.312 155.463C286.729 154.206 286.438 152.665 286.438 150.839C286.438 148.964 286.74 147.406 287.344 146.163C287.947 144.913 288.75 143.979 289.751 143.361C290.76 142.736 291.864 142.423 293.065 142.423C293.981 142.423 294.744 142.58 295.355 142.892C295.973 143.197 296.47 143.581 296.847 144.043C297.23 144.497 297.521 144.945 297.72 145.385H297.859V137.182H302.386V159H297.912V156.379H297.72C297.507 156.834 297.205 157.285 296.815 157.732C296.431 158.173 295.93 158.538 295.312 158.83C294.702 159.121 293.956 159.266 293.075 159.266ZM294.513 155.655C295.245 155.655 295.863 155.456 296.367 155.058C296.879 154.653 297.269 154.089 297.539 153.364C297.816 152.64 297.955 151.791 297.955 150.818C297.955 149.845 297.82 149 297.55 148.283C297.28 147.565 296.889 147.011 296.378 146.621C295.866 146.23 295.245 146.035 294.513 146.035C293.768 146.035 293.139 146.237 292.628 146.642C292.116 147.047 291.729 147.608 291.467 148.325C291.204 149.043 291.072 149.874 291.072 150.818C291.072 151.77 291.204 152.612 291.467 153.343C291.737 154.067 292.124 154.636 292.628 155.048C293.139 155.452 293.768 155.655 294.513 155.655ZM310.784 159.309C309.74 159.309 308.809 159.128 307.993 158.766C307.176 158.396 306.53 157.853 306.054 157.136C305.585 156.411 305.351 155.509 305.351 154.43C305.351 153.521 305.518 152.757 305.851 152.139C306.185 151.521 306.64 151.024 307.215 150.648C307.79 150.271 308.444 149.987 309.175 149.795C309.914 149.604 310.688 149.469 311.498 149.391C312.449 149.291 313.216 149.199 313.799 149.114C314.381 149.021 314.804 148.886 315.067 148.709C315.329 148.531 315.461 148.268 315.461 147.92V147.857C315.461 147.182 315.248 146.66 314.822 146.29C314.403 145.921 313.806 145.737 313.032 145.737C312.215 145.737 311.565 145.918 311.082 146.28C310.599 146.635 310.28 147.082 310.123 147.622L305.926 147.281C306.139 146.287 306.558 145.428 307.183 144.703C307.808 143.972 308.614 143.411 309.601 143.02C310.596 142.622 311.746 142.423 313.053 142.423C313.962 142.423 314.832 142.53 315.663 142.743C316.501 142.956 317.243 143.286 317.89 143.734C318.543 144.181 319.058 144.756 319.434 145.46C319.811 146.156 319.999 146.99 319.999 147.963V159H315.695V156.731H315.567C315.305 157.242 314.953 157.693 314.513 158.084C314.072 158.467 313.543 158.769 312.925 158.989C312.307 159.202 311.594 159.309 310.784 159.309ZM312.084 156.177C312.751 156.177 313.341 156.045 313.852 155.783C314.363 155.513 314.765 155.151 315.056 154.696C315.347 154.241 315.493 153.727 315.493 153.151V151.415C315.351 151.507 315.155 151.592 314.907 151.67C314.665 151.741 314.392 151.809 314.086 151.873C313.781 151.93 313.476 151.983 313.17 152.033C312.865 152.075 312.588 152.114 312.339 152.15C311.807 152.228 311.341 152.352 310.944 152.523C310.546 152.693 310.237 152.924 310.017 153.215C309.797 153.499 309.687 153.854 309.687 154.281C309.687 154.898 309.91 155.371 310.358 155.697C310.812 156.017 311.388 156.177 312.084 156.177ZM325.736 165.136C325.161 165.136 324.621 165.09 324.117 164.998C323.619 164.913 323.208 164.803 322.881 164.668L323.904 161.28C324.436 161.443 324.916 161.532 325.342 161.546C325.775 161.56 326.148 161.461 326.46 161.248C326.78 161.035 327.039 160.673 327.238 160.161L327.504 159.469L321.634 142.636H326.407L329.795 154.653H329.965L333.385 142.636H338.19L331.83 160.768C331.524 161.649 331.109 162.416 330.583 163.07C330.065 163.73 329.408 164.238 328.612 164.593C327.817 164.955 326.858 165.136 325.736 165.136Z" fill="#F1F1F1"/>
</svg>
