<svg width="222" height="298" viewBox="0 0 222 298" fill="none" xmlns="http://www.w3.org/2000/svg">
<g clip-path="url(#clip0_166_160)">
<path d="M111.422 14.6396H138.21C140.385 14.6396 142.348 16.2766 142.44 18.4459C142.546 20.7349 140.716 22.6247 138.462 22.6247H136.473L134.55 24.5545L132.627 22.6247H111.674C109.499 22.6247 107.537 20.9878 107.444 18.8185C107.338 16.5295 109.168 14.6396 111.422 14.6396Z" fill="#FBC93B"/>
<path d="M118.743 19.9627H137.839C138.104 19.6167 138.316 19.4037 138.316 19.1376C138.316 18.8714 138.104 18.6585 137.839 18.6318H118.743C118.477 18.6585 118.265 18.8714 118.265 19.1376C118.265 19.4037 118.477 19.6167 118.743 19.9627Z" fill="white"/>
<path d="M124.71 17.3016H137.839C138.104 16.9821 138.316 16.7692 138.316 16.503C138.316 16.2369 138.104 16.0239 137.839 15.9707H124.71C124.445 16.0239 124.233 16.2369 124.233 16.503C124.233 16.7692 124.445 16.9821 124.71 17.3016Z" fill="white"/>
<path d="M48.3785 54.5645H75.312C77.0492 54.5645 78.6804 55.6158 79.2108 57.2661C80.0728 60.0209 78.0438 62.5495 75.4314 62.5495H73.4422L71.5193 64.4793L69.5964 62.5495H48.4978C46.7606 62.5495 45.1295 61.4982 44.599 59.8479C43.737 57.0931 45.766 54.5645 48.3785 54.5645Z" fill="#86E563"/>
<path d="M73.8931 58.5574H50.0626C49.8239 58.5574 49.625 58.3578 49.625 58.1182C49.625 57.8787 49.8239 57.6791 50.0626 57.2266H73.8931C74.1318 57.6791 74.3307 57.8787 74.3307 58.1182C74.3307 58.3578 74.1318 58.5574 73.8931 58.5574Z" fill="white"/>
</g>
<g clip-path="url(#clip1_166_160)">
<path d="M195.419 216.214C207.635 223.279 207.702 234.748 195.565 241.814L138.571 274.998C126.434 282.063 106.688 282.063 94.4577 274.998L37.092 241.814C24.8752 234.748 24.8088 223.279 36.9459 216.214L93.9398 183.029C106.077 175.964 125.823 175.964 138.053 183.029L195.419 216.214Z" fill="#FF644E" fill-opacity="0.8"/>
<path d="M190.303 164.717C202.52 171.782 202.586 183.252 190.449 190.317L133.455 223.501C121.318 230.567 101.572 230.567 90.1784 222.344L32.8126 189.159C19.7593 183.252 19.6929 171.796 31.8433 164.73L88.8372 131.546C100.974 124.481 120.72 124.481 132.95 131.546L190.316 164.73L190.303 164.717Z" stroke="white" stroke-miterlimit="10"/>
<path d="M210.434 144.214L138.913 185.86C123.682 194.735 98.9028 194.735 83.5654 185.86L11.5794 144.214C3.86425 139.743 3.42248e-05 133.889 0.0265924 128.034L3.42245e-05 136.324C-0.0132449 142.178 3.83769 148.033 11.5529 152.503L83.5389 194.15C98.8762 203.025 123.655 203.025 138.886 194.15L210.407 152.503C217.976 148.099 221.761 142.324 221.788 136.55L221.814 128.26C221.801 134.035 218.003 139.81 210.434 144.214Z" fill="#A6D0F4"/>
<path d="M210.461 112.107C225.798 120.982 225.878 135.352 210.646 144.227L139.152 185.86C123.921 194.735 99.1551 194.735 83.8178 185.86L11.8451 144.213C-3.49231 135.338 -3.57199 120.968 11.6591 112.094L83.1538 70.4735C98.3849 61.5987 123.15 61.5987 138.488 70.4735L210.447 112.107H210.461Z" fill="white"/>
<path d="M144.994 44.208C144.994 44.208 142.246 44.3544 140.719 48.3328C139.191 52.3111 135.221 60.7203 135.221 60.7203L122.247 58.7378C122.247 58.7378 120.109 60.7203 121.49 62.7161C122.407 63.4746 135.832 66.3885 137.359 66.0825C138.886 65.7764 144.835 56.4492 144.835 56.4492C144.835 56.4492 149.111 48.04 148.5 46.3502C147.889 44.6737 144.994 44.208 144.994 44.208Z" fill="#113570"/>
<path d="M156.056 115.34C157.156 115.34 158.048 114.447 158.048 113.344C158.048 112.242 157.156 111.349 156.056 111.349C154.956 111.349 154.064 112.242 154.064 113.344C154.064 114.447 154.956 115.34 156.056 115.34Z" fill="#333333"/>
<path d="M141.21 102.606C141.21 103.631 140.387 104.456 139.364 104.456C138.342 104.456 137.518 103.631 137.518 102.606C137.518 101.582 138.342 100.757 139.364 100.757C140.387 100.757 141.21 101.582 141.21 102.606Z" fill="#333333"/>
<path d="M174.846 102.606C174.846 103.631 174.023 104.456 173 104.456C171.978 104.456 171.154 103.631 171.154 102.606C171.154 101.582 171.978 100.757 173 100.757C174.023 100.757 174.846 101.582 174.846 102.606Z" fill="#333333"/>
<path d="M159.031 102.34C158.938 102.407 158.845 102.473 158.738 102.54C158.619 102.62 158.486 102.686 158.34 102.739L157.45 111.348H155.034L154.051 102.739C153.918 102.686 153.799 102.62 153.679 102.553C153.56 102.486 153.453 102.42 153.347 102.34L138.129 101.795L139.457 100.397V102.713L153.347 103.258C153.453 103.338 153.56 103.405 153.679 103.471C153.799 103.538 153.918 103.604 154.051 103.657L155.034 112.692H157.45L158.34 103.657C158.486 103.591 158.619 103.524 158.738 103.458C158.738 103.458 158.752 103.458 158.765 103.458C158.858 103.405 158.951 103.338 159.031 103.271L173.983 102.726V101.808L159.031 102.353V102.34Z" fill="url(#paint0_linear_166_160)"/>
<path d="M173.983 100.677V102.047L159.509 102.579C159.309 102.726 159.084 102.859 158.831 102.978L157.955 111.348H155.578L154.609 102.978C154.476 102.925 154.356 102.859 154.237 102.792C154.117 102.726 154.011 102.659 153.918 102.579L139.431 102.047V100.677L153.905 100.144C154.104 99.998 154.33 99.865 154.582 99.7452L155.445 91.376H157.822L158.778 99.7452C158.911 99.7984 159.031 99.865 159.15 99.9315C159.27 99.998 159.376 100.065 159.469 100.144L173.956 100.677H173.983Z" fill="#615D6C"/>
<path d="M157.57 92.7208C157.49 92.8805 157.397 92.8139 157.291 92.7474C156.614 92.3615 155.525 92.3615 154.861 92.7474C154.755 92.8139 154.649 92.8805 154.582 92.7208H154.078V101.077C154.356 101.33 154.529 101.582 154.861 101.782C155.538 102.168 156.627 102.168 157.291 101.782C157.623 101.582 157.796 101.33 158.048 101.077V92.7208H157.57Z" fill="url(#paint1_linear_166_160)"/>
<path d="M157.278 92.2542C157.955 92.6401 157.955 93.2788 157.278 93.6646C156.6 94.0505 155.512 94.0505 154.848 93.6646C154.17 93.2788 154.17 92.6401 154.848 92.2542C155.525 91.8684 156.614 91.8684 157.278 92.2542Z" fill="#4D4D4D"/>
<path d="M159.031 87.3983C158.765 87.1454 158.367 86.9326 157.809 86.7862C157.105 86.5999 156.348 86.5999 155.631 86.7862C155.073 86.9326 154.662 87.1454 154.409 87.3983H154.064V93.5721C154.064 94.091 154.556 94.6099 155.551 94.8893C156.308 95.1022 157.118 95.1022 157.875 94.8893C158.871 94.6099 159.363 94.091 159.363 93.5721V87.3983H159.017H159.031Z" fill="url(#paint2_linear_166_160)"/>
<path d="M157.172 85.9478C159.057 86.5066 159.057 88.0101 157.172 88.5823C156.454 88.7952 155.684 88.7952 154.967 88.5823C153.082 88.0234 153.082 86.5199 154.967 85.9478C155.684 85.7349 156.454 85.7349 157.172 85.9478Z" fill="#4D4D4D"/>
<path d="M151.408 96.5522L131.49 84.9497L131.476 83.2998L151.408 94.9023V96.5522Z" fill="#535685"/>
<path d="M151.448 94.8363L131.769 83.3801L132.95 80.373L152.63 91.8425L151.448 94.8363Z" fill="#696FA3"/>
<path d="M152.63 91.8421L132.95 80.3727L151.01 69.9277L170.676 81.3972L152.63 91.8421Z" fill="#7B81B3"/>
<path d="M173.279 50.3552L153.599 38.8857L157.291 36.7568L176.971 48.213L173.279 50.3552Z" fill="#7B81B3"/>
<path d="M170.676 81.3972L151.01 69.9278L153.599 38.8857L173.279 50.3552L170.676 81.3972Z" fill="#696FA3"/>
<path d="M173.226 50.3551L176.931 48.2129L174.78 82.9539L170.291 85.5485L151.408 96.4724L151.395 94.8358L152.577 91.8421L170.637 81.3971L173.226 50.3551Z" fill="#535685"/>
<path d="M149.323 77.4447C149.323 77.4447 141.183 88.0493 139.962 91.3091C138.74 94.569 134.677 121.074 134.677 121.074C134.677 121.074 130.613 126.369 131.012 128.006C131.423 129.643 139.962 125.97 140.785 123.522V119.85L142.418 119.038L149.337 92.9324C149.337 92.9324 159.11 86.4127 159.509 82.7403C159.92 79.068 155.445 74.584 149.337 77.4447H149.323Z" fill="#1F2F3F"/>
<path d="M144.556 72.4026C144.556 72.4026 133.189 79.8937 130.746 82.7411C128.303 85.6018 120.973 111.282 120.973 111.282C120.973 111.282 116.498 115.766 117.719 116.577C118.941 117.389 125.049 115.353 125.859 113.717C126.669 112.08 124.638 114.528 126.669 112.08C128.701 109.632 137.664 88.0234 137.664 88.0234L149.47 80.6787L144.556 72.376V72.4026Z" fill="#1F2F3F"/>
<path d="M143.003 67.8246C143.003 69.368 142.06 75.8212 142.06 76.7659C142.684 78.7751 145.951 84.3102 150.253 85.1884C151.461 85.3082 153.719 85.521 155.724 85.1485C157.437 84.8292 159.734 81.3963 160.73 79.8928C160.624 76.726 159.987 74.3044 159.216 72.5614C156.999 70.8849 154.476 69.9002 152.245 68.8225C149.868 67.6782 144.543 65.4162 143.003 67.8379V67.8246Z" fill="#1F2F3F"/>
<path d="M143.003 67.8249C143.733 71.0182 150.107 73.9322 153.533 74.1451C156.295 74.318 158.393 73.7459 159.23 72.5484C161.182 68.0245 165.112 56.4619 164.183 53.4016C162.045 50.4876 158.964 47.6003 156.786 46.2565C153.772 44.3671 147.212 43.7949 144.543 44.6731C141.728 45.5912 142.246 51.4723 142.325 55.1579C142.405 58.4444 142.737 64.0594 143.016 67.8249H143.003Z" fill="#C7BFCE"/>
<path d="M157.61 46.376C157.61 46.376 157.942 49.6226 155.936 51.4055C155.936 51.4055 154.595 55.65 153.254 58.1115C151.913 60.5731 150.133 71.9627 150.133 71.9627C150.133 71.9627 152.364 85.8139 152.816 86.7187C153.267 87.6101 159.283 85.8272 161.288 82.4742C162.403 80.0126 162.178 78.895 162.178 78.895L161.062 71.9627C161.062 71.9627 165.072 57.2068 165.072 55.1976C165.072 53.1885 164.621 51.6184 163.957 51.1793C163.293 50.7269 157.596 46.376 157.596 46.376H157.61Z" fill="#113C7A"/>
<path d="M150.359 44.8068C150.359 44.8068 147.677 48.4925 147.571 50.8476C147.464 53.2027 146.787 57.4472 146.787 57.4472L144.556 72.416L140.094 77.7782L141.21 68.1715C141.21 68.1715 140.758 50.0625 141.661 47.8272C142.551 45.5918 143.613 45.0995 144.53 44.4476C145.446 43.7956 150.359 44.8068 150.359 44.8068Z" fill="#113C7A"/>
<path d="M148.567 50.0625L149.124 53.0829L148.46 54.5332L148.792 55.7573L146.004 69.0629L146.336 71.1785L148.567 69.502L150.359 55.9835L151.355 54.307L151.249 53.2958L153.586 51.8455L148.567 50.0625Z" fill="#113C7A"/>
<path d="M155.857 44.8467C155.857 44.8467 156.932 45.0729 157.716 46.1905L158.38 47.6009C158.38 47.6009 157.822 50.0625 155.923 51.5128C154.024 52.9631 152.802 54.2005 152.802 54.2005L152.019 52.1914L149.788 52.8567L149.124 50.2887L147.557 50.8475C147.557 50.8475 148.221 48.7186 148.673 47.9469C149.124 47.1619 155.843 44.86 155.843 44.86L155.857 44.8467Z" fill="white"/>
<path d="M149.204 44.234C149.204 43.4357 151.966 42.5176 153.36 42.5176C154.755 42.5176 156.109 43.1429 156.149 43.928C156.149 43.928 156.428 46.2298 156.64 47.454C156.8 49.5962 153.214 51.6985 151.262 50.94C150.279 50.5542 150.094 49.9953 149.974 49.543L149.23 44.2473L149.204 44.234Z" fill="#FF7240"/>
<path d="M146.083 43.8083C145.884 43.1297 146.083 41.227 146.083 41.227C146.083 41.227 145.884 40.402 145.858 39.8964C145.672 36.6498 147.982 33.5895 151.74 32.9908C155.219 32.4452 157.623 34.3213 158.367 36.6099C158.818 37.9671 158.938 40.3222 158.114 42.0386C157.556 43.2095 156.521 44.2606 155.498 44.7796C155.498 45.2453 155.352 46.0037 155.033 46.2831C153.719 47.4407 150.837 49.5696 149.31 49.0108C148.66 48.7713 147.942 48.412 147.637 47.8931C146.8 46.4561 146.508 45.192 146.097 43.8083H146.083Z" fill="#FF9554"/>
<path d="M149.31 32.1793C149.31 32.1793 145.141 34.4147 145.446 37.6879C145.897 39.9232 148.128 40.3756 149.908 40.3756C151.687 40.3756 152.59 41.8658 153.174 42.0122C153.772 42.1585 154.369 42.1585 154.369 42.1585L155.113 43.6488L155.565 41.2671L156.308 44.3939C156.308 44.3939 158.685 42.7573 159.137 40.2159C159.588 37.6879 159.588 35.1465 158.101 33.5099C156.614 31.8733 152.603 30.3831 149.323 32.166L149.31 32.1793Z" fill="#171E26"/>
<path d="M155.392 41.4136C156.029 40.5354 157.317 40.8548 157.317 42.2385C157.317 43.8618 156.215 44.7666 155.392 44.7666V41.4003V41.4136Z" fill="#FF9554"/>
<path d="M66.4884 119.238L63.7662 117.655L63.6865 86.4131L66.422 88.0098L66.4884 119.238Z" fill="#CB6A50"/>
<path d="M66.9797 86.6129L63.9919 84.8698L104.613 61.3721L107.601 63.1151L66.9797 86.6129Z" fill="#DBDBDB"/>
<path d="M107.587 62.6631L107.667 97.3775L66.422 121.248L66.3423 86.5201L107.587 62.6631Z" fill="#F58688"/>
<path d="M70.4058 80.2793L70.3262 114.302L139.457 154.245L139.537 120.223L70.4058 80.2793Z" fill="#F5A588"/>
<path d="M70.3527 99.2804L139.457 139.211L139.497 120.184L70.4058 80.2666L70.3527 99.2804Z" fill="#CF7A68"/>
<path d="M136.868 156.188L134.145 154.605L134.066 123.363L136.801 124.96L136.868 156.188Z" fill="#CB6A50"/>
<path d="M136.668 123.55L133.681 121.82L174.288 98.3223L177.276 100.065L136.668 123.55Z" fill="#DBDBDB"/>
<path d="M177.966 99.6133L178.046 134.328L136.801 158.198L136.722 123.47L177.966 99.6133Z" fill="#F5B99C"/>
<path d="M183.278 99.041L183.265 102.274L136.801 129.338V126.091L183.278 99.041Z" fill="#E18B70"/>
<path d="M136.801 126.011L136.788 129.231L57.1267 82.8342V79.6143L136.801 126.011Z" fill="#D78C63"/>
<path d="M182.84 99.1736L136.801 125.984L57.2196 79.6409L103.272 52.8301L182.84 99.1736Z" fill="#FFC5A8"/>
<path d="M151.196 84.2842L150.173 85.5083C150.173 85.5083 148.646 86.626 148.235 87.238C147.823 87.8501 146.814 90.8039 147.212 90.9104C147.624 91.0168 147.823 91.2164 148.633 91.2164C149.443 91.2164 151.993 89.6863 152.497 88.9678C153.002 88.2493 153.307 86.3466 153.307 86.3466L153.812 85.4019L151.169 84.2842H151.196Z" fill="#FF9554"/>
<path d="M151.355 82.9004L150.439 84.5104C150.439 84.5104 151.581 85.8809 153.334 86.3465L153.865 86.5727L154.622 84.8962L151.342 82.9137L151.355 82.9004Z" fill="white"/>
<path d="M162.297 51.4463C163.227 51.26 164.103 51.4197 164.714 52.1515C165.298 52.8434 165.896 53.9611 165.962 55.6775C166.122 59.1902 165.152 70.0476 164.834 71.4314C164.515 72.8019 154.861 85.3491 154.861 85.3491C154.861 85.3491 152.63 86.1075 150.585 83.0605L158.619 68.9964C158.619 68.9964 159.535 57.4205 159.535 55.438C159.535 53.8546 160.969 51.739 162.284 51.4596L162.297 51.4463Z" fill="#113570"/>
<path d="M122.287 59.0438L120.92 58.8975C120.92 58.8975 120.003 60.3877 120.495 61.9578C120.614 62.184 120.667 62.317 120.667 62.317L121.849 62.5432C121.849 62.5432 122.845 61.2259 122.287 59.0438Z" fill="white"/>
<path d="M120.827 59.3494L119.552 58.9901L117.055 57.7128C117.055 57.7128 115.887 56.9943 115.887 57.3535C115.887 57.7128 116.086 58.3781 116.551 58.5776C117.002 58.7772 117.055 59.03 117.055 59.03L115.422 58.724C115.422 58.724 113.178 58.6176 113.231 58.8837C113.284 59.1365 113.483 59.6022 113.895 59.855C114.307 60.1078 116.444 61.9972 117.055 62.1036C117.666 62.2101 119.698 61.9573 119.698 61.9573L120.256 61.8109L120.92 61.9174C120.92 61.9174 121.637 61.1589 120.813 59.3627L120.827 59.3494Z" fill="#FF9554"/>
<path d="M117.932 76.7396C119.871 77.8706 119.884 79.6802 117.958 80.7978L105.529 88.0361C103.604 89.1538 100.47 89.1671 98.531 88.0361L86.0221 80.7978C84.0833 79.6802 84.0701 77.8573 85.9955 76.7396L98.4248 69.5013C100.35 68.3837 103.484 68.3837 105.423 69.5013L117.932 76.7396Z" fill="#E18B70"/>
<path d="M106.246 78.6957C106.246 78.7223 106.22 78.7622 106.193 78.7888C106.193 78.7888 106.193 78.7888 106.193 78.8021C106.167 78.8287 106.14 78.8553 106.113 78.882C106.1 78.8953 106.074 78.9086 106.047 78.9219C106.02 78.9352 105.994 78.9618 105.967 78.9751L101.001 81.7427L95.6362 78.6425V79.015L101.001 82.1152L105.967 79.3477C105.967 79.3477 105.981 79.3477 105.994 79.3343C106.007 79.3343 106.02 79.3077 106.047 79.2944C106.074 79.2811 106.087 79.2678 106.113 79.2545C106.14 79.2279 106.153 79.2146 106.167 79.188C106.167 79.188 106.167 79.188 106.167 79.1747C106.167 79.1747 106.18 79.1481 106.193 79.1348C106.193 79.1215 106.206 79.0948 106.22 79.0815C106.22 79.0815 106.22 79.0549 106.22 79.0416C106.22 79.0283 106.22 79.0017 106.22 78.9884V78.6025C106.22 78.6425 106.22 78.6691 106.206 78.709L106.246 78.6957Z" fill="#BAC0D2"/>
<path d="M106.578 78.11C106.977 78.3362 106.963 78.7221 106.565 78.9349L101.413 81.809L95.8488 78.589L100.204 75.2626C100.589 75.0231 101.24 75.0098 101.638 75.2493L106.578 78.11Z" fill="white"/>
<path d="M114.2 65.9355C114.639 66.1883 115.05 66.7738 115.117 67.2395L117.786 85.1888C117.852 85.6545 117.56 85.8408 117.122 85.588L89.9262 69.8341C89.488 69.5813 89.0896 68.9958 89.0099 68.5301L86.3408 50.5808C86.2744 50.1151 86.5666 49.9289 87.0048 50.1817L114.2 65.9355Z" fill="#C7C9D7"/>
<path d="M118.211 85.4284C118.211 85.4284 118.211 85.4018 118.211 85.3885C118.211 85.3885 118.211 85.3619 118.211 85.3486C118.211 85.3486 118.211 85.3219 118.211 85.3086C118.211 85.3086 118.211 85.282 118.211 85.2687L115.542 67.3194C115.542 67.3194 115.542 67.2928 115.542 67.2795C115.542 67.2795 115.542 67.2529 115.542 67.2396C115.542 67.2396 115.542 67.213 115.542 67.1997C115.542 67.1864 115.542 67.1731 115.542 67.1598C115.542 67.1598 115.542 67.1331 115.542 67.1198C115.542 67.1198 115.542 67.0932 115.542 67.0799C115.542 67.0799 115.542 67.0533 115.542 67.04C115.542 67.0267 115.542 67.0134 115.528 67.0001C115.528 67.0001 115.528 66.9735 115.515 66.9602C115.515 66.9602 115.515 66.9336 115.502 66.9202C115.502 66.9202 115.502 66.9069 115.502 66.8936C115.502 66.8936 115.502 66.867 115.488 66.867C115.488 66.867 115.488 66.8537 115.475 66.8404C115.475 66.8404 115.475 66.8271 115.475 66.8138C115.475 66.8138 115.475 66.8005 115.475 66.7872C115.475 66.7872 115.475 66.7739 115.475 66.7606C115.475 66.7606 115.475 66.7473 115.475 66.734C115.475 66.734 115.475 66.7207 115.475 66.7074C115.475 66.7074 115.475 66.6941 115.475 66.6807V66.6674C115.475 66.6674 115.475 66.6674 115.475 66.6541C115.475 66.6408 115.475 66.6408 115.475 66.6275C115.475 66.6275 115.475 66.6142 115.462 66.6009C115.462 66.6009 115.462 66.5876 115.449 66.5743C115.449 66.5743 115.449 66.5743 115.449 66.561C115.449 66.561 115.449 66.561 115.449 66.5477C115.422 66.5078 115.395 66.4679 115.369 66.4412C115.369 66.4412 115.356 66.4146 115.342 66.4146C115.342 66.4146 115.342 66.4013 115.316 66.388C115.316 66.388 115.316 66.388 115.303 66.3747C115.303 66.3747 115.303 66.3747 115.289 66.3614C115.289 66.3614 115.289 66.3614 115.276 66.3481C115.276 66.3481 115.276 66.3481 115.263 66.3348C115.263 66.3348 115.263 66.3348 115.249 66.3215C115.236 66.3082 115.249 66.3215 115.236 66.3082C115.236 66.3082 115.236 66.3082 115.223 66.2949C115.223 66.2949 115.21 66.2816 115.196 66.2683C115.183 66.255 115.183 66.2683 115.17 66.255C115.17 66.255 115.156 66.2417 115.143 66.2284C115.143 66.2284 115.13 66.2151 115.117 66.2017C115.117 66.2017 115.103 66.1884 115.09 66.1751C115.09 66.1751 115.064 66.1618 115.064 66.1485C115.064 66.1485 115.05 66.1352 115.037 66.1219C115.037 66.1219 115.01 66.1086 115.01 66.0953C115.01 66.0953 114.984 66.082 114.971 66.0687C114.971 66.0687 114.944 66.0554 114.944 66.0421C114.944 66.0421 114.917 66.0421 114.917 66.0288L87.7218 50.2749C87.7218 50.2749 87.6953 50.2749 87.6953 50.2616C87.6953 50.2483 87.6687 50.2616 87.6687 50.2483C87.6687 50.2483 87.6422 50.2483 87.6422 50.235C87.6422 50.235 87.6156 50.235 87.6156 50.2217H87.589C87.589 50.2217 87.5758 50.2217 87.5625 50.2217H87.5359H87.5094H87.4828H87.4562H87.4297C87.4297 50.2217 87.4031 50.2217 87.3898 50.2217C87.3766 50.2217 87.3633 50.2217 87.35 50.2217C87.35 50.2217 87.3367 50.2217 87.3235 50.2217C87.2969 50.2217 87.2703 50.2483 87.2571 50.2616L86.8188 50.5809C86.8188 50.5809 86.8852 50.541 86.9118 50.541C86.9516 50.541 86.9915 50.541 87.0313 50.541C87.0313 50.541 87.1243 50.5543 87.1774 50.5809C87.2305 50.5942 87.2836 50.6208 87.3367 50.6608L114.532 66.4146C114.532 66.4146 114.639 66.4812 114.692 66.5211C114.692 66.5211 114.798 66.6009 114.851 66.6541C114.851 66.6541 114.944 66.7606 114.997 66.8138C115.037 66.867 115.09 66.9203 115.13 66.9868C115.17 67.04 115.21 67.1065 115.249 67.1598C115.249 67.1598 115.316 67.2795 115.342 67.346C115.369 67.4126 115.395 67.4658 115.409 67.5323C115.409 67.5323 115.435 67.6521 115.449 67.7186L118.118 85.6679C118.118 85.6679 118.118 85.7743 118.118 85.8142C118.118 85.8542 118.118 85.8941 118.104 85.934C118.104 85.9606 118.091 85.9872 118.078 86.0005C118.051 86.0404 118.038 86.0804 117.998 86.107L118.436 85.7876C118.436 85.7876 118.49 85.7344 118.516 85.6812C118.516 85.6679 118.529 85.6546 118.529 85.628C118.529 85.628 118.529 85.6147 118.529 85.6014C118.529 85.6014 118.529 85.5747 118.529 85.5614C118.529 85.5614 118.529 85.5348 118.529 85.5215C118.529 85.5215 118.529 85.5215 118.529 85.5082L118.211 85.4284Z" fill="white"/>
<path opacity="0.2" d="M99.1418 76.0742L95.8353 78.589L101.399 81.8089L105.303 79.6401L99.1418 76.0742Z" fill="#777DB2"/>
<path d="M102.568 70.7524L101.399 82.2352L95.8221 78.9886L97.9999 68.251L102.568 70.7524Z" fill="#BAC0D2"/>
<path d="M131.291 102.698L139.789 107.648L153.52 99.6913L145.034 94.7549L131.291 102.698Z" fill="#E18B70"/>
<path d="M130.162 99.9844V101.954L138.129 106.597L138.116 104.615L130.162 99.9844Z" fill="#CBDCEB"/>
<path d="M138.129 104.601V106.65L151.408 98.9596L151.395 96.9238L138.129 104.601Z" fill="#A6D0F4"/>
<path d="M129.737 99.7579L138.222 104.708L151.966 96.7642L143.467 91.8145L129.737 99.7579Z" fill="white"/>
<path d="M119.193 92.8659L127.679 97.8023L141.422 89.8589L132.937 84.9092L119.193 92.8659Z" fill="white"/>
<path d="M109.035 144.758C113.709 147.459 113.735 151.85 109.088 154.564L87.257 167.271C82.6093 169.986 75.0402 169.986 70.366 167.271L48.389 154.564C43.7148 151.863 43.6882 147.473 48.3359 144.758L70.1668 132.051C74.8145 129.35 82.3835 129.337 87.0578 132.051L109.035 144.758Z" fill="#CBDCEB"/>
<path d="M74.4559 160.22C74.4559 161.244 73.6326 162.069 72.6101 162.069C71.5876 162.069 70.7643 161.244 70.7643 160.22C70.7643 159.195 71.5876 158.37 72.6101 158.37C73.6326 158.37 74.4559 159.195 74.4559 160.22Z" fill="#333333"/>
<path d="M57.6313 150.015C57.6313 151.039 56.808 151.864 55.7855 151.864C54.763 151.864 53.9397 151.039 53.9397 150.015C53.9397 148.99 54.763 148.165 55.7855 148.165C56.808 148.165 57.6313 148.99 57.6313 150.015Z" fill="#333333"/>
<path d="M91.2806 150.015C91.2806 151.039 90.4573 151.864 89.4348 151.864C88.4123 151.864 87.589 151.039 87.589 150.015C87.589 148.99 88.4123 148.165 89.4348 148.165C90.4573 148.165 91.2806 148.99 91.2806 150.015Z" fill="#333333"/>
<path d="M75.4519 149.748C75.3589 149.815 75.266 149.881 75.1598 149.948C75.0402 150.028 74.9075 150.094 74.7614 150.147L73.8717 159.249H71.4549L70.4722 150.147C70.3394 150.094 70.2199 150.028 70.1004 149.961C69.9809 149.895 69.8747 149.815 69.7684 149.748L54.4576 149.203L55.7856 147.806V150.121L69.7684 150.666C69.8747 150.746 69.9809 150.813 70.1004 150.879C70.2199 150.946 70.3394 151.012 70.4722 151.066L71.4549 157.931H73.8717L74.7614 151.066C74.9075 150.999 75.0402 150.932 75.1598 150.866C75.1598 150.866 75.173 150.866 75.1863 150.866C75.2793 150.813 75.3722 150.746 75.4519 150.68L90.3245 150.134V149.216L75.4519 149.762V149.748Z" fill="url(#paint3_linear_166_160)"/>
<path d="M90.3244 147.247V148.617L75.8502 149.15C75.651 149.296 75.4253 149.429 75.173 149.549L74.2966 157.918H71.9196L70.9502 149.549C70.8174 149.496 70.6979 149.429 70.5784 149.363C70.4589 149.296 70.3527 149.229 70.2597 149.15L55.7722 148.617V147.247L70.2464 146.715C70.4456 146.568 70.6714 146.435 70.9237 146.316L71.7868 137.946H74.1638L75.1199 146.316C75.2527 146.369 75.3722 146.435 75.4917 146.502C75.6112 146.568 75.7174 146.635 75.8104 146.715L90.2979 147.247H90.3244Z" fill="#615D6C"/>
<path d="M73.9911 140.621C73.9114 140.289 73.8185 140.222 73.7123 140.156C73.035 139.77 71.9461 139.77 71.2822 140.156C71.1759 140.222 71.0697 140.289 71.0033 140.621H70.4058V148.485C70.7776 148.738 70.9502 148.991 71.2822 149.19C71.9594 149.576 73.0483 149.576 73.7123 149.19C74.0442 148.991 74.2169 148.738 74.3895 148.485V140.621H73.9911Z" fill="url(#paint4_linear_166_160)"/>
<path d="M73.7123 139.662C74.3895 140.048 74.3895 140.687 73.7123 141.073C73.0351 141.459 71.9462 141.459 71.2822 141.073C70.605 140.687 70.605 140.048 71.2822 139.662C71.9595 139.277 73.0483 139.277 73.7123 139.662Z" fill="#4D4D4D"/>
<path d="M75.3721 135.299C75.1066 135.046 74.7082 134.833 74.1505 134.687C73.4467 134.5 72.6898 134.5 71.9727 134.687C71.415 134.833 71.0033 135.046 70.751 135.299H70.4058V141.472C70.4058 141.991 70.8971 142.51 71.893 142.79C72.6499 143.003 73.46 143.003 74.2169 142.79C75.2128 142.51 75.7174 141.991 75.7174 141.472V135.299H75.3721Z" fill="url(#paint5_linear_166_160)"/>
<path d="M73.5928 133.356C75.4784 133.915 75.4784 135.418 73.5928 135.99C72.8757 136.203 72.1055 136.203 71.3885 135.99C69.5028 135.432 69.5028 133.928 71.3885 133.356C72.1055 133.143 72.8757 133.143 73.5928 133.356Z" fill="#4D4D4D"/>
<path d="M75.4917 139.131L56.5823 128.127L73.9248 118.081L92.8342 129.098L75.4917 139.131Z" fill="#7B81B3"/>
<path d="M85.836 141.379C85.836 141.379 84.6276 145.131 85.504 146.009C86.3804 146.887 87.4826 147.114 88.2926 146.861C89.1026 146.608 89.8728 146.235 89.8728 146.235L90.1251 145.464L90.4173 145.983C90.4173 145.983 90.8555 145.903 91.4398 145.583C92.024 145.264 93.7105 144.586 94.4143 144.146C95.1181 143.707 96.353 142.936 96.4725 141.978C96.5522 141.02 93.1395 141.352 92.21 141.392C91.2937 141.432 90.7094 141.06 90.3774 141.06C90.0455 141.06 86.4867 141.499 86.4867 141.499" fill="#171E26"/>
<path d="M73.5396 120.036C73.5396 120.036 85.3447 116.324 88.3856 117.162C91.4265 118.014 92.7677 119.025 92.9403 120.369C93.1129 121.726 90.9219 141.152 90.9219 141.152C90.9219 141.152 89.4081 143.015 86.6991 142.51C84.6807 142.004 84.5081 141.498 84.5081 141.498C84.5081 141.498 84.5081 129.829 84.1761 128.139C83.8441 126.45 84.3487 124.587 84.3487 124.587C84.3487 124.587 77.2577 127.288 75.2393 125.771C73.2209 124.254 71.8664 122.059 73.5528 120.023L73.5396 120.036Z" fill="#171E26"/>
<path d="M70.3925 121.78C70.3925 121.78 71.7469 127.86 75.3456 130.575C78.9442 133.289 89.0629 130.349 89.0629 130.349L91.4266 129.497L94.2948 129.83C94.2948 129.83 94.016 140.022 94.2417 141.379C94.4675 142.736 95.1447 149.269 94.919 149.948C94.919 150.626 98.0661 151.757 99.6463 150.626L101.001 149.722C101.001 149.722 103.245 132.597 103.019 128.991C102.793 125.386 101.001 123.802 99.6463 123.137C98.2918 122.458 82.3304 121.554 81.4274 121.327C80.5244 121.101 70.4057 121.78 70.4057 121.78H70.3925Z" fill="#1F2F3F"/>
<path d="M86.1946 99.2136C86.2477 97.923 85.6501 96.7122 84.5745 96.007C82.2108 94.4236 78.984 92.4144 76.8992 91.3101C74.3098 89.9396 71.6407 88.5026 70.2065 88.3695C66.2228 87.997 63.8193 91.7092 64.2044 96.5924C64.4301 99.5596 65.2268 102.859 66.3025 106.252C66.7672 107.703 67.0726 110.257 67.1922 112.612C67.1656 113.743 67.0726 115.034 66.7539 115.792C66.422 116.604 66.0767 117.708 65.8111 118.573C65.5455 119.478 65.851 120.436 66.5813 121.035C68.2545 122.392 71.561 124.641 75.4783 124.907C81.1618 125.293 83.3528 124.135 83.3528 124.135L84.5081 123.882C84.5081 123.882 85.5439 123.496 85.6634 122.459C85.7829 121.527 84.787 117.096 84.5745 115.553C84.9065 112.333 85.5439 107.583 85.7563 105.427C85.9422 103.445 86.1016 101.17 86.1813 99.2269L86.1946 99.2136Z" fill="#F2F8FD"/>
<path d="M82.0116 87.1184C82.41 85.8676 82.5428 80.8115 82.0382 79.0551C81.4008 76.7932 79.2097 74.824 75.9165 74.9969C72.7694 75.1566 70.4455 76.5404 69.6753 78.8955C69.2238 80.2926 69.3168 82.7408 70.1667 84.4971C70.7377 85.6947 72.039 86.7591 73.4466 87.5042C74.4425 88.0764 77.2444 89.3803 78.6254 89.7795C80.2455 90.2452 81.4273 88.9279 82.0116 87.1184Z" fill="#FF9554"/>
<path d="M72.7428 86.2536C74.323 85.6149 77.9482 86.3068 79.2097 87.3446C79.2097 87.3446 77.9615 92.3742 77.9482 92.3742C75.6376 92.4939 72.3577 91.3496 71.5742 90.4049L72.7428 86.2536Z" fill="#FF9554"/>
<path d="M79.2097 83.8854C78.5457 82.9939 77.2311 83.3133 77.2311 84.737C77.2311 86.4002 78.3598 87.3449 79.2097 87.3449C79.2097 86.2804 79.2495 85.1761 79.2097 83.8854Z" fill="#FF9554"/>
<path d="M72.039 88.835C72.039 88.835 73.9114 90.4449 78.3599 91.0969L79.1965 92.5871C79.1965 92.5871 77.3241 93.1726 75.1331 92.9065C72.942 92.6537 71.136 90.8973 70.9369 90.5115L70.7377 90.1256L72.0257 88.835H72.039Z" fill="#F2F8FD"/>
<path d="M68.5599 80.0401C68.5599 80.0401 68.135 76.1282 71.7204 74.4783C75.3057 72.8284 79.98 73.9328 81.8125 76.4475C83.074 78.5765 81.3344 80.3328 80.9361 81.1045C80.551 81.8762 80.9361 83.433 80.551 84.0185C80.1659 84.6039 80.6439 85.4688 80.6439 85.4688L79.9667 86.0542C79.9667 86.0542 79.2894 84.7902 78.9044 84.4975C78.5193 84.2047 77.3241 85.2692 77.5764 86.307C77.8287 87.3449 78.7981 87.917 78.7981 87.917C78.7981 87.917 78.413 88.1698 78.0279 88.4359C77.6428 88.6887 76.8727 88.8883 75.6377 88.8883C74.4027 88.8883 72.7296 88.3029 72.0922 87.917C71.4415 87.5311 69.516 86.1074 68.7326 84.4309C67.9624 82.7544 67.7632 81.1311 68.5334 80.0401H68.5599Z" fill="#673E29"/>
<path d="M71.5345 145.224L52.625 134.207L50.3809 103.324L69.2903 114.341L71.5345 145.224Z" fill="#535685"/>
<path d="M69.2903 114.342L50.3809 103.324L53.9397 101.275L72.8358 112.279L69.2903 114.342Z" fill="#7B81B3"/>
<path d="M73.1678 112.279L75.8104 139.13L93.1529 129.098L94.3081 130.654V132.224L76.1689 142.723L71.8665 145.224L69.609 114.342L73.1678 112.279Z" fill="#696FA3"/>
<path d="M95.9548 150.347C95.9548 150.347 94.7464 154.099 95.6228 154.977C96.4992 155.855 97.6014 156.081 98.4114 155.829C99.2214 155.576 99.9916 155.203 99.9916 155.203L100.244 154.432L100.536 154.95C100.536 154.95 100.974 154.871 101.559 154.551C102.143 154.219 103.829 153.553 104.533 153.114C105.237 152.675 106.472 151.903 106.591 150.945C106.671 149.987 103.258 150.32 102.329 150.36C101.412 150.4 100.828 150.027 100.496 150.027C100.164 150.027 96.6054 150.466 96.6054 150.466" fill="#171E26"/>
<path d="M105.702 100.477C105.702 100.477 107.614 98.109 108.397 98.0026C109.181 97.8961 111.664 97.6699 112.554 98.0026C113.457 98.3352 113.231 99.0138 113.005 99.5859C112.779 100.145 111.425 101.05 110.309 101.276L109.181 101.502L107.826 102.181L105.688 100.491L105.702 100.477Z" fill="#FF9554"/>
<path d="M82.0781 94.5162C82.0781 94.5162 84.548 94.9686 85.9025 97.2173C87.2569 99.4659 92.1967 104.655 93.3255 105.108C94.4542 105.56 104.347 100.145 105.702 99.9183C107.056 99.6921 108.172 100.597 108.397 101.941C108.623 103.298 98.2786 112.08 94.4542 112.306C90.6298 112.532 84.3355 107.117 81.6399 104.642C78.9442 102.167 78.4927 94.5029 82.0914 94.5029L82.0781 94.5162Z" fill="#F2F8FD"/>
<g clip-path="url(#clip2_166_160)">
<path d="M132.393 224.979C132.977 225.311 133.694 225.325 134.278 224.979L137.12 223.329C138.368 222.61 138.368 220.801 137.12 220.069C136.536 219.736 135.819 219.723 135.234 220.069L132.393 221.719C131.144 222.437 131.144 224.247 132.393 224.979Z" fill="white"/>
<path d="M141.356 219.802C141.94 220.135 142.657 220.148 143.242 219.802L179.985 198.54C181.233 197.821 181.233 196.012 179.985 195.28C179.401 194.947 178.684 194.934 178.099 195.28L141.356 216.542C140.108 217.261 140.108 219.07 141.356 219.802Z" fill="white"/>
</g>
</g>
<defs>
<linearGradient id="paint0_linear_166_160" x1="138.129" y1="106.531" x2="173.983" y2="106.531" gradientUnits="userSpaceOnUse">
<stop offset="0.16" stop-color="#443F54"/>
<stop offset="0.55" stop-color="#2A253A"/>
</linearGradient>
<linearGradient id="paint1_linear_166_160" x1="154.064" y1="97.258" x2="158.048" y2="97.258" gradientUnits="userSpaceOnUse">
<stop offset="0.05" stop-color="#E5E5E5"/>
<stop offset="0.55" stop-color="#CCCCCC"/>
</linearGradient>
<linearGradient id="paint2_linear_166_160" x1="154.064" y1="90.8444" x2="159.376" y2="90.8444" gradientUnits="userSpaceOnUse">
<stop offset="0.16" stop-color="#443F54"/>
<stop offset="0.55" stop-color="#2A253A"/>
</linearGradient>
<linearGradient id="paint3_linear_166_160" x1="54.4709" y1="153.527" x2="90.3245" y2="153.527" gradientUnits="userSpaceOnUse">
<stop offset="0.16" stop-color="#443F54"/>
<stop offset="0.55" stop-color="#2A253A"/>
</linearGradient>
<linearGradient id="paint4_linear_166_160" x1="70.4058" y1="144.666" x2="74.3895" y2="144.666" gradientUnits="userSpaceOnUse">
<stop offset="0.05" stop-color="#E5E5E5"/>
<stop offset="0.55" stop-color="#CCCCCC"/>
</linearGradient>
<linearGradient id="paint5_linear_166_160" x1="70.4058" y1="138.745" x2="75.7174" y2="138.745" gradientUnits="userSpaceOnUse">
<stop offset="0.16" stop-color="#443F54"/>
<stop offset="0.55" stop-color="#2A253A"/>
</linearGradient>
<clipPath id="clip0_166_160">
<rect width="99.2471" height="64.4795" fill="white" transform="translate(44.4)"/>
</clipPath>
<clipPath id="clip1_166_160">
<rect width="222" height="266.632" fill="white" transform="translate(0 31.3682)"/>
</clipPath>
<clipPath id="clip2_166_160">
<rect width="49.4647" height="30.2038" fill="white" transform="translate(131.463 195.027)"/>
</clipPath>
</defs>
</svg>
