<svg width="43" height="59" viewBox="0 0 43 59" fill="none" xmlns="http://www.w3.org/2000/svg">
<g clip-path="url(#clip0_136_280)">
<path d="M26.4092 1.37158C27.3026 1.6798 28.1324 2.14858 28.8578 2.75489C29.4271 3.24922 29.9368 3.8153 30.4942 4.36942L30.6654 3.73158H30.749C31.657 5.15332 32.0764 6.83307 31.9434 8.51537L32.5646 8.08084C32.5646 8.63496 32.6044 9.16517 32.5646 9.67544C32.4748 10.7793 32.2707 11.8708 31.9554 12.9324C31.4594 14.5971 30.6483 16.1508 29.5665 17.5089C28.7961 18.4888 27.8819 19.3463 26.8551 20.0523C25.9457 20.6469 24.9191 21.0385 23.8451 21.2004C22.9848 21.3478 22.114 21.4251 21.2412 21.4316C19.612 21.4107 18.004 21.0581 16.5152 20.3951C15.6643 20.0474 14.8615 19.5919 14.1263 19.0397C12.9048 18.0849 11.9672 16.8139 11.4149 15.3642C10.9432 14.1462 10.6664 12.8614 10.5947 11.5571C10.5314 10.6427 10.5541 9.72445 10.6624 8.81436C10.6669 8.73868 10.6669 8.6628 10.6624 8.58713C10.6385 8.58713 10.6186 8.58713 10.6067 8.58713L10.2085 8.79044C10.1738 8.66049 10.1577 8.52627 10.1608 8.39179C10.332 7.443 10.6863 6.59388 11.5583 6.06368C11.7175 5.968 11.6896 5.84044 11.6777 5.69294C11.569 4.77383 11.6545 3.84212 11.9285 2.9582C12.0221 2.59663 12.2481 2.28354 12.5616 2.08118C12.6492 2.03997 12.7396 2.00532 12.8323 1.97753C12.912 2.50773 12.9 3.02996 13.2305 3.44854C13.2476 3.65157 13.3629 3.83334 13.5392 3.9351C13.7154 4.03687 13.9303 4.04573 14.1144 3.95881C14.1596 3.94413 14.2063 3.93477 14.2537 3.93091C14.9186 3.87908 15.5835 3.83922 16.2445 3.77145C16.4075 3.75599 16.5618 3.69056 16.6864 3.58408C17.0458 3.23057 17.4879 2.9729 17.9724 2.83462C18.3069 2.75091 18.6572 2.71902 19.0036 2.6632L19.0275 2.76287C18.8842 2.87847 18.6931 2.96618 18.6095 3.11766C18.3472 3.5651 18.1157 4.02995 17.9167 4.50895C17.7283 4.93815 17.9018 5.44021 18.3148 5.66104C18.9503 6.11187 19.6933 6.38689 20.4688 6.45834C20.6798 6.47827 20.7196 6.57794 20.6759 6.76929C20.5561 7.10951 20.3151 7.39345 19.999 7.56658C19.6646 7.81375 19.2863 8.0051 18.92 8.22435C19.2562 8.68271 19.3887 9.25959 19.2863 9.81895C19.2505 10.0581 19.1908 10.1139 18.9399 10.0502C18.4908 9.93511 18.0325 9.85909 17.5703 9.82294C17.1721 9.79503 16.9731 10.0183 17.0408 10.3093C17.2038 11.332 17.9526 12.1629 18.9519 12.4301C19.4308 12.6025 19.9608 12.5589 20.4051 12.3105C20.8301 12.0677 21.2932 11.8992 21.7747 11.8122C22.5435 11.7109 23.2786 12.1611 23.5385 12.8925C22.6836 13.0445 21.9058 13.4831 21.3328 14.1363C21.0468 14.4613 20.6543 14.6734 20.2259 14.7343C19.7442 14.822 19.2545 14.8459 18.7528 14.9017C19.6208 15.644 20.6397 16.1881 21.7389 16.4963C22.6078 16.7389 23.5352 16.6553 24.3468 16.2611C25.2035 15.801 25.8984 15.0885 26.3375 14.22C26.4928 13.937 26.6321 13.646 26.7795 13.359H26.8671L26.9984 14.6267C27.1764 14.3518 27.3386 14.0669 27.4842 13.7735C27.8215 12.8704 27.9574 11.9044 27.8823 10.9431C27.8823 10.5445 27.8425 10.1737 27.8226 9.74719C28.3123 9.89071 28.4158 10.3093 28.6189 10.696C29.2002 9.30868 28.8459 7.99314 28.4716 6.68158L28.5353 6.6178L29.2838 6.90881C29.1153 5.85653 28.5441 4.91135 27.6912 4.27375C26.996 3.78012 26.2237 3.4056 25.4059 3.1655C25.3222 3.1376 25.2585 3.04192 25.1829 2.97814C25.2585 2.90239 25.3183 2.79077 25.4098 2.76287C25.6193 2.70603 25.832 2.66209 26.0469 2.63131C25.6925 1.86989 24.936 1.83401 24.3229 1.53104C24.6169 1.44927 24.9183 1.39719 25.2227 1.37557C25.6089 1.39151 26.011 1.38753 26.4092 1.37158Z" fill="#C75305"/>
<path d="M26.4091 1.37115C26.0109 1.37115 25.6128 1.37115 25.2146 1.41899C24.9103 1.44061 24.6088 1.4927 24.3148 1.57446C24.924 1.87744 25.6845 1.91332 26.0388 2.67473C25.824 2.70551 25.6112 2.74945 25.4018 2.80629C25.3142 2.83818 25.2505 2.9498 25.1748 3.02156C25.2465 3.08534 25.3102 3.18102 25.3978 3.20892C26.2156 3.44902 26.9879 3.82354 27.6832 4.31717C28.536 4.95477 29.1073 5.89995 29.2757 6.95224L28.5272 6.66122L28.4635 6.72501C28.8378 8.04055 29.1921 9.3521 28.6108 10.7394C28.4118 10.3407 28.3082 9.9421 27.8145 9.79061C27.8345 10.1893 27.8623 10.5879 27.8743 10.9866C27.9493 11.9478 27.8134 12.9139 27.4761 13.817C27.3306 14.1104 27.1684 14.3952 26.9904 14.6701L26.859 13.4024H26.7714C26.6241 13.6894 26.4847 13.9804 26.3295 14.2635C25.8903 15.1319 25.1954 15.8444 24.3387 16.3045C23.5271 16.6987 22.5997 16.7823 21.7308 16.5397C20.6317 16.2315 19.6127 15.6874 18.7447 14.9451C19.2464 14.8893 19.7361 14.8654 20.2179 14.7777C20.6462 14.7168 21.0387 14.5047 21.3247 14.1797C21.8977 13.5266 22.6756 13.088 23.5305 12.936C23.2705 12.2045 22.5355 11.7543 21.7667 11.8556C21.2852 11.9426 20.822 12.1112 20.397 12.3539C19.9527 12.6023 19.4227 12.6459 18.9438 12.4735C17.9445 12.2063 17.1957 11.3754 17.0327 10.3527C16.965 10.0617 17.172 9.83845 17.5622 9.86636C18.0244 9.90251 18.4827 9.97854 18.9319 10.0936C19.1827 10.1534 19.2424 10.0936 19.2782 9.86237C19.3806 9.30301 19.2481 8.72613 18.912 8.26778C19.2782 8.04852 19.6565 7.86913 19.9909 7.61001C20.307 7.43688 20.548 7.15293 20.6678 6.81271C20.7116 6.62534 20.6678 6.52568 20.4607 6.50176C19.6852 6.43031 18.9422 6.15529 18.3068 5.70446C17.8937 5.48363 17.7202 4.98157 17.9086 4.55237C18.1077 4.07337 18.3391 3.60853 18.6014 3.16109C18.685 3.01359 18.8761 2.9219 19.0195 2.80629L18.9956 2.70663C18.6532 2.76244 18.3028 2.79433 17.9644 2.87805C17.4799 3.01632 17.0377 3.274 16.6783 3.62751C16.5538 3.73398 16.3994 3.79941 16.2364 3.81487C15.5755 3.88264 14.9106 3.92251 14.2457 3.97433C14.1983 3.97819 14.1515 3.98756 14.1063 4.00223C13.9223 4.08915 13.7074 4.0803 13.5311 3.97853C13.3548 3.87676 13.2395 3.69499 13.2224 3.49196C14.1459 2.59281 15.2079 1.84843 16.3678 1.28744C17.553 0.705708 18.8327 0.341172 20.1462 0.211086C22.3012 0.000915691 24.4718 0.402966 26.4091 1.37115Z" fill="#044DA0"/>
<path d="M6.64893 41.4116H13.4652V41.4595L10.2323 42.5836C10.4035 42.8986 10.5587 43.2055 10.7339 43.5005C11.78 45.2913 13.006 46.9703 14.3929 48.5116C16.2928 50.6729 18.5823 52.4567 21.1415 53.7697C21.2877 53.854 21.4654 53.8629 21.6193 53.7937C22.6765 53.3539 23.6586 52.7513 24.5298 52.0077C25.3261 51.338 26.1224 50.6443 26.8549 49.9028C28.326 48.4168 29.6922 46.8303 30.9439 45.1549C31.6168 44.25 32.2817 43.3411 32.9347 42.4361C32.956 42.3954 32.9733 42.3527 32.9864 42.3086L30.3427 41.4674V41.4196H36.0641C35.7098 42.193 35.3912 42.9903 34.9891 43.7397C34.3281 45.0056 33.5623 46.2137 32.6998 47.3515C32.007 48.2484 31.3301 49.1614 30.5577 49.9826C29.6045 50.993 28.6012 51.955 27.5517 52.8648C26.5882 53.702 25.561 54.4594 24.5258 55.2128C23.6499 55.8307 22.7102 56.3609 21.7945 56.927C21.5539 57.1245 21.2125 57.1407 20.9544 56.9669C20.2935 56.5324 19.5927 56.1696 18.9358 55.7191C18.1873 55.2128 17.4467 54.6866 16.738 54.1245C15.9417 53.4867 15.1175 52.8449 14.377 52.1313C13.2195 51.0618 12.1429 49.9079 11.156 48.679C10.4831 47.8059 9.80226 46.9329 9.16522 46.024C8.29656 44.7595 7.53224 43.4263 6.87985 42.0375C6.82809 41.8103 6.72457 41.607 6.64893 41.4116Z" fill="#044DA0"/>
<path d="M29.8176 27.1519H29.7897L29.499 27.104H29.4712H29.4433L29.1527 27.0562H29.1248H29.0969L28.8063 27.0084H28.7784H28.7545L28.4639 26.9605H28.436H28.4121L28.1215 26.9127H28.0936H28.0697L27.779 26.8649H27.7512H27.7273L27.4366 26.817H27.4088H27.3849L27.0942 26.7692H27.0305H27.0066L26.716 26.7213H26.6881H26.6642L26.3696 26.6735H26.3417H26.3178L26.0869 26.5699H35.5111C35.62 26.5608 35.7279 26.5422 35.8336 26.514V24.7321V24.2776C35.8567 24.1781 35.8714 24.0767 35.8774 23.9746C35.8774 23.2292 35.8415 22.4877 35.8376 21.7422C35.8376 20.339 35.8376 18.9517 35.8376 17.5285C35.827 17.4203 35.8057 17.3135 35.7739 17.2096C35.7596 17.2142 35.7443 17.2142 35.7301 17.2096C35.6304 17.1876 35.5293 17.173 35.4275 17.1657H33.2297C33.1302 17.1657 33.0306 17.1657 32.939 17.1657L32.8634 16.3684V16.1412C32.8634 15.8701 32.9032 15.599 32.9072 15.3439C32.9072 14.7659 32.9072 14.1878 32.9072 13.5779C33.0824 13.5779 33.2257 13.5779 33.3651 13.5779C33.6358 13.5779 33.9065 13.538 34.1614 13.5181C34.4162 13.4982 34.671 13.4623 34.9258 13.4264L40.5636 12.6291C40.894 12.5813 41.2285 12.5255 41.5589 12.4736C41.5703 12.5155 41.5782 12.5581 41.5828 12.6012C41.555 14.6144 41.555 16.6315 41.4873 18.6447C41.4236 20.5702 41.3041 22.4917 41.1767 24.4171C41.0892 25.9275 40.8896 27.4292 40.5795 28.9099L40.1256 29.0136L39.7872 28.9578L39.4488 28.9019L39.1103 28.8461L38.7719 28.7903L38.4335 28.7345L38.0951 28.6787L37.7566 28.6229L37.4182 28.5671L37.0798 28.5113L36.7414 28.4555L36.4029 28.3996H36.3432L36.0565 28.3478H35.9968L35.7141 28.296H35.6544L35.3717 28.2442H35.312L35.0253 28.1924H34.9656L34.6789 28.1405H34.6192L34.3326 28.0887H34.2728L33.9862 28.0369H33.9304L33.6438 27.9851H33.588L33.3014 27.9332H33.2456L32.959 27.8814H32.9032L32.6165 27.8296H32.5887H32.5608L32.2741 27.7778H32.2184L31.9317 27.7259H31.876L31.5893 27.6741H31.5614H31.5336L31.2429 27.6223H31.2151H31.1872L30.9005 27.5705H30.8727H30.8448L30.5581 27.5186H30.5302H30.5024L30.2117 27.4708H30.1839H30.156L29.8176 27.1519Z" fill="#044DA0"/>
<path d="M8.49256 27.8895H8.43284L8.14617 27.9413H8.08645L7.79979 27.9931H7.74404L7.45738 28.045H7.39766L7.11099 28.0968H7.05127L6.7646 28.1486H6.72478L6.43812 28.2004H6.3784L6.03997 28.2562L5.70154 28.312L5.36312 28.3679L5.02469 28.4237L4.68627 28.4795L4.34784 28.5353L4.00941 28.5911L3.67099 28.6469L3.33256 28.7027L2.99414 28.7585L2.65571 28.8143L2.20182 28.7027C2.16714 28.5714 2.13923 28.4383 2.11821 28.3041C1.90719 26.5181 1.65238 24.7162 1.4971 22.9423C1.35775 21.3477 1.302 19.7531 1.26219 18.1385C1.21441 16.2768 1.21839 14.4112 1.19849 12.5575C1.19849 12.4737 1.19849 12.39 1.19849 12.2744C1.93108 12.394 2.63978 12.5176 3.34849 12.6252C4.46728 12.7966 5.58608 12.9641 6.70488 13.1156C7.33395 13.2033 7.97099 13.2591 8.60404 13.3268L9.87414 13.4225C9.87414 14.1839 9.87414 14.9254 9.87414 15.6669C9.88133 15.7688 9.89597 15.8701 9.91793 15.9699V16.1971L9.8383 16.9944H7.35386C7.25207 17.0017 7.15093 17.0163 7.05127 17.0383C7.03707 17.0431 7.02167 17.0431 7.00747 17.0383C6.97614 17.1218 6.95476 17.2088 6.94377 17.2974C6.92253 19.4554 6.90395 21.6121 6.88803 23.7675C6.89439 23.8787 6.90903 23.9893 6.93182 24.0983V24.5528C6.93182 25.087 6.89997 25.6212 6.88803 26.1474C6.89692 26.2098 6.91574 26.2703 6.94377 26.3268C7.04941 26.3549 7.15733 26.3736 7.26627 26.3826H16.6984L16.4555 26.4862H16.4316H16.4038L16.1091 26.5341H16.0853H16.0574L15.7667 26.5819H15.7428H15.715L15.4243 26.6298H15.4004H15.3726L15.0819 26.6776H15.058H15.0302L14.7355 26.7254H14.7116H14.6838L14.3931 26.7733H14.3692H14.2896L13.999 26.8211H13.9751H13.9472L13.6565 26.8689H13.6287H13.6008L13.3102 26.9168H13.2823H13.2544L12.9638 26.9646H12.9359H12.908L12.6174 27.0164H12.5895H12.5616L12.271 27.0643H12.2431H12.2153L11.9286 27.1161H11.9007H11.8728L11.5822 27.1679H11.5543H11.5265L11.2358 27.2198H11.2079H11.1801L10.8934 27.2716H10.8377L10.551 27.3234H10.4952L10.2086 27.3752H10.1807H10.1528L9.86617 27.4271H9.81043L9.52377 27.4789H9.46803L9.18136 27.5307H9.12562L8.83895 27.5825H8.78321L8.49256 27.8895Z" fill="#044DA0"/>
<path d="M6.64912 41.4115C6.74069 41.6108 6.82828 41.8101 6.91986 42.0055C7.57224 43.3942 8.33656 44.7275 9.20523 45.992C9.83032 46.9009 10.5112 47.7739 11.196 48.647C12.1829 49.8759 13.2595 51.0298 14.417 52.0993C15.1575 52.8128 15.9698 53.4547 16.778 54.0925C17.4867 54.6506 18.2273 55.1808 18.9758 55.6871C19.6327 56.1296 20.3295 56.4844 20.9944 56.9349C21.2525 57.1087 21.5939 57.0925 21.8345 56.895C22.7502 56.3329 23.6899 55.8027 24.5658 55.1808C25.6089 54.4433 26.6322 53.6699 27.5917 52.8328C28.6412 51.9229 29.6445 50.961 30.5977 49.9505C31.3701 49.1293 32.051 48.2164 32.7398 47.3195C33.6023 46.1817 34.3681 44.9735 35.0291 43.7077C35.4273 42.9582 35.7458 42.1609 36.1041 41.3876C36.1154 41.3819 36.1287 41.3819 36.1399 41.3876C36.5023 41.3876 36.8646 41.3876 37.2269 41.4115C37.3228 41.4279 37.4164 41.456 37.5056 41.4952C36.5484 43.5929 35.384 45.5894 34.0298 47.455C33.1737 48.6509 32.2461 49.7672 31.3064 50.8794C30.656 51.6405 29.9663 52.367 29.24 53.056C27.8811 54.392 26.4031 55.6009 24.8246 56.6678C23.7774 57.3574 22.6786 57.9594 21.6075 58.6092C21.4747 58.6968 21.3025 58.6968 21.1696 58.6092C19.5857 57.7305 18.065 56.7421 16.6187 55.6512C14.8861 54.3311 13.2703 52.8639 11.7892 51.2661C10.6395 50.0383 9.57528 48.733 8.60402 47.3593C7.49648 45.8053 6.51395 44.1657 5.66569 42.4559C5.50643 42.1291 5.383 41.7822 5.24365 41.4434L6.61328 41.3916C6.62799 41.3911 6.64177 41.3987 6.64912 41.4115Z" fill="#C75305"/>
<path d="M8.54799 13.3786C7.91493 13.3108 7.2779 13.251 6.64882 13.1673C5.53003 13.0158 4.41123 12.8484 3.29243 12.677C2.58373 12.5693 1.87503 12.4458 1.14243 12.3262C1.14243 12.4418 1.14243 12.5255 1.14243 12.6092C1.14243 14.4749 1.14243 16.3406 1.20614 18.1903C1.24993 19.7849 1.30568 21.3795 1.44105 22.994C1.59632 24.7839 1.83919 26.5818 2.06216 28.3558C2.08318 28.4901 2.11108 28.6231 2.14577 28.7545V28.9737C1.91086 29.0136 1.67993 29.0575 1.44503 29.0893C1.2778 29.1133 1.14642 29.1292 1.1066 28.882C0.975212 28.0329 0.784101 27.1918 0.67262 26.3427C0.529286 25.2384 0.429749 24.1302 0.330212 23.0219C0.27049 22.3562 0.226694 21.6904 0.214749 21.0287C0.148391 17.6747 0.0899963 14.3207 0.0395642 10.9668C0.0382442 10.9429 0.0382442 10.9189 0.0395642 10.895C3.22475 11.9076 6.56521 12.0152 9.88178 12.362C9.88178 12.7009 9.88178 13.0358 9.88178 13.3666L8.54799 13.3786Z" fill="#C75305"/>
<path d="M40.6113 28.7625C40.9213 27.2818 41.121 25.78 41.2085 24.2697C41.3319 22.3482 41.4514 20.4227 41.519 18.4973C41.5867 16.4841 41.5867 14.4669 41.6146 12.4537C41.61 12.4106 41.602 12.368 41.5907 12.3262C41.2563 12.378 40.9258 12.4338 40.5953 12.4816L34.9576 13.2789C34.7027 13.3148 34.4479 13.3427 34.1931 13.3706H32.8752V12.366C36.1839 12.0192 39.5084 11.9116 42.7214 10.895C42.7214 10.9468 42.7214 11.0266 42.7214 11.1063C42.7214 13.4583 42.7214 15.8104 42.6577 18.1624C42.6259 19.5935 42.5264 21.0247 42.4388 22.4518C42.3751 23.4883 42.3233 24.5288 42.1959 25.5573C42.0565 26.6735 41.8256 27.7738 41.6544 28.886C41.6146 29.1332 41.4832 29.1212 41.316 29.0933C41.0811 29.0575 40.8502 29.0176 40.6152 28.9777C40.6152 28.906 40.6139 28.8342 40.6113 28.7625Z" fill="#C75305"/>
<path d="M14.2258 35.4318L15.2132 33.7375L15.6631 32.9721C15.9298 32.5137 15.9378 32.5137 16.5271 32.6093V34.18C16.5271 34.9773 16.5271 35.7746 16.5271 36.5719C16.5271 36.8749 16.4315 36.9705 16.1528 36.9307C16.0322 36.9232 15.9111 36.9232 15.7905 36.9307V34.2358L15.7387 34.2119C15.6949 34.2717 15.6472 34.3315 15.6073 34.3953L14.5124 36.241C14.3412 36.528 14.0824 36.528 13.9073 36.241C13.5091 35.5832 13.111 34.9215 12.6531 34.2717V34.7062C12.6531 35.356 12.6531 36.0058 12.6531 36.6556C12.6531 36.8709 12.5814 36.9387 12.3704 36.9347C11.9006 36.9347 11.9006 36.9347 11.9006 36.4722C11.9006 35.3042 11.9006 34.1401 11.9006 32.9721C11.9006 32.8326 11.7971 32.6053 12.0399 32.5735C12.2828 32.5416 12.5058 32.4937 12.673 32.7967C13.1667 33.6817 13.6883 34.5228 14.2258 35.4318Z" fill="white"/>
<path d="M10.0732 35.5117C10.332 35.8784 10.5868 36.2372 10.8377 36.596C10.886 36.6837 10.926 36.7758 10.9571 36.8711C10.8616 36.895 10.766 36.9269 10.6704 36.9468C10.3592 37.0304 10.0371 36.8551 9.93785 36.5482C9.91934 36.5158 9.89802 36.4851 9.87415 36.4565C9.26498 35.5874 9.26498 35.5874 8.15415 35.6592C8.15415 35.9861 8.15415 36.3169 8.15415 36.6438C8.15415 36.8511 8.10239 36.9309 7.88341 36.9309C7.37378 36.9309 7.37378 36.9309 7.37378 36.4246C7.37378 35.2286 7.37378 34.0566 7.37378 32.8686C7.37378 32.6374 7.43748 32.5457 7.68035 32.5537C8.28156 32.5776 8.8748 32.5537 9.47998 32.5936C9.96323 32.6054 10.4112 32.8495 10.6835 33.2494C10.9558 33.6493 11.0191 34.156 10.8536 34.6107C10.7461 34.9894 10.5669 35.1927 10.0732 35.5117ZM8.17406 33.2992V34.9655C8.57221 34.9655 8.97035 34.9894 9.3685 34.9655C9.82588 34.9655 10.1966 34.5943 10.1966 34.1363C10.1966 33.6784 9.82588 33.3071 9.3685 33.3071C8.96239 33.2753 8.57221 33.2992 8.17008 33.2992H8.17406Z" fill="white"/>
<path d="M19.1748 35.1129C18.9837 35.3202 18.7767 35.5115 18.6254 35.7149C18.5699 35.7872 18.538 35.8749 18.5338 35.966C18.5338 36.2132 18.5338 36.4643 18.5338 36.7115C18.5338 36.8869 18.4701 36.9427 18.2989 36.9507C17.7534 36.9706 17.7534 36.9786 17.7534 36.4245C17.7534 35.2285 17.7534 34.0724 17.7534 32.8964C17.7534 32.5655 17.9127 32.5735 18.1516 32.5775C18.3905 32.5815 18.5497 32.5536 18.5497 32.8884C18.5258 33.4944 18.5497 34.0844 18.5497 34.6146L20.218 33.0599C20.2843 33.0054 20.3432 32.9424 20.3931 32.8725C20.6161 32.5057 20.9784 32.5615 21.3129 32.5894C21.5557 32.6094 21.4562 32.7529 21.3527 32.8605L19.8636 34.4153C19.815 34.4578 19.7631 34.4965 19.7083 34.5309L21.1456 36.277C21.2611 36.4165 21.3805 36.552 21.492 36.6955C21.5279 36.7394 21.5597 36.8231 21.5398 36.863C21.5199 36.9028 21.4363 36.9347 21.3766 36.9387C21.0092 37.0243 20.6272 36.8736 20.417 36.56C20.0547 36.0617 19.6168 35.6192 19.1748 35.1129Z" fill="white"/>
<path d="M24.3708 33.291C23.6103 33.291 22.9136 33.291 22.2208 33.291C21.8983 33.291 21.9023 33.1435 21.8943 32.8924C21.8864 32.6412 21.9501 32.5415 22.2248 32.5455C23.1525 32.5455 24.0762 32.5455 25.0118 32.5455C25.1512 32.5455 25.3861 32.5455 25.41 32.6372C25.4991 32.8426 25.4635 33.0808 25.3184 33.2511C24.7212 33.9727 24.124 34.7062 23.5586 35.4397L22.9534 36.229C23.0728 36.229 23.1525 36.253 23.2321 36.253C23.901 36.253 24.5699 36.253 25.2228 36.253C25.5095 36.253 25.5215 36.3845 25.5215 36.6038C25.5215 36.823 25.5215 36.9665 25.2308 36.9626C24.2394 36.9626 23.2401 36.9626 22.2527 36.9626C22.1218 36.9645 21.9923 36.9359 21.8744 36.8788C21.8492 36.6784 21.8824 36.4749 21.97 36.2928C22.3681 35.7546 22.7981 35.2444 23.2202 34.7261L24.3708 33.291Z" fill="white"/>
<path d="M35.1604 36.7993C35.5665 35.8851 35.9713 34.9722 36.3748 34.0606C36.5698 33.6261 36.7729 33.1995 36.96 32.757C37.0675 32.4939 37.2706 32.5936 37.4418 32.5816C37.613 32.5697 37.7484 32.5418 37.8399 32.7491C38.4212 34.0527 39.0145 35.3562 39.6077 36.6558C39.7033 36.8671 39.6555 36.9588 39.4206 36.9468C39.3252 36.939 39.2293 36.939 39.1339 36.9468C39.0647 36.9623 38.9923 36.9495 38.9325 36.9114C38.8728 36.8732 38.8306 36.8128 38.8154 36.7435C38.7039 36.4605 38.6323 36.0818 38.4173 35.9462C38.2023 35.8107 37.8081 35.8944 37.4975 35.8904C37.187 35.8864 36.9043 35.8904 36.6097 35.8904C36.5267 35.8742 36.4406 35.8921 36.371 35.9401C36.3013 35.9881 36.2539 36.0621 36.2394 36.1456C36.1797 36.3249 36.0881 36.4964 36.0124 36.6718C35.9346 36.8203 35.7949 36.9265 35.6312 36.9619C35.4675 36.9973 35.2965 36.9582 35.1644 36.8552C35.1648 36.8365 35.1635 36.8178 35.1604 36.7993ZM38.1585 35.2446C38.0271 34.9337 37.9076 34.6546 37.7882 34.3795C37.6687 34.1045 37.5413 33.8374 37.39 33.5185L36.9919 34.4074L36.6296 35.2446H38.1585Z" fill="white"/>
<path d="M6.37832 32.9603C6.3809 32.9855 6.3809 33.0109 6.37832 33.0361C6.17925 33.5503 6.18721 33.5224 5.66563 33.3709C5.32615 33.2853 4.97636 33.2478 4.62647 33.2593C4.45783 33.2799 4.30018 33.3539 4.17656 33.4706C4.06692 33.5534 4.00767 33.687 4.01982 33.824C4.03196 33.961 4.11378 34.0821 4.23628 34.1443C4.43923 34.2482 4.65282 34.3297 4.87332 34.3875C5.19184 34.4871 5.51832 34.5549 5.82888 34.6745C6.24402 34.8027 6.53502 35.1769 6.55749 35.6113C6.60504 36.0717 6.37089 36.5154 5.96425 36.7355C5.09923 37.1286 4.09382 37.0535 3.29665 36.5362C3.00202 36.301 3.29665 36.1375 3.36832 35.9462C3.43999 35.7548 3.57934 35.8904 3.69082 35.9462C4.15007 36.2511 4.71178 36.3602 5.25156 36.2492C5.42614 36.2099 5.58454 36.1181 5.70545 35.9861C5.90851 35.7588 5.79304 35.4359 5.46258 35.3044C5.1998 35.2007 4.91313 35.1449 4.64239 35.0612C4.41294 35.0006 4.18698 34.9274 3.96554 34.8419C3.56581 34.7021 3.29142 34.3326 3.27276 33.9091C3.22346 33.47 3.43115 33.0416 3.80628 32.8088C4.62731 32.3871 5.61234 32.4451 6.37832 32.9603Z" fill="white"/>
<path d="M35.1605 36.7992C35.162 36.8164 35.162 36.8338 35.1605 36.851C34.7624 36.8829 34.3961 36.9308 34.0139 36.9427C33.4405 36.9427 32.8672 36.9427 32.2939 36.9427C32.1465 36.9427 32.0271 36.9427 32.0271 36.7354C32.0271 35.4159 32.0271 34.0964 32.0271 32.7768C32.054 32.6815 32.1275 32.6064 32.2222 32.5775C32.7756 32.5097 32.7955 32.5376 32.7955 33.0997C32.7955 34.0459 32.7955 34.992 32.7955 35.9381V36.2411C33.4405 36.2411 34.0577 36.2411 34.6748 36.2411C34.9495 36.2411 35.0968 36.2849 35.0451 36.5959C35.053 36.6597 35.1247 36.7314 35.1605 36.7992Z" fill="white"/>
<path d="M29.0846 36.2489C29.7654 36.2489 30.4104 36.2489 31.0753 36.2489C31.354 36.2489 31.362 36.3805 31.35 36.5838C31.3381 36.7871 31.4098 36.9824 31.0833 36.9585C30.2551 36.9585 29.423 36.9585 28.5949 36.9585C28.3799 36.9585 28.3162 36.8788 28.3162 36.6715C28.3162 35.4011 28.3162 34.1308 28.3162 32.8604C28.3162 32.6491 28.3838 32.5574 28.5949 32.5813C28.6703 32.5886 28.7463 32.5886 28.8218 32.5813C29.0328 32.5813 29.1005 32.6571 29.1005 32.8684C29.1005 33.9288 29.1005 34.9892 29.1005 36.0576L29.0846 36.2489Z" fill="white"/>
<path d="M14.1938 46.5425V44.4017C14.381 44.4017 14.592 44.2781 14.7114 44.5173C15.1518 44.2632 15.7046 44.316 16.089 44.6489C16.3538 44.4161 16.7091 44.315 17.0565 44.3738C17.4498 44.3736 17.7722 44.6859 17.7851 45.0794C17.813 45.5618 17.7851 46.0521 17.7851 46.5464H17.3074C17.3074 46.1478 17.3074 45.793 17.3074 45.4223C17.3074 45.0515 17.1322 44.7804 16.8176 44.7764C16.5031 44.7725 16.2523 45.0276 16.2403 45.4302C16.2284 45.8329 16.2403 46.1558 16.2403 46.5385H15.7426C15.7426 46.1598 15.7426 45.789 15.7426 45.4183C15.7426 45.0475 15.5714 44.7804 15.2529 44.7764C14.9344 44.7725 14.6915 45.0316 14.6836 45.4342C14.6756 45.8369 14.6836 46.1598 14.6836 46.5385L14.1938 46.5425Z" fill="white"/>
<path d="M27.078 34.7623C27.078 35.3922 27.078 36.022 27.078 36.6519C27.078 36.8752 27.0223 36.9788 26.7913 36.9509C26.7438 36.9444 26.6956 36.9444 26.648 36.9509C26.3773 36.9908 26.2857 36.8871 26.2897 36.6041C26.2897 35.3723 26.2897 34.1404 26.2897 32.9086C26.2897 32.5698 26.4529 32.5737 26.6878 32.5737C26.9227 32.5737 27.086 32.5737 27.086 32.9006C27.0581 33.5185 27.078 34.1404 27.078 34.7623Z" fill="white"/>
<path d="M28.4635 46.5942L27.9897 46.4826C27.95 46.4772 27.9099 46.4772 27.8702 46.4826C27.607 46.5249 27.3406 46.5449 27.0739 46.5424C26.758 46.5065 26.5193 46.2389 26.5193 45.9205C26.5193 45.6021 26.758 45.3345 27.0739 45.2986C27.3566 45.2707 27.6393 45.2986 27.922 45.2986C27.9459 44.9558 27.8105 44.7764 27.5238 44.7724C27.3532 44.7594 27.1824 44.7939 27.0301 44.8721C26.7355 45.0634 26.632 44.904 26.5763 44.6688C27.0203 44.3073 27.6387 44.2506 28.141 44.5252C28.2988 44.6576 28.4022 44.8435 28.4316 45.0475C28.4913 45.5418 28.4635 46.0401 28.4635 46.5942ZM27.9618 45.5976C27.7283 45.6016 27.4954 45.6229 27.2651 45.6614C27.1543 45.7016 27.0708 45.7942 27.0421 45.9086C27.0643 46.0232 27.1356 46.1222 27.2372 46.1796C27.4166 46.2576 27.6245 46.2294 27.7767 46.1063C27.9289 45.9832 28.0002 45.7857 27.9618 45.5936V45.5976Z" fill="white"/>
<path d="M18.3027 45.474C18.3386 44.8629 18.844 44.3857 19.4554 44.3857C20.0667 44.3857 20.5721 44.8629 20.608 45.474C20.5721 46.085 20.0667 46.5622 19.4554 46.5622C18.844 46.5622 18.3386 46.085 18.3027 45.474ZM19.4454 44.7723C19.2668 44.7795 19.0987 44.8584 18.9788 44.9911C18.859 45.1239 18.7975 45.2993 18.8084 45.478C18.7987 45.6608 18.8628 45.8399 18.9864 45.9749C19.1099 46.1098 19.2826 46.1894 19.4653 46.1955C19.8312 46.1525 20.105 45.8388 20.0984 45.47C20.1018 45.1075 19.826 44.8036 19.4653 44.7723H19.4454Z" fill="white"/>
<path d="M22.7341 46.1952V46.566H20.823C20.8661 46.406 20.929 46.2519 21.0101 46.1075C21.3366 45.677 21.683 45.2584 22.0573 44.792H20.9066V44.4292H22.7739C22.7232 44.5947 22.6538 44.7539 22.5669 44.9036C22.2484 45.3262 21.906 45.7328 21.5357 46.1952H22.7341Z" fill="white"/>
<path d="M26.3971 43.8472L25.346 46.853H24.9836C25.0195 46.7215 25.0473 46.6059 25.0872 46.4982C25.3659 45.7009 25.6605 44.9036 25.9233 44.1063C26.0069 43.8432 26.1184 43.7475 26.3971 43.8472Z" fill="white"/>
<path d="M25.3102 43.8473L24.2432 46.8492H23.8809C23.9167 46.7176 23.9446 46.602 23.9844 46.4904C24.2631 45.6931 24.5577 44.8958 24.8205 44.0985C24.916 43.8434 25.0395 43.7477 25.3102 43.8473Z" fill="white"/>
<path d="M35.8493 26.4063C35.7437 26.4344 35.6358 26.4531 35.5268 26.4621H26.1027L26.3336 26.5658L25.7085 26.498V26.4023L35.8493 26.4063Z" fill="#4D6784"/>
<path d="M16.4076 26.5701L16.6505 26.4665H7.21435C7.10541 26.4574 6.99748 26.4388 6.89185 26.4106H16.973V26.5063L16.4076 26.5701Z" fill="#4D6784"/>
<path d="M35.7896 17.0942C35.8214 17.1981 35.8427 17.305 35.8533 17.4132C35.8533 18.8164 35.8533 20.2037 35.8533 21.6269C35.8533 22.3723 35.8851 23.1138 35.8931 23.8593C35.8871 23.9614 35.8724 24.0627 35.8493 24.1623C35.8493 23.5364 35.8095 22.9065 35.8015 22.2807C35.7896 20.5625 35.7896 18.8363 35.7896 17.0942Z" fill="#4D6784"/>
<path d="M6.88803 24.1699C6.86524 24.0609 6.8506 23.9503 6.84424 23.8391C6.86016 21.681 6.87874 19.5243 6.89998 17.369C6.91097 17.2804 6.93236 17.1934 6.96368 17.1099C6.96368 18.7496 6.95439 20.3907 6.93581 22.0332C6.93581 22.6816 6.93581 23.3301 6.93581 23.9786C6.92491 24.0435 6.90893 24.1075 6.88803 24.1699Z" fill="#4D6784"/>
<path d="M23.7215 44.6845C23.7256 44.7727 23.689 44.858 23.6221 44.9156C23.5552 44.9732 23.4656 44.9968 23.3791 44.9795C23.188 44.9795 23.0725 44.8798 23.0725 44.6805C23.0725 44.4812 23.2119 44.3736 23.4308 44.3775C23.6498 44.3815 23.7175 44.4892 23.7215 44.6845Z" fill="white"/>
<path d="M23.0486 46.3471C23.0924 46.0083 23.2556 45.9684 23.4467 45.9844C23.6378 46.0003 23.7135 46.1438 23.6976 46.3232C23.696 46.4121 23.6509 46.4945 23.577 46.5439C23.5032 46.5932 23.4098 46.6031 23.3273 46.5704C23.2238 46.5385 23.1242 46.4029 23.0486 46.3471Z" fill="white"/>
<path d="M7.00342 17.0941C7.10309 17.0721 7.20422 17.0575 7.30601 17.0502H9.79046L9.87009 16.2529L9.9099 17.0941H7.00342Z" fill="#4D6784"/>
<path d="M32.8711 16.249L32.9467 17.0463C33.0383 17.0463 33.1379 17.0463 33.2374 17.0463H35.4352C35.537 17.0536 35.6381 17.0682 35.7378 17.0902H32.8193L32.8711 16.249Z" fill="#4D6784"/>
<path d="M8.54834 13.3784H9.86621C9.86621 14.2634 9.86621 15.1484 9.86621 16.0334C9.84425 15.9336 9.82961 15.8324 9.82241 15.7304C9.82241 14.989 9.82241 14.2435 9.82241 13.4861L8.54834 13.3784Z" fill="#4D6784"/>
<path d="M32.8752 13.3667H34.1931C33.9224 13.3866 33.6516 13.4106 33.3968 13.4265C33.2575 13.4265 33.1181 13.4265 32.9389 13.4265C32.9389 14.0364 32.9389 14.6224 32.9389 15.1925C32.9389 15.4636 32.9111 15.7387 32.8952 15.9898C32.8819 15.1314 32.8752 14.257 32.8752 13.3667Z" fill="#4D6784"/>
<path d="M6.89583 26.4107C6.8678 26.3543 6.84898 26.2937 6.84009 26.2313C6.84009 25.6971 6.86796 25.1629 6.88388 24.6367L6.89583 26.4107Z" fill="#4D6784"/>
<path d="M37.4936 41.5153C37.4044 41.4762 37.3108 41.4481 37.2149 41.4316C36.8526 41.4316 36.4902 41.4316 36.1279 41.4077C36.5261 41.4077 36.9242 41.4077 37.2985 41.4077C37.3821 41.4117 37.4299 41.4795 37.4936 41.5153Z" fill="#C75305"/>
<path d="M6.61328 41.4117L5.24365 41.4627C5.46263 41.4627 5.68161 41.4195 5.9006 41.4117C6.11958 41.4038 6.37439 41.4117 6.61328 41.4117Z" fill="#C75305"/>
<path d="M2.12598 28.9776V28.7583L2.57986 28.8699L2.12598 28.9776Z" fill="#4D6784"/>
<path d="M40.6112 28.7627C40.6112 28.8345 40.6112 28.9062 40.6112 28.978L40.1533 28.8703L40.6112 28.7627Z" fill="#4D6784"/>
<path d="M36.3706 28.2563L36.709 28.3112L36.3706 28.2563Z" fill="#4D6784"/>
<path d="M5.68579 28.3508L6.02422 28.2959L5.68579 28.3508Z" fill="#4D6784"/>
<path d="M36.717 28.2959L37.0555 28.3508L36.717 28.2959Z" fill="#4D6784"/>
<path d="M6.02808 28.2951L6.3665 28.2402L6.02808 28.2951Z" fill="#4D6784"/>
<path d="M5.34302 28.4108L5.68144 28.356L5.34302 28.4108Z" fill="#4D6784"/>
<path d="M37.0598 28.356L37.3982 28.4108L37.0598 28.356Z" fill="#4D6784"/>
<path d="M4.99658 28.4665L5.33501 28.4116L4.99658 28.4665Z" fill="#4D6784"/>
<path d="M37.4021 28.4116L37.7405 28.4665L37.4021 28.4116Z" fill="#4D6784"/>
<path d="M4.6543 28.5222L4.99272 28.4673L4.6543 28.5222Z" fill="#4D6784"/>
<path d="M37.7485 28.4673L38.087 28.5222L37.7485 28.4673Z" fill="#4D6784"/>
<path d="M4.30786 28.5822L4.64629 28.5273L4.30786 28.5822Z" fill="#4D6784"/>
<path d="M38.0906 28.5273L38.429 28.5822L38.0906 28.5273Z" fill="#4D6784"/>
<path d="M3.96582 28.654L4.30425 28.5991L3.96582 28.654Z" fill="#4D6784"/>
<path d="M38.437 28.583L38.7754 28.6379L38.437 28.583Z" fill="#4D6784"/>
<path d="M3.62305 28.6979L3.96147 28.6431L3.62305 28.6979Z" fill="#4D6784"/>
<path d="M38.7798 28.6548L39.1182 28.7097L38.7798 28.6548Z" fill="#4D6784"/>
<path d="M3.27661 28.7536L3.61504 28.6987L3.27661 28.7536Z" fill="#4D6784"/>
<path d="M39.1257 28.6987L39.4642 28.7536L39.1257 28.6987Z" fill="#4D6784"/>
<path d="M2.93433 28.8093L3.27275 28.7544L2.93433 28.8093Z" fill="#4D6784"/>
<path d="M39.4685 28.7544L39.8069 28.8093L39.4685 28.7544Z" fill="#4D6784"/>
<path d="M2.58789 28.8693L2.92632 28.8145L2.58789 28.8693Z" fill="#4D6784"/>
<path d="M39.8149 28.8145L40.1534 28.8693L39.8149 28.8145Z" fill="#4D6784"/>
<path d="M11.2439 27.4304L11.5345 27.3794L11.2439 27.4304Z" fill="#4D6784"/>
<path d="M30.8643 27.3232L31.1509 27.3742L30.8643 27.3232Z" fill="#4D6784"/>
<path d="M11.5903 27.3742L11.881 27.3232L11.5903 27.3742Z" fill="#4D6784"/>
<path d="M29.1404 27.0361L29.431 27.0832L29.1404 27.0361Z" fill="#4D6784"/>
<path d="M13.3103 27.0876L13.601 27.0405L13.3103 27.0876Z" fill="#4D6784"/>
<path d="M28.7939 26.9805L29.0846 27.0275L28.7939 26.9805Z" fill="#4D6784"/>
<path d="M13.6526 27.0275L13.9432 26.9805L13.6526 27.0275Z" fill="#4D6784"/>
<path d="M28.4519 26.9248L28.7426 26.9718L28.4519 26.9248Z" fill="#4D6784"/>
<path d="M13.999 26.9718L14.2897 26.9248L13.999 26.9718Z" fill="#4D6784"/>
<path d="M28.1091 26.8647L28.3998 26.9118L28.1091 26.8647Z" fill="#4D6784"/>
<path d="M14.3411 26.9162L14.6317 26.8691L14.3411 26.9162Z" fill="#4D6784"/>
<path d="M27.7627 26.8091L28.0533 26.8561L27.7627 26.8091Z" fill="#4D6784"/>
<path d="M14.6875 26.8561L14.9821 26.8091L14.6875 26.8561Z" fill="#4D6784"/>
<path d="M27.4285 26.7495L27.7191 26.7966L27.4285 26.7495Z" fill="#4D6784"/>
<path d="M30.5183 27.2676L30.805 27.3185L30.5183 27.2676Z" fill="#4D6784"/>
<path d="M15.0303 26.8005L15.3209 26.7534L15.0303 26.8005Z" fill="#4D6784"/>
<path d="M27.074 26.6934L27.3646 26.7404L27.074 26.6934Z" fill="#4D6784"/>
<path d="M11.9326 27.3146L12.2193 27.2637L11.9326 27.3146Z" fill="#4D6784"/>
<path d="M15.3726 26.7404L15.6632 26.6934L15.3726 26.7404Z" fill="#4D6784"/>
<path d="M26.7317 26.6377L27.0223 26.6847L26.7317 26.6377Z" fill="#4D6784"/>
<path d="M15.719 26.6847L16.0096 26.6377L15.719 26.6847Z" fill="#4D6784"/>
<path d="M26.3853 26.5781L26.6799 26.6252L26.3853 26.5781Z" fill="#4D6784"/>
<path d="M16.0613 26.6291L16.3559 26.582L16.0613 26.6291Z" fill="#4D6784"/>
<path d="M30.1719 27.208L30.4625 27.255L30.1719 27.208Z" fill="#4D6784"/>
<path d="M12.2791 27.259L12.5697 27.2119L12.2791 27.259Z" fill="#4D6784"/>
<path d="M29.8174 27.1519L30.108 27.1989L29.8174 27.1519Z" fill="#4D6784"/>
<path d="M12.6211 27.1989L12.9117 27.1479L12.6211 27.1989Z" fill="#4D6784"/>
<path d="M29.4827 27.0962L29.7733 27.1432L29.4827 27.0962Z" fill="#4D6784"/>
<path d="M12.9639 27.1432L13.2545 27.0962L12.9639 27.1432Z" fill="#4D6784"/>
<path d="M7.46118 28.0602L7.74785 28.0093L7.46118 28.0602Z" fill="#4D6784"/>
<path d="M34.9934 28.0093L35.2801 28.0602L34.9934 28.0093Z" fill="#4D6784"/>
<path d="M7.1228 28.1198L7.40947 28.0688L7.1228 28.1198Z" fill="#4D6784"/>
<path d="M35.3398 28.0688L35.6225 28.1198L35.3398 28.0688Z" fill="#4D6784"/>
<path d="M6.77246 28.1755L7.05913 28.1245L6.77246 28.1755Z" fill="#4D6784"/>
<path d="M35.6821 28.1245L35.9648 28.1755L35.6821 28.1245Z" fill="#4D6784"/>
<path d="M6.43018 28.2355L6.71684 28.1846L6.43018 28.2355Z" fill="#4D6784"/>
<path d="M36.0286 28.1846L36.3152 28.2355L36.0286 28.1846Z" fill="#4D6784"/>
<path d="M34.6506 27.9531L34.9373 28.0041L34.6506 27.9531Z" fill="#4D6784"/>
<path d="M7.80371 28.0041L8.09038 27.9531L7.80371 28.0041Z" fill="#4D6784"/>
<path d="M34.3042 27.8975L34.5909 27.9484L34.3042 27.8975Z" fill="#4D6784"/>
<path d="M8.15015 27.9445L8.43681 27.8936L8.15015 27.9445Z" fill="#4D6784"/>
<path d="M33.9619 27.8574L34.2486 27.9084L33.9619 27.8574Z" fill="#4D6784"/>
<path d="M8.49243 27.8889L8.7791 27.8379L8.49243 27.8889Z" fill="#4D6784"/>
<path d="M33.6155 27.7817L33.9021 27.8327L33.6155 27.7817Z" fill="#4D6784"/>
<path d="M8.83472 27.8327L9.12138 27.7817L8.83472 27.8327Z" fill="#4D6784"/>
<path d="M33.2734 27.7261L33.5601 27.777L33.2734 27.7261Z" fill="#4D6784"/>
<path d="M9.18115 27.7731L9.46782 27.7222L9.18115 27.7731Z" fill="#4D6784"/>
<path d="M32.927 27.666L33.2137 27.717L32.927 27.666Z" fill="#4D6784"/>
<path d="M9.51172 27.717L9.79839 27.666L9.51172 27.717Z" fill="#4D6784"/>
<path d="M32.5842 27.6104L32.8709 27.6613L32.5842 27.6104Z" fill="#4D6784"/>
<path d="M9.87036 27.6613L10.157 27.6104L9.87036 27.6613Z" fill="#4D6784"/>
<path d="M32.2383 27.5547L32.5249 27.6056L32.2383 27.5547Z" fill="#4D6784"/>
<path d="M10.2124 27.6017L10.4991 27.5508L10.2124 27.6017Z" fill="#4D6784"/>
<path d="M31.8955 27.4946L32.1822 27.5456L31.8955 27.4946Z" fill="#4D6784"/>
<path d="M10.5588 27.5456L10.8455 27.4946L10.5588 27.5456Z" fill="#4D6784"/>
<path d="M31.5491 27.439L31.8357 27.4899L31.5491 27.439Z" fill="#4D6784"/>
<path d="M10.9011 27.486L11.1878 27.4351L10.9011 27.486Z" fill="#4D6784"/>
<path d="M31.207 27.3794L31.4977 27.4304L31.207 27.3794Z" fill="#4D6784"/>
</g>
<defs>
<clipPath id="clip0_136_280">
<rect width="43" height="59" fill="white"/>
</clipPath>
</defs>
</svg>
