<svg xmlns="http://www.w3.org/2000/svg" xmlns:xlink="http://www.w3.org/1999/xlink" viewBox="0 0 414.81 360.06"><defs><style>.cls-1,.cls-12,.cls-16,.cls-28,.cls-33,.cls-40,.cls-5,.cls-8,.cls-9{fill:#ef766a;}.cls-1,.cls-16,.cls-17,.cls-2,.cls-20,.cls-3,.cls-33,.cls-34,.cls-38,.cls-4{stroke:#263238;}.cls-1,.cls-13,.cls-14,.cls-16,.cls-17,.cls-2,.cls-20,.cls-21,.cls-25,.cls-28,.cls-3,.cls-33,.cls-34,.cls-38,.cls-4,.cls-41,.cls-5,.cls-6{stroke-linecap:round;stroke-linejoin:round;}.cls-18,.cls-2,.cls-20{fill:#ff644e;}.cls-3,.cls-36{fill:#fff;}.cls-29,.cls-4,.cls-6{fill:#c6ff00;}.cls-25,.cls-28,.cls-5,.cls-6{stroke:#919191;}.cls-7{opacity:0.21;}.cls-39,.cls-9{opacity:0.7;}.cls-10,.cls-16,.cls-28{opacity:0.6;}.cls-11,.cls-40{opacity:0.5;}.cls-12{opacity:0.4;}.cls-13{fill:#c2c2c2;}.cls-13,.cls-14{stroke:#ababab;}.cls-14{fill:#a6a6a6;}.cls-15{clip-path:url(#clip-path);}.cls-17,.cls-21,.cls-25,.cls-41{fill:none;}.cls-19{clip-path:url(#clip-path-2);}.cls-20,.cls-33{opacity:0.39;}.cls-21{stroke:#696969;}.cls-22{clip-path:url(#clip-path-3);}.cls-23{clip-path:url(#clip-path-4);}.cls-24{clip-path:url(#clip-path-5);}.cls-26{clip-path:url(#clip-path-6);}.cls-27{clip-path:url(#clip-path-7);}.cls-30{clip-path:url(#clip-path-8);}.cls-31{clip-path:url(#clip-path-9);}.cls-32{clip-path:url(#clip-path-10);}.cls-34,.cls-35{fill:#263238;}.cls-37{clip-path:url(#clip-path-11);}.cls-38{opacity:0.28;}.cls-41{stroke:#fff;}.cls-42{clip-path:url(#clip-path-12);}.cls-43{clip-path:url(#clip-path-13);}</style><clipPath id="clip-path"><rect class="cls-1" x="13.9" y="242.05" width="105.96" height="89.01"/></clipPath><clipPath id="clip-path-2"><rect class="cls-2" x="84.66" y="242.05" width="35.21" height="89.01"/></clipPath><clipPath id="clip-path-3"><rect class="cls-1" x="19.25" y="153.18" width="105.96" height="89.01"/></clipPath><clipPath id="clip-path-4"><rect class="cls-2" x="90" y="153.18" width="35.21" height="89.01"/></clipPath><clipPath id="clip-path-5"><rect class="cls-5" x="294.99" y="242.05" width="105.96" height="89.01"/></clipPath><clipPath id="clip-path-6"><rect class="cls-2" x="365.75" y="242.05" width="35.21" height="89.01"/></clipPath><clipPath id="clip-path-7"><rect class="cls-5" x="294.99" y="152.95" width="105.96" height="89.01"/></clipPath><clipPath id="clip-path-8"><rect class="cls-6" x="365.75" y="152.95" width="35.21" height="89.01"/></clipPath><clipPath id="clip-path-9"><rect class="cls-1" x="303.99" y="79.25" width="87.65" height="73.63"/></clipPath><clipPath id="clip-path-10"><rect class="cls-1" x="362.52" y="79.25" width="29.12" height="73.63"/></clipPath><clipPath id="clip-path-11"><rect class="cls-3" x="204.71" y="301.9" width="151.73" height="17.66"/></clipPath><clipPath id="clip-path-12"><rect class="cls-4" x="224.85" y="123.38" width="84.21" height="69.1"/></clipPath><clipPath id="clip-path-13"><path class="cls-4" d="M322.92,215.74c-2.69-4.28-13.86-23.26-13.86-23.26H291.23l9.17,23.26Z"/></clipPath></defs><title>Asset 1</title><g id="Layer_2" data-name="Layer 2"><g id="Background_Simple" data-name="Background Simple"><g class="cls-7"><path class="cls-8" d="M54.84,278.54s40.42,51.17,109.48,53.25,130.81-41,181.77-74.52,67.66-89.68,42.23-136-71.61-30.45-127.06-63S196,8.65,131.71,11.57,14.22,83.17,16.56,160.11,54.84,278.54,54.84,278.54Z"/><path class="cls-9" d="M54.84,278.54s40.42,51.17,109.48,53.25,130.81-41,181.77-74.52,67.66-89.68,42.23-136-71.61-30.45-127.06-63S196,8.65,131.71,11.57,14.22,83.17,16.56,160.11,54.84,278.54,54.84,278.54Z"/></g></g><g id="Plants"><g class="cls-10"><path class="cls-8" d="M67.4,25.33c-.05,0,.7-3.73.78-4,.86-2.67,4.09-7.31,7.23-7.3A3.7,3.7,0,0,1,79,18.29c-.22,2.2-2.2,4.08-4,5.16C72.88,24.72,67.41,25.33,67.4,25.33Z"/><path class="cls-8" d="M61.33.21c3,1.06,4.42,6.52,4.33,9.32,0,.24-.57,4-.62,4l-.06,0c.24.86.49,1.79.73,2.8.45,1.89.93,4,1.3,6.37a63.6,63.6,0,0,1,.83,7.64,47.36,47.36,0,0,1-.29,8.6s0,.07,0,.1c.38-.83,1.54-3.13,1.65-3.29,1.54-2.34,5.88-6,8.9-5.13a3.72,3.72,0,0,1,2.33,5c-.8,2.06-3.2,3.35-5.22,3.92-2.26.65-7.32-.11-7.72-.18a65.48,65.48,0,0,1-1.87,8.57c-.46,1.64-1,3.28-1.52,4.91.36-.71.69-1.34.74-1.43,1.54-2.34,5.88-6,8.9-5.12a3.71,3.71,0,0,1,2.33,5c-.8,2.06-3.2,3.35-5.22,3.92s-6.36,0-7.5-.15c-.22.63-.42,1.25-.64,1.88-1,3-2.08,6-3,8.94-.33,1-.62,2.08-.91,3.12.32-.63.59-1.16.64-1.24,1.54-2.34,5.88-6,8.91-5.13a3.7,3.7,0,0,1,2.32,5c-.8,2.07-3.2,3.35-5.21,3.93s-6,.07-7.3-.12c-.27,1.07-.54,2.14-.75,3.19-.12.73-.3,1.41-.38,2.14s-.21,1.44-.31,2.15c-.14,1.37-.29,2.78-.4,4.12-.08.93-.13,1.82-.2,2.72.32-1,1-3.07,1.06-3.23A14.43,14.43,0,0,1,62,77a3.81,3.81,0,0,1,.4-.71,3.71,3.71,0,0,1,5.46-.85c2.37,2,1.78,7.67.69,10.25-.07.15-1,1.72-1.52,2.71.42-.53.83-1,1.27-1.58.87-1.07,1.77-2.11,2.74-3.23q.72-.8,1.47-1.59c.48-.54,1.05-1.05,1.58-1.59,1.26-1.21,2.59-2.38,3.95-3.53-.93-.76-4.2-3.52-5.14-5.4S71.24,67,72.22,65a3.71,3.71,0,0,1,5.26-1.67c2.66,1.67,2.92,7.32,2.24,10,0,.17-.76,2.06-1.17,3.09.83-.68,1.65-1.36,2.51-2,2.47-1.91,5-3.78,7.6-5.65L91,67.06c-.34-.26-4.3-3.47-5.35-5.57C84.7,59.62,84,57,85,55a3.71,3.71,0,0,1,5.26-1.66c2.66,1.66,2.93,7.31,2.24,10-.05.2-1.08,2.92-1.38,3.6,1.71-1.27,3.4-2.56,5-3.89a64.65,64.65,0,0,0,6.2-5.77c-.16-.13-4.3-3.45-5.38-5.6-.94-1.87-1.62-4.52-.63-6.5a3.71,3.71,0,0,1,5.26-1.67c2.66,1.67,2.92,7.32,2.23,10,0,.18-.82,2.25-1.22,3.23l.15.09a47.06,47.06,0,0,0,5.09-6.83c.84-1.33,1.57-2.64,2.24-3.93-.83-.54-4.63-3-5.81-4.88s-2.1-4.31-1.34-6.39a3.71,3.71,0,0,1,5-2.24c2.82,1.37,3.71,7,3.32,9.73,0,.15-.4,1.66-.7,2.75.3-.59.62-1.19.89-1.76,1-2.13,1.84-4.15,2.55-5.95.39-1,.73-2,1-2.83-.54-1-2.69-4.84-2.89-7s.12-4.78,1.75-6.28a3.71,3.71,0,0,1,5.51.34c1.88,2.51.09,7.88-1.53,10.16-.14.2-2.68,3-2.71,3l0-.06c-.28.85-.59,1.76-.94,2.74-.67,1.82-1.44,3.86-2.43,6a65.63,65.63,0,0,1-3.52,6.83,47.85,47.85,0,0,1-5,7l-.07.08c.79-.48,3-1.76,3.2-1.84,2.57-1.1,8.19-1.72,10.25.64a3.7,3.7,0,0,1-.82,5.46c-1.8,1.28-4.52,1-6.51.4-2.25-.72-6-4.14-6.35-4.42a66.24,66.24,0,0,1-6.28,6.12c-1.29,1.11-2.62,2.19-4,3.26.69-.4,1.31-.75,1.41-.79,2.57-1.1,8.19-1.72,10.25.64a3.7,3.7,0,0,1-.82,5.46c-1.81,1.28-4.52,1-6.52.4s-5.32-3.5-6.18-4.27l-1.56,1.22c-2.52,1.92-5,3.83-7.45,5.79-.85.68-1.67,1.39-2.48,2.1l1.21-.68c2.58-1.11,8.2-1.73,10.26.63A3.72,3.72,0,0,1,90,83c-1.81,1.27-4.52,1-6.52.39s-5-3.22-6-4.13c-.82.75-1.63,1.5-2.39,2.26-.5.53-1,1-1.5,1.57L72.18,84.7c-.88,1.07-1.79,2.16-2.61,3.22-.58.73-1.12,1.44-1.67,2.16.84-.7,2.51-2,2.66-2.12C72.94,86.48,78.4,85,80.8,87a3.71,3.71,0,0,1,0,5.52c-1.59,1.54-4.31,1.7-6.38,1.38-2.27-.36-6.39-3-6.9-3.38C66.63,91.74,65.76,92.9,65,94c-2.77,3.83-4.94,7.13-6.42,9.45,0,.08-.09.16-.15.24l-1.91-.93.3-.46c1.55-2.32,3.8-5.6,6.68-9.4.91-1.21,1.91-2.48,2.94-3.77a40.11,40.11,0,0,1-3-3.69c-2.2.87-6.79.9-7.38.9-.1,1.48-.18,2.93-.23,4.29-.2,4.72-.19,8.66-.14,11.42,0,.11,0,.21,0,.32l-2.11-1c0-2.74.1-6.44.38-10.82.09-1.5.22-3.11.37-4.76-.58-.15-5.35-1.37-7.15-2.81-1.64-1.31-3.36-3.42-3.3-5.64A3.72,3.72,0,0,1,48,73.61c3.11.4,5.72,5.42,6.23,8.17,0,.17.16,2,.23,3.1.06-.67.12-1.33.19-2,.14-1.37.32-2.73.5-4.2.12-.71.23-1.42.35-2.14s.3-1.46.45-2.2c.37-1.7.84-3.41,1.35-5.12-1.2-.12-5.46-.62-7.28-1.67s-3.83-2.88-4.11-5.07a3.72,3.72,0,0,1,3.47-4.3c3.14-.07,6.47,4.49,7.4,7.14.06.16.5,2.13.73,3.22.31-1,.62-2,1-3.08,1-3,2.13-5.93,3.22-8.9.34-.91.67-1.82,1-2.73-.43,0-5.5-.53-7.54-1.7-1.81-1-3.83-2.87-4.11-5.07a3.72,3.72,0,0,1,3.47-4.3c3.14-.07,6.47,4.49,7.4,7.14.07.2.71,3,.84,3.76.72-2,1.42-4,2-6a64.85,64.85,0,0,0,2-8.24c-.2,0-5.49-.5-7.58-1.7-1.81-1-3.83-2.87-4.11-5.07a3.7,3.7,0,0,1,3.47-4.29c3.14-.08,6.48,4.48,7.4,7.13.06.17.55,2.33.76,3.37h.18a46.86,46.86,0,0,0,.47-8.51c0-1.57-.15-3.06-.3-4.51-1,0-5.54,0-7.54-.87s-4.12-2.43-4.64-4.58a3.73,3.73,0,0,1,3-4.66c3.11-.42,6.92,3.76,8.13,6.28.07.14.58,1.61.94,2.69-.08-.66-.14-1.34-.23-2-.32-2.35-.75-4.48-1.15-6.37-.24-1.07-.48-2-.71-2.93-1-.5-4.91-2.56-6.26-4.22S56,5.11,56.55,3A3.71,3.71,0,0,1,61.33.21Z"/><path class="cls-8" d="M118,48.54c-2.46-.1-7.35-2.61-7.36-2.61s2.64-2.73,2.83-2.88c2.19-1.74,7.45-3.83,10.06-2.09a3.71,3.71,0,0,1,.65,5.48C122.79,48.15,120.11,48.63,118,48.54Z"/><g class="cls-11"><path class="cls-8" d="M67.4,25.33c-.05,0,.7-3.73.78-4,.86-2.67,4.09-7.31,7.23-7.3A3.7,3.7,0,0,1,79,18.29c-.22,2.2-2.2,4.08-4,5.16C72.88,24.72,67.41,25.33,67.4,25.33Z"/><path class="cls-8" d="M61.33.21c3,1.06,4.42,6.52,4.33,9.32,0,.24-.57,4-.62,4l-.06,0c.24.86.49,1.79.73,2.8.45,1.89.93,4,1.3,6.37a63.6,63.6,0,0,1,.83,7.64,47.36,47.36,0,0,1-.29,8.6s0,.07,0,.1c.38-.83,1.54-3.13,1.65-3.29,1.54-2.34,5.88-6,8.9-5.13a3.72,3.72,0,0,1,2.33,5c-.8,2.06-3.2,3.35-5.22,3.92-2.26.65-7.32-.11-7.72-.18a65.48,65.48,0,0,1-1.87,8.57c-.46,1.64-1,3.28-1.52,4.91.36-.71.69-1.34.74-1.43,1.54-2.34,5.88-6,8.9-5.12a3.71,3.71,0,0,1,2.33,5c-.8,2.06-3.2,3.35-5.22,3.92s-6.36,0-7.5-.15c-.22.63-.42,1.25-.64,1.88-1,3-2.08,6-3,8.94-.33,1-.62,2.08-.91,3.12.32-.63.59-1.16.64-1.24,1.54-2.34,5.88-6,8.91-5.13a3.7,3.7,0,0,1,2.32,5c-.8,2.07-3.2,3.35-5.21,3.93s-6,.07-7.3-.12c-.27,1.07-.54,2.14-.75,3.19-.12.73-.3,1.41-.38,2.14s-.21,1.44-.31,2.15c-.14,1.37-.29,2.78-.4,4.12-.08.93-.13,1.82-.2,2.72.32-1,1-3.07,1.06-3.23A14.43,14.43,0,0,1,62,77a3.81,3.81,0,0,1,.4-.71,3.71,3.71,0,0,1,5.46-.85c2.37,2,1.78,7.67.69,10.25-.07.15-1,1.72-1.52,2.71.42-.53.83-1,1.27-1.58.87-1.07,1.77-2.11,2.74-3.23q.72-.8,1.47-1.59c.48-.54,1.05-1.05,1.58-1.59,1.26-1.21,2.59-2.38,3.95-3.53-.93-.76-4.2-3.52-5.14-5.4S71.24,67,72.22,65a3.71,3.71,0,0,1,5.26-1.67c2.66,1.67,2.92,7.32,2.24,10,0,.17-.76,2.06-1.17,3.09.83-.68,1.65-1.36,2.51-2,2.47-1.91,5-3.78,7.6-5.65L91,67.06c-.34-.26-4.3-3.47-5.35-5.57C84.7,59.62,84,57,85,55a3.71,3.71,0,0,1,5.26-1.66c2.66,1.66,2.93,7.31,2.24,10-.05.2-1.08,2.92-1.38,3.6,1.71-1.27,3.4-2.56,5-3.89a64.65,64.65,0,0,0,6.2-5.77c-.16-.13-4.3-3.45-5.38-5.6-.94-1.87-1.62-4.52-.63-6.5a3.71,3.71,0,0,1,5.26-1.67c2.66,1.67,2.92,7.32,2.23,10,0,.18-.82,2.25-1.22,3.23l.15.09a47.06,47.06,0,0,0,5.09-6.83c.84-1.33,1.57-2.64,2.24-3.93-.83-.54-4.63-3-5.81-4.88s-2.1-4.31-1.34-6.39a3.71,3.71,0,0,1,5-2.24c2.82,1.37,3.71,7,3.32,9.73,0,.15-.4,1.66-.7,2.75.3-.59.62-1.19.89-1.76,1-2.13,1.84-4.15,2.55-5.95.39-1,.73-2,1-2.83-.54-1-2.69-4.84-2.89-7s.12-4.78,1.75-6.28a3.71,3.71,0,0,1,5.51.34c1.88,2.51.09,7.88-1.53,10.16-.14.2-2.68,3-2.71,3l0-.06c-.28.85-.59,1.76-.94,2.74-.67,1.82-1.44,3.86-2.43,6a65.63,65.63,0,0,1-3.52,6.83,47.85,47.85,0,0,1-5,7l-.07.08c.79-.48,3-1.76,3.2-1.84,2.57-1.1,8.19-1.72,10.25.64a3.7,3.7,0,0,1-.82,5.46c-1.8,1.28-4.52,1-6.51.4-2.25-.72-6-4.14-6.35-4.42a66.24,66.24,0,0,1-6.28,6.12c-1.29,1.11-2.62,2.19-4,3.26.69-.4,1.31-.75,1.41-.79,2.57-1.1,8.19-1.72,10.25.64a3.7,3.7,0,0,1-.82,5.46c-1.81,1.28-4.52,1-6.52.4s-5.32-3.5-6.18-4.27l-1.56,1.22c-2.52,1.92-5,3.83-7.45,5.79-.85.68-1.67,1.39-2.48,2.1l1.21-.68c2.58-1.11,8.2-1.73,10.26.63A3.72,3.72,0,0,1,90,83c-1.81,1.27-4.52,1-6.52.39s-5-3.22-6-4.13c-.82.75-1.63,1.5-2.39,2.26-.5.53-1,1-1.5,1.57L72.18,84.7c-.88,1.07-1.79,2.16-2.61,3.22-.58.73-1.12,1.44-1.67,2.16.84-.7,2.51-2,2.66-2.12C72.94,86.48,78.4,85,80.8,87a3.71,3.71,0,0,1,0,5.52c-1.59,1.54-4.31,1.7-6.38,1.38-2.27-.36-6.39-3-6.9-3.38C66.63,91.74,65.76,92.9,65,94c-2.77,3.83-4.94,7.13-6.42,9.45,0,.08-.09.16-.15.24l-1.91-.93.3-.46c1.55-2.32,3.8-5.6,6.68-9.4.91-1.21,1.91-2.48,2.94-3.77a40.11,40.11,0,0,1-3-3.69c-2.2.87-6.79.9-7.38.9-.1,1.48-.18,2.93-.23,4.29-.2,4.72-.19,8.66-.14,11.42,0,.11,0,.21,0,.32l-2.11-1c0-2.74.1-6.44.38-10.82.09-1.5.22-3.11.37-4.76-.58-.15-5.35-1.37-7.15-2.81-1.64-1.31-3.36-3.42-3.3-5.64A3.72,3.72,0,0,1,48,73.61c3.11.4,5.72,5.42,6.23,8.17,0,.17.16,2,.23,3.1.06-.67.12-1.33.19-2,.14-1.37.32-2.73.5-4.2.12-.71.23-1.42.35-2.14s.3-1.46.45-2.2c.37-1.7.84-3.41,1.35-5.12-1.2-.12-5.46-.62-7.28-1.67s-3.83-2.88-4.11-5.07a3.72,3.72,0,0,1,3.47-4.3c3.14-.07,6.47,4.49,7.4,7.14.06.16.5,2.13.73,3.22.31-1,.62-2,1-3.08,1-3,2.13-5.93,3.22-8.9.34-.91.67-1.82,1-2.73-.43,0-5.5-.53-7.54-1.7-1.81-1-3.83-2.87-4.11-5.07a3.72,3.72,0,0,1,3.47-4.3c3.14-.07,6.47,4.49,7.4,7.14.07.2.71,3,.84,3.76.72-2,1.42-4,2-6a64.85,64.85,0,0,0,2-8.24c-.2,0-5.49-.5-7.58-1.7-1.81-1-3.83-2.87-4.11-5.07a3.7,3.7,0,0,1,3.47-4.29c3.14-.08,6.48,4.48,7.4,7.13.06.17.55,2.33.76,3.37h.18a46.86,46.86,0,0,0,.47-8.51c0-1.57-.15-3.06-.3-4.51-1,0-5.54,0-7.54-.87s-4.12-2.43-4.64-4.58a3.73,3.73,0,0,1,3-4.66c3.11-.42,6.92,3.76,8.13,6.28.07.14.58,1.61.94,2.69-.08-.66-.14-1.34-.23-2-.32-2.35-.75-4.48-1.15-6.37-.24-1.07-.48-2-.71-2.93-1-.5-4.91-2.56-6.26-4.22S56,5.11,56.55,3A3.71,3.71,0,0,1,61.33.21Z"/><path class="cls-8" d="M118,48.54c-2.46-.1-7.35-2.61-7.36-2.61s2.64-2.73,2.83-2.88c2.19-1.74,7.45-3.83,10.06-2.09a3.71,3.71,0,0,1,.65,5.48C122.79,48.15,120.11,48.63,118,48.54Z"/></g><path class="cls-8" d="M89.41,109.9S74.54,74.06,66.22,75.62s14.27,57.14,14.27,57.14-26.17-49.35-44-49.35S43,138,65.62,156.13c0,0-35.68-38.44-56.49-30.13s41.63,47.27,41.63,47.27-36.28-11.43-32.11-2.59,15.46,10.38,15.46,10.38l9.57,2.08h52l8-3.11S137,163.4,128.06,156.65s-28.55,7.79-28.55,7.79S133.41,127,126.87,113s-35.68,25.45-35.68,25.45,23.78-50.39,19-59.22S89.41,109.9,89.41,109.9Z"/><path class="cls-12" d="M89.41,109.9S74.54,74.06,66.22,75.62s14.27,57.14,14.27,57.14-26.17-49.35-44-49.35S43,138,65.62,156.13c0,0-35.68-38.44-56.49-30.13s41.63,47.27,41.63,47.27-36.28-11.43-32.11-2.59,15.46,10.38,15.46,10.38l15.57,2.08h42l12-3.11S137,163.4,128.06,156.65s-28.55,7.79-28.55,7.79S133.41,127,126.87,113s-35.68,25.45-35.68,25.45,23.78-50.39,19-59.22S89.41,109.9,89.41,109.9Z"/><path class="cls-8" d="M94.16,111.79c-13.08,38.65-13.08,66-13.08,66s15.46.6,31.52-11.3"/><path class="cls-8" d="M87.62,132.6a231.27,231.27,0,0,0-10.7-33.89"/><path class="cls-8" d="M49,110l33.3,49.36s22.6-19,30.33-29.73"/><path class="cls-8" d="M81.68,171.25S46.59,154.6,32.32,145.09"/></g></g><g id="Shelf"><rect class="cls-13" x="180.05" y="29.88" width="7.23" height="301.29"/><rect class="cls-13" x="50" y="29.88" width="7.23" height="301.29"/><rect class="cls-13" x="115.03" y="29.88" width="7.23" height="301.29"/><rect class="cls-13" x="245.08" y="29.88" width="7.23" height="301.29"/><rect class="cls-13" x="47.67" y="39.27" width="202.47" height="13.73"/><rect class="cls-14" x="119.84" y="39.27" width="130.3" height="13.73"/><rect class="cls-13" x="47.67" y="177.52" width="202.47" height="13.73"/><rect class="cls-14" x="119.84" y="177.52" width="130.3" height="13.73"/><rect class="cls-13" x="47.67" y="315.76" width="202.47" height="13.73"/><rect class="cls-14" x="119.84" y="315.76" width="130.3" height="13.73"/></g><g id="Boxes"><rect class="cls-8" x="13.9" y="242.05" width="105.96" height="89.01"/><g class="cls-15"><rect class="cls-16" x="13.9" y="242.05" width="105.96" height="89.01"/></g><rect class="cls-17" x="13.9" y="242.05" width="105.96" height="89.01"/><rect class="cls-18" x="84.66" y="242.05" width="35.21" height="89.01"/><g class="cls-19"><rect class="cls-20" x="84.66" y="242.05" width="35.21" height="89.01"/></g><rect class="cls-17" x="84.66" y="242.05" width="35.21" height="89.01"/><line class="cls-21" x1="102.63" y1="242.29" x2="102.63" y2="331.17"/><rect class="cls-8" x="19.25" y="153.18" width="105.96" height="89.01"/><g class="cls-22"><rect class="cls-16" x="19.25" y="153.18" width="105.96" height="89.01"/></g><rect class="cls-17" x="19.25" y="153.18" width="105.96" height="89.01"/><rect class="cls-18" x="90" y="153.18" width="35.21" height="89.01"/><g class="cls-23"><rect class="cls-20" x="90" y="153.18" width="35.21" height="89.01"/></g><rect class="cls-17" x="90" y="153.18" width="35.21" height="89.01"/><line class="cls-21" x1="107.97" y1="153.42" x2="107.97" y2="242.3"/><rect class="cls-8" x="294.99" y="242.05" width="105.96" height="89.01"/><g class="cls-24"><rect class="cls-5" x="294.99" y="242.05" width="105.96" height="89.01"/></g><rect class="cls-25" x="294.99" y="242.05" width="105.96" height="89.01"/><rect class="cls-18" x="365.75" y="242.05" width="35.21" height="89.01"/><g class="cls-26"><rect class="cls-20" x="365.75" y="242.05" width="35.21" height="89.01"/></g><rect class="cls-17" x="365.75" y="242.05" width="35.21" height="89.01"/><line class="cls-25" x1="383.72" y1="242.29" x2="383.72" y2="331.17"/><rect class="cls-8" x="294.99" y="152.95" width="105.96" height="89.01"/><g class="cls-27"><rect class="cls-28" x="294.99" y="152.95" width="105.96" height="89.01"/></g><rect class="cls-25" x="294.99" y="152.95" width="105.96" height="89.01"/><rect class="cls-29" x="365.75" y="152.95" width="35.21" height="89.01"/><g class="cls-30"><rect class="cls-2" x="365.75" y="152.95" width="35.21" height="89.01"/></g><rect class="cls-25" x="365.75" y="152.95" width="35.21" height="89.01"/><line class="cls-25" x1="383.72" y1="153.19" x2="383.72" y2="242.07"/><g class="cls-10"><rect class="cls-8" x="303.99" y="79.25" width="87.65" height="73.63"/><g class="cls-31"><rect class="cls-16" x="303.99" y="79.25" width="87.65" height="73.63"/></g><rect class="cls-17" x="303.99" y="79.25" width="87.65" height="73.63"/><rect class="cls-8" x="362.52" y="79.25" width="29.12" height="73.63"/><g class="cls-32"><rect class="cls-33" x="362.52" y="79.25" width="29.12" height="73.63"/></g><rect class="cls-17" x="362.52" y="79.25" width="29.12" height="73.63"/><line class="cls-1" x1="377.39" y1="79.45" x2="377.39" y2="152.97"/></g></g><g id="Hand_Truck" data-name="Hand Truck"><rect class="cls-3" x="366.7" y="297.6" width="13.73" height="8.59"/><circle class="cls-34" cx="251.24" cy="322.87" r="8.3"/><rect class="cls-34" x="382.92" y="185.49" width="4.9" height="137.57"/><path class="cls-35" d="M385.21,233.61l-11.59-9.22a32.89,32.89,0,0,1-11.43-33.67,8.27,8.27,0,0,1,8-6.27h30a8.28,8.28,0,0,1,8,6.27h0a32.91,32.91,0,0,1-11.43,33.67Zm-15-44.47a3.58,3.58,0,0,0-3.48,2.72,28.2,28.2,0,0,0,9.79,28.86l8.68,6.9,8.67-6.9a28.21,28.21,0,0,0,9.8-28.86h0a3.58,3.58,0,0,0-3.48-2.72Z"/><rect class="cls-36" x="204.71" y="301.9" width="151.73" height="17.66"/><g class="cls-37"><rect class="cls-38" x="204.71" y="301.9" width="151.73" height="17.66"/></g><rect class="cls-17" x="204.71" y="301.9" width="151.73" height="17.66"/><rect class="cls-17" x="204.71" y="301.9" width="17" height="17.66"/><rect class="cls-17" x="339.43" y="301.9" width="17" height="17.66"/><rect class="cls-17" x="272.07" y="301.9" width="17" height="17.66"/><polygon class="cls-3" points="356.43 319.56 366.9 319.56 379.98 269.85 369.51 269.85 356.43 319.56"/><rect class="cls-3" x="378.51" y="290.78" width="13.73" height="22.24"/><path class="cls-35" d="M382,331.17h0a3,3,0,0,1-2.95-2.95V317.15A3,3,0,0,1,382,314.2h0a3,3,0,0,1,2.95,2.95v11.07A3,3,0,0,1,382,331.17Z"/><path class="cls-35" d="M389,331.17h0a3,3,0,0,1-2.95-2.95V317.15A3,3,0,0,1,389,314.2h0a3,3,0,0,1,3,2.95v11.07A3,3,0,0,1,389,331.17Z"/></g><g id="Floor"><line class="cls-17" x1="0.5" y1="331.17" x2="414.31" y2="331.17"/></g><g id="Character"><g class="cls-39"><ellipse class="cls-8" cx="143.26" cy="351.28" rx="72.24" ry="8.78"/><ellipse class="cls-40" cx="143.26" cy="351.28" rx="72.24" ry="8.78"/></g><g class="cls-39"><path class="cls-8" d="M292.75,351.28c0,2.42-16.12,4.38-36,4.38s-36-2-36-4.38,16.12-4.37,36-4.37S292.75,348.87,292.75,351.28Z"/><path class="cls-40" d="M292.75,351.28c0,2.42-16.12,4.38-36,4.38s-36-2-36-4.38,16.12-4.37,36-4.37S292.75,348.87,292.75,351.28Z"/></g><path class="cls-34" d="M157.65,62s-5.59-4.39-12-2.2-11.27,12.87-13,21.55-8.38,15.26-6.78,25.44,13.16,11.77,27.13,13.27,21.55-.2,28.14-9.38,3.79-20.35-.1-30.23-10.38-19-15.77-20.75S157.65,62,157.65,62Z"/><path class="cls-41" d="M134.57,114.27a16.55,16.55,0,0,0,2.93,1"/><path class="cls-41" d="M156.28,69.15a68.73,68.73,0,0,1-8.58,14.28c-5.71,7.35-18.36,14.29-19.18,22a7.32,7.32,0,0,0,1.78,5.77"/><path class="cls-41" d="M179.48,106a13.25,13.25,0,0,1-1.57,2.72"/><path class="cls-41" d="M174.64,86.7s6.44,7.42,5.81,15.34"/><path class="cls-41" d="M155.05,65.06a15.78,15.78,0,0,0-13.47,5.31c-.22.26-.44.52-.64.78"/><path class="cls-3" d="M118.16,253.55l-1.24,19.24s-5.32,25.81-7,36.45-4.75,26.82-5.32,26.82-9.73,5.55-12.68,10.08.8,6.45,4.87,5,9.62-5.55,11.43-10.42,2.72-6.68,2.83-7.47,19.47-52.74,21.4-58.29,6-21.85,6-21.85l9.51-32.26s10.19,33.17,10.3,34.64,10.53,86.25,11,89.42.34,5.43,2.27,6.11,6.45.68,8.82.68,10.64,1.25,14.72.23,4.53-1.7,1.7-3.74-18.55-3.34-20-9.28c-.11-.45-.22-87.72-.22-87.72s-1.36-28.86-3.63-37H120.54Z"/><path class="cls-34" d="M96.77,351.12c4.08-1.48,9.62-5.55,11.43-10.42.14-.35.26-.69.38-1-2.3,2.46-6,5.88-6,5.88a7.3,7.3,0,0,0-1.47-3.17,2.63,2.63,0,0,0-2.6-.79l4-4.4c-3,1.86-8.4,5.66-10.53,8.93C89,350.66,92.7,352.59,96.77,351.12Z"/><path class="cls-34" d="M196.72,348.17c-1.94-1.39-9.91-2.44-15.23-4.87a1.88,1.88,0,0,0-.51.68,20.28,20.28,0,0,0-.79,2.95l-11-2.35c0,.13,0,.24,0,.31.46,3.17.34,5.43,2.27,6.11s6.45.68,8.83.68,10.63,1.25,14.71.23S199.55,350.21,196.72,348.17Z"/><path class="cls-34" d="M133.41,167.29s-5.19,2.39-11.47,13.67c-6.87,12.31-5.69,19.15-5.79,34s-.4,39.5-.4,39.5,19,5.09,32.62,4.29,30.93-3.89,30.93-3.89-3.69-50.28-7.18-64.74-5.59-21-5.59-21a82.87,82.87,0,0,1-20.35.3C134.61,168.29,133.41,167.29,133.41,167.29Z"/><path class="cls-41" d="M155.26,211.72c.52,1.71,1,3.44,1.42,5.17"/><path class="cls-41" d="M143.21,183.42a167.3,167.3,0,0,1,10.35,23.12"/><path class="cls-3" d="M260.79,157.69c-.6-.4-10.42-1.94-10.42-1.94l-1.92-.79s11.89.95,12,.45.5-1.1-.3-1.2S244,151,244,151s3.89-3.68,4.39-4.48,1.2-2.4.4-2.4-1,.5-2.1,1.2-5.38,2.4-6.58,3.39-4.79,3.59-4.79,3.59l-41.58-5.72s-14.6-18-17.77-21.84a41.47,41.47,0,0,0-7.47-6.8c-3.05-1.35-2.94.91-2.94.91l6.34,28.41s16.52,9.85,17.54,9.85,45.68,1.48,45.68,1.48,3,1.4,4.89,2.59,13.87,5,13.87,5,.8-.4-.1-1.1-6.69-3.49-6.69-3.49l12,2.6s.69-.5.4-1-11-4.59-11-4.59l12,.6S261.39,158.09,260.79,157.69Z"/><path class="cls-3" d="M191.27,143.49c-4.32-5.31-12.92-15.91-15.27-18.75a41.47,41.47,0,0,0-7.47-6.8c-3.05-1.35-2.94.91-2.94.91l6.34,28.41s7.46,4.44,12.66,7.36Z"/><path class="cls-3" d="M147.08,115.51s-8.68.4-14,6.29-4.69,18.85-2.5,26.63,5,12.07,4.39,14.77-2.79,3.59-1.59,6.08,8.08,5.19,20.25,4.79,14.47-3,14.57-5.28-.8-4.2-.5-5.59,9.08-9.18,9.08-17.76-3.79-11.57-4.69-17.76-.6-7.08-4.29-9.78S152,113.81,147.08,115.51Z"/><path class="cls-17" d="M143.14,145.29a41.67,41.67,0,0,1-9.57,6"/><path class="cls-17" d="M144.1,146.25s-2.16,6.94-7.42,10.77"/><polygon class="cls-3" points="165.63 121.8 166.63 131.37 162.44 126.48 165.63 121.8"/><polygon class="cls-3" points="160.05 132.17 165.63 121.8 160.54 116.31 160.05 132.17"/><path class="cls-3" d="M149.27,98.55a42.31,42.31,0,0,1,1.3,10.57,39.09,39.09,0,0,1-.7,6.89l10.18,16.16,2.89-15,1.89-10.38S153.26,106.13,149.27,98.55Z"/><polygon class="cls-3" points="159.45 123.49 160.05 132.17 157.05 127.48 159.45 123.49"/><polygon class="cls-3" points="146.48 115.61 155.76 132.27 159.45 123.49 149.57 109.92 146.48 115.61"/><rect class="cls-29" x="224.85" y="123.38" width="84.21" height="69.1"/><g class="cls-42"><rect class="cls-2" x="224.85" y="123.38" width="84.21" height="69.1"/></g><rect class="cls-17" x="224.85" y="123.38" width="84.21" height="69.1"/><rect class="cls-2" x="207.02" y="123.38" width="84.21" height="69.1"/><path class="cls-29" d="M322.92,215.74c-2.69-4.28-13.86-23.26-13.86-23.26H291.23l9.17,23.26Z"/><g class="cls-43"><path class="cls-2" d="M322.92,215.74c-2.69-4.28-13.86-23.26-13.86-23.26H291.23l9.17,23.26Z"/></g><path class="cls-17" d="M322.92,215.74c-2.69-4.28-13.86-23.26-13.86-23.26H291.23l9.17,23.26Z"/><path class="cls-2" d="M193.1,215.74c2.69-4.28,13.86-23.26,13.86-23.26h17.83l-9.18,23.26Z"/><polygon class="cls-2" points="206.96 192.48 199.21 215.74 287.16 215.74 291.23 192.48 206.96 192.48"/><line class="cls-17" x1="319.89" y1="148.38" x2="319.89" y2="171.52"/><line class="cls-17" x1="324.27" y1="158.39" x2="324.27" y2="177.15"/><line class="cls-17" x1="197.97" y1="171.52" x2="197.97" y2="185.9"/><line class="cls-17" x1="194.22" y1="179.65" x2="194.22" y2="190.9"/><path class="cls-3" d="M132.61,140.35A46.15,46.15,0,0,0,142.89,149c6,3.59,28,16.06,29.73,16.76s54.27-7.88,54.27-7.88,3,1.4,4.89,2.59,13.87,5,13.87,5,.79-.4-.1-1.09-6.69-3.5-6.69-3.5l12,2.6s.7-.5.4-1-11-4.59-11-4.59l12,.6s.9-1.1.3-1.5-12.87-3.19-12.87-3.19,13.07-1.1,13.17-1.6.5-1.09-.3-1.19-17.16-1.7-17.16-1.7,4.29-2.69,4.79-3.49,1.2-2.4.4-2.4-1,.5-2.1,1.2-5.39,2.4-6.58,3.39-4.79,3.6-4.79,3.6l-48.09.1-29.83-23.55"/><path class="cls-3" d="M252.53,151c-.8-.1-17.16-1.7-17.16-1.7s4.29-2.69,4.79-3.49,1.2-2.4.4-2.4-1,.5-2.1,1.2-5.39,2.4-6.58,3.39-4.79,3.6-4.79,3.6l-48.09.1-5.36-4.23c-2,3.51-5.74,10.09-8.17,14.43,3.74,2.08,6.58,3.63,7.15,3.86,1.69.7,54.27-7.88,54.27-7.88s3,1.4,4.89,2.59,13.87,5,13.87,5,.79-.4-.1-1.09-6.69-3.5-6.69-3.5l12,2.6s.7-.5.4-1-11-4.59-11-4.59l12,.6s.9-1.1.3-1.5-12.87-3.19-12.87-3.19,13.07-1.1,13.17-1.6S253.33,151.13,252.53,151Z"/><path class="cls-3" d="M172,90.17a1.42,1.42,0,0,1,2.49.6A8.12,8.12,0,0,1,172.92,97c-1.1,1.1-2.1,1.4-2.1,0A63.83,63.83,0,0,1,172,90.17Z"/><path class="cls-3" d="M159.73,72.69a20.35,20.35,0,0,1-5.87,12.91,48.58,48.58,0,0,1-10.76,8s.59,3.13,1.76,4.11,3.53.79,3.53.79a25.42,25.42,0,0,0,6.45,9.78c4.7,4.3,10.18,3.91,13.31-2.54s4.7-12.92,4.3-16.64l-.39-3.72S161.89,79.73,159.73,72.69Z"/><ellipse class="cls-35" cx="159.14" cy="90.43" rx="0.9" ry="1.6"/><ellipse class="cls-35" cx="164.03" cy="103.2" rx="0.9" ry="1.6"/><ellipse class="cls-35" cx="167.82" cy="90.43" rx="0.9" ry="1.6"/><path class="cls-17" d="M166,88.73a9.4,9.4,0,0,0-.3,3.69c.3,1.7,1.69,4.59.5,5.09a3.31,3.31,0,0,1-3.4-.4"/><path class="cls-17" d="M156.55,87.54s.47-3.06,4.48-2.71"/><path class="cls-17" d="M167.29,85.77s3.74-3,5,2.49"/></g></g></svg>