<svg width="40" height="40" viewBox="0 0 40 40" fill="none" xmlns="http://www.w3.org/2000/svg">
<path d="M23.1928 1.91223C23.7689 2.11095 24.304 2.41318 24.7718 2.80409C25.139 3.1228 25.4676 3.48776 25.8271 3.84502L25.9375 3.43379H25.9914C26.577 4.35043 26.8474 5.43341 26.7617 6.51803L27.1622 6.23788C27.1622 6.59514 27.1879 6.93697 27.1622 7.26596C27.1044 7.97765 26.9727 8.68138 26.7694 9.36581C26.4495 10.4391 25.9265 11.4408 25.2289 12.3164C24.732 12.9482 24.1425 13.501 23.4804 13.9562C22.8939 14.3396 22.2319 14.592 21.5393 14.6964C20.9845 14.7914 20.4229 14.8413 19.8601 14.8455C18.8094 14.832 17.7725 14.6046 16.8124 14.1772C16.2637 13.953 15.746 13.6594 15.2719 13.3034C14.4841 12.6878 13.8795 11.8683 13.5234 10.9336C13.2191 10.1484 13.0406 9.32003 12.9944 8.47909C12.9536 7.88959 12.9682 7.29756 13.0381 6.7108C13.041 6.662 13.041 6.61308 13.0381 6.56429C13.0227 6.56429 13.0098 6.56429 13.0021 6.56429L12.7454 6.69537C12.723 6.6116 12.7126 6.52506 12.7146 6.43836C12.825 5.82665 13.0535 5.27919 13.6158 4.93735C13.7185 4.87567 13.7005 4.79342 13.6928 4.69833C13.6227 4.10575 13.6779 3.50506 13.8546 2.93517C13.9149 2.70206 14.0606 2.50019 14.2628 2.36973C14.3193 2.34316 14.3776 2.32082 14.4374 2.3029C14.4888 2.64474 14.4811 2.98143 14.6942 3.2513C14.6996 3.31579 14.7205 3.37801 14.7552 3.43264C14.7899 3.48727 14.8372 3.53268 14.8932 3.56501C14.9492 3.59733 15.0122 3.6156 15.0768 3.61827C15.1414 3.62093 15.2057 3.6079 15.2642 3.58029C15.2933 3.57082 15.3235 3.56479 15.354 3.5623C15.7828 3.52889 16.2116 3.50318 16.6378 3.45949C16.743 3.44952 16.8425 3.40734 16.9228 3.33869C17.1546 3.11077 17.4397 2.94465 17.7521 2.8555C17.9678 2.80152 18.1937 2.78096 18.4171 2.74497L18.4325 2.80923C18.3401 2.88376 18.2169 2.94031 18.1629 3.03798C17.9938 3.32646 17.8445 3.62615 17.7162 3.93498C17.6576 4.06839 17.6515 4.21903 17.6991 4.35675C17.7467 4.49447 17.8445 4.60912 17.9729 4.67777C18.3827 4.96843 18.8619 5.14574 19.362 5.19181C19.4981 5.20466 19.5237 5.26891 19.4955 5.39228C19.4183 5.61164 19.2628 5.7947 19.059 5.90632C18.8433 6.06567 18.5994 6.18904 18.3632 6.3304C18.4705 6.47662 18.5468 6.64324 18.5874 6.82003C18.628 6.99682 18.6321 7.18005 18.5994 7.35848C18.5763 7.51269 18.5378 7.54867 18.376 7.50755C18.0864 7.43337 17.7909 7.38436 17.4928 7.36106C17.236 7.34306 17.1077 7.487 17.1513 7.67462C17.2028 7.99737 17.3466 8.29828 17.5653 8.54095C17.784 8.78361 18.0683 8.95763 18.3837 9.04196C18.5364 9.0969 18.699 9.11844 18.8607 9.10514C19.0223 9.09184 19.1793 9.04401 19.3209 8.96486C19.595 8.80833 19.8936 8.69969 20.2041 8.64358C20.4447 8.61188 20.6889 8.66373 20.8959 8.79049C21.1029 8.91725 21.2602 9.11125 21.3416 9.3401C20.7903 9.4381 20.2887 9.72089 19.9191 10.142C19.7347 10.3515 19.4816 10.4883 19.2054 10.5275C18.8947 10.5841 18.5789 10.5995 18.2554 10.6355C18.8151 11.114 19.4722 11.4648 20.181 11.6636C20.7413 11.82 21.3394 11.7661 21.8628 11.5119C22.4153 11.2153 22.8634 10.7559 23.1466 10.196C23.2467 10.0135 23.3366 9.82587 23.4316 9.64082H23.4881L23.5728 10.4581C23.6876 10.2809 23.7922 10.0973 23.886 9.90812C24.1036 9.32587 24.1912 8.70303 24.1428 8.08328C24.1428 7.82626 24.1171 7.58723 24.1043 7.31222C24.4201 7.40475 24.4868 7.67462 24.6178 7.92393C24.9926 7.0295 24.7641 6.18133 24.5228 5.33574L24.5639 5.29461L25.0466 5.48224C24.9379 4.80381 24.5695 4.19442 24.0195 3.78334C23.5712 3.46508 23.0732 3.22362 22.5458 3.06882C22.4918 3.05083 22.4508 2.98914 22.402 2.94802C22.4508 2.89919 22.4893 2.82722 22.5483 2.80923C22.6834 2.77258 22.8206 2.74426 22.9591 2.72442C22.7306 2.23351 22.2428 2.21037 21.8474 2.01504C22.037 1.96232 22.2314 1.92874 22.4277 1.9148C22.6767 1.92508 22.936 1.92251 23.1928 1.91223Z" fill="#C75305"/>
<path d="M23.1927 1.9123C22.936 1.9123 22.6792 1.9123 22.4225 1.94314C22.2262 1.95708 22.0318 1.99067 21.8422 2.04338C22.235 2.23872 22.7254 2.26185 22.954 2.75275C22.8154 2.7726 22.6782 2.80093 22.5431 2.83757C22.4867 2.85814 22.4456 2.9301 22.3968 2.97637C22.443 3.01749 22.4841 3.07918 22.5406 3.09717C23.068 3.25197 23.566 3.49343 24.0144 3.81168C24.5643 4.22276 24.9327 4.83215 25.0414 5.51058L24.5587 5.32295L24.5176 5.36408C24.7589 6.21224 24.9875 7.05784 24.6126 7.95227C24.4842 7.69525 24.4175 7.43823 24.0991 7.34056C24.1119 7.59758 24.1299 7.8546 24.1376 8.11162C24.186 8.73137 24.0984 9.35421 23.8808 9.93646C23.787 10.1256 23.6824 10.3093 23.5676 10.4865L23.4829 9.66916H23.4264C23.3314 9.85422 23.2415 10.0418 23.1414 10.2243C22.8582 10.7842 22.4101 11.2436 21.8576 11.5403C21.3342 11.7944 20.7362 11.8483 20.1759 11.6919C19.467 11.4932 18.8099 11.1424 18.2502 10.6638C18.5737 10.6278 18.8895 10.6124 19.2002 10.5559C19.4764 10.5166 19.7295 10.3799 19.914 10.1704C20.2835 9.74923 20.7851 9.46645 21.3364 9.36845C21.255 9.1396 21.0977 8.9456 20.8907 8.81884C20.6837 8.69208 20.4395 8.64022 20.199 8.67192C19.8885 8.72803 19.5898 8.83667 19.3157 8.9932C19.1741 9.07235 19.0172 9.12019 18.8555 9.13349C18.6938 9.14679 18.5312 9.12525 18.3786 9.07031C18.0631 8.98598 17.7788 8.81195 17.5601 8.56929C17.3414 8.32662 17.1976 8.02571 17.1461 7.70296C17.1025 7.51534 17.236 7.3714 17.4876 7.3894C17.7857 7.4127 18.0812 7.46172 18.3709 7.5359C18.5326 7.57445 18.5711 7.53589 18.5942 7.38682C18.6269 7.20839 18.6228 7.02516 18.5822 6.84837C18.5416 6.67158 18.4653 6.50496 18.358 6.35874C18.5942 6.21738 18.8382 6.10172 19.0538 5.93466C19.2577 5.82304 19.4131 5.63997 19.4903 5.42062C19.5186 5.29982 19.4903 5.23557 19.3568 5.22015C18.8567 5.17408 18.3775 4.99677 17.9677 4.70611C17.8393 4.63746 17.7415 4.52281 17.6939 4.38509C17.6463 4.24737 17.6524 4.09674 17.711 3.96332C17.8394 3.6545 17.9886 3.3548 18.1577 3.06632C18.2117 2.97122 18.3349 2.91211 18.4273 2.83757L18.4119 2.77332C18.1911 2.8093 17.9652 2.82986 17.7469 2.88384C17.4345 2.97299 17.1494 3.13912 16.9176 3.36704C16.8373 3.43568 16.7378 3.47787 16.6326 3.48783C16.2064 3.53153 15.7776 3.55723 15.3488 3.59064C15.3183 3.59313 15.2881 3.59917 15.259 3.60863C15.2005 3.63624 15.1362 3.64928 15.0716 3.64661C15.007 3.64395 14.944 3.62567 14.888 3.59335C14.832 3.56102 14.7847 3.51561 14.75 3.46098C14.7153 3.40635 14.6944 3.34414 14.689 3.27965C15.2845 2.69994 15.9694 2.22002 16.7174 1.85833C17.4817 1.48327 18.3069 1.24824 19.154 1.16437C20.5437 1.02887 21.9434 1.28808 23.1927 1.9123Z" fill="#044DA0"/>
<path d="M10.45 27.7273H14.8456V27.7581L12.7608 28.4829C12.8712 28.686 12.9713 28.8839 13.0843 29.0741C13.7588 30.2286 14.5495 31.3112 15.4439 32.3048C16.6691 33.6983 18.1455 34.8484 19.7959 35.6949C19.8423 35.7217 19.8945 35.7371 19.9481 35.7397C20.0016 35.7424 20.0551 35.7323 20.104 35.7103C20.7858 35.4268 21.419 35.0383 21.9809 34.5589C22.4944 34.1271 23.0079 33.6799 23.4803 33.2018C24.4289 32.2437 25.31 31.2209 26.1172 30.1407C26.5511 29.5573 26.9799 28.9713 27.401 28.3878C27.4147 28.3616 27.4259 28.334 27.4343 28.3056L25.7295 27.7633V27.7324H29.4191C29.1906 28.2311 28.9852 28.7451 28.7258 29.2283C28.2995 30.0444 27.8057 30.8233 27.2495 31.5569C26.8027 32.1352 26.3662 32.7238 25.8681 33.2532C25.2534 33.9047 24.6064 34.5249 23.9296 35.1115C23.3083 35.6512 22.6459 36.1396 21.9783 36.6253C21.4134 37.0237 20.8075 37.3655 20.2169 37.7305C20.1414 37.7925 20.0479 37.8285 19.9503 37.8331C19.8527 37.8378 19.7563 37.8108 19.6752 37.7562C19.249 37.4761 18.7971 37.2422 18.3734 36.9517C17.8907 36.6253 17.4132 36.2861 16.9561 35.9237C16.4426 35.5124 15.9111 35.0986 15.4336 34.6386C14.6872 33.9491 13.9929 33.2051 13.3564 32.4128C12.9225 31.8499 12.4835 31.287 12.0727 30.701C11.5125 29.8858 11.0196 29.0262 10.5989 28.1308C10.5655 27.9843 10.4987 27.8532 10.45 27.7273Z" fill="#074E9F"/>
<path d="M25.3906 18.5337H25.3726L25.1852 18.5029H25.1672H25.1493L24.9618 18.472H24.9439H24.9259L24.7384 18.4412H24.7205H24.7051L24.5176 18.4104H24.4997H24.4843L24.2968 18.3795H24.2789H24.2634L24.076 18.3487H24.058H24.0426L23.8552 18.3178H23.8372H23.8218L23.6344 18.287H23.5933H23.5779L23.3905 18.2561H23.3725H23.3571L23.1671 18.2253H23.1491H23.1337L22.9848 18.1585H29.0622C29.1325 18.1527 29.2021 18.1406 29.2702 18.1225V18.1225V16.9736V16.6806C29.2851 16.6164 29.2946 16.5511 29.2984 16.4853C29.2984 16.0046 29.2753 15.5266 29.2728 15.046C29.2728 14.1413 29.2728 13.2468 29.2728 12.3293C29.266 12.2595 29.2522 12.1906 29.2317 12.1236C29.2225 12.1266 29.2126 12.1266 29.2034 12.1236C29.1392 12.1095 29.0739 12.1 29.0083 12.0954H27.591C27.5268 12.0954 27.4626 12.0954 27.4036 12.0954L27.3548 11.5813V11.4348C27.3548 11.2601 27.3805 11.0853 27.383 10.9208C27.383 10.5481 27.383 10.1754 27.383 9.78219C27.496 9.78219 27.5884 9.78219 27.6783 9.78219C27.8529 9.78219 28.0275 9.75649 28.1918 9.74364C28.3561 9.73079 28.5205 9.70766 28.6848 9.68452L32.3204 9.17049C32.5335 9.13964 32.7492 9.10366 32.9623 9.07025C32.9696 9.09722 32.9748 9.12472 32.9777 9.1525C32.9598 10.4504 32.9598 11.751 32.9161 13.0489C32.875 14.2903 32.798 15.5292 32.7158 16.7706C32.6594 17.7443 32.5307 18.7125 32.3307 19.6672L32.038 19.734L31.8198 19.698L31.6015 19.662L31.3833 19.6261L31.165 19.5901L30.9468 19.5541L30.7286 19.5181L30.5103 19.4821L30.2921 19.4461L30.0738 19.4102L29.8556 19.3742L29.6373 19.3382H29.5988L29.414 19.3048H29.3755L29.1932 19.2714H29.1546L28.9724 19.238H28.9338L28.749 19.2045H28.7105L28.5256 19.1711H28.4871L28.3022 19.1377H28.2637L28.0788 19.1043H28.0429L27.858 19.0709H27.8221L27.6372 19.0375H27.6013L27.4164 19.0041H27.3805L27.1956 18.9707H27.1776H27.1597L26.9748 18.9372H26.9388L26.754 18.9038H26.718L26.5332 18.8704H26.5152H26.4972L26.3098 18.837H26.2918H26.2738L26.089 18.8036H26.071H26.053L25.8682 18.7702H25.8502H25.8322L25.6448 18.7393H25.6268H25.6088L25.3906 18.5337Z" fill="#044DA0"/>
<path d="M11.6387 19.0092H11.6002L11.4154 19.0427H11.3768L11.192 19.0761H11.156L10.9712 19.1095H10.9327L10.7478 19.1429H10.7093L10.5244 19.1763H10.4987L10.3139 19.2097H10.2754L10.0571 19.2457L9.83887 19.2817L9.62062 19.3177L9.40239 19.3537L9.18414 19.3896L8.9659 19.4256L8.74766 19.4616L8.52941 19.4976L8.31118 19.5336L8.09293 19.5695L7.87469 19.6055L7.58199 19.5336C7.55963 19.4489 7.54162 19.3631 7.52807 19.2765C7.39198 18.1251 7.22766 16.9634 7.12753 15.8196C7.03766 14.7915 7.00172 13.7635 6.97604 12.7225C6.94523 11.5223 6.9478 10.3194 6.93496 9.12425C6.93496 9.07028 6.93496 9.01631 6.93496 8.94177C7.40739 9.01888 7.86441 9.09856 8.32144 9.16795C9.04292 9.27847 9.76441 9.38641 10.4859 9.48408C10.8916 9.54063 11.3024 9.57661 11.7106 9.6203L12.5297 9.68199C12.5297 10.1729 12.5297 10.651 12.5297 11.129C12.5343 11.1947 12.5437 11.26 12.5579 11.3243V11.4708L12.5066 11.9849H10.9044C10.8388 11.9896 10.7735 11.999 10.7093 12.0132C10.7001 12.0163 10.6902 12.0163 10.681 12.0132C10.6608 12.067 10.647 12.1231 10.6399 12.1802C10.6263 13.5716 10.6143 14.962 10.604 16.3517C10.6081 16.4234 10.6175 16.4947 10.6322 16.565V16.858C10.6322 17.2024 10.6117 17.5468 10.604 17.8861C10.6097 17.9263 10.6219 17.9653 10.6399 18.0017V18.0017C10.7081 18.0199 10.7777 18.0319 10.8479 18.0377H16.9305L16.7738 18.1045H16.7584H16.7405L16.5505 18.1354H16.5351H16.5171L16.3297 18.1662H16.3143H16.2963L16.1089 18.1971H16.0934H16.0755L15.888 18.2279H15.8726H15.8547L15.6647 18.2587H15.6493H15.6313L15.4439 18.2896H15.4285H15.3771L15.1897 18.3204H15.1743H15.1563L14.9689 18.3513H14.9509H14.9329L14.7455 18.3821H14.7275H14.7095L14.5221 18.413H14.5041H14.4862L14.2987 18.4464H14.2808H14.2628L14.0753 18.4772H14.0574H14.0394L13.8545 18.5106H13.8366H13.8186L13.6312 18.544H13.6132H13.5952L13.4078 18.5774H13.3898H13.3718L13.187 18.6109H13.151L12.9662 18.6443H12.9302L12.7453 18.6777H12.7274H12.7094L12.5245 18.7111H12.4886L12.3037 18.7445H12.2678L12.0829 18.7779H12.047L11.8621 18.8113H11.8262L11.6387 19.0092Z" fill="#044DA0"/>
<path d="M10.45 27.7273C10.509 27.8558 10.5655 27.9843 10.6246 28.1102C11.0453 29.0056 11.5382 29.8652 12.0983 30.6804C12.5015 31.2664 12.9405 31.8293 13.3821 32.3922C14.0186 33.1845 14.7129 33.9285 15.4593 34.618C15.9368 35.078 16.4606 35.4918 16.9818 35.9031C17.4389 36.2629 17.9164 36.6047 18.3991 36.9312C18.8228 37.2165 19.2721 37.4452 19.7009 37.7356C19.782 37.7902 19.8784 37.8172 19.976 37.8125C20.0736 37.8079 20.1671 37.7719 20.2426 37.7099C20.8332 37.3475 21.4391 37.0057 22.004 36.6047C22.6767 36.1293 23.3366 35.6306 23.9553 35.0909C24.6321 34.5043 25.2791 33.8841 25.8938 33.2326C26.3919 32.7032 26.831 32.1146 27.2752 31.5363C27.8314 30.8028 28.3252 30.0238 28.7515 29.2077C29.0083 28.7245 29.2137 28.2105 29.4448 27.7119C29.4484 27.7101 29.4523 27.7091 29.4563 27.7091C29.4603 27.7091 29.4643 27.7101 29.4679 27.7119C29.7015 27.7119 29.9352 27.7119 30.1688 27.7273C30.2307 27.7379 30.2911 27.756 30.3486 27.7813C29.7313 29.1337 28.9804 30.4209 28.1071 31.6237C27.555 32.3948 26.9568 33.1144 26.3509 33.8315C25.9314 34.3222 25.4866 34.7906 25.0183 35.2348C24.1419 36.0962 23.1888 36.8756 22.1709 37.5634C21.4956 38.0081 20.787 38.3962 20.0963 38.8151C20.0544 38.8428 20.0053 38.8575 19.9551 38.8575C19.9049 38.8575 19.8558 38.8428 19.8139 38.8151C18.7924 38.2486 17.8118 37.6114 16.8791 36.908C15.7618 36.0569 14.7198 35.111 13.7647 34.0808C13.0233 33.2892 12.337 32.4476 11.7106 31.562C10.9964 30.5601 10.3628 29.503 9.81579 28.4007C9.71308 28.1899 9.63349 27.9663 9.54362 27.7478L10.4269 27.7144C10.4315 27.7143 10.4361 27.7154 10.4402 27.7176C10.4443 27.7199 10.4476 27.7232 10.45 27.7273V27.7273Z" fill="#C3550A"/>
<path d="M11.6747 9.65366C11.2664 9.60996 10.8556 9.57141 10.4499 9.51744C9.72845 9.41977 9.00697 9.31183 8.28549 9.20131C7.82846 9.13191 7.37144 9.05224 6.89901 8.97513C6.89901 9.04967 6.89901 9.10364 6.89901 9.15761C6.89901 10.3605 6.89901 11.5633 6.94009 12.7559C6.96833 13.784 7.00428 14.812 7.09157 15.853C7.19171 17.007 7.34833 18.1662 7.49211 19.3099C7.50567 19.3964 7.52366 19.4822 7.54603 19.5669V19.7083C7.39454 19.734 7.24562 19.7622 7.09414 19.7828C6.9863 19.7982 6.90157 19.8085 6.8759 19.6492C6.79117 19.1017 6.66792 18.5594 6.59603 18.0119C6.5036 17.3 6.43941 16.5855 6.37522 15.871C6.33671 15.4417 6.30846 15.0125 6.30076 14.5859C6.25797 12.4235 6.22031 10.2611 6.18779 8.09869C6.18694 8.08328 6.18694 8.06784 6.18779 8.05243C8.24183 8.70526 10.396 8.77465 12.5348 8.99826C12.5348 9.21673 12.5348 9.43262 12.5348 9.64595L11.6747 9.65366Z" fill="#C3550A"/>
<path d="M32.3513 19.5721C32.5512 18.6174 32.68 17.6492 32.7364 16.6754C32.816 15.4366 32.893 14.1952 32.9367 12.9538C32.9803 11.6558 32.9803 10.3553 32.9983 9.05737C32.9954 9.02959 32.9902 9.0021 32.9829 8.97513C32.7672 9.00854 32.5541 9.04452 32.341 9.07536L28.7054 9.5894C28.541 9.61254 28.3767 9.63053 28.2124 9.64852H27.3625V9.00083C29.4962 8.77723 31.6401 8.70783 33.7121 8.05243C33.7121 8.08584 33.7121 8.13725 33.7121 8.18865C33.7121 9.70507 33.7121 11.2215 33.671 12.7379C33.6505 13.6606 33.5863 14.5833 33.5298 15.5034C33.4887 16.1717 33.4553 16.8425 33.3732 17.5056C33.2833 18.2253 33.1344 18.9346 33.024 19.6517C32.9983 19.8111 32.9136 19.8034 32.8057 19.7854C32.6543 19.7623 32.5053 19.7366 32.3539 19.7108C32.3539 19.6646 32.353 19.6183 32.3513 19.5721Z" fill="#C3550A"/>
<path d="M15.3361 23.8721L15.9728 22.7797L16.2629 22.2862C16.435 21.9907 16.4401 21.9907 16.8201 22.0524V23.065C16.8201 23.5791 16.8201 24.0931 16.8201 24.6071C16.8201 24.8025 16.7585 24.8642 16.5788 24.8385C16.5009 24.8336 16.4229 24.8336 16.3451 24.8385V23.101L16.3117 23.0856C16.2835 23.1241 16.2527 23.1627 16.227 23.2038L15.5209 24.3938C15.4105 24.5789 15.2436 24.5789 15.1307 24.3938C14.8739 23.9697 14.6171 23.5431 14.3219 23.1241V23.4043C14.3219 23.8232 14.3219 24.2422 14.3219 24.6611C14.3219 24.7999 14.2757 24.8436 14.1396 24.841C13.8366 24.841 13.8366 24.841 13.8366 24.5429C13.8366 23.7898 13.8366 23.0393 13.8366 22.2862C13.8366 22.1963 13.7698 22.0498 13.9265 22.0292C14.0831 22.0087 14.2269 21.9778 14.3347 22.1732C14.6531 22.7437 14.9894 23.2861 15.3361 23.8721Z" fill="#373737"/>
<path d="M12.6581 23.9234C12.825 24.1598 12.9893 24.3912 13.1511 24.6225C13.1822 24.679 13.208 24.7384 13.2281 24.7998C13.1665 24.8152 13.1048 24.8358 13.0432 24.8487C12.9466 24.8746 12.8437 24.8624 12.7557 24.8146C12.6678 24.7667 12.6016 24.6869 12.5708 24.5916C12.5589 24.5708 12.5451 24.551 12.5297 24.5325C12.1369 23.9722 12.1369 23.9722 11.4205 24.0185C11.4205 24.2292 11.4205 24.4426 11.4205 24.6533C11.4205 24.787 11.3871 24.8384 11.2459 24.8384C10.9173 24.8384 10.9173 24.8384 10.9173 24.512C10.9173 23.7409 10.9173 22.9853 10.9173 22.2193C10.9173 22.0703 10.9584 22.0112 11.115 22.0163C11.5027 22.0317 11.8853 22.0163 12.2755 22.042C12.4291 22.0458 12.5796 22.0861 12.7146 22.1596C12.8496 22.2331 12.9651 22.3377 13.0517 22.4648C13.1382 22.5919 13.1933 22.7378 13.2124 22.8904C13.2314 23.043 13.2139 23.198 13.1613 23.3425C13.092 23.5867 12.9765 23.7178 12.6581 23.9234ZM11.4334 22.4969V23.5713C11.6901 23.5713 11.9469 23.5867 12.2036 23.5713C12.3453 23.5713 12.4811 23.5149 12.5813 23.4147C12.6814 23.3144 12.7377 23.1785 12.7377 23.0367C12.7377 22.8949 12.6814 22.7589 12.5813 22.6586C12.4811 22.5584 12.3453 22.5021 12.2036 22.5021C11.9417 22.4815 11.6901 22.4969 11.4308 22.4969H11.4334Z" fill="#373737"/>
<path d="M18.5275 23.6664C18.4042 23.8001 18.2707 23.9234 18.1732 24.0545C18.1374 24.1012 18.1168 24.1577 18.1141 24.2164C18.1141 24.3758 18.1141 24.5377 18.1141 24.697C18.1141 24.8101 18.073 24.8461 17.9626 24.8513C17.6109 24.8641 17.6109 24.8693 17.6109 24.512C17.6109 23.7409 17.6109 22.9956 17.6109 22.2374C17.6109 22.0241 17.7136 22.0292 17.8676 22.0318C18.0217 22.0343 18.1244 22.0163 18.1244 22.2322C18.109 22.6229 18.1244 23.0033 18.1244 23.3451L19.2002 22.3427C19.243 22.3076 19.281 22.267 19.3131 22.2219C19.4569 21.9855 19.6906 22.0215 19.9063 22.0395C20.0629 22.0523 19.9987 22.1448 19.9319 22.2142L18.9717 23.2166C18.9403 23.2441 18.9068 23.269 18.8715 23.2912L19.7984 24.4169C19.8729 24.5069 19.9499 24.5942 20.0218 24.6868C20.0449 24.715 20.0654 24.769 20.0526 24.7947C20.0398 24.8204 19.9858 24.841 19.9473 24.8436C19.8316 24.8705 19.7105 24.8616 19.5999 24.818C19.4894 24.7744 19.3948 24.6981 19.3286 24.5994C19.0949 24.2781 18.8125 23.9928 18.5275 23.6664Z" fill="#373737"/>
<path d="M21.8782 22.4918C21.3878 22.4918 20.9385 22.4918 20.4917 22.4918C20.2837 22.4918 20.2863 22.3967 20.2812 22.2348C20.276 22.0729 20.3171 22.0086 20.4943 22.0112C21.0925 22.0112 21.6882 22.0112 22.2916 22.0112C22.3814 22.0112 22.5329 22.0112 22.5483 22.0703C22.5765 22.1352 22.5859 22.2067 22.5754 22.2767C22.565 22.3467 22.5351 22.4123 22.4893 22.4661C22.1041 22.9313 21.719 23.4042 21.3544 23.8771L20.9641 24.386C21.0412 24.386 21.0925 24.4015 21.1439 24.4015C21.5752 24.4015 22.0066 24.4015 22.4276 24.4015C22.6125 24.4015 22.6202 24.4863 22.6202 24.6276C22.6202 24.769 22.6202 24.8615 22.4328 24.859C21.7935 24.859 21.149 24.859 20.5122 24.859C20.4278 24.8602 20.3443 24.8418 20.2683 24.805C20.2521 24.6757 20.2735 24.5445 20.3299 24.4272C20.5867 24.0802 20.864 23.7512 21.1362 23.4171L21.8782 22.4918Z" fill="#3E3E3E"/>
<path d="M28.8362 24.7536C29.0981 24.1641 29.3592 23.5756 29.6193 22.9878C29.7452 22.7077 29.8761 22.4327 29.9968 22.1474C30.0661 21.9777 30.197 22.042 30.3075 22.0343C30.4179 22.0266 30.5052 22.0086 30.5642 22.1422C30.9391 22.9827 31.3216 23.8232 31.7042 24.661C31.7658 24.7973 31.735 24.8564 31.5835 24.8487C31.522 24.8436 31.4602 24.8436 31.3987 24.8487C31.3766 24.8536 31.3537 24.8541 31.3315 24.8502C31.3092 24.8462 31.2879 24.838 31.2688 24.8258C31.2497 24.8136 31.2332 24.7978 31.2203 24.7792C31.2073 24.7606 31.1981 24.7397 31.1933 24.7176C31.1214 24.5351 31.0752 24.2909 30.9365 24.2035C30.7979 24.1162 30.5437 24.1701 30.3434 24.1676C30.1431 24.165 29.9608 24.1676 29.7708 24.1676C29.7443 24.1624 29.7171 24.1625 29.6906 24.168C29.6642 24.1735 29.6391 24.1842 29.6169 24.1996C29.5947 24.2149 29.5757 24.2345 29.5611 24.2572C29.5466 24.28 29.5367 24.3054 29.532 24.332C29.4935 24.4477 29.4345 24.5582 29.3857 24.6713C29.3609 24.7186 29.326 24.7599 29.2835 24.7922C29.2411 24.8245 29.192 24.8471 29.1399 24.8584C29.0877 24.8697 29.0337 24.8693 28.9817 24.8574C28.9297 24.8456 28.8809 24.8224 28.8388 24.7895C28.8391 24.7775 28.8382 24.7654 28.8362 24.7536ZM30.7696 23.7512C30.6849 23.5507 30.6079 23.3708 30.5308 23.1934C30.4538 23.0161 30.3716 22.8439 30.2741 22.6383L30.0173 23.2114L29.7837 23.7512H30.7696Z" fill="#373737"/>
<path d="M10.2753 22.2784C10.277 22.2947 10.277 22.311 10.2753 22.3273C10.1469 22.6588 10.1521 22.6408 9.81573 22.5432C9.5968 22.488 9.37124 22.4638 9.1456 22.4712C9.03685 22.4845 8.93518 22.5322 8.85546 22.6074C8.82068 22.6337 8.79315 22.6684 8.77547 22.7083C8.75779 22.7481 8.75053 22.7919 8.75439 22.8353C8.75824 22.8788 8.77307 22.9205 8.79749 22.9566C8.82191 22.9928 8.85512 23.0221 8.89398 23.0418C9.02485 23.1088 9.16259 23.1613 9.30479 23.1986C9.51019 23.2628 9.72073 23.3065 9.921 23.3836C10.0517 23.424 10.1669 23.5036 10.2509 23.6116C10.3349 23.7196 10.3838 23.8509 10.3909 23.9876C10.4059 24.1328 10.3775 24.2791 10.3094 24.4081C10.2413 24.5371 10.1365 24.643 10.0083 24.7124C9.73379 24.8371 9.43237 24.8907 9.13175 24.8683C8.83114 24.8458 8.541 24.748 8.28804 24.5839C8.09804 24.4323 8.28803 24.3269 8.33425 24.2035C8.38047 24.0802 8.47033 24.1675 8.54222 24.2035C8.68885 24.3009 8.85325 24.3682 9.02598 24.4018C9.19871 24.4353 9.37635 24.4343 9.5487 24.3989C9.66128 24.3736 9.76344 24.3144 9.8414 24.2292C9.97235 24.0827 9.89789 23.8745 9.68478 23.7897C9.51532 23.7229 9.33046 23.6869 9.15586 23.6329C9.00789 23.5939 8.86218 23.5467 8.71938 23.4916C8.59339 23.4475 8.48348 23.3667 8.40385 23.2595C8.32421 23.1523 8.2785 23.0236 8.27262 22.8902C8.25705 22.7514 8.28111 22.6112 8.34202 22.4856C8.40292 22.36 8.49816 22.2543 8.61668 22.1808C8.87666 22.0473 9.16762 21.9859 9.45931 22.0031C9.751 22.0202 10.0328 22.1153 10.2753 22.2784V22.2784Z" fill="#373737"/>
<path d="M28.8363 24.7537C28.8372 24.7648 28.8372 24.776 28.8363 24.7871C28.5795 24.8076 28.3433 24.8385 28.0968 24.8462C27.7271 24.8462 27.3573 24.8462 26.9876 24.8462C26.8926 24.8462 26.8156 24.8462 26.8156 24.7125C26.8156 23.8618 26.8156 23.0111 26.8156 22.1603C26.8241 22.1301 26.8401 22.1024 26.8621 22.08C26.8841 22.0575 26.9114 22.041 26.9414 22.0318C27.2983 21.9881 27.3111 22.0061 27.3111 22.3685C27.3111 22.9785 27.3111 23.5885 27.3111 24.1985V24.3938C27.7271 24.3938 28.125 24.3938 28.523 24.3938C28.7002 24.3938 28.7952 24.4221 28.7618 24.6226C28.7669 24.6637 28.8132 24.71 28.8363 24.7537Z" fill="#3E3E3E"/>
<path d="M24.9181 24.3989C25.3572 24.3989 25.7731 24.3989 26.2019 24.3989C26.3817 24.3989 26.3868 24.4837 26.3791 24.6148C26.3714 24.7459 26.4176 24.8718 26.2071 24.8564C25.673 24.8564 25.1364 24.8564 24.6023 24.8564C24.4637 24.8564 24.4226 24.805 24.4226 24.6713C24.4226 23.8523 24.4226 23.0333 24.4226 22.2142C24.4226 22.078 24.4663 22.0189 24.6023 22.0343C24.651 22.039 24.7 22.039 24.7487 22.0343C24.8848 22.0343 24.9284 22.0831 24.9284 22.2194C24.9284 22.903 24.9284 23.5867 24.9284 24.2755L24.9181 24.3989Z" fill="#3E3E3E"/>
<path d="M15.3156 31.0352V29.655C15.4362 29.655 15.5723 29.5753 15.6493 29.7295C15.7879 29.6496 15.9478 29.6148 16.107 29.63C16.2662 29.6452 16.4167 29.7096 16.5377 29.8143C16.622 29.7402 16.7217 29.6858 16.8297 29.6551C16.9376 29.6245 17.051 29.6183 17.1616 29.637C17.2836 29.6369 17.4008 29.6843 17.4885 29.7692C17.5762 29.8541 17.6275 29.9698 17.6315 30.0919C17.6495 30.4029 17.6315 30.719 17.6315 31.0377H17.3234C17.3234 30.7807 17.3234 30.552 17.3234 30.3129C17.3234 30.0739 17.2104 29.8991 17.0076 29.8966C16.8047 29.894 16.643 30.0585 16.6353 30.3181C16.6276 30.5777 16.6353 30.7858 16.6353 31.0326H16.3143C16.3143 30.7884 16.3143 30.5494 16.3143 30.3104C16.3143 30.0713 16.2039 29.8991 15.9985 29.8966C15.7931 29.894 15.6365 30.061 15.6314 30.3206C15.6262 30.5802 15.6314 30.7884 15.6314 31.0326L15.3156 31.0352Z" fill="#373737"/>
<path d="M23.6241 23.4402C23.6241 23.8463 23.6241 24.2524 23.6241 24.6585C23.6241 24.8024 23.5882 24.8693 23.4393 24.8513C23.4086 24.8471 23.3775 24.8471 23.3468 24.8513C23.1723 24.877 23.1132 24.8101 23.1158 24.6277C23.1158 23.8335 23.1158 23.0393 23.1158 22.2451C23.1158 22.0266 23.221 22.0292 23.3725 22.0292C23.524 22.0292 23.6293 22.0292 23.6293 22.2399C23.6113 22.6383 23.6241 23.0393 23.6241 23.4402Z" fill="#3E3E3E"/>
<path d="M24.5176 31.0686L24.212 30.9966C24.1865 30.9931 24.1606 30.9931 24.135 30.9966C23.9652 31.0239 23.7934 31.0368 23.6215 31.0352C23.5231 31.024 23.4322 30.9769 23.3663 30.903C23.3003 30.829 23.2638 30.7334 23.2638 30.6342C23.2638 30.5351 23.3003 30.4394 23.3663 30.3654C23.4322 30.2915 23.5231 30.2444 23.6215 30.2333C23.8038 30.2153 23.9861 30.2333 24.1684 30.2333C24.1838 30.0122 24.0965 29.8966 23.9116 29.894C23.8016 29.8856 23.6914 29.9078 23.5933 29.9582C23.4033 30.0816 23.3365 29.9788 23.3006 29.8272C23.4406 29.7132 23.6113 29.6436 23.791 29.6271C23.9707 29.6106 24.1512 29.648 24.3096 29.7346C24.4114 29.82 24.4781 29.9398 24.497 30.0713C24.5356 30.39 24.5176 30.7113 24.5176 31.0686ZM24.1941 30.426C24.0435 30.4286 23.8933 30.4423 23.7447 30.4671C23.7096 30.4799 23.6781 30.5011 23.653 30.5289C23.6279 30.5567 23.6101 30.5902 23.601 30.6265C23.6081 30.663 23.623 30.6975 23.6447 30.7277C23.6664 30.7579 23.6944 30.783 23.7268 30.8013C23.7835 30.8259 23.846 30.8346 23.9073 30.8263C23.9687 30.8179 24.0265 30.7929 24.0747 30.754C24.1229 30.7151 24.1594 30.6637 24.1805 30.6054C24.2015 30.5471 24.2062 30.4842 24.1941 30.4234V30.426Z" fill="#373737"/>
<path d="M17.9652 30.3463C17.9764 30.1565 18.0595 29.9782 18.1977 29.8478C18.3359 29.7173 18.5186 29.6447 18.7085 29.6447C18.8984 29.6447 19.0812 29.7173 19.2193 29.8478C19.3575 29.9782 19.4407 30.1565 19.4518 30.3463C19.4407 30.5361 19.3575 30.7144 19.2193 30.8449C19.0812 30.9753 18.8984 31.0479 18.7085 31.0479C18.5186 31.0479 18.3359 30.9753 18.1977 30.8449C18.0595 30.7144 17.9764 30.5361 17.9652 30.3463V30.3463ZM18.7021 29.894C18.6451 29.8963 18.5891 29.9099 18.5374 29.9341C18.4858 29.9583 18.4395 29.9926 18.4012 30.035C18.3629 30.0774 18.3335 30.127 18.3146 30.1809C18.2958 30.2348 18.2878 30.2919 18.2913 30.3489C18.2882 30.4072 18.2967 30.4656 18.3164 30.5206C18.3362 30.5757 18.3666 30.6262 18.4061 30.6693C18.4455 30.7123 18.4932 30.7471 18.5462 30.7715C18.5992 30.796 18.6566 30.8096 18.7149 30.8115C18.8288 30.7982 18.9337 30.7429 19.0091 30.6564C19.0846 30.57 19.1252 30.4585 19.1232 30.3437C19.1242 30.2311 19.0828 30.1222 19.0071 30.0388C18.9314 29.9554 18.8271 29.9037 18.7149 29.894H18.7021Z" fill="#373737"/>
<path d="M20.8229 30.8115V31.0505H19.5905C19.6183 30.9474 19.6588 30.8481 19.7111 30.755C19.9217 30.4774 20.1451 30.2075 20.3864 29.9068H19.6444V29.6729H20.8486C20.8159 29.7796 20.7711 29.8823 20.7151 29.9788C20.5097 30.2512 20.2888 30.5134 20.0501 30.8115H20.8229Z" fill="#3E3E3E"/>
<path d="M23.185 29.2977L22.5072 31.2356H22.2736C22.2967 31.1508 22.3146 31.0762 22.3403 31.0068C22.52 30.4928 22.71 29.9788 22.8795 29.4647C22.9334 29.2951 23.0053 29.2334 23.185 29.2977Z" fill="#3E3E3E"/>
<path d="M22.4841 29.2977L21.796 31.2331H21.5624C21.5855 31.1482 21.6035 31.0737 21.6291 31.0017C21.8089 30.4877 21.9989 29.9737 22.1683 29.4596C22.2299 29.2951 22.3095 29.2334 22.4841 29.2977Z" fill="#3E3E3E"/>
<path d="M29.2804 18.0532C29.2123 18.0713 29.1427 18.0833 29.0725 18.0891H22.9951L23.144 18.156L22.7409 18.1123V18.0506L29.2804 18.0532Z" fill="#4D6784"/>
<path d="M16.7431 18.1585L16.8997 18.0917H10.8146C10.7443 18.0858 10.6747 18.0738 10.6066 18.0557H17.1077V18.1173L16.7431 18.1585Z" fill="#4D6784"/>
<path d="M29.2419 12.0491C29.2625 12.1161 29.2762 12.185 29.283 12.2547C29.283 13.1595 29.283 14.0539 29.283 14.9714C29.283 15.4521 29.3036 15.9301 29.3087 16.4108C29.3048 16.4766 29.2954 16.5419 29.2805 16.6061C29.2805 16.2026 29.2548 15.7965 29.2496 15.393C29.2419 14.2852 29.2419 13.1723 29.2419 12.0491Z" fill="#4D6784"/>
<path d="M10.604 16.6112C10.5893 16.5409 10.5799 16.4696 10.5758 16.3979C10.586 15.0066 10.598 13.6161 10.6117 12.2264C10.6188 12.1693 10.6326 12.1133 10.6528 12.0594C10.6528 13.1166 10.6468 14.1747 10.6348 15.2336C10.6348 15.6517 10.6348 16.0697 10.6348 16.4878C10.6278 16.5297 10.6175 16.571 10.604 16.6112Z" fill="#4D6784"/>
<path d="M21.4597 29.8374C21.461 29.8655 21.4559 29.8935 21.4448 29.9193C21.4337 29.9451 21.4169 29.9681 21.3956 29.9864C21.3743 30.0048 21.3492 30.018 21.322 30.0251C21.2948 30.0323 21.2664 30.0331 21.2389 30.0276C21.1156 30.0276 21.0412 29.9634 21.0412 29.8349C21.0412 29.7064 21.131 29.637 21.2723 29.6395C21.4135 29.6421 21.4571 29.7115 21.4597 29.8374Z" fill="#373737"/>
<path d="M21.0258 30.9092C21.054 30.6908 21.1593 30.6651 21.2825 30.6753C21.4058 30.6856 21.4545 30.7782 21.4443 30.8938C21.4438 30.922 21.4364 30.9497 21.4229 30.9745C21.4094 30.9993 21.39 31.0204 21.3666 31.0361C21.3431 31.0517 21.3162 31.0615 21.2881 31.0644C21.2601 31.0674 21.2317 31.0635 21.2055 31.0532C21.1387 31.0326 21.0745 30.9452 21.0258 30.9092Z" fill="#373737"/>
<path d="M10.6785 12.0491C10.7428 12.035 10.808 12.0255 10.8736 12.0209H12.4758L12.5272 11.5068L12.5528 12.0491H10.6785Z" fill="#4D6784"/>
<path d="M27.3599 11.5042L27.4087 12.0183C27.4677 12.0183 27.5319 12.0183 27.5961 12.0183H29.0134C29.0791 12.0229 29.1443 12.0324 29.2086 12.0465H27.3265L27.3599 11.5042Z" fill="#4D6784"/>
<path d="M11.6746 9.65369H12.5245C12.5245 10.2243 12.5245 10.7949 12.5245 11.3654C12.5103 11.3011 12.5009 11.2358 12.4963 11.1701C12.4963 10.692 12.4963 10.2114 12.4963 9.72309L11.6746 9.65369Z" fill="#4D6784"/>
<path d="M27.3625 9.64594H28.2124C28.0378 9.65879 27.8632 9.67421 27.6989 9.68449C27.609 9.68449 27.5191 9.68449 27.4036 9.68449C27.4036 10.0777 27.4036 10.4556 27.4036 10.8231C27.4036 10.9979 27.3856 11.1752 27.3754 11.3371C27.3668 10.7837 27.3625 10.2199 27.3625 9.64594Z" fill="#4D6784"/>
<path d="M10.6091 18.0557C10.5911 18.0193 10.5789 17.9802 10.5732 17.94C10.5732 17.5956 10.5912 17.2512 10.6014 16.9119L10.6091 18.0557Z" fill="#4D6784"/>
<path d="M30.3409 27.7942C30.2834 27.7689 30.223 27.7508 30.1612 27.7402C29.9275 27.7402 29.6939 27.7402 29.4602 27.7248C29.717 27.7248 29.9737 27.7248 30.2151 27.7248C30.269 27.7274 30.2998 27.7711 30.3409 27.7942Z" fill="#074E9F"/>
<path d="M10.4269 27.7273L9.54362 27.7607C9.68484 27.7607 9.82605 27.7325 9.96727 27.7273C10.1085 27.7222 10.2728 27.7273 10.4269 27.7273Z" fill="#074E9F"/>
<path d="M7.53323 19.7109V19.5695L7.82593 19.6415L7.53323 19.7109Z" fill="#4D6784"/>
<path d="M32.3513 19.5721C32.3513 19.6183 32.3513 19.6646 32.3513 19.7109L32.056 19.6415L32.3513 19.5721Z" fill="#4D6784"/>
<path d="M29.6168 19.2457L29.835 19.2817L29.6168 19.2457Z" fill="#4D6784"/>
<path d="M9.82861 19.3073L10.0468 19.2714L9.82861 19.3073Z" fill="#4D6784"/>
<path d="M29.8402 19.2714L30.0585 19.3073L29.8402 19.2714Z" fill="#4D6784"/>
<path d="M10.0495 19.2714L10.2677 19.2354L10.0495 19.2714Z" fill="#4D6784"/>
<path d="M9.60782 19.3459L9.82606 19.3099L9.60782 19.3459Z" fill="#4D6784"/>
<path d="M30.061 19.3099L30.2792 19.3459L30.061 19.3099Z" fill="#4D6784"/>
<path d="M9.38441 19.3818L9.60265 19.3458L9.38441 19.3818Z" fill="#4D6784"/>
<path d="M30.2818 19.3458L30.5 19.3818L30.2818 19.3458Z" fill="#4D6784"/>
<path d="M9.16367 19.4178L9.38191 19.3818L9.16367 19.4178Z" fill="#4D6784"/>
<path d="M30.5051 19.3818L30.7234 19.4178L30.5051 19.3818Z" fill="#4D6784"/>
<path d="M8.94026 19.4564L9.15851 19.4204L8.94026 19.4564Z" fill="#4D6784"/>
<path d="M30.726 19.4204L30.9443 19.4564L30.726 19.4204Z" fill="#4D6784"/>
<path d="M8.7194 19.5027L8.93764 19.4667L8.7194 19.5027Z" fill="#4D6784"/>
<path d="M30.9493 19.4564L31.1675 19.4924L30.9493 19.4564Z" fill="#4D6784"/>
<path d="M8.4986 19.5309L8.71684 19.4949L8.4986 19.5309Z" fill="#4D6784"/>
<path d="M31.1702 19.5026L31.3884 19.5386L31.1702 19.5026Z" fill="#4D6784"/>
<path d="M8.27521 19.5669L8.49345 19.5309L8.27521 19.5669Z" fill="#4D6784"/>
<path d="M31.3935 19.5309L31.6117 19.5669L31.3935 19.5309Z" fill="#4D6784"/>
<path d="M8.05444 19.6029L8.27268 19.567L8.05444 19.6029Z" fill="#4D6784"/>
<path d="M31.6144 19.567L31.8326 19.6029L31.6144 19.567Z" fill="#4D6784"/>
<path d="M7.8311 19.6415L8.04934 19.6055L7.8311 19.6415Z" fill="#4D6784"/>
<path d="M31.8378 19.6055L32.056 19.6415L31.8378 19.6055Z" fill="#4D6784"/>
<path d="M13.4129 18.7137L13.6003 18.6802L13.4129 18.7137Z" fill="#4D6784"/>
<path d="M26.0659 18.6443L26.2508 18.6777L26.0659 18.6443Z" fill="#4D6784"/>
<path d="M13.6363 18.6777L13.8237 18.6443L13.6363 18.6777Z" fill="#4D6784"/>
<path d="M24.9542 18.4592L25.1416 18.49L24.9542 18.4592Z" fill="#4D6784"/>
<path d="M14.7455 18.4926L14.933 18.4618L14.7455 18.4926Z" fill="#4D6784"/>
<path d="M24.7308 18.4232L24.9182 18.4541L24.7308 18.4232Z" fill="#4D6784"/>
<path d="M14.9663 18.4541L15.1537 18.4232L14.9663 18.4541Z" fill="#4D6784"/>
<path d="M24.5099 18.3873L24.6973 18.4181L24.5099 18.3873Z" fill="#4D6784"/>
<path d="M15.1897 18.4181L15.3771 18.3873L15.1897 18.4181Z" fill="#4D6784"/>
<path d="M24.2891 18.3486L24.4765 18.3795L24.2891 18.3486Z" fill="#4D6784"/>
<path d="M15.4105 18.3821L15.5979 18.3513L15.4105 18.3821Z" fill="#4D6784"/>
<path d="M24.0657 18.3127L24.2531 18.3435L24.0657 18.3127Z" fill="#4D6784"/>
<path d="M15.6339 18.3435L15.8239 18.3127L15.6339 18.3435Z" fill="#4D6784"/>
<path d="M23.8501 18.2741L24.0375 18.305L23.8501 18.2741Z" fill="#4D6784"/>
<path d="M25.8425 18.6083L26.0274 18.6417L25.8425 18.6083Z" fill="#4D6784"/>
<path d="M15.8546 18.3075L16.0421 18.2767L15.8546 18.3075Z" fill="#4D6784"/>
<path d="M23.6216 18.2382L23.809 18.269L23.6216 18.2382Z" fill="#4D6784"/>
<path d="M13.8571 18.6391L14.0419 18.6057L13.8571 18.6391Z" fill="#4D6784"/>
<path d="M16.0754 18.269L16.2629 18.2382L16.0754 18.269Z" fill="#4D6784"/>
<path d="M23.4007 18.2021L23.5882 18.233L23.4007 18.2021Z" fill="#4D6784"/>
<path d="M16.2989 18.233L16.4863 18.2021L16.2989 18.233Z" fill="#4D6784"/>
<path d="M23.1773 18.1636L23.3673 18.1945L23.1773 18.1636Z" fill="#4D6784"/>
<path d="M16.5196 18.197L16.7096 18.1661L16.5196 18.197Z" fill="#4D6784"/>
<path d="M25.6191 18.5696L25.8065 18.6005L25.6191 18.5696Z" fill="#4D6784"/>
<path d="M14.0805 18.6031L14.2679 18.5723L14.0805 18.6031Z" fill="#4D6784"/>
<path d="M25.3906 18.5337L25.5781 18.5645L25.3906 18.5337Z" fill="#4D6784"/>
<path d="M14.3013 18.5645L14.4887 18.5311L14.3013 18.5645Z" fill="#4D6784"/>
<path d="M25.1749 18.4977L25.3623 18.5285L25.1749 18.4977Z" fill="#4D6784"/>
<path d="M14.5221 18.5285L14.7096 18.4977L14.5221 18.5285Z" fill="#4D6784"/>
<path d="M10.9738 19.1197L11.1586 19.0863L10.9738 19.1197Z" fill="#4D6784"/>
<path d="M28.7284 19.0863L28.9133 19.1197L28.7284 19.0863Z" fill="#4D6784"/>
<path d="M10.7555 19.1583L10.9404 19.1249L10.7555 19.1583Z" fill="#4D6784"/>
<path d="M28.9518 19.1249L29.1341 19.1583L28.9518 19.1249Z" fill="#4D6784"/>
<path d="M10.5296 19.1943L10.7144 19.1609L10.5296 19.1943Z" fill="#4D6784"/>
<path d="M29.1726 19.1609L29.3549 19.1943L29.1726 19.1609Z" fill="#4D6784"/>
<path d="M10.3087 19.2328L10.4936 19.1994L10.3087 19.2328Z" fill="#4D6784"/>
<path d="M29.396 19.1994L29.5809 19.2328L29.396 19.1994Z" fill="#4D6784"/>
<path d="M28.5076 19.0503L28.6924 19.0837L28.5076 19.0503Z" fill="#4D6784"/>
<path d="M11.1945 19.0837L11.3794 19.0503L11.1945 19.0837Z" fill="#4D6784"/>
<path d="M28.2842 19.0143L28.4691 19.0478L28.2842 19.0143Z" fill="#4D6784"/>
<path d="M11.4179 19.0452L11.6028 19.0118L11.4179 19.0452Z" fill="#4D6784"/>
<path d="M28.0634 18.9886L28.2482 19.0221L28.0634 18.9886Z" fill="#4D6784"/>
<path d="M11.6387 19.0092L11.8236 18.9758L11.6387 19.0092Z" fill="#4D6784"/>
<path d="M27.8401 18.9398L28.0249 18.9732L27.8401 18.9398Z" fill="#4D6784"/>
<path d="M11.8596 18.9732L12.0445 18.9398L11.8596 18.9732Z" fill="#4D6784"/>
<path d="M27.6192 18.9039L27.8041 18.9373L27.6192 18.9039Z" fill="#4D6784"/>
<path d="M12.0829 18.9347L12.2677 18.9012L12.0829 18.9347Z" fill="#4D6784"/>
<path d="M27.3958 18.8653L27.5807 18.8987L27.3958 18.8653Z" fill="#4D6784"/>
<path d="M12.2961 18.8987L12.4809 18.8653L12.2961 18.8987Z" fill="#4D6784"/>
<path d="M27.1751 18.8293L27.3599 18.8627L27.1751 18.8293Z" fill="#4D6784"/>
<path d="M12.5272 18.8627L12.712 18.8293L12.5272 18.8627Z" fill="#4D6784"/>
<path d="M26.9516 18.7933L27.1365 18.8267L26.9516 18.7933Z" fill="#4D6784"/>
<path d="M12.748 18.8242L12.9328 18.7908L12.748 18.8242Z" fill="#4D6784"/>
<path d="M26.7308 18.7548L26.9157 18.7882L26.7308 18.7548Z" fill="#4D6784"/>
<path d="M12.9713 18.7882L13.1562 18.7548L12.9713 18.7882Z" fill="#4D6784"/>
<path d="M26.5074 18.7188L26.6923 18.7522L26.5074 18.7188Z" fill="#4D6784"/>
<path d="M13.1921 18.7497L13.377 18.7162L13.1921 18.7497Z" fill="#4D6784"/>
<path d="M26.2867 18.6802L26.4741 18.7137L26.2867 18.6802Z" fill="#4D6784"/>
</svg>
