<?xml version="1.0" encoding="UTF-8"?>
<svg width="108px" height="148px" viewBox="0 0 108 148" version="1.1" xmlns="http://www.w3.org/2000/svg" xmlns:xlink="http://www.w3.org/1999/xlink">
    <!-- Generator: Sketch 64 (93537) - https://sketch.com -->
    <title>srmkzilla_logo_black</title>
    <desc>Created with Sketch.</desc>
    <g id="Page-1" stroke="none" stroke-width="1" fill="none" fill-rule="evenodd">
        <g id="srmkzilla_logo_black" fill-rule="nonzero">
            <path d="M66.33,3.44 C68.573906,4.21316889 70.6580001,5.38907238 72.48,6.91 C73.91,8.15 75.19,9.57 76.59,10.96 L77.02,9.36 L77.23,9.36 C79.5105134,12.9263962 80.5639136,17.1399971 80.23,21.36 L81.79,20.27 C81.79,21.66 81.89,22.99 81.79,24.27 C81.5646037,27.0390092 81.0518457,29.7770701 80.26,32.44 C79.0141617,36.6158102 76.9772012,40.5131947 74.26,43.92 C72.3249244,46.3781017 70.0289171,48.5291335 67.45,50.3 C65.1659688,51.7915836 62.5875284,52.7738467 59.89,53.18 C57.7292557,53.5497498 55.5420917,53.7437185 53.35,53.76 C49.2579138,53.7076314 45.2192913,52.8230132 41.48,51.16 C39.3428884,50.2877973 37.326444,49.1451455 35.48,47.76 C32.4120139,45.3648676 30.0571404,42.1766247 28.67,38.54 C27.4851413,35.4848805 26.7899206,32.2618914 26.61,28.99 C26.4509222,26.696407 26.5078393,24.3929374 26.78,22.11 C26.7911286,21.920163 26.7911286,21.729837 26.78,21.54 C26.72,21.54 26.67,21.54 26.64,21.54 L25.64,22.05 C25.5528115,21.7240379 25.5124072,21.3873358 25.52,21.05 C25.95,18.67 26.84,16.54 29.03,15.21 C29.43,14.97 29.36,14.65 29.33,14.28 C29.0570989,11.9744489 29.2717368,9.63728093 29.96,7.42 C30.1948866,6.51300082 30.7625064,5.72761502 31.55,5.22 C31.7699204,5.11662554 31.9972117,5.02972005 32.23,4.96 C32.43,6.29 32.4,7.6 33.23,8.65 C33.2728925,9.15927708 33.5625241,9.61524561 34.0052807,9.87052872 C34.4480374,10.1258118 34.9877596,10.1480293 35.45,9.93 C35.5635591,9.89317971 35.6810145,9.86968863 35.8,9.86 C37.47,9.73 39.14,9.63 40.8,9.46 C41.2095304,9.42121467 41.5971398,9.25709177 41.91,8.99 C42.8126228,8.10323171 43.9231315,7.4568675 45.14,7.11 C45.98,6.9 46.86,6.82 47.73,6.68 L47.79,6.93 C47.43,7.22 46.95,7.44 46.74,7.82 C46.081271,8.94238985 45.4999199,10.1084331 45,11.31 C44.5268443,12.3866364 44.9626237,13.646039 46,14.2 C47.5960388,15.3308902 49.462148,16.0207643 51.41,16.2 C51.94,16.25 52.04,16.5 51.93,16.98 C51.6292723,17.8334466 51.0238504,18.5457077 50.23,18.98 C49.39,19.6 48.44,20.08 47.52,20.63 C48.3643604,21.779776 48.6971913,23.2268671 48.44,24.63 C48.35,25.23 48.2,25.37 47.57,25.21 C46.4418652,24.9213972 45.2909286,24.7306897 44.13,24.64 C43.13,24.57 42.63,25.13 42.8,25.86 C43.2095041,28.4253987 45.0900848,30.509709 47.6,31.18 C48.8028117,31.6124656 50.1339436,31.5030574 51.25,30.88 C52.3173627,30.2710086 53.4806693,29.8482955 54.69,29.63 C56.6209321,29.3758047 58.4670277,30.5051318 59.12,32.34 C56.9728181,32.7212858 55.0191683,33.8215362 53.58,35.46 C52.8616444,36.275248 51.8757844,36.8071868 50.8,36.96 C49.59,37.18 48.36,37.24 47.1,37.38 C49.2800476,39.2418808 51.8393112,40.6068215 54.6,41.38 C56.7822368,41.9885699 59.1116436,41.7787455 61.15,40.79 C63.3017362,39.6357358 65.0470825,37.8485012 66.15,35.67 C66.54,34.96 66.89,34.23 67.26,33.51 L67.48,33.51 L67.81,36.69 C68.2570812,36.0004777 68.6644113,35.2859807 69.03,34.55 C69.8772053,32.2846006 70.2185186,29.861276 70.03,27.45 C70.03,26.45 69.93,25.52 69.88,24.45 C71.11,24.81 71.37,25.86 71.88,26.83 C73.34,23.35 72.45,20.05 71.51,16.76 L71.67,16.6 L73.55,17.33 C73.1268541,14.6903797 71.6920812,12.3194174 69.55,10.72 C67.8038871,9.48174384 65.8641295,8.54227939 63.81,7.94 C63.6,7.87 63.44,7.63 63.25,7.47 C63.44,7.28 63.59,7 63.82,6.93 C64.3460906,6.78741543 64.8804257,6.67720882 65.42,6.6 C64.53,4.69 62.63,4.6 61.09,3.84 C61.828427,3.63488911 62.5855373,3.50423733 63.35,3.45 C64.32,3.49 65.33,3.48 66.33,3.44 Z" id="Path" fill="#C75305"></path>
            <path d="M66.33,3.44 C65.33,3.44 64.33,3.44 63.33,3.56 C62.5655373,3.61423733 61.808427,3.74488911 61.07,3.95 C62.6,4.71 64.51,4.8 65.4,6.71 C64.8604257,6.78720882 64.3260906,6.89741543 63.8,7.04 C63.58,7.12 63.42,7.4 63.23,7.58 C63.41,7.74 63.57,7.98 63.79,8.05 C65.8441295,8.65227939 67.7838871,9.59174384 69.53,10.83 C71.6720812,12.4294174 73.1068541,14.8003797 73.53,17.44 L71.65,16.71 L71.49,16.87 C72.43,20.17 73.32,23.46 71.86,26.94 C71.36,25.94 71.1,24.94 69.86,24.56 C69.91,25.56 69.98,26.56 70.01,27.56 C70.1985186,29.971276 69.8572053,32.3946006 69.01,34.66 C68.6444113,35.3959807 68.2370812,36.1104777 67.79,36.8 L67.46,33.62 L67.24,33.62 C66.87,34.34 66.52,35.07 66.13,35.78 C65.0270825,37.9585012 63.2817362,39.7457358 61.13,40.9 C59.0916436,41.8887455 56.7622368,42.0985699 54.58,41.49 C51.8193112,40.7168215 49.2600476,39.3518808 47.08,37.49 C48.34,37.35 49.57,37.29 50.78,37.07 C51.8557844,36.9171868 52.8416444,36.385248 53.56,35.57 C54.9991683,33.9315362 56.9528181,32.8312858 59.1,32.45 C58.4470277,30.6151318 56.6009321,29.4858047 54.67,29.74 C53.4606693,29.9582955 52.2973627,30.3810086 51.23,30.99 C50.1139436,31.6130574 48.7828117,31.7224656 47.58,31.29 C45.0700848,30.619709 43.1895041,28.5353987 42.78,25.97 C42.61,25.24 43.13,24.68 44.11,24.75 C45.2709286,24.8406897 46.4218652,25.0313972 47.55,25.32 C48.18,25.47 48.33,25.32 48.42,24.74 C48.6771913,23.3368671 48.3443604,21.889776 47.5,20.74 C48.42,20.19 49.37,19.74 50.21,19.09 C51.0038504,18.6557077 51.6092723,17.9434466 51.91,17.09 C52.02,16.62 51.91,16.37 51.39,16.31 C49.442148,16.1307643 47.5760388,15.4408902 45.98,14.31 C44.9426237,13.756039 44.5068443,12.4966364 44.98,11.42 C45.4799199,10.2184331 46.061271,9.05238985 46.72,7.93 C46.93,7.56 47.41,7.33 47.77,7.04 L47.71,6.79 C46.85,6.93 45.97,7.01 45.12,7.22 C43.9031315,7.5668675 42.7926228,8.21323171 41.89,9.1 C41.5771398,9.36709177 41.1895304,9.53121467 40.78,9.57 C39.12,9.74 37.45,9.84 35.78,9.97 C35.6610145,9.97968863 35.5435591,10.0031797 35.43,10.04 C34.9677596,10.2580293 34.4280374,10.2358118 33.9852807,9.98052872 C33.5425241,9.72524561 33.2528925,9.26927708 33.21,8.76 C35.5293604,6.50448613 38.1968502,4.63724327 41.11,3.23 C44.0868079,1.77074754 47.3008607,0.856317331 50.6,0.53 C56.0126007,0.00279370943 61.4642275,1.01132735 66.33,3.44 L66.33,3.44 Z" id="Path" fill="#044DA0"></path>
            <path d="M16.7,103.88 L33.82,103.88 L33.82,104 L25.7,106.82 C26.13,107.61 26.52,108.38 26.96,109.12 C29.5872405,113.61205 32.6665629,117.82392 36.15,121.69 C40.9219385,127.11168 46.6721228,131.586308 53.1,134.88 C53.4671868,135.091437 53.9135535,135.113756 54.3,134.94 C56.9553741,133.836993 59.4218572,132.325386 61.61,130.46 C63.61,128.78 65.61,127.04 67.45,125.18 C71.1446569,121.452293 74.5762298,117.472737 77.72,113.27 C79.41,111 81.08,108.72 82.72,106.45 C82.7735473,106.347773 82.8170832,106.240608 82.85,106.13 L76.21,104.02 L76.21,103.9 L90.58,103.9 C89.69,105.84 88.89,107.84 87.88,109.72 C86.2197237,112.895286 84.2963298,115.925885 82.13,118.78 C80.39,121.03 78.69,123.32 76.75,125.38 C74.3557507,127.914669 71.8359206,130.327699 69.2,132.61 C66.78,134.71 64.2,136.61 61.6,138.5 C59.4,140.05 57.04,141.38 54.74,142.8 C54.1358214,143.295366 53.2783195,143.336006 52.63,142.9 C50.97,141.81 49.21,140.9 47.56,139.77 C45.68,138.5 43.82,137.18 42.04,135.77 C40.04,134.17 37.97,132.56 36.11,130.77 C33.2029381,128.087315 30.498854,125.192708 28.02,122.11 C26.33,119.92 24.62,117.73 23.02,115.45 C20.8382319,112.278104 18.9185468,108.933705 17.28,105.45 C17.15,104.88 16.89,104.37 16.7,103.88 Z" id="Path" fill="#074E9F"></path>
            <path d="M74.89,68.11 L74.89,68.11 L74.82,68.11 L74.09,67.99 L74.02,67.99 L73.95,67.99 L73.22,67.87 L73.15,67.87 L73.08,67.87 L72.35,67.75 L72.28,67.75 L72.22,67.75 L71.49,67.63 L71.42,67.63 L71.36,67.63 L70.63,67.51 L70.56,67.51 L70.5,67.51 L69.77,67.39 L69.7,67.39 L69.64,67.39 L68.91,67.27 L68.84,67.27 L68.78,67.27 L68.05,67.15 L67.89,67.15 L67.83,67.15 L67.1,67.03 L67.03,67.03 L66.97,67.03 L66.23,66.91 L66.16,66.91 L66.1,66.91 L65.52,66.65 L89.19,66.65 C89.4636101,66.6273886 89.7346735,66.5805381 90,66.51 L90,66.51 L90,62.04 L90,60.9 C90.0581116,60.6502367 90.0949105,60.3959901 90.11,60.14 C90.11,58.27 90.02,56.41 90.01,54.54 C90.01,51.02 90.01,47.54 90.01,43.97 C89.9835958,43.6986475 89.9299932,43.4306347 89.85,43.17 C89.8142316,43.1814782 89.7757684,43.1814782 89.74,43.17 C89.4896724,43.1149352 89.2356674,43.0781713 88.98,43.06 L83.46,43.06 C83.21,43.06 82.96,43.06 82.73,43.06 L82.54,41.06 L82.54,40.49 C82.54,39.81 82.64,39.13 82.65,38.49 C82.65,37.04 82.65,35.59 82.65,34.06 C83.09,34.06 83.45,34.06 83.8,34.06 C84.48,34.06 85.16,33.96 85.8,33.91 C86.44,33.86 87.08,33.77 87.72,33.68 L101.88,31.68 C102.71,31.56 103.55,31.42 104.38,31.29 C104.408411,31.3949167 104.428474,31.5019174 104.44,31.61 C104.37,36.66 104.37,41.72 104.2,46.77 C104.04,51.6 103.74,56.42 103.42,61.25 C103.200199,65.0386691 102.698815,68.8057338 101.92,72.52 L100.78,72.78 L100.78,72.78 L99.93,72.64 L99.93,72.64 L99.08,72.5 L99.08,72.5 L98.23,72.36 L98.23,72.36 L97.38,72.22 L97.38,72.22 L96.53,72.08 L96.53,72.08 L95.68,71.94 L95.68,71.94 L94.83,71.8 L94.83,71.8 L93.98,71.66 L93.98,71.66 L93.13,71.52 L93.13,71.52 L92.28,71.38 L92.28,71.38 L91.43,71.24 L91.28,71.24 L90.56,71.11 L90.41,71.11 L89.7,70.98 L89.55,70.98 L88.84,70.85 L88.69,70.85 L87.97,70.72 L87.82,70.72 L87.1,70.59 L86.95,70.59 L86.23,70.46 L86.08,70.46 L85.36,70.33 L85.22,70.33 L84.5,70.2 L84.36,70.2 L83.64,70.07 L83.5,70.07 L82.78,69.94 L82.64,69.94 L81.92,69.81 L81.85,69.81 L81.78,69.81 L81.06,69.68 L80.92,69.68 L80.2,69.55 L80.06,69.55 L79.34,69.42 L79.27,69.42 L79.2,69.42 L78.47,69.29 L78.4,69.29 L78.33,69.29 L77.61,69.16 L77.54,69.16 L77.47,69.16 L76.75,69.03 L76.68,69.03 L76.61,69.03 L75.88,68.91 L75.81,68.91 L75.74,68.91 L74.89,68.11 Z" id="Path" fill="#044DA0"></path>
            <path d="M21.33,69.96 L21.18,69.96 L20.46,70.09 L20.31,70.09 L19.59,70.22 L19.45,70.22 L18.73,70.35 L18.58,70.35 L17.86,70.48 L17.71,70.48 L16.99,70.61 L16.89,70.61 L16.17,70.74 L16.02,70.74 L15.17,70.88 L15.17,70.88 L14.32,71.02 L14.32,71.02 L13.47,71.16 L13.47,71.16 L12.62,71.3 L12.62,71.3 L11.77,71.44 L11.77,71.44 L10.92,71.58 L10.92,71.58 L10.07,71.72 L10.07,71.72 L9.22,71.86 L9.22,71.86 L8.37,72 L8.37,72 L7.52,72.14 L7.52,72.14 L6.67,72.28 L6.67,72.28 L5.53,72 C5.44290196,71.6704874 5.37280938,71.3367132 5.32,71 C4.79,66.52 4.15,62 3.76,57.55 C3.41,53.55 3.27,49.55 3.17,45.5 C3.05,40.83 3.06,36.15 3.01,31.5 C3.01,31.29 3.01,31.08 3.01,30.79 C4.85,31.09 6.63,31.4 8.41,31.67 C11.22,32.1 14.03,32.52 16.84,32.9 C18.42,33.12 20.02,33.26 21.61,33.43 L24.8,33.67 C24.8,35.58 24.8,37.44 24.8,39.3 C24.8180651,39.5556789 24.8548301,39.8096915 24.91,40.06 L24.91,40.63 L24.71,42.63 L18.47,42.63 C18.2143326,42.6481713 17.9603276,42.6849352 17.71,42.74 C17.6743466,42.7521906 17.6356534,42.7521906 17.6,42.74 C17.5213184,42.9496292 17.4676147,43.1678004 17.44,43.39 C17.3866667,48.8033333 17.34,54.2133333 17.3,59.62 C17.3159783,59.8990169 17.352747,60.1764532 17.41,60.45 L17.41,61.59 C17.41,62.93 17.33,64.27 17.3,65.59 C17.3223316,65.7465149 17.3695974,65.8984405 17.44,66.04 L17.44,66.04 C17.7053265,66.1105381 17.9763899,66.1573886 18.25,66.18 L41.94,66.18 L41.33,66.44 L41.27,66.44 L41.2,66.44 L40.46,66.56 L40.4,66.56 L40.33,66.56 L39.6,66.68 L39.54,66.68 L39.47,66.68 L38.74,66.8 L38.68,66.8 L38.61,66.8 L37.88,66.92 L37.82,66.92 L37.75,66.92 L37.01,67.04 L36.95,67.04 L36.88,67.04 L36.15,67.16 L36.09,67.16 L35.89,67.16 L35.16,67.28 L35.1,67.28 L35.03,67.28 L34.3,67.4 L34.23,67.4 L34.16,67.4 L33.43,67.52 L33.36,67.52 L33.29,67.52 L32.56,67.64 L32.49,67.64 L32.42,67.64 L31.69,67.77 L31.62,67.77 L31.55,67.77 L30.82,67.89 L30.75,67.89 L30.68,67.89 L29.96,68.02 L29.89,68.02 L29.82,68.02 L29.09,68.15 L29.02,68.15 L28.95,68.15 L28.22,68.28 L28.15,68.28 L28.08,68.28 L27.36,68.41 L27.22,68.41 L26.5,68.54 L26.36,68.54 L25.64,68.67 L25.57,68.67 L25.5,68.67 L24.78,68.8 L24.64,68.8 L23.92,68.93 L23.78,68.93 L23.06,69.06 L22.92,69.06 L22.2,69.19 L22.06,69.19 L21.33,69.96 Z" id="Path" fill="#044DA0"></path>
            <path d="M16.7,103.88 C16.93,104.38 17.15,104.88 17.38,105.37 C19.0185468,108.853705 20.9382319,112.198104 23.12,115.37 C24.69,117.65 26.4,119.84 28.12,122.03 C30.598854,125.112708 33.3029381,128.007315 36.21,130.69 C38.07,132.48 40.11,134.09 42.14,135.69 C43.92,137.09 45.78,138.42 47.66,139.69 C49.31,140.8 51.06,141.69 52.73,142.82 C53.3783195,143.256006 54.2358214,143.215366 54.84,142.72 C57.14,141.31 59.5,139.98 61.7,138.42 C64.32,136.57 66.89,134.63 69.3,132.53 C71.9359206,130.247699 74.4557507,127.834669 76.85,125.3 C78.79,123.24 80.5,120.95 82.23,118.7 C84.3963298,115.845885 86.3197237,112.815286 87.98,109.64 C88.98,107.76 89.78,105.76 90.68,103.82 C90.7083048,103.805737 90.7416952,103.805737 90.77,103.82 C91.68,103.82 92.59,103.82 93.5,103.88 C93.7410195,103.921211 93.9760967,103.991735 94.2,104.09 C91.7958333,109.351992 88.8712705,114.360264 85.47,119.04 C83.32,122.04 80.99,124.84 78.63,127.63 C76.9963385,129.539207 75.2639739,131.361694 73.44,133.09 C70.0267554,136.441204 66.3146824,139.47379 62.35,142.15 C59.72,143.88 56.96,145.39 54.27,147.02 C53.9362675,147.23978 53.5037325,147.23978 53.17,147.02 C49.1918424,144.815883 45.372543,142.336513 41.74,139.6 C37.3882748,136.288483 33.3299359,132.608209 29.61,128.6 C26.7223899,125.520099 24.0494493,122.245747 21.61,118.8 C18.8282642,114.901834 16.3605063,110.788904 14.23,106.5 C13.83,105.68 13.52,104.81 13.17,103.96 L16.61,103.83 C16.6469342,103.828757 16.6815434,103.847984 16.7,103.88 L16.7,103.88 Z" id="Path" fill="#C3550A"></path>
            <path d="M21.47,33.56 C19.88,33.39 18.28,33.24 16.7,33.03 C13.89,32.65 11.08,32.23 8.27,31.8 C6.49,31.53 4.71,31.22 2.87,30.92 C2.87,31.21 2.87,31.42 2.87,31.63 C2.87,36.31 2.87,40.99 3.03,45.63 C3.14,49.63 3.28,53.63 3.62,57.68 C4.01,62.17 4.62,66.68 5.18,71.13 C5.23279199,71.4667164 5.30288477,71.8004915 5.39,72.13 L5.39,72.68 C4.8,72.78 4.22,72.89 3.63,72.97 C3.21,73.03 2.88,73.07 2.78,72.45 C2.45,70.32 1.97,68.21 1.69,66.08 C1.33,63.31 1.08,60.53 0.83,57.75 C0.68,56.08 0.57,54.41 0.54,52.75 C0.373333333,44.3366667 0.226666667,35.9233333 0.1,27.51 C0.0966845877,27.4500458 0.0966845877,27.3899542 0.1,27.33 C8.1,29.87 16.49,30.14 24.82,31.01 C24.82,31.86 24.82,32.7 24.82,33.53 L21.47,33.56 Z" id="Path" fill="#C3550A"></path>
            <path d="M102,72.15 C102.778815,68.4357338 103.280199,64.6686691 103.5,60.88 C103.81,56.06 104.11,51.23 104.28,46.4 C104.45,41.35 104.45,36.29 104.52,31.24 C104.508474,31.1319174 104.488411,31.0249167 104.46,30.92 C103.62,31.05 102.79,31.19 101.96,31.31 L87.8,33.31 C87.16,33.4 86.52,33.47 85.88,33.54 L82.57,33.54 L82.57,31.02 C90.88,30.15 99.23,29.88 107.3,27.33 C107.3,27.46 107.3,27.66 107.3,27.86 C107.3,33.76 107.3,39.66 107.14,45.56 C107.06,49.15 106.81,52.74 106.59,56.32 C106.43,58.92 106.3,61.53 105.98,64.11 C105.63,66.91 105.05,69.67 104.62,72.46 C104.52,73.08 104.19,73.05 103.77,72.98 C103.18,72.89 102.6,72.79 102.01,72.69 C102.01,72.51 102.006667,72.33 102,72.15 Z" id="Path" fill="#C3550A"></path>
            <path d="M35.73,88.88 L38.21,84.63 L39.34,82.71 C40.01,81.56 40.03,81.56 41.51,81.8 L41.51,85.74 C41.51,87.74 41.51,89.74 41.51,91.74 C41.51,92.5 41.27,92.74 40.57,92.64 C40.2669602,92.621127 39.9630398,92.621127 39.66,92.64 L39.66,85.88 L39.53,85.82 C39.42,85.97 39.3,86.12 39.2,86.28 L36.45,90.91 C36.02,91.63 35.37,91.63 34.93,90.91 C33.93,89.26 32.93,87.6 31.78,85.97 L31.78,87.06 C31.78,88.69 31.78,90.32 31.78,91.95 C31.78,92.49 31.6,92.66 31.07,92.65 C29.89,92.65 29.89,92.65 29.89,91.49 C29.89,88.56 29.89,85.64 29.89,82.71 C29.89,82.36 29.63,81.79 30.24,81.71 C30.85,81.63 31.41,81.51 31.83,82.27 C33.07,84.49 34.38,86.6 35.73,88.88 Z" id="Path" fill="#373737"></path>
            <path d="M25.3,89.08 C25.95,90 26.59,90.9 27.22,91.8 C27.3414573,92.0200633 27.4419016,92.251085 27.52,92.49 C27.28,92.55 27.04,92.63 26.8,92.68 C26.0182434,92.8897353 25.209255,92.4500677 24.96,91.68 C24.9134948,91.5988022 24.8599563,91.5218405 24.8,91.45 C23.27,89.27 23.27,89.27 20.48,89.45 C20.48,90.27 20.48,91.1 20.48,91.92 C20.48,92.44 20.35,92.64 19.8,92.64 C18.52,92.64 18.52,92.64 18.52,91.37 C18.52,88.37 18.52,85.43 18.52,82.45 C18.52,81.87 18.68,81.64 19.29,81.66 C20.8,81.72 22.29,81.66 23.81,81.76 C25.0237319,81.789634 26.1489141,82.4019797 26.8328578,83.405097 C27.5168014,84.4082143 27.6757943,85.6793255 27.26,86.82 C26.99,87.77 26.54,88.28 25.3,89.08 Z M20.53,83.53 L20.53,87.71 C21.53,87.71 22.53,87.77 23.53,87.71 C24.6787523,87.71 25.61,86.7787523 25.61,85.63 C25.61,84.4812477 24.6787523,83.55 23.53,83.55 C22.51,83.47 21.53,83.53 20.52,83.53 L20.53,83.53 Z" id="Shape" fill="#373737"></path>
            <path d="M48.16,88.08 C47.68,88.6 47.16,89.08 46.78,89.59 C46.6407817,89.7715767 46.5605154,89.9914365 46.55,90.22 C46.55,90.84 46.55,91.47 46.55,92.09 C46.55,92.53 46.39,92.67 45.96,92.69 C44.59,92.74 44.59,92.76 44.59,91.37 C44.59,88.37 44.59,85.47 44.59,82.52 C44.59,81.69 44.99,81.71 45.59,81.72 C46.19,81.73 46.59,81.66 46.59,82.5 C46.53,84.02 46.59,85.5 46.59,86.83 L50.78,82.93 C50.9467024,82.79337 51.0946461,82.6353392 51.22,82.46 C51.78,81.54 52.69,81.68 53.53,81.75 C54.14,81.8 53.89,82.16 53.63,82.43 L49.89,86.33 C49.7678678,86.4368209 49.6374593,86.5337914 49.5,86.62 L53.11,91 C53.4,91.35 53.7,91.69 53.98,92.05 C54.07,92.16 54.15,92.37 54.1,92.47 C54.05,92.57 53.84,92.65 53.69,92.66 C52.7673155,92.8747683 51.8079553,92.4965973 51.28,91.71 C50.37,90.46 49.27,89.35 48.16,88.08 Z" id="Path" fill="#373737"></path>
            <path d="M61.21,83.51 C59.3,83.51 57.55,83.51 55.81,83.51 C55,83.51 55.01,83.14 54.99,82.51 C54.97,81.88 55.13,81.63 55.82,81.64 C58.15,81.64 60.47,81.64 62.82,81.64 C63.17,81.64 63.76,81.64 63.82,81.87 C64.0438241,82.3851202 63.9545668,82.9827564 63.59,83.41 C62.09,85.22 60.59,87.06 59.17,88.9 L57.65,90.88 C57.95,90.88 58.15,90.94 58.35,90.94 C60.03,90.94 61.71,90.94 63.35,90.94 C64.07,90.94 64.1,91.27 64.1,91.82 C64.1,92.37 64.1,92.73 63.37,92.72 C60.88,92.72 58.37,92.72 55.89,92.72 C55.561298,92.7249611 55.2359838,92.6530495 54.94,92.51 C54.8766775,92.0071106 54.9600203,91.496636 55.18,91.04 C56.18,89.69 57.26,88.41 58.32,87.11 L61.21,83.51 Z" id="Path" fill="#3E3E3E"></path>
            <path d="M88.31,92.31 C89.33,90.0166667 90.3466667,87.7266667 91.36,85.44 C91.85,84.35 92.36,83.28 92.83,82.17 C93.1,81.51 93.61,81.76 94.04,81.73 C94.47,81.7 94.81,81.63 95.04,82.15 C96.5,85.42 97.99,88.69 99.48,91.95 C99.72,92.48 99.6,92.71 99.01,92.68 C98.7704067,92.6602405 98.5295933,92.6602405 98.29,92.68 C98.1162643,92.7186941 97.9342722,92.6866668 97.7841842,92.5909856 C97.6340961,92.4953045 97.5282489,92.3438342 97.49,92.17 C97.21,91.46 97.03,90.51 96.49,90.17 C95.95,89.83 94.96,90.04 94.18,90.03 C93.4,90.02 92.69,90.03 91.95,90.03 C91.7415447,89.9892198 91.5254495,90.0341001 91.3504723,90.1545145 C91.1754952,90.2749289 91.0563789,90.4607317 91.02,90.67 C90.87,91.12 90.64,91.55 90.45,91.99 C90.2544238,92.3624827 89.903748,92.6290673 89.4925226,92.7178765 C89.0812972,92.8066858 88.6518612,92.7085761 88.32,92.45 C88.3210502,92.4031233 88.3177023,92.3562515 88.31,92.31 L88.31,92.31 Z M95.84,88.41 C95.51,87.63 95.21,86.93 94.91,86.24 C94.61,85.55 94.29,84.88 93.91,84.08 L92.91,86.31 L92,88.41 L95.84,88.41 Z" id="Shape" fill="#373737"></path>
            <path d="M16.02,82.68 C16.0264865,82.7431672 16.0264865,82.8068328 16.02,82.87 C15.52,84.16 15.54,84.09 14.23,83.71 C13.3773316,83.495313 12.4988041,83.4010648 11.62,83.43 C11.1964405,83.4816032 10.8004863,83.6673162 10.49,83.96 C10.2146191,84.167835 10.0658213,84.5029422 10.0963233,84.8465985 C10.1268254,85.1902548 10.3323186,85.4939161 10.64,85.65 C11.1497207,85.9105597 11.6861886,86.1150881 12.24,86.26 C13.04,86.51 13.86,86.68 14.64,86.98 C15.6826995,87.301703 16.4135764,88.2402608 16.47,89.33 C16.5894434,90.4848487 16.0013391,91.5979052 14.98,92.15 C12.8073986,93.1360442 10.2821805,92.9475951 8.28,91.65 C7.54,91.06 8.28,90.65 8.46,90.17 C8.64,89.69 8.99,90.03 9.27,90.17 C10.423457,90.9349135 11.8342608,91.2084367 13.19,90.93 C13.6284903,90.8315981 14.0263285,90.6012707 14.33,90.27 C14.84,89.7 14.55,88.89 13.72,88.56 C13.06,88.3 12.34,88.16 11.66,87.95 C11.0836868,87.797944 10.5161645,87.6143338 9.96,87.4 C8.95601611,87.0492644 8.26684792,86.1224521 8.22,85.06 C8.09616824,83.9584196 8.61779986,82.8840142 9.56,82.3 C11.6221161,81.2420214 14.0961443,81.3875525 16.02,82.68 L16.02,82.68 Z" id="Path" fill="#373737"></path>
            <path d="M88.31,92.31 C88.3137626,92.3532517 88.3137626,92.3967483 88.31,92.44 C87.31,92.52 86.39,92.64 85.43,92.67 C83.99,92.67 82.55,92.67 81.11,92.67 C80.74,92.67 80.44,92.67 80.44,92.15 C80.44,88.84 80.44,85.53 80.44,82.22 C80.507551,81.9807772 80.6921905,81.7923695 80.93,81.72 C82.32,81.55 82.37,81.62 82.37,83.03 C82.37,85.4033333 82.37,87.7766667 82.37,90.15 L82.37,90.91 C83.99,90.91 85.54,90.91 87.09,90.91 C87.78,90.91 88.15,91.02 88.02,91.8 C88.04,91.96 88.22,92.14 88.31,92.31 Z" id="Path" fill="#3E3E3E"></path>
            <path d="M73.05,90.93 C74.76,90.93 76.38,90.93 78.05,90.93 C78.75,90.93 78.77,91.26 78.74,91.77 C78.71,92.28 78.89,92.77 78.07,92.71 C75.99,92.71 73.9,92.71 71.82,92.71 C71.28,92.71 71.12,92.51 71.12,91.99 C71.12,88.8033333 71.12,85.6166667 71.12,82.43 C71.12,81.9 71.29,81.67 71.82,81.73 C72.0095694,81.7480909 72.2004306,81.7480909 72.39,81.73 C72.92,81.73 73.09,81.92 73.09,82.45 C73.09,85.11 73.09,87.77 73.09,90.45 L73.05,90.93 Z" id="Path" fill="#3E3E3E"></path>
            <path d="M35.65,116.75 L35.65,111.38 C36.12,111.38 36.65,111.07 36.95,111.67 C38.0560755,111.032641 39.4443471,111.165049 40.41,112 C41.0748765,111.416009 41.9674353,111.162567 42.84,111.31 C43.8277059,111.309469 44.6376163,112.092825 44.67,113.08 C44.74,114.29 44.67,115.52 44.67,116.76 L43.47,116.76 C43.47,115.76 43.47,114.87 43.47,113.94 C43.47,113.01 43.03,112.33 42.24,112.32 C41.45,112.31 40.82,112.95 40.79,113.96 C40.76,114.97 40.79,115.78 40.79,116.74 L39.54,116.74 C39.54,115.79 39.54,114.86 39.54,113.93 C39.54,113 39.11,112.33 38.31,112.32 C37.51,112.31 36.9,112.96 36.88,113.97 C36.86,114.98 36.88,115.79 36.88,116.74 L35.65,116.75 Z" id="Path" fill="#373737"></path>
            <path d="M68.01,87.2 C68.01,88.78 68.01,90.36 68.01,91.94 C68.01,92.5 67.87,92.76 67.29,92.69 C67.1705546,92.6736843 67.0494454,92.6736843 66.93,92.69 C66.25,92.79 66.02,92.53 66.03,91.82 C66.03,88.73 66.03,85.64 66.03,82.55 C66.03,81.7 66.44,81.7099973 67.03,81.7099973 C67.62,81.7099973 68.03,81.7099973 68.03,82.53 C67.96,84.08 68.01,85.64 68.01,87.2 Z" id="Path" fill="#3E3E3E"></path>
            <path d="M71.49,116.88 L70.3,116.6 C70.2004608,116.586424 70.0995392,116.586424 70,116.6 C69.338731,116.706096 68.6696968,116.756274 68,116.75 C67.2064553,116.660005 66.6069181,115.988632 66.6069181,115.19 C66.6069181,114.391368 67.2064553,113.719995 68,113.63 C68.71,113.56 69.42,113.63 70.13,113.63 C70.19,112.77 69.85,112.32 69.13,112.31 C68.7015213,112.277394 68.2723716,112.363916 67.89,112.56 C67.15,113.04 66.89,112.64 66.75,112.05 C67.8653991,111.143196 69.4184144,111.000935 70.68,111.69 C71.0762716,112.021937 71.3361922,112.48837 71.41,113 C71.56,114.24 71.49,115.49 71.49,116.88 Z M70.23,114.38 C69.6435146,114.390021 69.0585788,114.443501 68.48,114.54 C68.2019029,114.640768 67.9920405,114.873116 67.92,115.16 C67.9758799,115.447483 68.1549732,115.69602 68.41,115.84 C68.8607247,116.035693 69.3828434,115.964829 69.7651035,115.656081 C70.1473636,115.347332 70.3264873,114.851808 70.23,114.37 L70.23,114.38 Z" id="Shape" fill="#373737"></path>
            <path d="M45.97,114.07 C46.0601294,112.537138 47.3294903,111.34022 48.865,111.34022 C50.4005097,111.34022 51.6698706,112.537138 51.76,114.07 C51.6698706,115.602862 50.4005097,116.79978 48.865,116.79978 C47.3294903,116.79978 46.0601294,115.602862 45.97,114.07 L45.97,114.07 Z M48.84,112.31 C48.3914748,112.327988 47.9690759,112.525785 47.6680602,112.858783 C47.3670446,113.191782 47.21276,113.631941 47.24,114.08 C47.2155651,114.538664 47.3766752,114.987874 47.687045,115.326459 C47.9974147,115.665044 48.4309465,115.864534 48.89,115.88 C49.8090159,115.772195 50.4965827,114.985169 50.48,114.06 C50.4886064,113.150848 49.7958112,112.388338 48.89,112.31 L48.84,112.31 Z" id="Shape" fill="#373737"></path>
            <path d="M57.1,115.88 L57.1,116.81 L52.3,116.81 C52.4082494,116.408618 52.5661345,116.022304 52.77,115.66 C53.59,114.58 54.46,113.53 55.4,112.36 L52.51,112.36 L52.51,111.45 L57.2,111.45 C57.0726495,111.865212 56.8981801,112.264478 56.68,112.64 C55.88,113.7 55.02,114.72 54.09,115.88 L57.1,115.88 Z" id="Path" fill="#3E3E3E"></path>
            <path d="M66.3,109.99 L63.66,117.53 L62.75,117.53 C62.84,117.2 62.91,116.91 63.01,116.64 C63.71,114.64 64.45,112.64 65.11,110.64 C65.32,109.98 65.6,109.74 66.3,109.99 Z" id="Path" fill="#3E3E3E"></path>
            <path d="M63.57,109.99 L60.89,117.52 L59.98,117.52 C60.07,117.19 60.14,116.9 60.24,116.62 C60.94,114.62 61.68,112.62 62.34,110.62 C62.58,109.98 62.89,109.74 63.57,109.99 Z" id="Path" fill="#3E3E3E"></path>
            <path d="M90.04,66.24 C89.7746735,66.3105381 89.5036101,66.3573886 89.23,66.38 L65.56,66.38 L66.14,66.64 L64.57,66.47 L64.57,66.23 L90.04,66.24 Z" id="Path" fill="#4D6784"></path>
            <path d="M41.21,66.65 L41.82,66.39 L18.12,66.39 C17.8463899,66.3673886 17.5753265,66.3205381 17.31,66.25 L42.63,66.25 L42.63,66.49 L41.21,66.65 Z" id="Path" fill="#4D6784"></path>
            <path d="M89.89,42.88 C89.9699932,43.1406347 90.0235958,43.4086475 90.05,43.68 C90.05,47.2 90.05,50.68 90.05,54.25 C90.05,56.12 90.13,57.98 90.15,59.85 C90.1349105,60.1059901 90.0981116,60.3602367 90.04,60.61 C90.04,59.04 89.94,57.46 89.92,55.89 C89.89,51.58 89.89,47.25 89.89,42.88 Z" id="Path" fill="#4D6784"></path>
            <path d="M17.3,60.63 C17.242747,60.3564532 17.2059783,60.0790169 17.19,59.8 C17.23,54.3866667 17.2766667,48.9766667 17.33,43.57 C17.3576147,43.3478004 17.4113184,43.1296292 17.49,42.92 C17.49,47.0333333 17.4666667,51.15 17.42,55.27 C17.42,56.8966667 17.42,58.5233333 17.42,60.15 C17.3926066,60.3128904 17.3524837,60.4733822 17.3,60.63 L17.3,60.63 Z" id="Path" fill="#4D6784"></path>
            <path d="M59.58,112.09 C59.590433,112.311334 59.4983729,112.525145 59.3304127,112.669669 C59.1624526,112.814193 58.9373021,112.873331 58.72,112.83 C58.24,112.83 57.95,112.58 57.95,112.08 C57.95,111.58 58.3,111.31 58.85,111.32 C59.4,111.33 59.57,111.6 59.58,112.09 Z" id="Path" fill="#373737"></path>
            <path d="M57.89,116.26 C58,115.41 58.41,115.31 58.89,115.35 C59.37,115.39 59.56,115.75 59.52,116.2 C59.5159558,116.422959 59.4028515,116.629766 59.217308,116.753462 C59.0317644,116.877158 58.7973637,116.90202 58.59,116.82 C58.33,116.74 58.08,116.4 57.89,116.26 Z" id="Path" fill="#373737"></path>
            <path d="M17.59,42.88 C17.8403276,42.8249352 18.0943326,42.7881713 18.35,42.77 L24.59,42.77 L24.79,40.77 L24.89,42.88 L17.59,42.88 Z" id="Path" fill="#4D6784"></path>
            <path d="M82.56,40.76 L82.75,42.76 C82.98,42.76 83.23,42.76 83.48,42.76 L89,42.76 C89.2556674,42.7781713 89.5096724,42.8149352 89.76,42.87 L82.43,42.87 L82.56,40.76 Z" id="Path" fill="#4D6784"></path>
            <path d="M21.47,33.56 L24.78,33.56 C24.78,35.78 24.78,38 24.78,40.22 C24.7248301,39.9696915 24.6880651,39.7156789 24.67,39.46 C24.67,37.6 24.67,35.73 24.67,33.83 L21.47,33.56 Z" id="Path" fill="#4D6784"></path>
            <path d="M82.57,33.53 L85.88,33.53 C85.2,33.58 84.52,33.64 83.88,33.68 C83.53,33.68 83.18,33.68 82.73,33.68 C82.73,35.21 82.73,36.68 82.73,38.11 C82.73,38.79 82.66,39.48 82.62,40.11 C82.5866667,37.9566667 82.57,35.7633333 82.57,33.53 Z" id="Path" fill="#4D6784"></path>
            <path d="M17.32,66.25 C17.2495974,66.1084405 17.2023316,65.9565149 17.18,65.8 C17.18,64.46 17.25,63.12 17.29,61.8 L17.32,66.25 Z" id="Path" fill="#4D6784"></path>
            <path d="M90.06,61.78 L90.06,66.25 L90.06,61.78 Z" id="Path" fill="#4D6784"></path>
            <path d="M94.17,104.14 C93.9460967,104.041735 93.7110195,103.971211 93.47,103.93 C92.56,103.93 91.65,103.93 90.74,103.87 C91.74,103.87 92.74,103.87 93.68,103.87 C93.89,103.88 94.01,104.05 94.17,104.14 Z" id="Path" fill="#074E9F"></path>
            <path d="M16.61,103.88 L13.17,104.01 C13.72,104.01 14.27,103.9 14.82,103.88 C15.37,103.86 16.01,103.88 16.61,103.88 Z" id="Path" fill="#074E9F"></path>
            <polygon id="Path" fill="#4D6784" points="5.34 72.69 5.34 72.14 6.48 72.42"></polygon>
            <path d="M102,72.15 C102,72.33 102,72.51 102,72.69 L100.85,72.42 L102,72.15 Z" id="Path" fill="#4D6784"></path>
            <path d="M91.35,70.88 L92.2,71.02 L91.35,70.88 Z" id="Path" fill="#4D6784"></path>
            <path d="M14.28,71.12 L15.13,70.98 L14.28,71.12 Z" id="Path" fill="#4D6784"></path>
            <path d="M92.22,70.98 L93.07,71.12 L92.22,70.98 Z" id="Path" fill="#4D6784"></path>
            <path d="M15.14,70.98 L15.99,70.84 L15.14,70.98 Z" id="Path" fill="#4D6784"></path>
            <path d="M13.42,71.27 L14.27,71.13 L13.42,71.27 Z" id="Path" fill="#4D6784"></path>
            <path d="M93.08,71.13 L93.93,71.27 L93.08,71.13 Z" id="Path" fill="#4D6784"></path>
            <path d="M12.55,71.41 L13.4,71.27 L12.55,71.41 Z" id="Path" fill="#4D6784"></path>
            <path d="M93.94,71.27 L94.79,71.41 L93.94,71.27 Z" id="Path" fill="#4D6784"></path>
            <path d="M11.69,71.55 L12.54,71.41 L11.69,71.55 Z" id="Path" fill="#4D6784"></path>
            <path d="M94.81,71.41 L95.66,71.55 L94.81,71.41 Z" id="Path" fill="#4D6784"></path>
            <path d="M10.82,71.7 L11.67,71.56 L10.82,71.7 Z" id="Path" fill="#4D6784"></path>
            <path d="M95.67,71.56 L96.52,71.7 L95.67,71.56 Z" id="Path" fill="#4D6784"></path>
            <path d="M9.96,71.88 L10.81,71.74 L9.96,71.88 Z" id="Path" fill="#4D6784"></path>
            <path d="M96.54,71.7 L97.39,71.84 L96.54,71.7 Z" id="Path" fill="#4D6784"></path>
            <path d="M9.1,71.99 L9.95,71.85 L9.1,71.99 Z" id="Path" fill="#4D6784"></path>
            <path d="M97.4,71.88 L98.25,72.02 L97.4,71.88 Z" id="Path" fill="#4D6784"></path>
            <path d="M8.23,72.13 L9.08,71.99 L8.23,72.13 Z" id="Path" fill="#4D6784"></path>
            <path d="M98.27,71.99 L99.12,72.13 L98.27,71.99 Z" id="Path" fill="#4D6784"></path>
            <path d="M7.37,72.27 L8.22,72.13 L7.37,72.27 Z" id="Path" fill="#4D6784"></path>
            <path d="M99.13,72.13 L99.98,72.27 L99.13,72.13 Z" id="Path" fill="#4D6784"></path>
            <path d="M6.5,72.42 L7.35,72.28 L6.5,72.42 Z" id="Path" fill="#4D6784"></path>
            <path d="M100,72.28 L100.85,72.42 L100,72.28 Z" id="Path" fill="#4D6784"></path>
            <path d="M28.24,68.81 L28.97,68.68 L28.24,68.81 Z" id="Path" fill="#4D6784"></path>
            <path d="M77.52,68.54 L78.24,68.67 L77.52,68.54 Z" id="Path" fill="#4D6784"></path>
            <path d="M29.11,68.67 L29.84,68.54 L29.11,68.67 Z" id="Path" fill="#4D6784"></path>
            <path d="M73.19,67.82 L73.92,67.94 L73.19,67.82 Z" id="Path" fill="#4D6784"></path>
            <path d="M33.43,67.95 L34.16,67.83 L33.43,67.95 Z" id="Path" fill="#4D6784"></path>
            <path d="M72.32,67.68 L73.05,67.8 L72.32,67.68 Z" id="Path" fill="#4D6784"></path>
            <path d="M34.29,67.8 L35.02,67.68 L34.29,67.8 Z" id="Path" fill="#4D6784"></path>
            <path d="M71.46,67.54 L72.19,67.66 L71.46,67.54 Z" id="Path" fill="#4D6784"></path>
            <path d="M35.16,67.66 L35.89,67.54 L35.16,67.66 Z" id="Path" fill="#4D6784"></path>
            <path d="M70.6,67.39 L71.33,67.51 L70.6,67.39 Z" id="Path" fill="#4D6784"></path>
            <path d="M36.02,67.52 L36.75,67.4 L36.02,67.52 Z" id="Path" fill="#4D6784"></path>
            <path d="M69.73,67.25 L70.46,67.37 L69.73,67.25 Z" id="Path" fill="#4D6784"></path>
            <path d="M36.89,67.37 L37.63,67.25 L36.89,67.37 Z" id="Path" fill="#4D6784"></path>
            <path d="M68.89,67.1 L69.62,67.22 L68.89,67.1 Z" id="Path" fill="#4D6784"></path>
            <path d="M76.65,68.4 L77.37,68.53 L76.65,68.4 Z" id="Path" fill="#4D6784"></path>
            <path d="M37.75,67.23 L38.48,67.11 L37.75,67.23 Z" id="Path" fill="#4D6784"></path>
            <path d="M68,66.96 L68.73,67.08 L68,66.96 Z" id="Path" fill="#4D6784"></path>
            <path d="M29.97,68.52 L30.69,68.39 L29.97,68.52 Z" id="Path" fill="#4D6784"></path>
            <path d="M38.61,67.08 L39.34,66.96 L38.61,67.08 Z" id="Path" fill="#4D6784"></path>
            <path d="M67.14,66.82 L67.87,66.94 L67.14,66.82 Z" id="Path" fill="#4D6784"></path>
            <path d="M39.48,66.94 L40.21,66.82 L39.48,66.94 Z" id="Path" fill="#4D6784"></path>
            <path d="M66.27,66.67 L67.01,66.79 L66.27,66.67 Z" id="Path" fill="#4D6784"></path>
            <path d="M40.34,66.8 L41.08,66.68 L40.34,66.8 Z" id="Path" fill="#4D6784"></path>
            <path d="M75.78,68.25 L76.51,68.37 L75.78,68.25 Z" id="Path" fill="#4D6784"></path>
            <path d="M30.84,68.38 L31.57,68.26 L30.84,68.38 Z" id="Path" fill="#4D6784"></path>
            <path d="M74.89,68.11 L75.62,68.23 L74.89,68.11 Z" id="Path" fill="#4D6784"></path>
            <path d="M31.7,68.23 L32.43,68.1 L31.7,68.23 Z" id="Path" fill="#4D6784"></path>
            <path d="M74.05,67.97 L74.78,68.09 L74.05,67.97 Z" id="Path" fill="#4D6784"></path>
            <path d="M32.56,68.09 L33.29,67.97 L32.56,68.09 Z" id="Path" fill="#4D6784"></path>
            <path d="M18.74,70.39 L19.46,70.26 L18.74,70.39 Z" id="Path" fill="#4D6784"></path>
            <path d="M87.89,70.26 L88.61,70.39 L87.89,70.26 Z" id="Path" fill="#4D6784"></path>
            <path d="M17.89,70.54 L18.61,70.41 L17.89,70.54 Z" id="Path" fill="#4D6784"></path>
            <path d="M88.76,70.41 L89.47,70.54 L88.76,70.41 Z" id="Path" fill="#4D6784"></path>
            <path d="M17.01,70.68 L17.73,70.55 L17.01,70.68 Z" id="Path" fill="#4D6784"></path>
            <path d="M89.62,70.55 L90.33,70.68 L89.62,70.55 Z" id="Path" fill="#4D6784"></path>
            <path d="M16.15,70.83 L16.87,70.7 L16.15,70.83 Z" id="Path" fill="#4D6784"></path>
            <path d="M90.49,70.7 L91.21,70.83 L90.49,70.7 Z" id="Path" fill="#4D6784"></path>
            <path d="M87.03,70.12 L87.75,70.25 L87.03,70.12 Z" id="Path" fill="#4D6784"></path>
            <path d="M19.6,70.25 L20.32,70.12 L19.6,70.25 Z" id="Path" fill="#4D6784"></path>
            <path d="M86.16,69.98 L86.88,70.11 L86.16,69.98 Z" id="Path" fill="#4D6784"></path>
            <path d="M20.47,70.1 L21.19,69.97 L20.47,70.1 Z" id="Path" fill="#4D6784"></path>
            <path d="M85.3,69.88 L86.02,70.01 L85.3,69.88 Z" id="Path" fill="#4D6784"></path>
            <path d="M21.33,69.96 L22.05,69.83 L21.33,69.96 Z" id="Path" fill="#4D6784"></path>
            <path d="M84.43,69.69 L85.15,69.82 L84.43,69.69 Z" id="Path" fill="#4D6784"></path>
            <path d="M22.19,69.82 L22.91,69.69 L22.19,69.82 Z" id="Path" fill="#4D6784"></path>
            <path d="M83.57,69.55 L84.29,69.68 L83.57,69.55 Z" id="Path" fill="#4D6784"></path>
            <path d="M23.06,69.67 L23.78,69.54 L23.06,69.67 Z" id="Path" fill="#4D6784"></path>
            <path d="M82.7,69.4 L83.42,69.53 L82.7,69.4 Z" id="Path" fill="#4D6784"></path>
            <path d="M23.89,69.53 L24.61,69.4 L23.89,69.53 Z" id="Path" fill="#4D6784"></path>
            <path d="M81.84,69.26 L82.56,69.39 L81.84,69.26 Z" id="Path" fill="#4D6784"></path>
            <path d="M24.79,69.39 L25.51,69.26 L24.79,69.39 Z" id="Path" fill="#4D6784"></path>
            <path d="M80.97,69.12 L81.69,69.25 L80.97,69.12 Z" id="Path" fill="#4D6784"></path>
            <path d="M25.65,69.24 L26.37,69.11 L25.65,69.24 Z" id="Path" fill="#4D6784"></path>
            <path d="M80.11,68.97 L80.83,69.1 L80.11,68.97 Z" id="Path" fill="#4D6784"></path>
            <path d="M26.52,69.1 L27.24,68.97 L26.52,69.1 Z" id="Path" fill="#4D6784"></path>
            <path d="M79.24,68.83 L79.96,68.96 L79.24,68.83 Z" id="Path" fill="#4D6784"></path>
            <path d="M27.38,68.95 L28.1,68.82 L27.38,68.95 Z" id="Path" fill="#4D6784"></path>
            <path d="M78.38,68.68 L79.11,68.81 L78.38,68.68 Z" id="Path" fill="#4D6784"></path>
        </g>
    </g>
</svg>