<svg width="218" height="293" viewBox="0 0 218 293" fill="none" xmlns="http://www.w3.org/2000/svg">
<g clip-path="url(#clip0_166_158)">
<path d="M190.156 230.562C202.152 237.447 202.217 248.622 190.299 255.507L134.333 287.84C122.415 294.725 103.025 294.725 91.015 287.84L34.6836 255.507C22.6871 248.622 22.6219 237.447 34.5402 230.562L90.5065 198.229C102.425 191.344 121.815 191.344 133.824 198.229L190.156 230.562Z" fill="#FF644E" fill-opacity="0.8"/>
</g>
<g clip-path="url(#clip1_166_158)">
<path d="M148.415 0.0783139C148.637 0.209397 148.86 0.471564 148.939 0.812381L149.869 4.66624C150.066 5.50517 150.656 6.331 151.324 6.72425L154.339 8.46766C154.876 8.78226 155.086 9.68673 154.666 9.80471L152.202 10.4339C151.665 10.565 151.442 11.2335 151.639 12.0725L152.556 15.9132C152.687 16.4244 152.373 16.6342 152.032 16.4375C151.927 16.372 151.809 16.2671 151.704 16.1229L149.266 12.6754C149.004 12.2953 148.69 12.0069 148.362 11.8234C148.034 11.6399 147.733 11.5743 147.458 11.6399L145.007 12.2691C144.902 12.2953 144.784 12.2691 144.679 12.2035C144.338 12.0069 144.037 11.4433 144.155 11.0762L145.099 8.31036C145.295 7.70737 145.099 6.77668 144.548 6.0295L142.137 2.55579C141.717 1.95281 141.927 1.29739 142.464 1.59888L145.479 3.34229C146.134 3.72243 146.737 3.57824 146.934 2.97526L147.89 0.209397C147.969 -0.0396613 148.192 -0.0527696 148.415 0.0783139Z" fill="#FFC757"/>
<path d="M163.985 8.75661C164.208 8.8877 164.431 9.14986 164.509 9.49068L165.44 13.3445C165.636 14.1835 166.226 15.0093 166.895 15.4025L169.909 17.146C170.447 17.4606 170.656 18.365 170.237 18.483L167.773 19.1122C167.235 19.2433 167.013 19.9118 167.209 20.7508L168.127 24.5915C168.258 25.1027 167.943 25.3125 167.602 25.1158C167.498 25.0503 167.38 24.9454 167.275 24.8012L164.837 21.3537C164.575 20.9736 164.26 20.6852 163.933 20.5017C163.605 20.3182 163.304 20.2526 163.028 20.3182L160.577 20.9474C160.473 20.9736 160.355 20.9474 160.25 20.8818C159.909 20.6852 159.608 20.1216 159.725 19.7545L160.669 16.9887C160.866 16.3857 160.669 15.455 160.119 14.7078L157.681 11.2472C157.261 10.6442 157.471 9.97569 158.009 10.2903L161.023 12.0337C161.678 12.4138 162.281 12.2696 162.478 11.6667L163.421 8.9008C163.5 8.65174 163.723 8.63864 163.946 8.76972L163.985 8.75661Z" fill="#FFC757"/>
<path d="M179.542 17.447C179.765 17.5781 179.988 17.8403 180.067 18.1811L180.997 22.035C181.194 22.8739 181.784 23.6997 182.452 24.093L185.467 25.8364C186.004 26.151 186.214 27.0555 185.794 27.1734L183.33 27.8026C182.793 27.9337 182.57 28.6022 182.767 29.4412L183.684 33.2819C183.815 33.7932 183.501 34.0029 183.16 33.8063C183.055 33.7407 182.937 33.6359 182.832 33.4917L180.394 30.0442C180.132 29.664 179.818 29.3756 179.49 29.1921C179.162 29.0086 178.861 28.9431 178.586 29.0086L176.135 29.6378C176.03 29.664 175.912 29.6378 175.807 29.5723C175.466 29.3756 175.165 28.812 175.283 28.4449L176.227 25.6791C176.423 25.0761 176.227 24.1454 175.676 23.3982L173.238 19.9376C172.819 19.3346 173.029 18.6661 173.566 18.9807L176.58 20.7241C177.236 21.1043 177.839 20.9601 178.035 20.3571L178.979 17.5912C179.058 17.3422 179.28 17.3291 179.503 17.4601L179.542 17.447Z" fill="#FFC757"/>
<path d="M195.113 26.1248C195.336 26.2559 195.559 26.518 195.637 26.8588L196.568 30.7127C196.764 31.5516 197.354 32.3775 198.023 32.7707L201.037 34.5141C201.575 34.8287 201.784 35.7332 201.365 35.8512L198.901 36.4804C198.363 36.6115 198.141 37.28 198.337 38.1189L199.255 41.9597C199.386 42.4709 199.071 42.6806 198.73 42.484C198.626 42.4185 198.508 42.3136 198.403 42.1694L195.965 38.7219C195.703 38.3418 195.388 38.0534 195.061 37.8699C194.733 37.6863 194.431 37.6208 194.156 37.6863L191.705 38.3155C191.6 38.3418 191.483 38.3155 191.378 38.25C191.037 38.0534 190.735 37.4897 190.853 37.1227L191.797 34.3568C191.994 33.7538 191.797 32.8231 191.247 32.076L188.809 28.6154C188.389 28.0124 188.599 27.3439 189.136 27.6585L192.151 29.4019C192.806 29.782 193.409 29.6378 193.606 29.0348L194.549 26.269C194.628 26.0199 194.851 26.0068 195.074 26.1379L195.113 26.1248Z" fill="#FFC757"/>
<path d="M210.67 34.8162C210.893 34.9473 211.116 35.2094 211.195 35.5503L212.125 39.4041C212.322 40.243 212.912 41.0689 213.58 41.4621L216.595 43.2055C217.132 43.5201 217.342 44.4246 216.922 44.5426L214.458 45.1718C213.921 45.3029 213.698 45.9714 213.895 46.8103L214.812 50.6511C214.943 51.1623 214.629 51.372 214.288 51.1754C214.183 51.1099 214.065 51.005 213.96 50.8608L211.522 47.4133C211.26 47.0332 210.946 46.7448 210.618 46.5613C210.29 46.3777 209.989 46.3122 209.714 46.3777L207.263 47.0069C207.158 47.0332 207.04 47.0069 206.935 46.9414C206.594 46.7448 206.293 46.1811 206.411 45.8141L207.355 43.0482C207.551 42.4452 207.355 41.5145 206.804 40.7674L204.366 37.3068C203.947 36.7038 204.157 36.0353 204.694 36.3499L207.708 38.0933C208.364 38.4734 208.967 38.3292 209.163 37.7262L210.107 34.9604C210.186 34.7113 210.408 34.6982 210.631 34.8293L210.67 34.8162Z" fill="#FFC757"/>
</g>
<g clip-path="url(#clip2_166_158)">
<path d="M186.874 205.646C198.871 212.568 198.936 223.806 187.017 230.728L131.05 263.241C119.132 270.163 99.7417 270.163 87.732 263.241L31.3999 230.728C19.4033 223.806 19.3381 212.568 31.2565 205.646L87.2234 173.133C99.1419 166.211 118.532 166.211 130.542 173.133L186.874 205.646Z" stroke="white" stroke-miterlimit="10"/>
<path d="M206.642 185.545L136.41 226.349C121.453 235.044 97.1207 235.044 82.0597 226.349L11.3708 185.545C3.79463 181.164 3.36081e-05 175.428 0.0261133 169.692L3.36078e-05 177.814C-0.0130062 183.55 3.76855 189.286 11.3447 193.666L82.0336 234.47C97.0947 243.166 121.427 243.166 136.384 234.47L206.616 193.666C214.049 189.351 217.765 183.693 217.791 178.036L217.817 169.914C217.804 175.572 214.075 181.23 206.642 185.545Z" fill="#A6D0F4"/>
<path d="M206.668 154.088C221.729 162.783 221.808 176.862 206.851 185.558L136.645 226.349C121.688 235.044 97.3685 235.044 82.3075 226.349L11.6316 185.545C-3.42943 176.849 -3.50767 162.77 11.449 154.075L81.6555 113.297C96.6122 104.602 120.932 104.602 135.993 113.297L206.655 154.088H206.668Z" fill="white"/>
<g clip-path="url(#clip3_166_158)">
<path d="M147.794 148.821C126.121 136.306 91.0833 136.306 69.5415 148.821C47.9997 161.336 48.117 181.62 69.8023 194.135C91.4745 206.637 126.513 206.637 148.054 194.135C169.596 181.62 169.466 161.336 147.794 148.821ZM134.141 185.466C120.24 193.549 97.6163 193.549 83.6245 185.466C69.6328 177.384 69.5545 164.282 83.455 156.212C97.3555 148.13 119.98 148.143 133.971 156.212C147.963 164.282 148.041 177.384 134.141 185.466Z" fill="#DFDFDF"/>
<path d="M147.468 141.351V148.651C148.706 148.612 148.641 148.56 148.772 148.521V141.221C148.667 141.26 148.732 141.312 147.468 141.351Z" fill="#DFDFDF"/>
<path d="M67.9246 141.82V149.121C68.3027 149.16 68.2506 149.186 69.2285 149.225V141.925C68.2766 141.885 68.3158 141.859 67.9246 141.82Z" fill="#DFDFDF"/>
<path d="M150.076 142.602V149.902C150.675 149.85 150.584 149.785 150.076 149.733V142.433C150.61 142.485 150.688 142.55 150.076 142.602Z" fill="#DFDFDF"/>
<path d="M66.6206 142.72V150.02C66.8814 150.072 66.8032 150.124 67.9246 150.19V142.889C66.8292 142.837 66.9075 142.785 66.6206 142.72Z" fill="#DFDFDF"/>
<path d="M66.7379 142.889C66.8162 142.837 66.8944 142.785 66.9857 142.72C66.9074 142.772 66.8292 142.824 66.7379 142.889Z" fill="#DFDFDF"/>
<path d="M61.4568 154.452C61.5611 154.348 61.6654 154.244 61.7697 154.152C61.6654 154.257 61.5611 154.361 61.4568 154.452Z" fill="#DFDFDF"/>
<path d="M65.0297 151.767C65.0297 149.33 65.0427 146.905 65.0557 144.467C65.147 144.402 65.2253 144.337 65.3165 144.271L65.2905 151.572C65.1992 151.637 65.1209 151.702 65.0297 151.767Z" fill="#DFDFDF"/>
<path d="M64.0256 151.767C64.0256 151.767 64.0126 151.767 63.9995 151.78L64.0256 144.48C64.0256 144.48 64.0386 144.48 64.0517 144.467C64.0517 146.905 64.0386 149.329 64.0256 151.767Z" fill="#DFDFDF"/>
<path d="M59.553 156.473C59.6182 156.395 59.6964 156.317 59.7616 156.226C59.6964 156.304 59.6182 156.382 59.553 156.473Z" fill="#DFDFDF"/>
<path d="M155.37 153.305C155.37 153.305 155.318 153.253 155.278 153.227L155.305 145.927C155.305 145.927 155.357 145.979 155.396 146.005C155.396 148.443 155.383 150.868 155.37 153.305Z" fill="#DFDFDF"/>
<path d="M155.239 153.305C155.239 150.867 155.252 148.443 155.265 146.005C155.331 146.057 155.396 146.122 155.461 146.174C155.461 148.612 155.448 151.037 155.435 153.475C155.37 153.423 155.304 153.357 155.239 153.305Z" fill="#DFDFDF"/>
<path d="M155.252 153.475C155.252 151.037 155.265 148.613 155.278 146.175L155.252 153.475Z" fill="#DFDFDF"/>
<path d="M59.0575 157.073C59.1227 156.982 59.2009 156.904 59.2792 156.812C59.2009 156.904 59.1357 156.982 59.0575 157.073Z" fill="#DFDFDF"/>
<path d="M155.37 153.957C155.37 153.957 155.318 153.905 155.292 153.879L155.318 146.578C155.318 146.578 155.37 146.63 155.396 146.656C155.396 149.094 155.383 151.519 155.37 153.957Z" fill="#DFDFDF"/>
<path d="M155.969 153.958C155.969 151.52 155.983 149.095 155.996 146.657C156.074 146.722 156.152 146.801 156.23 146.866C156.23 149.304 156.217 151.728 156.204 154.166C156.126 154.088 156.048 154.023 155.969 153.958Z" fill="#DFDFDF"/>
<path d="M156.569 154.178C156.569 151.741 156.582 149.316 156.595 146.878L156.569 154.178Z" fill="#DFDFDF"/>
<path d="M61.3785 154.153C61.3785 151.715 61.3916 149.29 61.4046 146.853L61.3785 154.153Z" fill="#DFDFDF"/>
<path d="M61.4829 154.44C61.4829 152.002 61.4959 149.577 61.509 147.139C61.6003 147.048 61.7046 146.957 61.7959 146.853C61.7959 149.29 61.7828 151.715 61.7698 154.153C61.6655 154.244 61.5742 154.335 61.4829 154.44Z" fill="#DFDFDF"/>
<path d="M61.4177 154.439C61.4177 154.439 61.4046 154.452 61.3916 154.465L61.4177 147.165C61.4177 147.165 61.4307 147.152 61.4438 147.139C61.4438 149.576 61.4307 152.001 61.4177 154.439Z" fill="#DFDFDF"/>
<path d="M60.1007 147.518V154.818C61.0135 154.909 60.9222 155 61.4047 155.105V147.804C60.9353 147.713 61.0265 147.609 60.1007 147.518Z" fill="#DFDFDF"/>
<path d="M60.7135 147.934C60.7135 147.934 60.7918 147.843 60.8309 147.804C60.7918 147.843 60.7526 147.895 60.7135 147.934Z" fill="#DFDFDF"/>
<path d="M61.4046 147.804V155.104C60.7787 155.143 60.7396 155.195 61.4046 155.234V147.934C60.7657 147.895 60.8048 147.843 61.4046 147.804Z" fill="#DFDFDF"/>
<path d="M60.1007 147.935V155.235C60.6484 155.287 60.5962 155.339 61.4047 155.391V148.091C60.6223 148.039 60.6745 147.987 60.1007 147.935Z" fill="#DFDFDF"/>
<path d="M60.4136 148.246C60.4136 148.246 60.5175 148.143 60.5694 148.091C60.5175 148.143 60.4655 148.195 60.4136 148.246Z" fill="#DFDFDF"/>
<path d="M60.1007 148.091V155.391C60.5049 155.443 60.4528 155.495 61.4047 155.548V148.247C60.4658 148.195 60.518 148.143 60.1007 148.091Z" fill="#DFDFDF"/>
<path d="M60.1007 148.247V155.547C60.3615 155.587 60.3224 155.626 61.4047 155.678V148.377C60.3354 148.338 60.3745 148.299 60.1007 148.247Z" fill="#DFDFDF"/>
<path d="M60.1007 148.378V155.678C60.2181 155.743 60.1529 155.822 61.4047 155.887V148.587C60.1789 148.521 60.2441 148.443 60.1007 148.378Z" fill="#DFDFDF"/>
<path d="M60.1136 148.573C60.1788 148.508 60.244 148.429 60.2962 148.364C60.231 148.429 60.1658 148.508 60.1136 148.573Z" fill="#DFDFDF"/>
<path d="M58.7966 148.573V155.874C60.0745 155.9 60.0485 155.926 60.1006 155.952V148.651C60.1006 148.651 60.1006 148.599 58.7966 148.573Z" fill="#DFDFDF"/>
<path d="M58.7966 148.651V155.952C59.9572 156.03 59.8789 156.108 60.1006 156.186V148.886C59.905 148.808 59.9702 148.73 58.7966 148.651Z" fill="#DFDFDF"/>
<path d="M58.7966 148.886V156.186C59.8007 156.199 59.7877 156.225 60.1006 156.238V148.938C59.8007 148.925 59.8137 148.899 58.7966 148.886Z" fill="#DFDFDF"/>
<path d="M58.7966 148.938V156.239C59.6964 156.317 59.6312 156.395 60.1006 156.487V149.186C59.6442 149.108 59.7225 149.03 58.7966 148.938Z" fill="#DFDFDF"/>
<path d="M58.7966 149.186V156.486C59.5399 156.499 59.5269 156.512 60.1006 156.538V149.238C59.5529 149.225 59.566 149.212 58.7966 149.186Z" fill="#DFDFDF"/>
<path d="M58.7966 149.225V156.525C59.4356 156.616 59.3704 156.694 58.7966 156.786V149.485C59.3834 149.394 59.4617 149.316 58.7966 149.225Z" fill="#DFDFDF"/>
<path d="M58.7966 149.485V156.786C59.2921 156.786 59.2791 156.799 60.1006 156.812V149.511C59.3052 149.511 59.3052 149.498 58.7966 149.485Z" fill="#DFDFDF"/>
<path d="M58.7966 149.512V156.812C59.2009 156.903 59.1226 156.982 60.1006 157.073V149.772C59.1487 149.681 59.2269 149.603 58.7966 149.512Z" fill="#DFDFDF"/>
<path d="M58.7966 149.772V157.073C59.0444 157.073 59.0444 157.099 60.1006 157.099V149.799C59.0574 149.799 59.0705 149.772 58.7966 149.772Z" fill="#DFDFDF"/>
<path d="M58.7966 149.812V157.112C58.9531 157.203 58.8879 157.294 60.1006 157.386V150.085C58.9009 149.994 58.9792 149.903 58.7966 149.812Z" fill="#DFDFDF"/>
<path d="M58.7966 150.085V157.385C58.7966 157.385 58.7966 157.385 60.1006 157.398V150.098C58.8227 150.098 58.8227 150.098 58.7966 150.085Z" fill="#DFDFDF"/>
<path d="M57.936 158.493C57.936 156.056 57.9491 153.631 57.9621 151.193C58.2229 150.828 58.5098 150.45 58.7967 150.085L58.7706 157.385C58.4837 157.75 58.1968 158.115 57.936 158.493Z" fill="#DFDFDF"/>
<path d="M56.619 160.553C56.619 158.116 56.6321 155.691 56.6451 153.253C57.0493 152.562 57.4927 151.871 57.9752 151.193C57.9752 153.631 57.9621 156.056 57.9491 158.494C57.4666 159.172 57.0233 159.863 56.619 160.553Z" fill="#DFDFDF"/>
<path d="M74.2097 166.876C74.2488 166.759 74.288 166.642 74.3401 166.524C74.301 166.642 74.2619 166.759 74.2097 166.876Z" fill="#DFDFDF"/>
<path d="M55.3151 163.174C55.3151 160.736 55.3281 158.311 55.3411 155.873C55.7063 154.987 56.1496 154.113 56.6451 153.253C56.6451 155.691 56.6321 158.116 56.619 160.553C56.1235 161.414 55.6802 162.287 55.3151 163.174Z" fill="#DFDFDF"/>
<path d="M75.7745 156.382C75.8397 156.29 75.8919 156.199 75.9571 156.095C75.8919 156.186 75.8267 156.277 75.7745 156.382Z" fill="#DFDFDF"/>
<path d="M75.7094 156.474C75.7094 156.474 75.7487 156.409 75.7749 156.369C75.7487 156.409 75.7355 156.435 75.7094 156.474Z" fill="#DFDFDF"/>
<path d="M75.5398 156.76C75.592 156.669 75.6572 156.565 75.7224 156.474C75.6572 156.565 75.605 156.669 75.5398 156.76Z" fill="#DFDFDF"/>
<path d="M75.0964 157.555C75.1486 157.45 75.2008 157.346 75.266 157.255C75.2138 157.359 75.1616 157.463 75.0964 157.555Z" fill="#DFDFDF"/>
<path d="M54.5587 165.312C54.5587 162.887 54.5718 160.449 54.5848 158.025C54.7934 157.308 55.0542 156.604 55.3541 155.887C55.3541 158.325 55.3411 160.749 55.3281 163.187C55.0281 163.891 54.7804 164.608 54.5718 165.312H54.5587Z" fill="#DFDFDF"/>
<path d="M74.5358 158.755C74.5749 158.65 74.627 158.533 74.6792 158.429C74.627 158.533 74.5879 158.65 74.5358 158.755Z" fill="#DFDFDF"/>
<path d="M140.244 153.54C140.165 153.462 140.1 153.383 140.022 153.318C139.944 153.24 139.865 153.175 139.8 153.097C139.709 153.005 139.644 152.94 139.578 152.875C139.474 152.771 139.409 152.718 139.344 152.653C139.239 152.562 139.174 152.497 139.109 152.432C138.992 152.327 138.926 152.275 138.861 152.21C138.744 152.106 138.679 152.054 138.614 152.001C134.48 149.107 134.376 149.042 134.271 148.977C120.188 140.842 97.4207 140.855 83.4159 148.977C83.3116 149.042 83.2073 149.107 83.0899 149.16C78.2521 152.758 78.2 152.81 78.1348 152.875C78.0304 152.979 77.9652 153.044 77.9 153.097C77.8088 153.188 77.7436 153.253 77.6784 153.318C75.4486 155.586 74.0272 158.037 73.3752 160.553C73.3752 160.527 73.3752 160.501 73.3752 160.488C73.3231 160.671 73.2839 160.84 73.2448 161.023C73.2057 161.218 73.1666 161.401 73.1405 161.596C73.1405 161.635 73.1405 161.609 73.1405 161.609V161.479C73.7143 161.648 73.7012 161.818 73.6751 161.987C73.6751 162.079 73.6491 162.157 73.636 162.248C73.5969 162.652 74.4314 163.46 74.4314 163.46V170.67C74.4314 170.265 74.4575 169.861 74.4966 169.457C74.4966 169.366 74.5227 169.288 74.5358 169.196C74.9139 166.211 76.4135 163.278 79.0345 160.605C79.0997 160.54 79.1649 160.475 79.2562 160.384C79.3214 160.319 79.3866 160.267 79.4909 160.162C79.5561 160.11 79.6083 160.045 84.3417 156.525C84.446 156.46 84.5504 156.395 84.6547 156.343C98.3596 148.377 120.658 148.377 134.454 156.343C134.558 156.408 134.662 156.473 138.705 159.302C138.77 159.354 138.835 159.406 138.953 159.51C139.018 159.563 139.083 159.628 139.187 159.719C139.252 159.784 139.318 159.836 139.422 159.928C139.487 159.98 139.552 160.045 139.657 160.136C139.722 160.201 139.787 160.267 139.878 160.345C139.944 160.41 140.022 160.475 140.1 160.553C140.165 160.619 140.23 160.697 140.309 160.775C143.347 163.891 144.86 167.371 144.847 170.839L144.873 163.786C144.873 160.24 143.334 156.682 140.23 153.501L140.244 153.54Z" fill="#1196C3"/>
<path d="M165.006 171.035C165.019 165.586 162.646 160.124 157.899 155.235L157.925 147.935C162.685 152.823 165.058 158.285 165.032 163.735C165.032 165.925 165.019 168.845 165.006 171.035Z" fill="#DFDFDF"/>
<path d="M73.2839 172.69C73.1796 172.051 73.1405 171.412 73.1405 170.787L73.1666 163.486C73.1666 164.125 73.2187 164.764 73.31 165.39C73.31 167.827 73.297 170.252 73.2839 172.69Z" fill="#DFDFDF"/>
<path d="M73.7012 172.69C73.6882 172.468 73.7012 172.156 73.1405 171.934V171.53V171.126C73.7012 170.565 73.7012 170.005 73.7143 169.431C73.7143 168.349 73.7143 167.254 74.4445 166.172V165.39C73.7795 165.768 73.8577 166.146 73.949 166.524C73.949 168.962 73.9359 171.386 73.9229 173.824C73.8316 173.446 73.7534 173.068 73.6882 172.69H73.7012Z" fill="#DFDFDF"/>
<path d="M74.4444 173.825C74.4184 173.668 74.4444 173.512 74.4444 173.342C74.4444 173.186 74.4444 173.03 74.4444 172.86C74.4444 170.748 74.4444 168.636 74.4575 166.524C74.8487 168.063 75.5398 169.575 76.5178 171.035C76.5178 173.473 76.5047 175.898 76.4917 178.335C75.5007 176.875 74.8226 175.363 74.4314 173.825H74.4444Z" fill="#DFDFDF"/>
<path d="M75.9962 178.335C75.9571 178.192 75.9962 177.97 75.9962 177.814C75.9962 177.24 75.9962 176.68 75.9962 176.106C75.9962 175.363 75.9962 174.62 75.9962 173.877C75.9962 172.938 75.9962 171.986 75.9962 171.048C76.3222 171.543 76.6873 172.026 77.0915 172.508C77.0915 174.946 77.0785 177.371 77.0654 179.808C76.6612 179.326 76.2961 178.844 75.9701 178.348L75.9962 178.335Z" fill="#DFDFDF"/>
<path d="M77.0525 179.678C77.0525 179.678 77.0525 179.652 77.0525 179.639C77.0525 179.535 77.0525 179.43 77.0525 179.326C77.0525 179.209 77.0525 179.092 77.0525 178.974C77.0525 177.006 77.0525 175.024 77.0655 173.056C78.3826 174.646 80.1169 176.145 82.2684 177.501V184.111C80.1038 182.742 78.3695 181.243 77.0525 179.665V179.678Z" fill="#DFDFDF"/>
<path d="M69.2416 186.013C68.8373 185.766 68.4592 185.518 68.081 185.257C67.7159 185.022 67.3638 184.788 67.0118 184.553C66.5815 184.266 66.1642 183.966 65.7599 183.667C65.3948 183.406 65.0558 183.132 64.7168 182.858C64.13 182.389 63.5562 181.92 63.0085 181.437C62.7086 181.164 62.3957 180.903 62.1088 180.629C61.7828 180.316 61.4568 180.003 61.1438 179.691C60.8309 179.378 60.544 179.065 60.2441 178.739C59.8268 178.283 59.4226 177.813 59.0444 177.344C58.7836 177.031 58.5359 176.718 58.3012 176.392C58.0664 176.079 57.8448 175.767 57.6361 175.454C57.3753 175.076 57.1406 174.698 56.9059 174.307C56.6451 173.889 56.4104 173.472 56.1887 173.055C55.9931 172.677 55.7975 172.312 55.6149 171.934C55.4715 171.634 55.3411 171.347 55.2238 171.047C55.0282 170.591 54.8586 170.135 54.7022 169.679C54.4935 169.053 54.2979 168.427 54.1414 167.801C54.1414 167.762 54.1284 167.736 54.1154 167.697C54.0502 167.436 54.011 167.163 53.9589 166.889C54.0762 166.289 54.2197 165.676 54.4022 165.077C54.4022 162.561 54.4153 160.032 54.4283 157.516C54.1545 158.441 53.9458 159.38 53.8024 160.318C53.6981 161.062 53.6199 161.805 53.6068 162.548C53.6068 162.743 53.6068 162.926 53.6068 163.121V163.617L54.9108 163.434V170.735C54.9108 170.735 53.8546 172.703 54.011 173.681C54.011 173.694 54.011 173.72 54.011 173.733C54.0893 174.202 54.1806 174.672 54.2849 175.141C54.2849 175.167 54.2979 175.206 54.311 175.232C54.3631 175.467 54.9108 175.936 54.9108 175.936C54.9108 175.936 54.9108 176.601 54.9108 176.575C54.9108 176.575 54.9108 176.627 54.9108 176.653C54.963 176.849 55.0282 177.057 55.0934 177.253C55.1325 177.396 55.2107 177.54 55.2498 177.67C55.3933 178.074 55.5367 178.478 55.7062 178.882C55.8105 179.143 55.9279 179.404 56.0583 179.664C56.2148 179.99 56.3843 180.329 56.5669 180.655C56.7625 181.02 56.9711 181.398 57.2058 181.763C57.4144 182.102 57.6231 182.441 57.8578 182.767C58.0404 183.041 58.249 183.315 58.4446 183.588C58.6532 183.875 58.8749 184.149 59.1096 184.423C59.4487 184.84 59.8007 185.244 60.1658 185.648C60.4266 185.935 60.6744 186.209 60.9482 186.483C61.2221 186.756 61.509 187.03 61.7958 187.304C62.0566 187.538 62.3174 187.786 62.5913 188.021C63.0737 188.451 63.5823 188.868 64.1039 189.272C64.4038 189.507 64.7168 189.755 65.0297 189.989C65.3818 190.25 65.7599 190.511 66.1251 190.771C66.425 190.98 66.751 191.189 67.0639 191.397C67.3638 191.593 67.6377 191.801 67.9506 191.984V192.688L69.2546 192.779L69.2807 185.987L69.2416 186.013Z" fill="#1196C3"/>
<path d="M83.5723 177.201L83.5463 184.684L69.2285 193.001L69.2416 185.518L83.5723 177.201Z" fill="#1196C3"/>
<path d="M149.111 193.066C149.111 190.628 149.124 188.203 149.137 185.766C149.137 188.203 149.124 190.628 149.111 193.066Z" fill="#DFDFDF"/>
<path d="M164.302 172.781C164.354 172.286 164.38 171.804 164.38 171.308C164.38 171.217 163.115 171.047 163.115 171.047V163.747L164.419 163.812V163.76C164.419 163.851 164.419 163.943 164.419 164.034C164.419 164.529 164.38 165.012 164.341 165.507C164.315 165.742 164.289 165.963 164.25 166.198L164.067 167.319C164.002 167.632 163.95 167.958 163.872 168.271C163.872 168.284 163.872 168.297 163.872 168.31C163.754 168.766 163.624 169.209 163.48 169.666C163.454 169.744 163.428 169.822 163.402 169.913C163.272 170.317 163.115 170.709 162.959 171.1C162.933 171.178 162.894 171.256 162.868 171.334C162.672 171.777 162.476 172.234 162.255 172.677C162.255 172.677 162.255 172.703 162.242 172.703C161.759 173.655 161.199 174.593 160.56 175.519C160.52 175.571 160.494 175.61 160.455 175.662C160.168 176.066 159.881 176.471 159.569 176.875C159.516 176.94 159.464 177.005 159.412 177.07C159.086 177.474 158.747 177.892 158.382 178.296C158.343 178.348 158.304 178.387 158.265 178.439C157.065 179.769 155.696 181.072 154.157 182.311C154.118 182.337 154.092 182.363 154.053 182.389C153.557 182.793 153.036 183.184 152.514 183.562C152.488 183.575 152.475 183.588 152.449 183.615C151.314 184.436 150.102 185.231 148.811 186V193.314L150.115 193.079C150.115 193.079 150.115 192.779 150.115 192.792C151.223 192.114 152.266 191.423 153.257 190.706C153.283 190.693 153.296 190.667 153.322 190.654C153.831 190.276 154.327 189.898 154.809 189.52C154.848 189.494 154.874 189.468 154.913 189.442C156.4 188.242 157.73 186.991 158.89 185.7C158.93 185.661 158.969 185.609 159.008 185.57C159.138 185.414 159.282 185.27 159.425 185.114C159.503 185.022 159.595 184.918 159.673 184.827C159.79 184.684 159.895 184.54 160.012 184.397C160.064 184.332 160.103 184.279 160.155 184.214C160.455 183.823 160.742 183.432 161.016 183.041C161.055 182.989 161.081 182.95 161.12 182.898C161.733 181.998 162.281 181.085 162.737 180.173C162.737 180.173 162.737 180.16 162.75 180.147C162.972 179.717 163.168 179.286 163.35 178.843C163.389 178.765 163.415 178.687 163.441 178.609C163.598 178.231 163.741 177.839 163.872 177.461C163.898 177.383 163.924 177.305 163.95 177.227C164.093 176.797 164.224 176.353 164.328 175.923C164.328 175.91 164.328 175.897 164.328 175.884C164.328 175.832 164.354 175.78 164.367 175.728C164.367 175.688 164.393 175.636 164.393 175.597C164.406 175.532 164.419 175.467 164.445 175.389C164.445 175.389 164.445 175.389 164.445 175.376C164.445 175.349 164.445 175.323 164.445 175.284V175.063C164.015 174.919 164.028 174.776 164.054 174.632C164.132 174.267 164.185 173.889 164.237 173.524C164.263 173.29 164.302 173.068 164.328 172.833L164.302 172.781Z" fill="#1196C3"/>
<path d="M148.772 185.987C148.772 188.425 148.759 190.849 148.745 193.287C148.863 193.222 148.98 193.144 149.098 193.079C149.098 190.641 149.111 188.216 149.124 185.778C149.006 185.844 148.889 185.922 148.772 185.987Z" fill="#EA5E7A"/>
<path d="M148.08 140.934C148.25 141.025 148.42 141.129 148.576 141.221C148.889 141.403 148.98 141.455 149.072 141.52C149.332 141.677 149.45 141.755 149.567 141.82C149.763 141.938 149.906 142.029 150.049 142.12C150.336 142.303 150.428 142.368 150.519 142.42C150.61 142.472 150.688 142.537 150.78 142.589C151.288 142.928 151.367 142.98 151.445 143.033C151.523 143.085 151.614 143.15 151.693 143.202C151.979 143.411 152.071 143.476 152.162 143.541C152.423 143.724 152.514 143.802 152.605 143.867C152.853 144.049 152.944 144.115 153.023 144.18C153.27 144.362 153.362 144.441 153.453 144.519C153.675 144.701 153.779 144.78 153.883 144.858C154.092 145.027 154.196 145.118 154.3 145.197C154.496 145.366 154.6 145.444 154.705 145.536C154.887 145.692 154.992 145.783 155.096 145.875C155.265 146.018 155.357 146.109 155.461 146.187C155.644 146.357 155.748 146.448 155.852 146.539C156.022 146.696 156.126 146.787 156.23 146.891C156.387 147.035 156.491 147.139 156.595 147.243C156.739 147.374 156.843 147.491 156.948 147.595C157.078 147.726 157.182 147.843 157.3 147.947C169.075 160.058 166.232 175.624 148.746 186.001L134.702 177.892C145.812 171.23 147.572 161.271 140.035 153.527C139.957 153.449 139.891 153.384 139.813 153.305C139.735 153.227 139.67 153.162 139.592 153.084C139.5 152.992 139.435 152.94 139.37 152.875C139.266 152.784 139.2 152.719 139.135 152.653C139.031 152.562 138.966 152.497 138.9 152.445C138.783 152.341 138.731 152.288 138.653 152.236C138.535 152.145 138.47 152.08 138.405 152.028C134.323 149.16 134.219 149.095 134.115 149.042C120.201 141.012 97.7076 141.012 83.8723 149.042C83.768 149.108 83.6637 149.173 83.5594 149.225C78.7868 152.771 78.7216 152.836 78.6564 152.888C78.5521 152.992 78.4869 153.045 78.4217 153.11C78.3304 153.201 78.2652 153.266 78.2 153.331C70.7151 160.932 72.2799 170.683 82.8161 177.384L68.8635 185.492C51.7943 175.011 49.1863 159.498 61.1178 147.517C61.2352 147.4 61.3525 147.296 61.4568 147.178C61.5872 147.048 61.6915 146.957 61.7959 146.852C61.9393 146.722 62.0436 146.618 62.1479 146.526C62.3044 146.383 62.4087 146.292 62.5 146.2C62.6695 146.044 62.7739 145.966 62.8651 145.875C63.0477 145.718 63.139 145.64 63.2433 145.549C63.4389 145.379 63.5302 145.301 63.6214 145.223C63.8301 145.053 63.9214 144.975 64.0126 144.897C64.2213 144.727 64.3256 144.649 64.4169 144.571C64.6386 144.401 64.7298 144.323 64.8211 144.258C65.0558 144.076 65.1471 144.01 65.2384 143.945C65.4861 143.763 65.5644 143.697 65.6557 143.632C65.9165 143.45 65.9947 143.385 66.086 143.319C66.3598 143.124 66.4381 143.072 66.5293 143.007C66.8162 142.811 66.8944 142.759 66.9857 142.694C67.2726 142.498 67.3508 142.446 67.4421 142.394C67.5204 142.342 67.5986 142.29 67.6768 142.237C68.0028 142.029 68.1071 141.964 68.2115 141.898C68.4723 141.729 68.5766 141.664 68.6809 141.599C68.9547 141.429 69.0721 141.364 69.1764 141.299C69.5024 141.103 69.6719 141.012 69.8284 140.908C91.3702 128.393 126.395 128.393 148.067 140.908L148.08 140.934Z" fill="#86E563"/>
<path d="M148.772 186L148.745 193.444L134.428 185.179L134.441 177.735L148.772 186Z" fill="#1196C3"/>
</g>
</g>
<g clip-path="url(#clip4_166_158)">
<path d="M194.307 50.8486L214.368 62.4562C216.099 63.4593 217.505 65.8825 217.492 67.8627L217.453 79.4051" stroke="#F9FBFC" stroke-width="0.78" stroke-miterlimit="10"/>
<path d="M207.221 64.9964C208.939 65.9865 210.332 68.3966 210.319 70.3637L210.228 101.161C210.228 103.141 208.822 103.936 207.104 102.946L135.296 61.4008C133.577 60.4107 132.198 58.0006 132.198 56.0334L132.289 25.2362C132.289 23.256 133.682 22.4613 135.4 23.4644L207.208 65.0094L207.221 64.9964Z" fill="#F66B57" fill-opacity="0.89"/>
<path d="M146.544 40.882V42.2499C146.544 42.9534 145.788 43.3833 145.19 43.0316L139.188 39.5662C138.902 39.4099 138.733 39.1103 138.733 38.7846V37.4167C138.733 36.7132 139.488 36.2833 140.087 36.635L146.088 40.0873C146.374 40.2437 146.544 40.5433 146.544 40.869V40.882Z" fill="#F9FBFC"/>
<path d="M163.467 56.802V57.9354C163.467 58.6258 162.712 59.0688 162.113 58.717L139.188 45.5722C138.902 45.4158 138.733 45.1162 138.733 44.7905V43.6571C138.733 42.9666 139.488 42.5237 140.087 42.8755L163.011 56.0203C163.298 56.1766 163.467 56.4763 163.467 56.802Z" fill="#F9FBFC"/>
<g opacity="0.53">
<path d="M154.354 63.1726V64.3842C154.354 65.0746 153.599 65.5176 153.001 65.1658L139.188 57.2451C138.902 57.0887 138.733 56.7891 138.733 56.4634V55.2518C138.733 54.5614 139.488 54.1184 140.087 54.4702L153.899 62.391C154.185 62.5473 154.354 62.8469 154.354 63.1726Z" fill="#F9FBFC"/>
</g>
<path d="M160.864 60.8276V62.1173C160.864 62.8077 160.108 63.2507 159.51 62.8989L139.188 51.2392C138.902 51.0829 138.733 50.7833 138.733 50.4576V49.1679C138.733 48.4774 139.488 48.0345 140.087 48.3862L160.408 60.0459C160.694 60.2022 160.864 60.5019 160.864 60.8276Z" fill="#F9FBFC"/>
<path d="M188.839 85.9714C188.722 85.9193 188.592 85.8542 188.462 85.7891C188.592 85.8542 188.709 85.9063 188.839 85.9714Z" fill="#94C3FF"/>
<path d="M190.232 71.3413C190.31 71.3804 190.389 71.4456 190.48 71.5237C190.506 71.5498 190.545 71.5889 190.571 71.6149C191.118 72.3314 190.493 73.9859 189.816 73.5951C189.79 73.5821 189.764 73.5691 189.738 73.543C189.712 73.517 189.686 73.5039 189.673 73.4779C189.647 73.4518 189.634 73.4258 189.607 73.3997C189.451 73.2043 189.399 72.9568 189.386 72.7223C189.36 72.1491 189.581 71.6019 189.594 71.5758C189.594 71.5498 189.725 71.0417 190.245 71.3413H190.232Z" fill="#E6F4FF"/>
<path d="M189.608 73.4124C189.608 73.4124 189.647 73.4646 189.673 73.4906C189.855 74.6631 190.05 76.018 190.232 77.1253C190.232 77.1253 189.243 78.3629 187.98 78.1415C187.759 78.0894 187.538 78.5062 187.525 78.5193L187.082 77.4901C187.082 77.4901 186.119 76.3827 185.989 75.3275V75.0279L185.949 74.3635C187.525 74.624 189.295 74.3504 189.569 73.5167C189.569 73.4776 189.595 73.4385 189.608 73.3994V73.4124Z" fill="#E6F4FF"/>
<path d="M190.219 77.1251L190.74 77.5159C190.766 77.6201 190.987 78.4409 190.844 79.0401C190.74 79.6915 189.36 80.9422 189.061 80.7598C189.061 80.7598 189.061 80.7598 189.048 80.7598C188.787 80.5253 188.293 79.2616 188.267 79.1834C188.097 79.1704 187.902 79.0792 187.707 78.962C187.264 78.7014 186.861 78.3366 186.848 78.3106L185.767 78.493C185.624 77.8937 185.663 76.604 185.663 76.5388L185.819 75.1709L185.975 75.0928C185.975 75.1709 185.976 75.2491 185.989 75.3403C186.119 76.3955 187.043 77.4508 187.082 77.5029L187.525 78.5321C187.525 78.5321 187.746 78.1021 187.98 78.1543C189.243 78.3627 190.18 77.1902 190.219 77.1251Z" fill="#AEC4E1"/>
<path d="M198.46 79.2093C198.447 85.4495 194.411 88.2895 189.191 86.127C192.758 87.5991 195.752 86.7393 197.314 84.0686C195.986 81.6976 192.888 79.1312 190.753 77.5288L190.245 77.1379C190.063 76.0176 189.868 74.6757 189.686 73.5032C189.712 73.5293 189.725 73.5423 189.751 73.5684C189.777 73.5814 189.803 73.6075 189.829 73.6205C190.493 74.0113 191.118 72.3438 190.584 71.6403C191 70.8847 191.339 69.8294 191.013 69.0087C190.506 67.7581 189.712 67.1067 189.673 67.0806C189.673 67.0806 189.555 66.8201 188.501 64.918C187.915 63.8758 187.017 62.9509 186.106 62.4298C185.364 61.9999 184.609 61.8305 184.023 62.078C182.734 62.6252 183.684 65.2568 183.736 65.387C183.684 65.6606 182.604 70.9238 183.528 73.1254C183.684 73.412 183.945 73.6465 184.283 73.8419C184.739 74.1025 185.338 74.2849 185.962 74.3891L185.988 75.0535C184.296 74.4803 182.161 73.8419 180.99 73.7768C179.636 74.1286 179.597 75.0014 179.531 76.3302C181.315 79.7695 183.88 82.857 186.77 84.8112C181.25 81.0983 176.941 73.2687 176.954 66.794C176.967 59.9545 181.81 57.2057 187.746 60.632C193.682 64.0582 198.486 72.3959 198.473 79.2223L198.46 79.2093Z" fill="#C7D8F2"/>
<path d="M186.08 62.4176C186.991 62.9387 187.889 63.8637 188.475 64.9059C189.529 66.8079 189.647 67.0554 189.647 67.0685C189.686 67.1076 190.48 67.7459 190.987 68.9966C191.313 69.8173 190.987 70.8725 190.558 71.6281C190.532 71.589 190.506 71.563 190.467 71.5369C190.376 71.4588 190.297 71.3936 190.219 71.3545C189.712 71.0549 189.581 71.563 189.568 71.589C189.568 71.6151 189.334 72.1623 189.36 72.7355L189.217 72.501C189.204 72.3968 188.892 70.4426 188.944 69.3743C188.892 68.7621 188.11 67.4723 187.043 66.6646C186.952 66.5995 186.874 66.5474 186.796 66.5083C186.418 66.2868 186.158 66.3129 185.806 66.2868C185.468 66.2608 185.038 66.1956 184.322 65.7787C184.127 65.6745 183.919 65.5312 183.684 65.3749C183.632 65.2316 182.682 62.613 183.971 62.0659C184.556 61.8183 185.299 61.9877 186.054 62.4176H186.08Z" fill="#4B5CC0"/>
<path d="M187.746 58.9648C181.003 55.0696 175.535 58.1962 175.509 65.9476C175.483 73.686 180.924 83.118 187.668 87.0133C194.398 90.9085 199.879 87.7819 199.905 80.0305C199.931 72.279 194.489 62.8471 187.746 58.9648ZM189.373 86.1925C189.373 86.1925 189.36 86.1925 189.347 86.1925C189.295 86.1665 189.243 86.1534 189.191 86.1274C189.191 86.1274 189.191 86.1274 189.204 86.1274C189.074 86.0753 188.957 86.0232 188.826 85.971C188.709 85.9189 188.579 85.8538 188.423 85.7756C188.371 85.7496 188.319 85.7235 188.241 85.6844C188.189 85.6584 188.123 85.6193 188.032 85.5672C187.98 85.5411 187.941 85.5151 187.837 85.463C187.785 85.4239 187.72 85.3978 187.668 85.3587C187.616 85.3327 187.564 85.3066 187.486 85.2545C187.447 85.2285 187.407 85.2154 187.329 85.1633C187.29 85.1373 187.264 85.1243 187.186 85.0721C187.147 85.0461 187.121 85.0331 187.043 84.981C187.004 84.9549 186.965 84.9288 186.9 84.8898C186.848 84.8637 186.809 84.8246 186.757 84.7986C186.678 84.7465 186.6 84.6943 186.522 84.6422C186.522 84.6422 186.496 84.6292 186.483 84.6162C186.418 84.5641 186.353 84.525 186.288 84.4729C186.262 84.4598 186.236 84.4338 186.21 84.4077C186.158 84.3687 186.106 84.3296 186.054 84.2905C185.988 84.2384 185.923 84.1863 185.858 84.1342C185.845 84.1342 185.832 84.1081 185.819 84.1081C180.768 80.1738 176.928 72.8783 176.941 66.7684C176.954 59.9289 181.797 57.1801 187.733 60.6063C193.669 64.0326 198.473 72.3702 197.301 79.1967V79.34C198.447 79.353 198.447 79.3661 198.603 79.3791V79.4833C198.447 79.5094 198.447 79.5224 198.447 79.5484C198.447 79.5745 198.447 79.6006 198.447 79.6266C198.447 79.6527 198.447 79.6657 198.447 79.6917C198.447 79.7178 198.447 79.7439 198.447 79.7699C198.447 79.7829 198.447 79.809 198.447 79.822C198.447 79.8481 198.447 79.8741 198.447 79.9002C198.447 79.9132 198.447 79.9393 198.447 79.9523C198.447 79.9784 198.447 80.0044 198.447 80.0435C198.447 80.0695 198.447 80.0826 198.447 80.1086C198.447 80.1347 198.447 80.1607 198.447 80.1868C198.447 80.2129 198.447 80.2259 198.447 80.2519C198.447 80.278 198.447 80.304 198.447 80.3301C198.447 80.3562 198.447 80.3822 198.447 80.3952C198.447 80.4213 198.447 80.4343 198.447 80.4604C198.447 80.4864 198.447 80.4995 198.447 80.5255C198.447 80.5516 198.447 80.5776 198.447 80.5906C198.447 80.6167 198.447 80.6297 198.447 80.6558C198.447 80.6818 198.447 80.7079 198.447 80.734C198.447 80.76 198.447 80.773 198.447 80.7991C198.447 80.8251 198.447 80.8512 198.447 80.8773C198.447 80.8903 198.447 80.9163 198.447 80.9294C198.447 80.9554 198.447 80.9815 198.447 81.0075C198.447 81.0336 198.447 81.0466 198.447 81.0727C198.447 81.0987 198.447 81.1248 198.447 81.1378C198.447 81.1639 198.447 81.1769 198.447 81.2029C198.447 81.229 198.447 81.2551 198.447 81.2681C198.447 81.2941 198.447 81.3072 198.447 81.3332C198.447 81.3593 198.447 81.3853 198.447 81.3984C198.447 81.4244 198.447 81.4374 198.447 81.4635C198.447 81.4896 198.447 81.5026 198.434 81.5286C198.434 81.5417 198.434 81.5677 198.434 81.5807C198.434 81.6068 198.434 81.6329 198.421 81.6459C198.421 81.6589 198.421 81.685 198.421 81.698C198.421 81.7241 198.421 81.7501 198.408 81.7631C198.408 81.7762 198.408 81.8022 198.408 81.8152C198.408 81.8413 198.408 81.8674 198.395 81.8804C198.395 81.8934 198.395 81.9195 198.395 81.9325C198.395 81.9585 198.395 81.9716 198.382 81.9976C198.382 82.0107 198.382 82.0367 198.382 82.0497C198.382 82.0758 198.382 82.1019 198.369 82.1149C198.369 82.1279 198.369 82.1409 198.369 82.167C198.369 82.193 198.356 82.2191 198.343 82.2452C198.343 82.2582 198.343 82.2712 198.343 82.2842C198.343 82.3103 198.33 82.3363 198.317 82.3624C198.317 82.3754 198.317 82.3885 198.317 82.4015C198.317 82.4275 198.304 82.4536 198.291 82.4797C198.291 82.4927 198.291 82.5057 198.278 82.5187C198.278 82.5448 198.265 82.5708 198.252 82.5969C198.252 82.5969 198.252 82.623 198.252 82.636C198.252 82.662 198.239 82.6881 198.226 82.7141C198.226 82.7141 198.226 82.7402 198.226 82.7532C198.226 82.7793 198.213 82.8053 198.2 82.8314C198.2 82.8314 198.2 82.8575 198.2 82.8705C198.2 82.8965 198.186 82.9226 198.173 82.9486C198.173 82.9486 198.173 82.9617 198.173 82.9747C198.173 83.0008 198.147 83.0268 198.147 83.0529V83.0789C198.147 83.0789 198.121 83.131 198.108 83.1701C198.108 83.1701 198.108 83.1831 198.108 83.1962C198.108 83.2222 198.082 83.2613 198.069 83.2874C198.069 83.2874 198.069 83.2874 198.069 83.3004C198.056 83.3264 198.043 83.3655 198.03 83.3916C198.017 83.4176 198.004 83.4567 197.991 83.4828C197.978 83.5219 197.965 83.5479 197.939 83.587C196.494 86.5703 193.422 87.6256 189.738 86.1795M189.985 86.2707C190.076 86.3098 190.18 86.3358 190.271 86.3749C190.18 86.3488 190.076 86.3098 189.985 86.2707ZM190.337 86.3879C190.337 86.3879 190.389 86.401 190.415 86.414C190.389 86.414 190.363 86.401 190.337 86.3879ZM189.842 86.2055C189.842 86.2055 189.894 86.2316 189.933 86.2446C189.907 86.2446 189.881 86.2186 189.842 86.2055ZM190.558 86.4531C190.558 86.4531 190.519 86.4531 190.493 86.44C190.519 86.44 190.532 86.44 190.558 86.4531ZM190.857 86.5312C190.857 86.5312 190.87 86.5312 190.883 86.5312C190.883 86.5312 190.87 86.5312 190.857 86.5312ZM189.673 86.1274C189.673 86.1274 189.712 86.1404 189.725 86.1534C189.725 86.1534 189.738 86.1534 189.751 86.1534C189.764 86.1534 189.79 86.1665 189.803 86.1795C189.764 86.1665 189.712 86.1404 189.673 86.1274Z" fill="#E6F4FF"/>
<path d="M188.996 86.0363C188.996 86.0363 188.892 85.9838 188.839 85.9707C188.892 85.9969 188.944 86.0232 188.996 86.0363Z" fill="#94C3FF"/>
<path d="M189.035 86.0488C189.035 86.0488 189.139 86.0882 189.192 86.1144C189.139 86.0882 189.087 86.0751 189.035 86.0488Z" fill="#94C3FF"/>
<path d="M186.835 66.5074C186.913 66.5465 186.991 66.5986 187.082 66.6638C188.149 67.4715 188.931 68.7612 188.983 69.3735C188.931 70.4287 189.243 72.3959 189.256 72.5001L189.399 72.7346C189.399 72.9821 189.477 73.2166 189.62 73.4121C189.607 73.4511 189.594 73.4902 189.581 73.5293C189.308 74.35 187.538 74.6366 185.962 74.3761C185.338 74.2719 184.752 74.0895 184.283 73.8289C183.945 73.6335 183.684 73.399 183.528 73.1124C182.604 70.9108 183.684 65.6476 183.736 65.374C183.971 65.5434 184.179 65.6737 184.374 65.7779C185.09 66.1948 185.52 66.2599 185.858 66.286C186.21 66.312 186.457 66.286 186.848 66.5074H186.835Z" fill="#E6F4FF"/>
<path d="M190.753 77.5166C192.888 79.119 195.986 81.6854 197.314 84.0564C195.7 86.8183 192.563 87.6521 188.839 85.9715C188.709 85.9064 188.579 85.8543 188.462 85.7891C188.384 85.75 188.332 85.724 188.28 85.6979C188.189 85.6458 188.136 85.6198 188.071 85.5937C187.993 85.5546 187.941 85.5286 187.889 85.5025C187.876 85.5025 187.863 85.4895 187.837 85.4765C187.785 85.4374 187.72 85.4113 187.655 85.3722C187.603 85.3462 187.551 85.3201 187.512 85.281C187.433 85.242 187.407 85.2159 187.368 85.1898C187.355 85.1898 187.342 85.1768 187.316 85.1638C187.277 85.1377 187.251 85.1247 187.212 85.0987C187.199 85.0987 187.186 85.0856 187.173 85.0726C187.134 85.0465 187.108 85.0335 187.069 85.0075C186.991 84.9553 186.952 84.9293 186.913 84.9032C186.848 84.8642 186.796 84.8251 186.757 84.799C183.853 82.8449 181.302 79.7573 179.518 76.3311C179.571 74.9892 179.61 74.1164 180.976 73.7646C182.148 73.8428 184.27 74.4812 185.975 75.0414V75.341C185.975 75.2628 185.975 75.1716 185.975 75.0935L185.819 75.1716L185.663 76.5395C185.663 76.6047 185.624 77.8944 185.767 78.4937L186.848 78.3113C186.848 78.3113 187.264 78.7021 187.707 78.9627C187.902 79.0669 188.097 79.1581 188.267 79.1841C188.293 79.2493 188.787 80.5129 189.048 80.7605C189.36 80.9429 190.74 79.7052 190.844 79.0538C190.987 78.4546 190.766 77.6469 190.74 77.5426L190.753 77.5166Z" fill="#4B5CC0"/>
<path d="M141.336 110.841L141.375 123.999L123.111 134.551L123.072 121.393L141.336 110.841Z" fill="#CBDCEB"/>
<path d="M125.832 54.5359L127.251 53.4416L129.099 49.5854C129.099 49.5854 130.102 49.1686 130.362 49.0774C130.622 48.9862 132.536 49.4161 132.536 49.4161C132.536 49.4161 133.46 48.3218 133.708 48.1524C133.955 47.983 134.97 46.8887 135.387 47.1493C135.804 47.3968 135.725 47.8267 135.465 48.1524C135.218 48.4911 134.372 49.3249 134.372 49.3249L133.447 51.5917L133.525 52.4255C133.525 52.4255 134.033 52.4255 134.202 52.9335C134.372 53.4416 134.372 53.9367 133.786 54.106C133.2 54.2754 132.692 54.5229 132.692 54.5229C132.692 54.5229 131.521 55.3567 130.844 55.6172C130.167 55.8647 129.425 56.0341 129.425 56.0341L129.008 57.0372L125.819 54.5229L125.832 54.5359Z" fill="#FF9554"/>
<path d="M134.215 52.9336C134.215 52.9336 134.202 52.9076 134.189 52.8945C133.838 52.8945 133.434 52.9336 133.2 53.0378C132.731 53.2332 132.054 54.1843 131.794 54.3797C131.521 54.5751 129.906 55.3177 129.177 54.6533C128.631 54.1582 127.446 53.8846 126.847 53.7674L125.858 54.523L129.047 57.0373L129.464 56.0342C129.464 56.0342 130.219 55.8648 130.883 55.6173C131.56 55.3698 132.731 54.523 132.731 54.523C132.731 54.523 133.239 54.2755 133.825 54.1061C134.411 53.9367 134.411 53.4287 134.241 52.9336H134.215Z" fill="#FF8161"/>
<path d="M124.256 55.1739L126.04 53.7148C126.04 53.7148 129.034 54.3662 129.359 56.8805L127.901 58.4178L124.256 55.1739Z" fill="#F9FBFC"/>
<path d="M114.584 63.1212L124.308 54.1191C124.308 54.1191 128.683 54.3667 129.177 58.0144L119.453 69.2051C119.453 69.2051 114.584 68.228 114.584 63.1212Z" fill="#575973"/>
<path d="M133.682 113.446L134.307 116.052C134.307 116.052 135.114 119.465 135.023 119.908C134.931 120.351 134.58 120.273 134.58 120.273C134.58 120.273 133.33 121.172 132.692 121.172C132.054 121.172 130.544 121.354 130.089 120.989C129.646 120.624 129.464 119.556 129.373 119.022C129.282 118.488 129.815 118.214 129.815 118.214C129.815 118.214 129.724 117.589 129.906 116.69C130.089 115.791 130.271 115.348 130.271 115.348L130.18 114.449L133.682 113.459V113.446Z" fill="#FF9554"/>
<path d="M134.931 120.129C134.775 120.182 134.593 120.129 134.424 120.09C134.176 120.051 133.434 120.651 132.965 120.624C132.497 120.598 131.82 120.963 131.442 120.664C131.065 120.377 130.883 120.077 131.078 119.673C131.273 119.27 131.052 118.957 130.922 118.709C130.791 118.462 130.831 117.537 130.987 117.185C131.143 116.82 131.586 116.091 132.393 115.687C132.952 115.413 133.538 114.632 133.851 114.176L133.668 113.446L130.167 114.436L130.258 115.335C130.258 115.335 130.075 115.778 129.893 116.677C129.711 117.576 129.802 118.201 129.802 118.201C129.802 118.201 129.268 118.475 129.359 119.009C129.451 119.543 129.633 120.624 130.075 120.976C130.518 121.341 132.041 121.159 132.679 121.159C133.317 121.159 134.567 120.26 134.567 120.26C134.567 120.26 134.788 120.312 134.918 120.116L134.931 120.129Z" fill="#FF8161"/>
<path d="M128.617 113.12L129.359 115.009C129.359 115.009 130.505 115.543 131.846 115.218C133.187 114.892 134.137 113.602 134.137 113.602L133.603 112.117L128.63 113.12H128.617Z" fill="#F9FBFC"/>
<path d="M96.2152 158.301L95.9158 162.366C95.8637 163.017 96.2282 163.629 96.8401 163.877C97.3999 164.111 98.194 164.281 99.2615 164.124C101.592 163.76 102.672 162.509 103.024 161.792C103.388 161.076 108.049 157.845 107.502 156.23C106.604 154.614 104.989 156.23 103.375 156.23C101.761 156.23 98.3502 155.422 96.2022 158.288L96.2152 158.301Z" fill="#171E26"/>
<path d="M97.2828 95.9642C97.2828 95.9642 96.2023 123.413 96.749 132.025C96.749 132.025 94.601 153.559 95.6685 158.666C95.6685 158.666 99.4308 161.363 102.659 159.2C103.466 158.927 103.466 157.858 103.466 157.858C103.466 157.858 105.614 137.679 106.161 131.49C106.695 125.302 111.004 106.738 110.197 102.699C109.39 98.6609 104.287 93.0069 97.2958 95.9772L97.2828 95.9642Z" fill="#171E26"/>
<path d="M114.636 164.045C114.636 164.045 113.152 168.618 114.232 169.699C115.313 170.781 116.654 171.041 117.643 170.729C118.633 170.416 119.57 169.96 119.57 169.96L119.882 169.022L120.247 169.647C120.247 169.647 120.781 169.556 121.497 169.152C122.213 168.748 124.269 167.941 125.129 167.407C125.975 166.872 127.498 165.921 127.641 164.762C127.732 163.589 123.566 163.993 122.447 164.045C121.327 164.085 120.611 163.642 120.208 163.642C119.804 163.642 115.456 164.176 115.456 164.176" fill="#171E26"/>
<path d="M121.444 95.4556C121.444 95.4556 122.564 99.5593 122.564 107.806C122.564 116.052 121.848 136.87 121.848 136.87C121.848 136.87 121.483 158.04 121.132 163.421C121.132 163.421 118.62 166.651 114.324 164.137C112.176 161.623 112.892 159.825 112.892 159.825C112.892 159.825 110.028 146.915 111.095 135.073C111.095 135.073 107.151 111.037 106.435 108.158C105.719 105.291 93.2081 104.041 98.1029 90.0361L121.444 95.4426V95.4556Z" fill="#1F2F3F"/>
<path d="M123.944 69.0092C124.022 67.2245 123.163 65.5309 121.679 64.5278C118.398 62.3391 113.933 59.5642 111.043 58.027C107.45 56.125 103.74 54.1317 101.748 53.9493C96.2153 53.4282 92.8827 58.5872 93.4034 65.3615C93.7158 69.4782 94.8224 74.064 96.3064 78.7669C96.9443 80.7732 97.3739 84.3297 97.5301 87.5996C97.5041 89.176 97.3609 90.9607 96.9313 92.0029C96.0331 94.1525 95.1348 102.764 95.1348 102.764C95.1348 102.764 101.227 109.043 109.116 109.577C117.005 110.111 120.052 108.496 120.052 108.496L120.585 104.913L121.666 108.144C121.666 108.144 123.098 107.61 123.28 106.177C123.436 104.887 122.004 93.8138 121.718 91.6512C122.173 87.1827 123.072 80.6038 123.358 77.6075C123.618 74.8586 123.827 71.706 123.944 69.0092Z" fill="#63687A"/>
<path d="M118.125 52.23C118.685 50.4973 118.867 43.4885 118.164 41.0393C117.266 37.9126 114.232 35.1769 109.663 35.3983C105.276 35.6198 102.06 37.5479 100.993 40.8178C100.355 42.7589 100.498 46.1461 101.67 48.5953C102.464 50.2498 104.261 51.7219 106.226 52.7641C107.606 53.5588 111.499 55.3566 113.412 55.9168C115.651 56.5682 117.305 54.7313 118.112 52.23H118.125Z" fill="#FF9554"/>
<path d="M105.25 51.018C107.45 50.1321 112.475 51.0961 114.232 52.5292C114.232 52.5292 112.501 59.512 112.475 59.512C109.273 59.6813 104.716 58.092 103.623 56.7762L105.25 51.018Z" fill="#FF9554"/>
<path d="M114.232 47.7358C113.321 46.4982 111.486 46.9411 111.486 48.9213C111.486 51.2272 113.048 52.53 114.232 52.53C114.232 51.0448 114.298 49.5076 114.232 47.7358Z" fill="#FF9554"/>
<path d="M104.287 54.6136C104.287 54.6136 106.89 56.8544 113.074 57.7533L114.245 59.8116C114.245 59.8116 111.642 60.6193 108.596 60.2546C105.549 59.8898 103.037 57.4797 102.763 56.9325L102.49 56.3984L104.287 54.6006V54.6136Z" fill="#F9FBFC"/>
<path d="M121.679 64.5404C121.679 64.5404 121.874 64.6576 122.186 64.8921C123.098 65.5695 124.985 67.2371 125.792 69.7644C126.873 73.1777 129.021 89.5012 129.021 89.5012L134.397 111.922C134.397 111.922 133.499 114.436 129.919 114.254C128.019 114.254 127.407 112.638 127.407 112.638C127.407 112.638 122.746 95.5982 122.03 92.5497C121.314 89.5012 119.335 78.9098 118.45 75.1448C117.552 71.3799 117.747 65.5826 121.679 64.5273V64.5404Z" fill="#63687A"/>
<path d="M99.4438 42.4069C99.4438 42.4069 98.858 36.9744 103.831 34.6945C108.804 32.4017 115.3 33.9259 117.864 37.4303C119.609 40.3876 117.187 42.8107 116.654 43.892C116.12 44.9733 116.654 47.1229 116.12 47.9306C115.586 48.7383 116.25 49.9498 116.25 49.9498L115.313 50.7576C115.313 50.7576 114.376 49.0119 113.829 48.608C113.295 48.2041 111.629 49.6893 111.993 51.1223C112.358 52.5554 113.699 53.3631 113.699 53.3631C113.699 53.3631 113.165 53.7278 112.618 54.0796C112.084 54.4444 111.004 54.7049 109.299 54.7049C107.593 54.7049 105.263 53.8972 104.365 53.3631C103.466 52.8289 100.785 50.8487 99.7041 48.5168C98.6236 46.1849 98.3633 43.9441 99.4308 42.4199L99.4438 42.4069Z" fill="#673E29"/>
<g opacity="0.41">
<path d="M194.88 101.852C196.221 102.633 197.314 104.509 197.314 106.06L197.249 130.187C197.249 131.737 196.143 132.362 194.802 131.581L138.55 99.0376C137.209 98.256 136.116 96.38 136.129 94.8297L136.194 70.7026C136.194 69.1523 137.288 68.54 138.628 69.3087L194.88 101.852Z" fill="#C7D8F2"/>
</g>
<path d="M146.543 83.092V83.9258C146.543 84.4208 146.01 84.7204 145.593 84.4729L141.662 82.2061C141.466 82.0889 141.336 81.8804 141.336 81.6589V80.8252C141.336 80.3301 141.87 80.0305 142.287 80.278L146.218 82.5448C146.413 82.6621 146.543 82.8705 146.543 83.092Z" fill="#F9FBFC"/>
<path d="M160.863 95.5856V96.5105C160.863 97.0577 160.278 97.3964 159.809 97.1228L141.688 86.7268C141.466 86.5965 141.336 86.362 141.336 86.1145V85.1895C141.336 84.6424 141.922 84.3037 142.391 84.5772L160.512 94.9733C160.733 95.1035 160.863 95.338 160.863 95.5856Z" fill="#F9FBFC"/>
<g opacity="0.53">
<path d="M153.053 100.353V101.252C153.053 101.773 152.48 102.112 152.024 101.851L141.675 95.9109C141.466 95.7936 141.336 95.5592 141.336 95.3116V94.4127C141.336 93.8916 141.909 93.5529 142.365 93.8135L152.714 99.754C152.922 99.8713 153.053 100.106 153.053 100.353Z" fill="#F9FBFC"/>
</g>
<path d="M158.26 98.5816V99.5196C158.26 100.067 157.661 100.418 157.192 100.145L141.701 91.2601C141.479 91.1298 141.336 90.8953 141.336 90.6347V89.6968C141.336 89.1496 141.935 88.7979 142.404 89.0714L157.895 97.9563C158.117 98.0865 158.26 98.321 158.26 98.5816Z" fill="#F9FBFC"/>
<path d="M180.117 101.056C180.963 102.242 181.302 103.714 181.211 105.16C181.211 105.199 181.211 105.225 181.211 105.264C181.224 105.264 181.133 105.902 180.989 106.723C181.107 106.619 181.263 106.554 181.432 106.645C181.51 106.684 181.588 106.762 181.666 106.892C182.096 107.622 181.237 109.133 180.911 108.964C180.781 108.886 180.677 108.768 180.586 108.625C180.469 109.107 180.325 109.524 180.195 109.811C180.104 109.928 179.935 110.019 179.727 110.084C179.805 110.918 180 111.947 180.469 112.729C181.12 113.797 182.682 115.243 183.827 116.52C183.814 116.533 183.788 116.546 183.762 116.559C183.71 116.585 183.671 116.611 183.619 116.637C183.567 116.663 183.515 116.689 183.476 116.715C183.424 116.741 183.372 116.767 183.333 116.793C183.281 116.82 183.228 116.846 183.176 116.859C183.124 116.885 183.072 116.898 183.02 116.924C182.955 116.95 182.903 116.963 182.864 116.976C182.799 116.989 182.76 117.015 182.708 117.028C182.486 117.093 182.265 117.132 182.044 117.158C182.005 117.158 181.966 117.158 181.927 117.158C181.901 117.158 181.875 117.158 181.849 117.158C181.822 117.158 181.796 117.158 181.77 117.158C181.731 117.158 181.705 117.158 181.666 117.158C181.64 117.158 181.614 117.158 181.601 117.158C181.562 117.158 181.523 117.158 181.484 117.158C181.458 117.158 181.432 117.158 181.419 117.158C181.38 117.158 181.341 117.158 181.302 117.158C181.276 117.158 181.263 117.158 181.237 117.158C181.198 117.158 181.159 117.158 181.106 117.158C181.08 117.158 181.067 117.158 181.041 117.158C181.002 117.158 180.95 117.158 180.911 117.158C180.885 117.158 180.872 117.158 180.846 117.158C180.807 117.158 180.755 117.158 180.716 117.145C180.69 117.145 180.677 117.145 180.651 117.145C180.612 117.145 180.56 117.145 180.521 117.119C180.495 117.119 180.482 117.119 180.456 117.119C180.417 117.119 180.364 117.106 180.325 117.093C180.299 117.093 180.273 117.093 180.26 117.08C180.221 117.08 180.169 117.067 180.13 117.054C180.104 117.054 180.078 117.054 180.065 117.041C180.026 117.041 179.974 117.015 179.935 117.002C179.909 117.002 179.883 117.002 179.857 116.989C179.818 116.989 179.766 116.963 179.727 116.95C179.701 116.95 179.675 116.937 179.648 116.924C179.609 116.911 179.557 116.898 179.518 116.885C179.492 116.885 179.466 116.872 179.44 116.859C179.401 116.846 179.349 116.833 179.31 116.806C179.284 116.806 179.258 116.793 179.232 116.78C179.193 116.767 179.141 116.741 179.102 116.728C179.076 116.728 179.05 116.715 179.024 116.702C178.972 116.689 178.932 116.663 178.88 116.65C178.854 116.65 178.828 116.624 178.802 116.624C178.763 116.611 178.711 116.585 178.672 116.559C178.646 116.559 178.62 116.533 178.594 116.52C178.542 116.494 178.503 116.481 178.451 116.455C178.425 116.455 178.399 116.429 178.373 116.416C178.321 116.39 178.282 116.364 178.229 116.351C178.203 116.337 178.177 116.324 178.151 116.311C178.099 116.285 178.047 116.259 178.008 116.233C177.982 116.233 177.956 116.207 177.943 116.194C177.865 116.155 177.8 116.116 177.722 116.064C177.644 116.025 177.579 115.973 177.5 115.934C177.474 115.921 177.448 115.908 177.422 115.882C177.37 115.855 177.331 115.816 177.279 115.79C177.253 115.777 177.227 115.751 177.188 115.738C177.149 115.712 177.097 115.686 177.058 115.647C177.032 115.634 177.006 115.608 176.967 115.582C176.928 115.556 176.876 115.517 176.837 115.491C176.811 115.465 176.771 115.452 176.745 115.426C176.706 115.399 176.654 115.36 176.615 115.334C176.589 115.308 176.563 115.295 176.524 115.269C176.485 115.243 176.433 115.204 176.394 115.178C176.368 115.152 176.342 115.139 176.303 115.113C176.264 115.074 176.212 115.048 176.173 115.009C176.147 114.983 176.121 114.957 176.081 114.944C176.042 114.904 176.003 114.878 175.951 114.839C175.925 114.813 175.886 114.787 175.86 114.761C175.821 114.722 175.782 114.696 175.743 114.657C175.717 114.631 175.678 114.605 175.652 114.579C175.613 114.54 175.574 114.514 175.535 114.475C175.509 114.448 175.47 114.422 175.444 114.396C175.405 114.357 175.365 114.331 175.339 114.292C175.313 114.266 175.274 114.227 175.248 114.201C175.222 114.175 175.183 114.136 175.157 114.11C175.118 114.071 175.079 114.045 175.053 114.006C175.027 113.979 175.001 113.953 174.975 113.927C174.936 113.888 174.897 113.849 174.845 113.797C174.832 113.784 174.819 113.771 174.806 113.758C173.543 112.481 172.41 110.944 171.525 109.303C172.658 109.381 174.077 109.667 174.689 109.381C175.131 109.159 175.339 108.43 175.431 107.726C175.144 107.335 174.923 106.971 174.806 106.697C174.676 106.254 174.545 105.681 174.415 105.069C174.324 105.095 174.207 105.095 174.09 105.017C173.764 104.808 172.905 102.307 173.348 102.085C173.426 102.046 173.504 102.059 173.582 102.098C173.751 102.19 173.907 102.45 174.038 102.685C173.894 101.694 173.803 100.991 173.803 100.965C173.803 100.861 173.803 100.73 173.803 100.626C173.803 97.3172 177.097 96.7831 180.117 101.043V101.056Z" fill="#9B97F8"/>
<path d="M178.23 96.9398C182.838 99.5974 186.561 106.059 186.548 111.348C186.548 113.876 185.689 115.686 184.296 116.598C183.15 115.322 181.588 113.863 180.937 112.807C180.469 112.026 180.273 110.997 180.195 110.163C180.417 110.098 180.586 110.006 180.664 109.889C180.807 109.603 180.937 109.186 181.054 108.704C181.146 108.834 181.25 108.964 181.38 109.042C181.705 109.225 182.565 107.701 182.135 106.971C182.057 106.841 181.979 106.763 181.901 106.723C181.731 106.632 181.575 106.697 181.458 106.802C181.601 105.981 181.692 105.382 181.692 105.356C181.692 105.238 181.692 105.121 181.692 105.017C181.692 102.659 180.039 99.7928 177.995 98.6073C175.951 97.4218 174.285 98.3728 174.272 100.731C174.272 100.848 174.272 100.965 174.272 101.083C174.272 101.083 174.35 101.812 174.493 102.802C174.376 102.568 174.207 102.307 174.038 102.216C173.96 102.177 173.881 102.164 173.803 102.203C173.374 102.424 174.22 104.926 174.545 105.134C174.663 105.199 174.78 105.212 174.871 105.186C174.988 105.799 175.118 106.385 175.261 106.815C175.366 107.101 175.6 107.453 175.886 107.844C175.795 108.547 175.587 109.277 175.144 109.498C174.519 109.798 173.1 109.498 171.981 109.42C170.653 106.945 169.833 104.222 169.846 101.747C169.859 96.4447 173.608 94.3082 178.217 96.9789L178.23 96.9398Z" fill="#DEDFFF"/>
<path d="M77.5733 55.5838C74.5921 53.8512 70.4654 54.0987 65.909 56.7303C56.8614 61.9543 49.5583 74.6172 49.5843 85.0262C49.5973 90.1982 51.4199 93.8329 54.362 95.5525L57.955 97.6369C55.0129 95.9303 53.1903 92.2826 53.1773 87.1106C53.1513 76.7016 60.4544 64.0388 69.5021 58.8017C74.0584 56.1701 78.1852 55.9226 81.1663 57.6552L77.5733 55.5708V55.5838Z" fill="#86E563"/>
<path d="M69.502 58.8144C60.4544 64.0385 53.1382 76.7143 53.1773 87.1234C53.2033 97.5324 60.5586 101.727 69.6062 96.5033C78.6538 91.2792 85.97 78.5903 85.9439 68.1943C85.9179 57.7852 78.5496 53.5904 69.502 58.8274V58.8144Z" fill="#2AB774"/>
<path d="M77.4692 66.748L80.177 68.2853L68.1873 89.0643L62.4723 85.8074L65.154 81.1566L68.1612 82.8762L77.4692 66.748Z" fill="white"/>
</g>
<defs>
<clipPath id="clip0_166_158">
<rect width="173.545" height="99.9446" fill="white" transform="translate(25.6471 193.056)"/>
</clipPath>
<clipPath id="clip1_166_158">
<rect width="75.2314" height="51.2536" fill="white" transform="translate(141.914)"/>
</clipPath>
<clipPath id="clip2_166_158">
<rect width="218" height="162.303" fill="white" transform="translate(0 106.778)"/>
</clipPath>
<clipPath id="clip3_166_158">
<rect width="111.569" height="71.9609" fill="white" transform="translate(53.4634 131.548)"/>
</clipPath>
<clipPath id="clip4_166_158">
<rect width="168.416" height="151.198" fill="white" transform="translate(49.5844 19.6475)"/>
</clipPath>
</defs>
</svg>
