<svg width="219" height="265" viewBox="0 0 219 265" fill="none" xmlns="http://www.w3.org/2000/svg">
<g clip-path="url(#clip0_166_159)">
<path d="M187.297 201.505C199.34 208.505 199.405 219.867 187.441 226.867L131.261 259.741C119.297 266.741 99.8334 266.741 87.778 259.741L31.2314 226.867C19.1891 219.867 19.1237 208.505 31.0874 201.505L87.2675 168.63C99.2313 161.631 118.695 161.631 130.751 168.63L187.297 201.505Z" fill="#FF644E" fill-opacity="0.8"/>
<path d="M187.297 184.818C199.34 191.817 199.405 203.18 187.441 210.179L131.261 243.054C119.297 250.053 99.8334 250.053 87.778 243.054L31.2314 210.179C19.1891 203.18 19.1237 191.817 31.0874 184.818L87.2675 151.943C99.2313 144.944 118.695 144.944 130.751 151.943L187.297 184.818Z" stroke="white" stroke-miterlimit="10"/>
<path d="M207.795 180.309L137.295 221.567C122.282 230.359 97.8569 230.359 82.7385 221.567L11.7805 180.309C4.17553 175.88 0.366489 170.08 0.392668 164.28L0.366489 172.492C0.353399 178.292 4.14935 184.092 11.7543 188.521L82.7124 229.779C97.8307 238.571 122.256 238.571 137.269 229.779L207.769 188.521C215.23 184.158 218.961 178.437 218.987 172.716L219.013 164.504C219 170.225 215.256 175.946 207.795 180.309Z" fill="#A6D0F4"/>
<path d="M207.154 148.502C222.272 157.294 222.351 171.53 207.337 180.323L136.864 221.568C121.85 230.36 97.4381 230.36 82.3198 221.568L11.3879 180.309C-3.73043 171.517 -3.80897 157.281 11.2047 148.489L81.6784 107.257C96.692 98.4651 121.104 98.4651 136.222 107.257L207.154 148.502Z" fill="white"/>
<g clip-path="url(#clip1_166_159)">
<path d="M135.738 241.062C136.314 241.392 137.021 241.405 137.596 241.062L140.398 239.428C141.628 238.716 141.628 236.923 140.398 236.198C139.822 235.869 139.115 235.856 138.539 236.198L135.738 237.833C134.507 238.545 134.507 240.337 135.738 241.062Z" fill="white"/>
<path d="M144.573 235.934C145.149 236.264 145.856 236.277 146.432 235.934L182.65 214.87C183.881 214.158 183.881 212.366 182.65 211.641C182.075 211.311 181.368 211.298 180.792 211.641L144.573 232.705C143.343 233.417 143.343 235.209 144.573 235.934Z" fill="white"/>
</g>
</g>
<path d="M95.3765 183.719C123.751 197.519 151.188 199.587 156.658 188.339C162.128 177.091 143.561 156.786 115.186 142.986C86.812 129.187 59.3753 127.118 53.905 138.366C48.4346 149.614 67.002 169.92 95.3765 183.719Z" fill="#CBDCEB"/>
<g clip-path="url(#clip2_166_159)">
<path d="M152 51.1696L151.644 176.351L80.8572 135.181L81.2129 10L152 51.1696Z" fill="#FFFAF5"/>
<path d="M140.143 55.8279L144.095 54.3945V181.527L140.143 183V55.8279Z" fill="#BDC5CB"/>
<path d="M69.3557 14.021L71.8457 12.5479L143.779 54.3943L141.289 55.8277L69.3557 14.021Z" fill="#FAACAC"/>
<path d="M140.143 56.5046L139.787 181.686L69 140.476L69.3557 15.335L140.143 56.5046Z" fill="#FFF3E5"/>
<path d="M84.8096 40.7773V42.6487L128.286 67.9716V66.0604L84.8096 40.7773Z" fill="#787676"/>
<path d="M104.572 59.0928V60.9243L128.286 74.7404V72.9089L104.572 59.0928Z" fill="#787676"/>
<path d="M88.762 85.8887V87.76L128.286 110.734V108.862L88.762 85.8887Z" fill="#787676"/>
<path d="M104.572 86.7246V88.5163L128.286 102.332V100.501L104.572 86.7246Z" fill="#787676"/>
<path d="M96.6667 75.2178V77.1688L128.286 95.5637V93.6127L96.6667 75.2178Z" fill="#787676"/>
<path d="M116.429 74.2627V76.2535L128.286 83.1416V81.1907L116.429 74.2627Z" fill="#787676"/>
<path d="M114.927 115.87C108.247 111.969 101.923 112.964 99.3148 119.096C96.0343 126.74 99.7495 139.641 107.615 148.559L109.433 144.299C104.097 138.048 101.607 129.169 103.9 123.913C105.757 119.613 110.184 118.896 114.887 121.644C116.033 122.321 117.18 123.197 118.326 124.272L120.144 120.011C118.405 118.339 116.626 116.985 114.887 115.95L114.927 115.87Z" fill="#787676"/>
<path d="M120.183 119.892L118.365 124.152C118.642 124.431 118.958 124.709 119.235 124.988C125.282 131.279 128.246 140.914 125.835 146.568C125.756 146.767 125.638 146.966 125.559 147.165C125.559 147.245 125.48 147.285 125.44 147.365C123.701 150.47 120.341 151.227 116.626 149.714C116.033 149.475 115.44 149.196 114.848 148.838C114.69 148.758 114.531 148.639 114.373 148.559C114.097 148.36 113.86 148.241 113.662 148.081L113.543 148.002C113.069 147.643 112.595 147.285 112.12 146.887C112.081 146.847 112.002 146.767 111.923 146.728C111.765 146.568 111.567 146.409 111.409 146.25C111.33 146.21 111.29 146.13 111.211 146.051C110.974 145.852 110.737 145.613 110.54 145.374C110.184 144.976 109.828 144.617 109.472 144.219L107.654 148.479C108.01 148.878 108.366 149.276 108.721 149.634C109.038 149.953 109.354 150.311 109.71 150.59C109.789 150.669 109.907 150.749 109.986 150.868C110.223 151.107 110.5 151.346 110.737 151.545C110.816 151.625 110.895 151.704 110.974 151.784C111.646 152.381 112.318 152.899 112.99 153.377C113.03 153.417 113.109 153.456 113.148 153.496C113.464 153.735 113.78 153.934 114.057 154.133L114.176 154.213C114.373 154.332 114.61 154.492 114.808 154.611C115.322 154.89 115.796 155.168 116.31 155.407C116.666 155.567 117.021 155.726 117.377 155.885C123.069 158.155 128.128 156.721 130.42 151.386C133.819 143.383 129.63 129.686 121.053 120.768C120.776 120.489 120.5 120.17 120.183 119.931V119.892Z" fill="#E9A697"/>
<path d="M80.8572 121.046V121.962C80.8572 122.519 80.3038 122.838 79.8296 122.559L75.4819 120.051C75.2843 119.931 75.1262 119.692 76.9048 119.454V118.538C75.1262 117.98 75.7191 117.662 76.1934 117.941L80.541 120.449C80.7386 120.568 80.8967 120.807 80.8967 121.046H80.8572Z" fill="#E9A697"/>
<path d="M96.6667 133.628V134.584C96.6667 135.141 96.0738 135.5 95.5995 135.221L77.2605 124.63C77.0234 124.511 76.9048 124.272 76.9048 123.993V123.037C76.9048 122.48 77.4976 122.122 77.9719 122.4L96.311 132.991C96.5481 133.111 96.6667 133.35 96.6667 133.628Z" fill="#E9A697"/>
<g opacity="0.53">
<path d="M88.7619 138.406V139.321C88.7619 139.839 88.1691 140.197 87.7343 139.919L77.2605 133.867C77.0629 133.747 76.9048 133.508 76.9048 133.269V132.354C76.9048 131.836 77.4976 131.478 77.9324 131.756L88.4062 137.808C88.6038 137.928 88.7619 138.167 88.7619 138.406Z" fill="#E9A697"/>
</g>
<path d="M92.7143 136.296V137.172C92.7143 137.69 92.161 138.008 91.7262 137.769L77.2605 129.408C77.0629 129.289 76.9443 129.05 76.9443 128.811V127.935C76.9443 127.417 77.4977 127.099 77.9324 127.338L92.3981 135.699C92.5958 135.818 92.7143 136.057 92.7143 136.296Z" fill="#E9A697"/>
</g>
<defs>
<clipPath id="clip0_166_159">
<rect width="219" height="164.334" fill="white" transform="translate(0 100.666)"/>
</clipPath>
<clipPath id="clip1_166_159">
<rect width="48.7583" height="29.9221" fill="white" transform="translate(134.822 211.391)"/>
</clipPath>
<clipPath id="clip2_166_159">
<rect width="83" height="173" fill="white" transform="translate(69 10)"/>
</clipPath>
</defs>
</svg>
