<svg width="60" height="60" viewBox="0 0 60 60" fill="none" xmlns="http://www.w3.org/2000/svg">
<circle cx="30" cy="30" r="29.3878" fill="#1972F5" stroke="white" stroke-width="1.22449"/>
<path d="M16.0101 40.8709C16.0112 41.0522 16.1365 41.2094 16.3129 41.2514L23.4226 42.932L27.3035 49.3999C27.375 49.5186 27.5031 49.5908 27.6409 49.5908C27.6475 49.5908 27.6538 49.5908 27.6607 49.5905C27.8055 49.5832 27.935 49.4967 27.9968 49.3655L31.2055 42.5633L47.9027 41.1282C48.1051 41.1108 48.261 40.9421 48.2624 40.739L48.3947 20.247C48.3947 20.2463 48.394 20.2453 48.394 20.2453L48.3947 20.1658C48.3947 20.1658 48.394 20.1644 48.394 20.1634L48.3947 20.0846L48.394 20.0818L48.3947 20.0033L48.394 20.0006L48.3947 19.9218L48.394 19.919L48.3947 19.8405C48.3947 19.8395 48.394 19.8388 48.394 19.8388L48.3947 19.7593C48.3947 19.7593 48.394 19.7576 48.394 19.7565L48.3947 19.6781L48.394 19.6753L48.3947 19.5965L48.394 19.594L48.3947 19.5152C48.3947 19.5152 48.394 19.5135 48.394 19.5125L48.3947 19.434C48.3947 19.433 48.394 19.4319 48.394 19.4319L48.3947 19.3524L48.394 19.3496L48.3947 19.2712L48.394 19.2684L48.3947 19.1896C48.3947 19.1886 48.394 19.1879 48.394 19.1879L48.3947 19.1084C48.3947 19.1084 48.394 19.1063 48.394 19.1056L48.3947 19.0268L48.394 19.024L48.3947 18.9456L48.394 18.9428L48.3947 18.864C48.3947 18.864 48.394 18.8622 48.394 18.8615L48.3947 18.7827C48.3947 18.7817 48.394 18.781 48.394 18.781L48.3947 18.7015C48.3947 18.7015 48.394 18.6998 48.394 18.6987L48.3947 18.6203L48.394 18.6175L48.3947 18.539C48.3954 18.4338 48.354 18.3332 48.2801 18.2585C48.2062 18.1842 48.1058 18.1426 48.001 18.1426H16.2708C16.166 18.1426 16.0657 18.1842 15.9917 18.2585C15.9178 18.3332 15.8765 18.4338 15.8775 18.539L15.8779 18.6175L15.8775 18.6203L15.8779 18.6987C15.8779 18.6998 15.8775 18.7008 15.8775 18.7008L15.8779 18.7803C15.8779 18.7803 15.8775 18.782 15.8775 18.7831L15.8779 18.8619C15.8779 18.8626 15.8775 18.8633 15.8775 18.8633L15.8779 18.9428L15.8775 18.9456L15.8779 19.024L15.8775 19.0268L15.8779 19.1056C15.8779 19.1066 15.8775 19.1073 15.8775 19.1073L15.8779 19.1868C15.8779 19.1868 15.8775 19.1886 15.8775 19.1896L15.8779 19.2684L15.8775 19.2712L15.8779 19.3496L15.8775 19.3524L15.8779 19.4312C15.8779 19.4312 15.8775 19.433 15.8775 19.434L15.8779 19.5125C15.8779 19.5135 15.8775 19.5142 15.8775 19.5142L15.8779 19.5937L15.8775 19.5961L15.8779 19.6749L15.8775 19.6777L15.8779 19.7565C15.8779 19.7572 15.8775 19.7579 15.8775 19.7579L15.8779 19.8374C15.8779 19.8374 15.8775 19.8391 15.8775 19.8402L15.8779 19.9186C15.8779 19.9197 15.8775 19.9207 15.8775 19.9207L15.8779 20.0002L15.8775 20.003L15.8779 20.0818L15.8775 20.0842L15.8779 20.163C15.8779 20.1641 15.8775 20.1648 15.8775 20.1648L15.8779 20.2443C15.8779 20.2443 15.8775 20.2463 15.8775 20.247L16.0101 40.8709Z" fill="#003B92"/>
<path d="M14.7952 37.8518L21.7657 39.4994C21.8685 39.5237 21.9577 39.589 22.0122 39.6799L25.5997 45.6586L28.5905 39.3178C28.6502 39.1908 28.7727 39.1057 28.9126 39.0936L45.4779 37.6699L45.605 17.9326H14.6671L14.7952 37.8518Z" fill="white"/>
<path d="M14.2708 17.1465C14.166 17.1465 14.0657 17.1881 13.9917 17.2624C13.9178 17.3371 13.8765 17.4377 13.8775 17.5429L14.0101 38.1668C14.0112 38.348 14.1365 38.5057 14.3129 38.5473L21.4226 40.2279L25.3035 46.6961C25.375 46.8149 25.5031 46.8871 25.6409 46.8871C25.6475 46.8871 25.6538 46.8871 25.6607 46.8867C25.8055 46.8794 25.935 46.7926 25.9968 46.6618L29.2055 39.8592L45.9027 38.4241C46.1051 38.4067 46.261 38.2384 46.2624 38.0349L46.3947 17.5433C46.3954 17.4381 46.354 17.3374 46.2801 17.2628C46.2062 17.1885 46.1058 17.1468 46.001 17.1468H14.2708V17.1465ZM45.4778 37.6707L28.9125 39.0944C28.773 39.1062 28.6501 39.1913 28.5904 39.3187L25.5996 45.6595L22.0121 39.6808C21.9576 39.5898 21.8684 39.5249 21.7656 39.5003L14.7951 37.8527L14.667 17.9335H45.6049L45.4778 37.6707Z" fill="black"/>
</svg>
