<svg width="123" height="101" viewBox="0 0 123 101" fill="none" xmlns="http://www.w3.org/2000/svg">
<g clip-path="url(#clip0_136_473)">
<path d="M48.4288 86.4516L40.1491 90.0943C35.6375 92.2212 28.6473 91.6145 24.5392 88.7394L5.25605 75.2562C3.18676 73.8174 2.2497 72.0621 2.39258 70.416L2.19016 72.748C2.04728 74.3942 2.98567 76.1341 5.0384 77.5869L24.3215 91.0701C28.4297 93.9452 35.4199 94.5519 39.9315 92.425L48.2111 88.7823C50.4504 87.7328 51.658 86.1944 51.8148 84.5649L52.0172 82.2329C51.8756 83.8637 50.6694 85.3869 48.4288 86.4516Z" fill="#A6D0F4"/>
<path d="M48.9114 77.3567C53.0195 80.2317 52.698 84.2888 48.1699 86.4296L39.875 90.0709C35.3482 92.1965 28.358 91.5898 24.2346 88.7133L4.92366 75.1971C0.81554 72.322 1.137 68.265 5.66515 66.1242L13.9601 62.4828C18.4869 60.3572 25.4771 60.964 29.6004 63.8404L48.9114 77.3567Z" fill="white"/>
<path d="M81.3571 60.6391L73.0775 64.2818C68.5659 66.4087 61.5757 65.802 57.4675 62.9269L38.1844 49.4437C36.1151 48.0049 35.178 46.2496 35.3209 44.6035L35.1185 46.9355C34.9756 48.5817 35.914 50.3216 37.9668 51.7744L57.2499 65.2576C61.358 68.1327 68.3482 68.7394 72.8598 66.6125L81.1395 62.9698C83.3787 61.9203 84.5863 60.3819 84.7431 58.7524L84.9456 56.4204C84.804 58.0513 83.5977 59.5744 81.3571 60.6391Z" fill="#A6D0F4"/>
<path d="M81.8397 51.5442C85.9479 54.4193 85.6264 58.4763 81.0982 60.6171L72.8033 64.2584C68.2765 66.384 61.2863 65.7773 57.163 62.9008L37.852 49.3846C33.7439 46.5095 34.0653 42.4525 38.5935 40.3117L46.8884 36.6703C51.4152 34.5447 58.4054 35.1515 62.5288 38.0279L81.8397 51.5442Z" fill="white"/>
<path d="M117.551 32.56L109.271 36.2027C104.76 38.3296 97.7696 37.7229 93.6615 34.8478L74.3784 21.3646C72.3091 19.9258 71.372 18.1705 71.5149 16.5244L71.3125 18.8564C71.1696 20.5026 72.108 22.2425 74.1607 23.6953L93.4439 37.1785C97.552 40.0536 104.542 40.6603 109.054 38.5334L117.333 34.8907C119.573 33.8412 120.78 32.3028 120.937 30.6733L121.14 28.3413C120.998 29.9721 119.792 31.4953 117.551 32.56Z" fill="#A6D0F4"/>
<path d="M117.775 23.4426C121.883 26.3177 121.561 30.3747 117.033 32.5155L108.738 36.1569C104.212 38.2824 97.2214 37.6757 93.098 34.7993L73.7871 21.283C69.6789 18.4079 70.0004 14.3509 74.5286 12.2101L82.8235 8.56876C87.3503 6.44318 94.3405 7.04992 98.4638 9.92634L117.775 23.4426Z" fill="white"/>
</g>
<defs>
<clipPath id="clip0_136_473">
<rect width="115" height="91" fill="white" transform="translate(8.1499 0.198242) rotate(4.96079)"/>
</clipPath>
</defs>
</svg>
