<svg width="153" height="48" viewBox="0 0 153 48" fill="none" xmlns="http://www.w3.org/2000/svg">
<path d="M105.324 39.4588L113.271 43.7424C117.588 46.216 124.616 46.216 128.964 43.7424L149.374 32.1436C151.563 30.9068 152.65 29.2627 152.65 27.6338V29.9415C152.65 31.5704 151.563 33.1994 149.389 34.4513L128.98 46.0501C124.631 48.5237 117.604 48.5237 113.286 46.0501L105.34 41.7665C103.196 40.5448 102.124 38.9309 102.109 37.317V35.0094C102.109 36.6232 103.181 38.222 105.324 39.4588Z" fill="#A6D0F4"/>
<path d="M105.279 30.4842C100.93 32.9578 100.9 36.9698 105.233 39.4585L113.194 43.7421C117.527 46.2157 124.555 46.2157 128.919 43.7421L149.359 32.1131C153.707 29.6395 153.738 25.6275 149.405 23.1388L141.443 18.8552C137.11 16.3816 130.082 16.3816 125.719 18.8552L105.279 30.4842Z" fill="white"/>
<path d="M3.2306 22.4432L11.177 26.7268C15.4946 29.2004 22.5223 29.2004 26.8706 26.7268L47.2801 15.128C49.4695 13.8912 50.5566 12.2471 50.5566 10.6182V12.9259C50.5566 14.5548 49.4695 16.1838 47.2954 17.4357L26.8859 29.0345C22.5377 31.5081 15.5099 31.5081 11.1923 29.0345L3.24591 24.7509C1.08707 23.5292 0 21.9153 0 20.3165V18.0088C0 19.6227 1.07176 21.2215 3.21529 22.4583L3.2306 22.4432Z" fill="#A6D0F4"/>
<path d="M3.68989 13.4842C-0.658409 15.9578 -0.689031 19.9698 3.64395 22.4585L11.6056 26.7421C15.9386 29.2157 22.9663 29.2157 27.3299 26.7421L47.77 15.1131C52.1183 12.6395 52.1489 8.62745 47.8159 6.13876L39.8542 1.8552C35.5213 -0.618401 28.4936 -0.618401 24.1299 1.8552L3.68989 13.4842Z" fill="white"/>
<path d="M54.2153 29.4432L62.1616 33.7268C66.4793 36.2004 73.507 36.2004 77.8553 33.7268L98.2648 22.128C100.454 20.8912 101.541 19.2471 101.541 17.6182V19.9259C101.541 21.5548 100.454 23.1838 98.2801 24.4357L77.8706 36.0345C73.5223 38.5081 66.4946 38.5081 62.177 36.0345L54.2306 31.7509C52.0871 30.5292 51.0153 28.9153 51 27.3014V24.9937C51 26.6076 52.0718 28.2064 54.2153 29.4432Z" fill="#A6D0F4"/>
<path d="M54.6746 20.4842C50.3263 22.9578 50.2957 26.9698 54.6287 29.4585L62.5904 33.7421C66.9234 36.2157 73.9511 36.2157 78.3147 33.7421L98.7547 22.1131C103.103 19.6395 103.134 15.6274 98.8007 13.1388L90.839 8.8552C86.506 6.3816 79.4783 6.3816 75.1147 8.8552L54.6746 20.4842Z" fill="white"/>
</svg>
