<svg width="334" height="256" viewBox="0 0 334 256" fill="none" xmlns="http://www.w3.org/2000/svg">
<path d="M189.463 5.94434C193.369 7.28033 196.997 9.31222 200.169 11.9403C202.658 14.0829 204.886 16.5366 207.323 18.9384L208.072 16.1737H208.437C212.407 22.3363 214.241 29.6171 213.66 36.909L216.375 35.0256C216.375 37.4274 216.549 39.7256 216.375 41.9373C215.983 46.722 215.09 51.4532 213.712 56.0546C211.543 63.2701 207.997 70.0046 203.267 75.8913C199.899 80.1388 195.902 83.8557 191.413 86.9156C187.437 89.493 182.949 91.1903 178.253 91.8921C174.492 92.531 170.684 92.8661 166.869 92.8943C159.745 92.8038 152.715 91.2752 146.206 88.4016C142.486 86.8945 138.976 84.9201 135.761 82.5266C130.421 78.388 126.322 72.8789 123.907 66.595C121.844 61.316 120.634 55.7468 120.321 50.0932C120.044 46.13 120.143 42.1498 120.617 38.205C120.636 37.8769 120.636 37.5481 120.617 37.2201C120.513 37.2201 120.426 37.2201 120.373 37.2201L118.633 38.1013C118.481 37.5381 118.41 36.9563 118.424 36.3734C119.172 32.2609 120.721 28.5804 124.534 26.2822C125.23 25.8675 125.108 25.3145 125.056 24.6752C124.581 20.6914 124.954 16.6529 126.153 12.8215C126.561 11.2543 127.55 9.8972 128.92 9.02007C129.303 8.84144 129.699 8.69128 130.104 8.5708C130.452 10.869 130.4 13.1326 131.845 14.9469C131.919 15.8269 132.424 16.6148 133.194 17.0559C133.965 17.497 134.905 17.5354 135.709 17.1587C135.907 17.095 136.111 17.0545 136.319 17.0377C139.226 16.8131 142.133 16.6403 145.022 16.3465C145.735 16.2795 146.41 15.9959 146.954 15.5344C148.526 14.0021 150.459 12.8852 152.577 12.2859C154.039 11.923 155.571 11.7848 157.086 11.5429L157.19 11.9748C156.563 12.4759 155.728 12.8561 155.362 13.5127C154.216 15.4521 153.204 17.467 152.333 19.5432C151.51 21.4036 152.268 23.5798 154.074 24.537C156.852 26.4911 160.101 27.6831 163.491 27.9928C164.414 28.0792 164.588 28.5112 164.397 29.3406C163.873 30.8153 162.819 32.0461 161.437 32.7965C159.975 33.8678 158.321 34.6973 156.72 35.6476C158.19 37.6344 158.769 40.1349 158.321 42.5594C158.165 43.5961 157.904 43.8381 156.807 43.5616C154.843 43.0629 152.84 42.7334 150.819 42.5767C149.078 42.4557 148.208 43.4234 148.504 44.6847C149.217 49.1176 152.49 52.7192 156.859 53.8774C158.953 54.6247 161.27 54.4356 163.213 53.359C165.071 52.3067 167.096 51.5763 169.201 51.1991C172.562 50.7598 175.776 52.7113 176.913 55.8818C173.175 56.5406 169.774 58.4418 167.269 61.273C166.018 62.6817 164.302 63.6008 162.43 63.8649C160.323 64.245 158.182 64.3487 155.989 64.5906C159.784 67.8078 164.239 70.1664 169.044 71.5024C172.843 72.554 176.898 72.1914 180.446 70.4829C184.192 68.4884 187.23 65.4002 189.15 61.6358C189.829 60.409 190.438 59.1476 191.082 57.9035H191.465L192.04 63.3983C192.818 62.2069 193.527 60.9723 194.163 59.7005C195.638 55.7861 196.232 51.5987 195.904 47.4322C195.904 45.7042 195.73 44.0973 195.643 42.2484C197.784 42.8704 198.237 44.6847 199.124 46.3609C201.666 40.3476 200.117 34.6454 198.48 28.9605L198.759 28.684L202.031 29.9454C201.295 25.3843 198.797 21.2874 195.069 18.5237C192.029 16.3841 188.652 14.7608 185.077 13.7201C184.711 13.5991 184.433 13.1844 184.102 12.9079C184.433 12.5796 184.694 12.0958 185.094 11.9748C186.01 11.7285 186.94 11.538 187.879 11.4046C186.33 8.10426 183.023 7.94875 180.342 6.63551C181.627 6.28109 182.945 6.05533 184.276 5.96162C185.964 6.03073 187.723 6.01345 189.463 5.94434Z" fill="#C75305"/>
<path d="M189.463 5.94453C187.723 5.94453 185.982 5.94453 184.241 6.15188C182.91 6.2456 181.592 6.47136 180.307 6.82578C182.97 8.13901 186.295 8.29453 187.844 11.5949C186.905 11.7283 185.975 11.9187 185.059 12.1651C184.676 12.3033 184.398 12.7872 184.067 13.0982C184.38 13.3747 184.659 13.7894 185.042 13.9103C188.617 14.951 191.994 16.5744 195.034 18.714C198.762 21.4777 201.26 25.5746 201.997 30.1357L198.724 28.8743L198.445 29.1507C200.082 34.8529 201.631 40.5378 199.09 46.5511C198.219 44.8231 197.767 43.0952 195.608 42.4386C195.695 44.1665 195.817 45.8945 195.869 47.6224C196.197 51.7889 195.603 55.9763 194.128 59.8908C193.492 61.1625 192.783 62.3971 192.005 63.5885L191.43 58.0937H191.047C190.403 59.3378 189.794 60.5992 189.115 61.826C187.195 65.5904 184.157 68.6786 180.411 70.6731C176.863 72.3816 172.808 72.7441 169.01 71.6926C164.204 70.3566 159.749 67.998 155.954 64.7808C158.147 64.5389 160.288 64.4352 162.395 64.0551C164.267 63.791 165.984 62.8719 167.234 61.4632C169.739 58.632 173.14 56.7309 176.878 56.072C175.741 52.9015 172.527 50.9501 169.166 51.3893C167.061 51.7665 165.036 52.4969 163.178 53.5492C161.235 54.6258 158.918 54.8149 156.824 54.0676C152.455 52.9094 149.182 49.3078 148.469 44.875C148.173 43.6136 149.078 42.6459 150.784 42.7669C152.805 42.9236 154.808 43.2531 156.772 43.7518C157.869 44.011 158.13 43.7518 158.287 42.7496C158.734 40.3251 158.155 37.8246 156.685 35.8379C158.287 34.8875 159.94 34.1099 161.403 32.9868C162.784 32.2363 163.838 31.0056 164.362 29.5309C164.553 28.7188 164.362 28.2868 163.457 28.1831C160.066 27.8734 156.817 26.6813 154.039 24.7272C152.233 23.77 151.475 21.5938 152.298 19.7335C153.169 17.6572 154.181 15.6424 155.327 13.703C155.693 13.0636 156.528 12.6662 157.155 12.1651L157.051 11.7331C155.554 11.975 154.022 12.1133 152.542 12.4761C150.424 13.0755 148.491 14.1924 146.92 15.7247C146.375 16.1862 145.7 16.4698 144.987 16.5368C142.098 16.8305 139.191 17.0033 136.284 17.228C136.077 17.2447 135.872 17.2853 135.674 17.3489C134.87 17.7257 133.93 17.6873 133.159 17.2462C132.389 16.805 131.885 16.0172 131.81 15.1372C135.847 11.2398 140.491 8.01329 145.562 5.58167C150.744 3.06017 156.338 1.48009 162.081 0.916233C171.503 0.00525296 180.993 1.74794 189.463 5.94453Z" fill="#044DA0"/>
<path d="M103.07 179.498H132.872V179.705L118.737 184.578C119.485 185.943 120.164 187.274 120.93 188.552C125.504 196.314 130.864 203.592 136.928 210.273C145.234 219.641 155.244 227.373 166.433 233.064C167.072 233.43 167.849 233.468 168.522 233.168C173.144 231.262 177.438 228.65 181.247 225.427C184.728 222.524 188.21 219.517 191.413 216.303C197.844 209.862 203.818 202.985 209.29 195.723C212.232 191.801 215.139 187.861 217.994 183.939C218.087 183.762 218.163 183.577 218.22 183.386L206.662 179.74V179.533H231.676C230.127 182.885 228.734 186.341 226.976 189.589C224.086 195.076 220.738 200.313 216.967 205.244C213.938 209.132 210.979 213.089 207.602 216.649C203.434 221.029 199.048 225.198 194.459 229.142C190.247 232.77 185.755 236.054 181.229 239.319C177.4 241.998 173.292 244.296 169.288 246.749C168.236 247.605 166.744 247.676 165.615 246.922C162.725 245.039 159.662 243.466 156.789 241.514C153.517 239.319 150.279 237.038 147.181 234.602C143.699 231.837 140.096 229.055 136.858 225.962C131.798 221.327 127.09 216.325 122.775 210.998C119.834 207.214 116.857 203.43 114.072 199.49C110.274 194.009 106.932 188.231 104.08 182.211C103.854 181.226 103.401 180.345 103.07 179.498Z" fill="#044DA0"/>
<path d="M204.364 117.69H204.243L202.972 117.483H202.85H202.728L201.457 117.275H201.336H201.214L199.943 117.068H199.821H199.717L198.446 116.861H198.324H198.22L196.949 116.653H196.827H196.723L195.452 116.446H195.33H195.226L193.955 116.239H193.833H193.729L192.458 116.031H192.179H192.075L190.804 115.824H190.682H190.578L189.29 115.617H189.168H189.063L188.054 115.167H229.257C229.733 115.128 230.205 115.047 230.667 114.925V107.201V105.232C230.768 104.8 230.832 104.361 230.859 103.918C230.859 100.687 230.702 97.4732 230.684 94.242C230.684 88.1596 230.684 82.1464 230.684 75.9776C230.639 75.5088 230.545 75.0456 230.406 74.5953C230.344 74.6151 230.277 74.6151 230.214 74.5953C229.779 74.5001 229.337 74.4366 228.892 74.4052H219.283C218.847 74.4052 218.412 74.4052 218.012 74.4052L217.681 70.9493V69.9644C217.681 68.7894 217.855 67.6144 217.873 66.5085C217.873 64.003 217.873 61.4975 217.873 58.8538C218.639 58.8538 219.265 58.8538 219.874 58.8538C221.058 58.8538 222.242 58.681 223.356 58.5946C224.47 58.5082 225.584 58.3527 226.698 58.1972L251.347 54.7413C252.792 54.5339 254.254 54.292 255.699 54.0674C255.748 54.2487 255.783 54.4336 255.803 54.6203C255.682 63.3464 255.682 72.0898 255.386 80.8159C255.107 89.1618 254.585 97.4905 254.028 105.836C253.645 112.383 252.772 118.892 251.417 125.31L249.432 125.76L247.953 125.518L246.473 125.276L244.993 125.034L243.514 124.792L242.034 124.55L240.554 124.308L239.075 124.066L237.595 123.824L236.116 123.582L234.636 123.34L233.156 123.099H232.895L231.642 122.874H231.381L230.145 122.649H229.884L228.648 122.425H228.387L227.133 122.2H226.872L225.619 121.975H225.358L224.104 121.751H223.843L222.59 121.526H222.346L221.093 121.301H220.849L219.596 121.077H219.352L218.099 120.852H217.855L216.602 120.628H216.48H216.358L215.105 120.403H214.861L213.608 120.178H213.364L212.111 119.954H211.989H211.867L210.596 119.729H210.474H210.353L209.099 119.504H208.977H208.856L207.602 119.28H207.48H207.359L206.088 119.072H205.966H205.844L204.364 117.69Z" fill="#044DA0"/>
<path d="M111.13 120.886H110.869L109.616 121.111H109.355L108.101 121.336H107.858L106.604 121.56H106.343L105.09 121.785H104.829L103.575 122.01H103.401L102.148 122.234H101.887L100.407 122.476L98.9275 122.718L97.4479 122.96L95.9683 123.202L94.4886 123.444L93.009 123.686L91.5294 123.928L90.0498 124.17L88.5701 124.411L87.0905 124.653L85.6109 124.895L83.6264 124.411C83.4748 123.842 83.3528 123.265 83.2609 122.684C82.3383 114.942 81.2242 107.132 80.5453 99.4428C79.936 92.531 79.6923 85.6192 79.5183 78.6211C79.3094 70.5516 79.3268 62.4649 79.2397 54.43C79.2397 54.0671 79.2397 53.7042 79.2397 53.2031C82.4427 53.7215 85.5412 54.2572 88.6398 54.7237C93.5312 55.4667 98.4227 56.1925 103.314 56.8491C106.065 57.2292 108.85 57.4711 111.618 57.7649L117.171 58.1796C117.171 61.4799 117.171 64.6939 117.171 67.9079C117.202 68.3497 117.266 68.7886 117.362 69.2211V70.206L117.014 73.6619H106.152C105.707 73.6933 105.264 73.7568 104.829 73.852C104.767 73.8731 104.699 73.8731 104.637 73.852C104.5 74.2142 104.407 74.5912 104.359 74.9751C104.266 84.3291 104.185 93.6772 104.115 103.02C104.143 103.502 104.207 103.981 104.306 104.454V106.424C104.306 108.739 104.167 111.054 104.115 113.335C104.154 113.606 104.236 113.868 104.359 114.113C104.821 114.235 105.292 114.316 105.769 114.355H147.007L145.945 114.804H145.841H145.719L144.431 115.011H144.326H144.204L142.933 115.219H142.829H142.707L141.436 115.426H141.332H141.21L139.939 115.634H139.835H139.713L138.425 115.841H138.321H138.199L136.928 116.048H136.823H136.475L135.205 116.256H135.1H134.978L133.708 116.463H133.586H133.464L132.193 116.67H132.071H131.949L130.679 116.878H130.557H130.435L129.164 117.102H129.042H128.921L127.65 117.31H127.528H127.406L126.153 117.534H126.031H125.909L124.638 117.759H124.516H124.395L123.124 117.984H123.002H122.88L121.627 118.208H121.383L120.13 118.433H119.886L118.633 118.657H118.511H118.389L117.136 118.882H116.892L115.639 119.107H115.395L114.142 119.331H113.898L112.645 119.556H112.401L111.13 120.886Z" fill="#044DA0"/>
<path d="M103.07 179.497C103.47 180.361 103.853 181.225 104.254 182.072C107.106 188.091 110.448 193.87 114.246 199.351C116.979 203.291 119.955 207.075 122.949 210.859C127.264 216.186 131.971 221.188 137.032 225.823C140.27 228.916 143.821 231.698 147.354 234.463C150.453 236.882 153.691 239.18 156.963 241.375C159.836 243.293 162.882 244.83 165.789 246.783C166.917 247.536 168.41 247.466 169.462 246.61C173.466 244.174 177.574 241.876 181.403 239.18C185.964 235.983 190.438 232.631 194.633 229.003C199.221 225.059 203.608 220.889 207.776 216.51C211.153 212.95 214.129 208.993 217.141 205.105C220.912 200.173 224.26 194.937 227.15 189.45C228.891 186.202 230.283 182.746 231.85 179.393C231.899 179.369 231.957 179.369 232.007 179.393C233.591 179.393 235.175 179.393 236.759 179.497C237.178 179.568 237.588 179.69 237.977 179.86C233.792 188.952 228.702 197.606 222.781 205.693C219.038 210.876 214.982 215.715 210.874 220.536C208.03 223.835 205.015 226.984 201.84 229.97C195.898 235.761 189.436 241.001 182.535 245.625C177.957 248.615 173.152 251.224 168.47 254.04C167.889 254.42 167.136 254.42 166.555 254.04C159.63 250.232 152.981 245.948 146.658 241.219C139.083 235.497 132.018 229.138 125.543 222.212C120.516 216.89 115.863 211.232 111.617 205.278C106.775 198.542 102.479 191.435 98.7704 184.024C98.0741 182.607 97.5344 181.104 96.9252 179.635L102.913 179.411C102.978 179.409 103.038 179.442 103.07 179.497Z" fill="#C75305"/>
<path d="M111.373 57.9897C108.605 57.6959 105.82 57.4367 103.069 57.0739C98.1778 56.4172 93.2863 55.6915 88.3949 54.9485C85.2964 54.4819 82.1978 53.9463 78.9949 53.4279C78.9949 53.929 78.9949 54.2919 78.9949 54.6547C78.9949 62.7415 78.9949 70.8282 79.2734 78.8459C79.4649 85.7576 79.7086 92.6694 80.3004 99.6675C80.9793 107.426 82.0412 115.219 83.016 122.908C83.1079 123.49 83.2299 124.067 83.3815 124.636V125.587C82.3545 125.759 81.3449 125.949 80.3178 126.088C79.5867 126.191 79.0123 126.26 78.8382 125.189C78.2638 121.509 77.4282 117.863 76.9408 114.182C76.3141 109.396 75.879 104.592 75.4438 99.7885C75.1827 96.9028 74.9912 94.0172 74.939 91.1488C74.6488 76.6111 74.3935 62.0734 74.173 47.5356C74.1673 47.432 74.1673 47.3282 74.173 47.2246C88.0989 51.6136 102.704 52.0801 117.204 53.5834C117.204 55.0522 117.204 56.5036 117.204 57.9378L111.373 57.9897Z" fill="#C75305"/>
<path d="M251.556 124.671C252.912 118.253 253.785 111.744 254.167 105.197C254.707 96.8683 255.229 88.5223 255.525 80.1764C255.821 71.4503 255.821 62.7069 255.943 53.9808C255.923 53.7941 255.888 53.6092 255.838 53.4279C254.376 53.6525 252.931 53.8944 251.487 54.1018L226.838 57.5577C225.724 57.7132 224.61 57.8342 223.495 57.9551H217.734V53.6007C232.199 52.0974 246.734 51.6309 260.782 47.2246C260.782 47.4492 260.782 47.7948 260.782 48.1404C260.782 58.3353 260.782 68.5301 260.504 78.7249C260.364 84.9282 259.929 91.1315 259.546 97.3175C259.268 101.81 259.041 106.32 258.484 110.778C257.875 115.616 256.865 120.386 256.117 125.206C255.943 126.278 255.368 126.226 254.637 126.105C253.61 125.949 252.601 125.777 251.574 125.604C251.574 125.293 251.568 124.982 251.556 124.671Z" fill="#C75305"/>
<path d="M136.057 201.737V192.458C136.875 192.458 137.797 191.922 138.319 192.959C140.245 191.857 142.661 192.086 144.342 193.529C145.5 192.52 147.054 192.082 148.572 192.337C150.292 192.336 151.702 193.689 151.758 195.395C151.88 197.486 151.758 199.611 151.758 201.754H149.669C149.669 200.026 149.669 198.488 149.669 196.881C149.669 195.274 148.903 194.099 147.528 194.082C146.153 194.065 145.056 195.17 145.004 196.916C144.952 198.661 145.004 200.061 145.004 201.719H142.828C142.828 200.078 142.828 198.471 142.828 196.864C142.828 195.257 142.079 194.099 140.687 194.082C139.294 194.065 138.232 195.188 138.198 196.933C138.163 198.678 138.198 200.078 138.198 201.719L136.057 201.737Z" fill="white"/>
<path d="M198.445 201.961L196.374 201.477C196.2 201.453 196.025 201.453 195.851 201.477C194.7 201.66 193.536 201.747 192.37 201.736C190.988 201.581 189.945 200.421 189.945 199.041C189.945 197.661 190.988 196.5 192.37 196.345C193.606 196.224 194.842 196.345 196.078 196.345C196.182 194.859 195.59 194.081 194.337 194.064C193.591 194.008 192.844 194.157 192.178 194.496C190.89 195.325 190.438 194.634 190.194 193.615C192.136 192.048 194.839 191.802 197.035 192.993C197.725 193.566 198.177 194.372 198.306 195.256C198.567 197.399 198.445 199.559 198.445 201.961ZM196.252 197.641C195.231 197.658 194.213 197.751 193.205 197.917C192.721 198.091 192.356 198.493 192.231 198.989C192.328 199.485 192.64 199.915 193.084 200.164C193.868 200.502 194.777 200.379 195.442 199.846C196.108 199.312 196.42 198.456 196.252 197.624V197.641Z" fill="white"/>
<path d="M154.021 197.106C154.178 194.457 156.388 192.389 159.061 192.389C161.733 192.389 163.943 194.457 164.1 197.106C163.943 199.754 161.733 201.822 159.061 201.822C156.388 201.822 154.178 199.754 154.021 197.106ZM159.017 194.064C158.236 194.095 157.501 194.437 156.977 195.013C156.453 195.588 156.184 196.349 156.232 197.123C156.189 197.915 156.47 198.692 157.01 199.277C157.55 199.862 158.305 200.206 159.104 200.233C160.704 200.047 161.901 198.687 161.872 197.088C161.887 195.517 160.681 194.2 159.104 194.064H159.017Z" fill="white"/>
<path d="M173.396 200.234V201.841H165.04C165.229 201.147 165.504 200.48 165.858 199.854C167.286 197.988 168.8 196.173 170.437 194.152H165.406V192.579H173.57C173.348 193.297 173.045 193.986 172.665 194.635C171.272 196.467 169.775 198.229 168.156 200.234H173.396Z" fill="white"/>
<path d="M189.411 190.056L184.815 203.085H183.231C183.388 202.514 183.509 202.013 183.684 201.547C184.902 198.091 186.19 194.635 187.339 191.179C187.705 190.039 188.192 189.624 189.411 190.056Z" fill="white"/>
<path d="M184.659 190.056L179.994 203.067H178.41C178.567 202.497 178.688 201.996 178.863 201.512C180.081 198.056 181.369 194.6 182.518 191.144C182.936 190.038 183.475 189.624 184.659 190.056Z" fill="white"/>
<path d="M231.337 115.017C230.875 115.139 230.403 115.22 229.927 115.259H188.723L189.733 115.708L187 115.415V115L231.337 115.017Z" fill="#4D6784"/>
<path d="M145.604 114.691L146.666 114.242H105.41C104.934 114.203 104.462 114.122 104 114H148.076V114.415L145.604 114.691Z" fill="#4D6784"/>
<path d="M230.475 74.0938C230.614 74.5441 230.708 75.0072 230.754 75.4761C230.754 81.5584 230.754 87.5717 230.754 93.7404C230.754 96.9716 230.893 100.186 230.928 103.417C230.901 103.859 230.837 104.298 230.736 104.73C230.736 102.017 230.562 99.2871 230.527 96.5742C230.475 89.1268 230.475 81.6448 230.475 74.0938Z" fill="#4D6784"/>
<path d="M104.115 104.765C104.016 104.292 103.952 103.813 103.924 103.331C103.993 93.9768 104.075 84.6286 104.168 75.2862C104.216 74.9023 104.309 74.5253 104.446 74.1631C104.446 81.2707 104.405 88.384 104.324 95.5031C104.324 98.3139 104.324 101.125 104.324 103.935C104.277 104.217 104.207 104.494 104.115 104.765Z" fill="#4D6784"/>
<path d="M177.713 193.684C177.731 194.067 177.571 194.436 177.278 194.686C176.986 194.936 176.594 195.038 176.216 194.963C175.38 194.963 174.875 194.531 174.875 193.667C174.875 192.803 175.485 192.337 176.442 192.354C177.4 192.371 177.695 192.838 177.713 193.684Z" fill="white"/>
<path d="M174.771 200.891C174.962 199.422 175.676 199.249 176.511 199.318C177.347 199.387 177.678 200.009 177.608 200.787C177.601 201.172 177.404 201.53 177.081 201.743C176.758 201.957 176.35 202 175.989 201.858C175.537 201.72 175.101 201.133 174.771 200.891Z" fill="white"/>
<path d="M104.62 74.0942C105.056 73.9991 105.498 73.9355 105.943 73.9041H116.805L117.153 70.4482L117.327 74.0942H104.62Z" fill="#4D6784"/>
<path d="M217.716 70.4307L218.047 73.8865C218.447 73.8865 218.882 73.8865 219.317 73.8865H228.926C229.371 73.9179 229.813 73.9815 230.249 74.0766H217.49L217.716 70.4307Z" fill="#4D6784"/>
<path d="M111.374 57.9893H117.136C117.136 61.8253 117.136 65.6613 117.136 69.4973C117.04 69.0648 116.976 68.6259 116.944 68.1841C116.944 64.9701 116.944 61.7389 116.944 58.4558L111.374 57.9893Z" fill="#4D6784"/>
<path d="M217.734 57.9375H223.495C222.312 58.0239 221.128 58.1276 220.014 58.1967C219.405 58.1967 218.795 58.1967 218.012 58.1967C218.012 60.8404 218.012 63.3805 218.012 65.8515C218.012 67.0265 217.89 68.2187 217.821 69.3073C217.763 65.5865 217.734 61.7966 217.734 57.9375Z" fill="#4D6784"/>
<path d="M104.149 114.476C104.027 114.232 103.944 113.969 103.906 113.699C103.906 111.383 104.027 109.068 104.097 106.787L104.149 114.476Z" fill="#4D6784"/>
<path d="M237.926 179.948C237.536 179.778 237.127 179.656 236.707 179.585C235.123 179.585 233.539 179.585 231.955 179.481C233.696 179.481 235.436 179.481 237.073 179.481C237.438 179.499 237.647 179.792 237.926 179.948Z" fill="#C75305"/>
<path d="M102.913 179.499L96.9252 179.719C97.8826 179.719 98.84 179.532 99.7974 179.499C100.755 179.465 101.869 179.499 102.913 179.499Z" fill="#C75305"/>
<path d="M83.2953 125.604V124.653L85.2797 125.137L83.2953 125.604Z" fill="#4D6784"/>
<path d="M251.556 124.671C251.556 124.982 251.556 125.293 251.556 125.604L249.554 125.137L251.556 124.671Z" fill="#4D6784"/>
<path d="M233.016 122.477L234.496 122.714L233.016 122.477Z" fill="#4D6784"/>
<path d="M98.8586 122.887L100.338 122.649L98.8586 122.887Z" fill="#4D6784"/>
<path d="M234.531 122.649L236.011 122.887L234.531 122.649Z" fill="#4D6784"/>
<path d="M100.355 122.645L101.834 122.407L100.355 122.645Z" fill="#4D6784"/>
<path d="M97.3605 123.146L98.8401 122.908L97.3605 123.146Z" fill="#4D6784"/>
<path d="M236.029 122.908L237.508 123.146L236.029 122.908Z" fill="#4D6784"/>
<path d="M95.8458 123.388L97.3255 123.15L95.8458 123.388Z" fill="#4D6784"/>
<path d="M237.525 123.15L239.005 123.388L237.525 123.15Z" fill="#4D6784"/>
<path d="M94.3494 123.629L95.829 123.392L94.3494 123.629Z" fill="#4D6784"/>
<path d="M239.04 123.392L240.519 123.629L239.04 123.392Z" fill="#4D6784"/>
<path d="M92.8348 123.888L94.3145 123.65L92.8348 123.888Z" fill="#4D6784"/>
<path d="M240.536 123.65L242.016 123.888L240.536 123.65Z" fill="#4D6784"/>
<path d="M91.3385 124.201L92.8181 123.963L91.3385 124.201Z" fill="#4D6784"/>
<path d="M242.051 123.893L243.53 124.13L242.051 123.893Z" fill="#4D6784"/>
<path d="M89.8403 124.389L91.32 124.151L89.8403 124.389Z" fill="#4D6784"/>
<path d="M243.549 124.204L245.028 124.442L243.549 124.204Z" fill="#4D6784"/>
<path d="M88.3257 124.632L89.8053 124.395L88.3257 124.632Z" fill="#4D6784"/>
<path d="M245.062 124.395L246.541 124.632L245.062 124.395Z" fill="#4D6784"/>
<path d="M86.8293 124.874L88.309 124.636L86.8293 124.874Z" fill="#4D6784"/>
<path d="M246.56 124.636L248.039 124.874L246.56 124.636Z" fill="#4D6784"/>
<path d="M85.3149 125.133L86.7946 124.896L85.3149 125.133Z" fill="#4D6784"/>
<path d="M248.074 124.896L249.554 125.133L248.074 124.896Z" fill="#4D6784"/>
<path d="M123.159 118.896L124.43 118.675L123.159 118.896Z" fill="#4D6784"/>
<path d="M208.941 118.434L210.195 118.654L208.941 118.434Z" fill="#4D6784"/>
<path d="M124.674 118.654L125.944 118.434L124.674 118.654Z" fill="#4D6784"/>
<path d="M201.405 117.189L202.676 117.393L201.405 117.189Z" fill="#4D6784"/>
<path d="M132.194 117.411L133.464 117.207L132.194 117.411Z" fill="#4D6784"/>
<path d="M199.89 116.947L201.161 117.151L199.89 116.947Z" fill="#4D6784"/>
<path d="M133.69 117.151L134.961 116.947L133.69 117.151Z" fill="#4D6784"/>
<path d="M198.394 116.705L199.665 116.909L198.394 116.705Z" fill="#4D6784"/>
<path d="M135.204 116.909L136.475 116.705L135.204 116.909Z" fill="#4D6784"/>
<path d="M196.896 116.446L198.166 116.65L196.896 116.446Z" fill="#4D6784"/>
<path d="M136.701 116.667L137.972 116.463L136.701 116.667Z" fill="#4D6784"/>
<path d="M195.381 116.204L196.652 116.408L195.381 116.204Z" fill="#4D6784"/>
<path d="M138.216 116.408L139.504 116.204L138.216 116.408Z" fill="#4D6784"/>
<path d="M193.92 115.944L195.19 116.148L193.92 115.944Z" fill="#4D6784"/>
<path d="M207.428 118.19L208.682 118.411L207.428 118.19Z" fill="#4D6784"/>
<path d="M139.714 116.166L140.984 115.962L139.714 116.166Z" fill="#4D6784"/>
<path d="M192.37 115.702L193.641 115.906L192.37 115.702Z" fill="#4D6784"/>
<path d="M126.17 118.395L127.423 118.174L126.17 118.395Z" fill="#4D6784"/>
<path d="M141.21 115.906L142.481 115.702L141.21 115.906Z" fill="#4D6784"/>
<path d="M190.874 115.461L192.145 115.665L190.874 115.461Z" fill="#4D6784"/>
<path d="M142.725 115.665L143.995 115.461L142.725 115.665Z" fill="#4D6784"/>
<path d="M189.359 115.201L190.647 115.405L189.359 115.201Z" fill="#4D6784"/>
<path d="M144.221 115.424L145.509 115.22L144.221 115.424Z" fill="#4D6784"/>
<path d="M205.914 117.932L207.185 118.136L205.914 117.932Z" fill="#4D6784"/>
<path d="M127.684 118.153L128.955 117.949L127.684 118.153Z" fill="#4D6784"/>
<path d="M204.365 117.689L205.635 117.893L204.365 117.689Z" fill="#4D6784"/>
<path d="M129.181 117.894L130.452 117.673L129.181 117.894Z" fill="#4D6784"/>
<path d="M202.901 117.447L204.172 117.651L202.901 117.447Z" fill="#4D6784"/>
<path d="M130.679 117.651L131.95 117.447L130.679 117.651Z" fill="#4D6784"/>
<path d="M106.621 121.626L107.874 121.405L106.621 121.626Z" fill="#4D6784"/>
<path d="M226.994 121.405L228.248 121.626L226.994 121.405Z" fill="#4D6784"/>
<path d="M105.141 121.885L106.394 121.664L105.141 121.885Z" fill="#4D6784"/>
<path d="M228.509 121.664L229.745 121.885L228.509 121.664Z" fill="#4D6784"/>
<path d="M103.61 122.127L104.863 121.906L103.61 122.127Z" fill="#4D6784"/>
<path d="M230.005 121.906L231.241 122.127L230.005 121.906Z" fill="#4D6784"/>
<path d="M102.114 122.386L103.367 122.165L102.114 122.386Z" fill="#4D6784"/>
<path d="M231.52 122.165L232.773 122.386L231.52 122.165Z" fill="#4D6784"/>
<path d="M225.496 121.163L226.749 121.384L225.496 121.163Z" fill="#4D6784"/>
<path d="M108.119 121.384L109.372 121.163L108.119 121.384Z" fill="#4D6784"/>
<path d="M223.981 120.921L225.234 121.142L223.981 120.921Z" fill="#4D6784"/>
<path d="M109.634 121.125L110.887 120.904L109.634 121.125Z" fill="#4D6784"/>
<path d="M222.485 120.748L223.738 120.969L222.485 120.748Z" fill="#4D6784"/>
<path d="M111.13 120.883L112.383 120.662L111.13 120.883Z" fill="#4D6784"/>
<path d="M220.97 120.421L222.224 120.642L220.97 120.421Z" fill="#4D6784"/>
<path d="M112.626 120.642L113.879 120.421L112.626 120.642Z" fill="#4D6784"/>
<path d="M219.474 120.179L220.727 120.4L219.474 120.179Z" fill="#4D6784"/>
<path d="M114.141 120.382L115.394 120.161L114.141 120.382Z" fill="#4D6784"/>
<path d="M217.959 119.919L219.213 120.14L217.959 119.919Z" fill="#4D6784"/>
<path d="M115.586 120.14L116.839 119.919L115.586 120.14Z" fill="#4D6784"/>
<path d="M216.461 119.678L217.715 119.899L216.461 119.678Z" fill="#4D6784"/>
<path d="M117.154 119.899L118.407 119.678L117.154 119.899Z" fill="#4D6784"/>
<path d="M214.949 119.435L216.202 119.655L214.949 119.435Z" fill="#4D6784"/>
<path d="M118.65 119.639L119.903 119.418L118.65 119.639Z" fill="#4D6784"/>
<path d="M213.45 119.177L214.704 119.398L213.45 119.177Z" fill="#4D6784"/>
<path d="M120.165 119.398L121.418 119.177L120.165 119.398Z" fill="#4D6784"/>
<path d="M211.936 118.934L213.189 119.154L211.936 118.934Z" fill="#4D6784"/>
<path d="M121.661 119.139L122.914 118.918L121.661 119.139Z" fill="#4D6784"/>
<path d="M210.439 118.675L211.71 118.896L210.439 118.675Z" fill="#4D6784"/>
<path d="M10.6321 141.182H15.1918V156.395C15.1918 157.801 14.8757 159.023 14.2436 160.06C13.6186 161.097 12.7486 161.896 11.6335 162.457C10.5185 163.018 9.2223 163.298 7.74503 163.298C6.43111 163.298 5.23793 163.067 4.16548 162.606C3.10014 162.137 2.25497 161.427 1.62997 160.475C1.00497 159.516 0.696023 158.312 0.703125 156.864H5.29474C5.30895 157.439 5.42614 157.933 5.64631 158.344C5.87358 158.749 6.18253 159.062 6.57315 159.282C6.97088 159.495 7.43963 159.602 7.9794 159.602C8.54759 159.602 9.02699 159.481 9.41761 159.239C9.81534 158.991 10.1172 158.629 10.3232 158.153C10.5291 157.677 10.6321 157.091 10.6321 156.395V141.182ZM39.0554 152.091C39.0554 154.47 38.6044 156.494 37.7024 158.163C36.8075 159.832 35.5859 161.107 34.0376 161.988C32.4964 162.862 30.7635 163.298 28.8388 163.298C26.8999 163.298 25.1598 162.858 23.6186 161.977C22.0774 161.097 20.8594 159.822 19.9645 158.153C19.0696 156.484 18.6222 154.463 18.6222 152.091C18.6222 149.712 19.0696 147.688 19.9645 146.018C20.8594 144.349 22.0774 143.078 23.6186 142.205C25.1598 141.324 26.8999 140.884 28.8388 140.884C30.7635 140.884 32.4964 141.324 34.0376 142.205C35.5859 143.078 36.8075 144.349 37.7024 146.018C38.6044 147.688 39.0554 149.712 39.0554 152.091ZM34.3786 152.091C34.3786 150.55 34.1477 149.25 33.6861 148.192C33.2315 147.134 32.5888 146.331 31.7578 145.784C30.9268 145.237 29.9538 144.964 28.8388 144.964C27.7237 144.964 26.7507 145.237 25.9197 145.784C25.0888 146.331 24.4425 147.134 23.9808 148.192C23.5263 149.25 23.299 150.55 23.299 152.091C23.299 153.632 23.5263 154.932 23.9808 155.99C24.4425 157.048 25.0888 157.851 25.9197 158.398C26.7507 158.945 27.7237 159.218 28.8388 159.218C29.9538 159.218 30.9268 158.945 31.7578 158.398C32.5888 157.851 33.2315 157.048 33.6861 155.99C34.1477 154.932 34.3786 153.632 34.3786 152.091ZM47.0854 141.182V163H42.4725V141.182H47.0854ZM69.13 141.182V163H65.1456L55.6534 149.268H55.4936V163H50.8807V141.182H54.929L64.3466 154.903H64.5384V141.182H69.13ZM91.7205 147.457C91.6353 146.597 91.2695 145.93 90.6232 145.454C89.9769 144.978 89.0998 144.74 87.9918 144.74C87.239 144.74 86.6033 144.847 86.0849 145.06C85.5664 145.266 85.1687 145.553 84.8917 145.923C84.6218 146.292 84.4869 146.711 84.4869 147.18C84.4727 147.57 84.5543 147.911 84.7319 148.202C84.9165 148.494 85.1687 148.746 85.4883 148.959C85.8079 149.165 86.1772 149.346 86.5962 149.502C87.0153 149.651 87.4627 149.779 87.9386 149.886L89.8988 150.354C90.8505 150.567 91.7241 150.852 92.5195 151.207C93.315 151.562 94.0039 151.999 94.5863 152.517C95.1687 153.036 95.6197 153.646 95.9393 154.349C96.266 155.053 96.4329 155.859 96.44 156.768C96.4329 158.103 96.092 159.261 95.4173 160.241C94.7496 161.214 93.7837 161.97 92.5195 162.51C91.2624 163.043 89.7461 163.309 87.9705 163.309C86.2092 163.309 84.6751 163.039 83.3683 162.499C82.0685 161.96 81.0529 161.161 80.3214 160.102C79.5969 159.037 79.217 157.719 79.1815 156.15H83.6452C83.695 156.881 83.9045 157.492 84.2738 157.982C84.6502 158.465 85.1509 158.831 85.7759 159.08C86.408 159.321 87.1218 159.442 87.9173 159.442C88.6985 159.442 89.3768 159.328 89.9521 159.101C90.5344 158.874 90.9854 158.558 91.305 158.153C91.6246 157.748 91.7844 157.283 91.7844 156.757C91.7844 156.267 91.6388 155.855 91.3477 155.521C91.0636 155.187 90.6445 154.903 90.0906 154.669C89.5437 154.435 88.8725 154.222 88.0771 154.03L85.7013 153.433C83.8619 152.986 82.4094 152.286 81.3441 151.335C80.2788 150.383 79.7496 149.101 79.7567 147.489C79.7496 146.168 80.1012 145.013 80.8114 144.026C81.5288 143.039 82.5124 142.268 83.7624 141.714C85.0124 141.161 86.4329 140.884 88.0238 140.884C89.6431 140.884 91.0565 141.161 92.2638 141.714C93.4783 142.268 94.4229 143.039 95.0977 144.026C95.7724 145.013 96.1204 146.157 96.1417 147.457H91.7205ZM99.5428 163V141.182H108.151C109.798 141.182 111.205 141.477 112.369 142.066C113.541 142.648 114.433 143.476 115.044 144.548C115.661 145.614 115.97 146.867 115.97 148.309C115.97 149.758 115.658 151.004 115.033 152.048C114.408 153.085 113.502 153.881 112.316 154.435C111.137 154.989 109.71 155.266 108.034 155.266H102.27V151.558H107.288C108.169 151.558 108.9 151.437 109.482 151.196C110.065 150.955 110.498 150.592 110.782 150.109C111.073 149.626 111.219 149.026 111.219 148.309C111.219 147.585 111.073 146.974 110.782 146.477C110.498 145.979 110.061 145.603 109.472 145.347C108.889 145.085 108.154 144.953 107.267 144.953H104.156V163H99.5428ZM111.325 153.071L116.748 163H111.656L106.35 153.071H111.325ZM119.23 141.182H124.919L130.928 155.841H131.183L137.192 141.182H142.881V163H138.406V148.799H138.225L132.579 162.893H129.532L123.886 148.746H123.705V163H119.23V141.182ZM146.681 163V141.182H151.294V150.802H151.582L159.434 141.182H164.963L156.866 150.951L165.059 163H159.54L153.564 154.03L151.294 156.8V163H146.681ZM167.131 163V160.262L178.018 144.985H167.109V141.182H183.814V143.92L172.915 159.197H183.835V163H167.131ZM191.988 141.182V163H187.375V141.182H191.988ZM195.783 163V141.182H200.396V159.197H209.75V163H195.783ZM212.805 163V141.182H217.417V159.197H226.771V163H212.805ZM234.143 163H229.2L236.732 141.182H242.677L250.198 163H245.255L239.79 146.168H239.619L234.143 163ZM233.834 154.424H245.51V158.025H233.834V154.424ZM278.017 141.182V163H274.032L264.54 149.268H264.38V163H259.767V141.182H263.816L273.233 154.903H273.425V141.182H278.017ZM301.878 152.091C301.878 154.47 301.427 156.494 300.525 158.163C299.63 159.832 298.408 161.107 296.86 161.988C295.319 162.862 293.586 163.298 291.661 163.298C289.722 163.298 287.982 162.858 286.441 161.977C284.9 161.097 283.682 159.822 282.787 158.153C281.892 156.484 281.444 154.463 281.444 152.091C281.444 149.712 281.892 147.688 282.787 146.018C283.682 144.349 284.9 143.078 286.441 142.205C287.982 141.324 289.722 140.884 291.661 140.884C293.586 140.884 295.319 141.324 296.86 142.205C298.408 143.078 299.63 144.349 300.525 146.018C301.427 147.688 301.878 149.712 301.878 152.091ZM297.201 152.091C297.201 150.55 296.97 149.25 296.508 148.192C296.054 147.134 295.411 146.331 294.58 145.784C293.749 145.237 292.776 144.964 291.661 144.964C290.546 144.964 289.573 145.237 288.742 145.784C287.911 146.331 287.265 147.134 286.803 148.192C286.349 149.25 286.121 150.55 286.121 152.091C286.121 153.632 286.349 154.932 286.803 155.99C287.265 157.048 287.911 157.851 288.742 158.398C289.573 158.945 290.546 159.218 291.661 159.218C292.776 159.218 293.749 158.945 294.58 158.398C295.411 157.851 296.054 157.048 296.508 155.99C296.97 154.932 297.201 153.632 297.201 152.091ZM309.386 163L303.143 141.182H308.182L311.793 156.342H311.974L315.959 141.182H320.273L324.247 156.374H324.439L328.05 141.182H333.089L326.847 163H322.351L318.196 148.735H318.026L313.881 163H309.386Z" fill="#F1F1F1"/>
</svg>
