<svg xmlns="http://www.w3.org/2000/svg" viewBox="0 0 234.46 285.57"><defs><style>.cls-1{fill:#5bb7b9;}.cls-1,.cls-10,.cls-11,.cls-12,.cls-13,.cls-14,.cls-15,.cls-16,.cls-17,.cls-18,.cls-19,.cls-3,.cls-4,.cls-5,.cls-6,.cls-7,.cls-8,.cls-9{fill-rule:evenodd;}.cls-2,.cls-3{fill:#fff;}.cls-4{fill:#cdbfbd;}.cls-5{fill:#d42e2e;}.cls-6{fill:#979898;}.cls-7{fill:#d22e2f;}.cls-8{fill:#fafdff;}.cls-9{fill:#d33430;}.cls-10{fill:#f6f4f4;}.cls-11{fill:#d3d4d3;}.cls-12{fill:#c3c7ca;}.cls-13{fill:#8b8c8c;}.cls-14{fill:#949394;}.cls-15{fill:#858787;}.cls-16{fill:#858585;}.cls-17{fill:#4f2808;}.cls-18{fill:#250d08;}.cls-19{fill:#5aa9a8;}</style></defs><title>404_bot</title><g id="Layer_2" data-name="Layer 2"><g id="OBJECTS"><path class="cls-1" d="M117.52,282.2q7.42.9,14.86,1.72c6.25.7,12.28,1.12,18.53,1.57a71.13,71.13,0,0,0,7.16-.06,23,23,0,0,0,4.53-.82,16,16,0,0,0,3.69-1.62,12.34,12.34,0,0,0,4.68-4.92,12.93,12.93,0,0,0-.35-12.71,18.87,18.87,0,0,0-2.88-3.64c2.65-5.38-1-12.15-11.54-15.73l1-.07a9.06,9.06,0,0,0,4.32.53A126.81,126.81,0,0,0,175,245.1c.88-.17,25.95,8.18,36.48,7.59a57.24,57.24,0,0,0,6.21-.77,18.55,18.55,0,0,0,3.82-1,14.69,14.69,0,0,0,3-1.54,8.88,8.88,0,0,0,3.38-4,7.89,7.89,0,0,0,.44-4.52,9.1,9.1,0,0,0-2.55-4.57,15.81,15.81,0,0,0-3-2.32c1.66-4.43-3.22-9.26-14.4-10.4-3.52-.19-20-11.38-35.82-12a9.17,9.17,0,0,0-2-2.76,16.45,16.45,0,0,0-3-2.16c1.65-4.12-3.22-8.61-14.4-9.67-10.29-.52-102.53-6.4-105.67,2.79a28.08,28.08,0,0,0-5.2,1.46,11.85,11.85,0,0,0-5.71,4.36,6.25,6.25,0,0,0-1,3.77,6.72,6.72,0,0,0,1.12,3.35A11.58,11.58,0,0,0,38,214.47a14.1,14.1,0,0,0-4.17,2.18,7.68,7.68,0,0,0-2.18,2.6,5.26,5.26,0,0,0-.43,3.58,6.58,6.58,0,0,0,1.65,2.92A10.55,10.55,0,0,0,35,227.49a18.64,18.64,0,0,0,3.74,1.75l.9.27c-2.81.62-4.68,1.62-5.32,3.07a26.83,26.83,0,0,0-6.2,1.32,15.07,15.07,0,0,0-7.45,5.47,11.74,11.74,0,0,0-2.08,5.36,12.35,12.35,0,0,0,.46,5.08,16.78,16.78,0,0,0,1.27,2.93,15.61,15.61,0,0,0-5.21,2.54,11.47,11.47,0,0,0-3.07,3.46,9.92,9.92,0,0,0-1.33,5.16,10.47,10.47,0,0,0,1.15,4.55,13.24,13.24,0,0,0,2,2.88,18.89,18.89,0,0,0,3.78,3.15c4.51,2.64,8.41,3.31,13.58,4.11.09,0,.92.12,1.08.14,5,.66,10,1,15,1.46,12.73,1,25.5,1.14,38.22,1.71l7.26.33c1.11,1,3.29,1.32,4.74,1.42a118.77,118.77,0,0,0,15.43.29,14.41,14.41,0,0,0,2.74-.74,7.28,7.28,0,0,0,1.76-1ZM87.8,228.67a8.84,8.84,0,0,0,.68,1.44,12.89,12.89,0,0,0,1.51,2c-.48.19-.92.37-1.34.56-6.57-1-13-1.93-19.11-2.62C75.65,229.68,81.72,229.18,87.8,228.67Z"/><path class="cls-2" d="M201.83,89.33c-2.11-.16-1.86,1.58-2.18,2.79-1.1,4-1.9,8.17-3.64,12-.78,1.74-1.95,3.32-1.36,5.42.2.71-.34,1.29-.85,1.81a24,24,0,0,1-4.85,4c-2.94,1.73-6,3.14-8.88,5.06s-2.95,2.05-.61,4.63c2.85,3.14,2.63,6.09-.66,8.78a12.38,12.38,0,0,1-4.63,2.38,29.81,29.81,0,0,1-13.48.34c-7.54-1.42-15-3-22.71-3.62-6.5-.55-12.17-3.68-16.79-8.38-2-2.08-1.58-3.81,1-4.71,1.41-.48,3.45-.92,3.16-2.55s-2.42-1.63-4-1.65a1,1,0,0,0-.48.18.47.47,0,0,0-.11.7h0c.22.3.55.26.87.3-.32,0-.65,0-.87.27h0c-.44.46-1.16,0-1.59.51h0a.72.72,0,0,1-.32.2,2.64,2.64,0,0,1-2.37,2.86c-3.91.37-7.66,2.56-11.46,3.48-1.55.37-3.12.62-4.67,1,1,4.45-2.74,11.19-3.43,14.7a2.09,2.09,0,0,1-1.63,1.74,1.53,1.53,0,0,1-.22.85.39.39,0,0,1,0,.39,1.81,1.81,0,0,0-.38,1.47A3.33,3.33,0,0,0,95,145a8,8,0,0,0,.35.72,4.56,4.56,0,0,1,.36,3.3c-2,8.15-2.33,16.52-3.36,24.8-.5,4-1.17,7.89-3.41,11.39a20.37,20.37,0,0,0-2.5,5.16,11.7,11.7,0,0,1,0,2.71,2.3,2.3,0,0,1,2.4,2.39,26,26,0,0,1-3,12.52,4.35,4.35,0,0,0,.85.51c1.47-3.71,1.81-7.7,2.69-11.69a15.67,15.67,0,0,1,2.82,8.33c0,.78.18,1.44.91,1.72,2.37.89,4.12,2.87,6.67,3.52,2.1.55,4.08,1.57,6.16,2.24,6.22,2,9.27,6.3,10.09,12.66,1.83,14.29,2.71,28.67,4.07,43,.25,2.64,1.08,5.37-.48,7.92,0,.53.33.73.71.94h0a5.24,5.24,0,0,0,.51.54,3,3,0,0,0,.53.53h.52a1.66,1.66,0,0,0,.49-.56h0a1.75,1.75,0,0,0,.53-.52h0a2.86,2.86,0,0,0,.54-.5h0a4.78,4.78,0,0,1,.54-.47l0,0c.22-.35.72-.24,1-.58l0,0,0,0a2.65,2.65,0,0,0,.58-.48h0a16.43,16.43,0,0,0,3.66-3.69h0a1.07,1.07,0,0,0,.11-1.21c-2.8-2.07-3.39-5-3.62-8.29-.31-4.52-1-9-1.29-13.55-.26-3.91-1.72-8,.59-11.77a1.45,1.45,0,0,0-.28-1.71c-2.84-3.3-2.28-7.41-2.58-11.25-.26-3.37.72-4,4.19-4,7.35-.13,14.64,1.08,22,1,4.63,0,8.83.84,12.51,3.75a3,3,0,0,0,4.27-.2,15.8,15.8,0,0,0,4.4-6.43,146.15,146.15,0,0,0,7.24-24.88c1.4-7.2,1.89-14.57,3.93-21.65a3.26,3.26,0,0,0-1.13-3.51,14.51,14.51,0,0,1-3.25-4.69c-3.28-7.51.94-15.89,7.18-20.38a3.7,3.7,0,0,1,3.27-.4c1.51.41,2.49,1.56,3.6,2.54s2,2.74,3.92,2.78c.07-.19.13-.39.19-.58a1.58,1.58,0,0,1,.42-.47l0,0a2.63,2.63,0,0,1,.5-.5l0,0a3.94,3.94,0,0,1,.5-.5l0,0a2.63,2.63,0,0,1,.5-.5l0,0,.48-.54c.7-1.18-.14-2.56.51-3.75,0-.5.05-1,.07-1.5.61-1.56-.19-3.25.46-4.8,0-.32,0-.65.05-1a6.73,6.73,0,0,0,0-3.67l0,0c-.4-.33-.3-.67-.05-1h0a2.27,2.27,0,0,0,.52-.55h0l0,0h0a.29.29,0,0,0,.12-.14.32.32,0,0,0-.12-.34l0,0c-.16-.18-.32-.37-.46-.56l0,0a1.64,1.64,0,0,1-.49-.49l0,0a1.83,1.83,0,0,1-.48-.48l0,0a1.76,1.76,0,0,1-.49-.49l0,0a2.11,2.11,0,0,1-.23-.19c-3.64-.05-7.26-.39-10.9-.42a2.44,2.44,0,0,1-2.35-3l-.18-.07c-.42-.32-.34-.67,0-1v0c.3-.27.79-.19,1-.55h0l0,0h0c.33-.24.82-.15,1.06-.55l0,0a6.41,6.41,0,0,0,.58-.45.38.38,0,0,1,.35-.1c.4-.19.89-.13,1.19-.52h0l0,0h0c.33-.22.8-.16,1.06-.51h0l0,0s0,0,0,0c.31-.25.79-.18,1.06-.52h0c.31-.26.78-.18,1.06-.5h0c.42-.47,1.16,0,1.57-.53h0a7.53,7.53,0,0,0,5.24-4.79.55.55,0,0,1,.05-.45c.51-.64-.05-1.52.48-2.15a.66.66,0,0,1,.06-.48c.4-.45,0-1.14.47-1.58v0c.59-.6,0-1.51.54-2.11h0c.45-.49.12-1.2.49-1.71a.39.39,0,0,1,.06-.39c.44-.47.06-1.18.48-1.65a.67.67,0,0,1,.07-.46c.4-.46,0-1.15.47-1.58h0c.58-.62,0-1.53.52-2.16a.63.63,0,0,1,.06-.47c.38-.49.06-1.18.45-1.67a.48.48,0,0,1,0-.42c.53-.65,0-1.54.48-2.2a.5.5,0,0,1,.05-.43A4.4,4.4,0,0,0,201.83,89.33Z"/><path class="cls-2" d="M233.14,229.36a.44.44,0,0,1,0-.4c-.38-.5,0-1.22-.51-1.69v0c-.28-.3-.19-.76-.47-1.07a.35.35,0,0,1-.09-.34,1.82,1.82,0,0,0-.43-.72l0,0c-.36-.23-.23-.76-.59-1l0,0a5.43,5.43,0,0,0-.49-.57v0c-.33-.24-.23-.74-.57-1h0l0,0,0,0a1.4,1.4,0,0,0-.53-.55l0,0,0,0h0a1.61,1.61,0,0,0-.52-.52h0l0,0h0a1.88,1.88,0,0,0-.51-.54h0l0,0h0a3.32,3.32,0,0,0-.52-.54h0a3.72,3.72,0,0,0-.53-.52h0a3.73,3.73,0,0,0-.52-.53h0a4.59,4.59,0,0,0-.54-.54v0a3.87,3.87,0,0,0-.53-.54h0a3,3,0,0,0-.55-.52h0l0,0h0a1.65,1.65,0,0,0-.52-.5h0l0,0,0,0a1.12,1.12,0,0,0-.7-.52.37.37,0,0,1-.34-.12,3.72,3.72,0,0,0-.61-.43.58.58,0,0,1-.44-.13c-.2-.14-.41-.27-.62-.39a.6.6,0,0,1-.43-.09c-.34-.25-.79-.2-1.13-.43l-1-.11c-1-.42-2.16,0-3.16-.47-.51.46-1.05.89-1.53,1.39a3.42,3.42,0,0,0-1.26,1.72c1.25-.47,2.3-.85,3.34-1.25a2.72,2.72,0,0,1,1.54-.19,1.06,1.06,0,0,1,.82.58c.17.37,0,.64-.3.89a81.94,81.94,0,0,0-6.27,5.52,13.43,13.43,0,0,0-2.79,4.39,6.25,6.25,0,0,0,1.61,6.92,12.23,12.23,0,0,0,10.72,2.83,3,3,0,0,1,2,.05,2.05,2.05,0,0,0,2-.21,5.24,5.24,0,0,0,1.8-1.5,4,4,0,0,1,3-1.34c.45,0,.49.38.57.7.22.14.38.08.47-.16a.57.57,0,0,1,.11-.4c.24-.31.15-.76.46-1h0c.48-.43.05-1.16.53-1.58h0A3,3,0,0,0,233.14,229.36Z"/><path class="cls-2" d="M208.42,54.63a1.11,1.11,0,0,0-.53-.54h0l0,0a0,0,0,0,0,0,0,1.91,1.91,0,0,0-.48-.58h0a4.13,4.13,0,0,1-.47-.55l0,0a1.83,1.83,0,0,1-.48-.48l0-.05a1.83,1.83,0,0,1-.48-.48l0,0a2.41,2.41,0,0,1-.37-.34,10.81,10.81,0,0,1-1.2-.21c-5.89-1.48-12.36-1.31-18.39-2.3a151.57,151.57,0,0,1-18.28-3.77c-6.06-1.76-11.71-2.29-17.92-3-2.53-.3-5.33-1.47-7.84-1.54a22.76,22.76,0,0,1-4.66-.58,7.89,7.89,0,0,1-1.73.68c-3.1.87-5.81,2.62-8.84,3.71-2.69,1-5.42,1.78-8.13,2.71-4.44,1.52-8.54,3.83-13,5.37.82,3.49.45,7.13-.16,10.78-.82,4.85-1.64,9.7-2.43,14.56-1.81,11.06-1.8,22.56-4.66,33.43a3.25,3.25,0,0,1,.46.45l0,0a6.17,6.17,0,0,0,.57.47l0,0c.46.54,1.2.16,1.71.53l.2,0,.17.08c.49.46,1.2.11,1.71.48l.21,0,.18.08c.8.61,1.85-.1,2.65.5h0c1.19.71,2.58-.11,3.78.5l.21,0,.19.07a2.64,2.64,0,0,0,2.08.16c.06-1.65-1.4-1.55-2.34-1.9-3.18-1.18-6.47-2.07-9.49-3.73a.48.48,0,0,1,.51-.26c13.14,2.56,26.33,4.73,39.63,6.24,9.13,1,18.1,3.09,27.18,4.48,1.31.2,2.62.44,3.82-.33,4.19-2.69,8.6-5.09,12.15-8.68,9.83-9.94,15.61-22,18.48-35.55,1-4.89,1.61-9.87,2.72-15.11.92,1.93.26,3.73,1.12,5.24a.44.44,0,0,0,.71,0,.63.63,0,0,1,0-.45c.5-.66,0-1.53.47-2.19a.5.5,0,0,1,0-.43c.6-.81-.1-1.86.5-2.68a.63.63,0,0,1,.06-.48c.48-.64-.06-1.51.46-2.15a.64.64,0,0,1,.06-.47c.26-.53.41-1.06-.13-1.53Z"/><path class="cls-2" d="M66.27,193.23a4.68,4.68,0,0,1-1.12-2.31,18.92,18.92,0,0,1,.17-4.2c-3.32,1.33-6.91,1.95-10.07,3.73s-2.06,6.33-6.19,7.67c-3,.95-6.32-1.8-8.71-3.08a13.7,13.7,0,0,0-12.2-.55,1.9,1.9,0,0,1,0,.25c0,.68.47.83,1,1,3.74,1.2,7.45,2.44,11.2,3.59a2.07,2.07,0,0,1,1.75,2,2.65,2.65,0,0,0,.54,1.45c1.2,1.35,1.29,3.1,1.4,4.67.17,2.6.86,5.17.65,7.8a2,2,0,0,0,0,.78,17.42,17.42,0,0,1,.46,5.19,6.7,6.7,0,0,0,.07,1.56,19.32,19.32,0,0,1,.41,5.72c0,2.62,0,5.24,0,7.86a11.62,11.62,0,0,0,.2,2.34,37.54,37.54,0,0,1,.85,6.17c.16,4.17-.32,8.37.49,12.53a2,2,0,0,1-1.83,2.43,7.93,7.93,0,0,1-1.3.06s-.08.07-.1.21.09.2.29.22a.47.47,0,0,1,.38.1.84.84,0,0,0,1,.05l.56,0,.54.46h0a2.51,2.51,0,0,0,.54.54l0,0a1.81,1.81,0,0,0,.57.53l0,0a.58.58,0,0,0,1,0l0,0a4.34,4.34,0,0,0,.58-.48h0c.25-.34.77-.22,1-.58l0,0a5.08,5.08,0,0,0,.57-.47l0,0c.24-.34.77-.22,1-.59l0,0a3,3,0,0,0,.57-.49h0c.24-.31.74-.21,1-.56h0l0,0,0,0a1.61,1.61,0,0,0,.56-.51h0l0,0v0c.2-.13.36-.33.56-.47l0,0a25.49,25.49,0,0,0,3.66-3.61l0-.06a.41.41,0,0,0,0-.46c-1.27-.12-1.86-1.19-2.69-1.92a3.48,3.48,0,0,1-1.14-2.25c-.4-2.73-1-5.44-1.43-8.17-.27-1.7-.44-3.43-.6-5.15a17,17,0,0,0-.34-2.83,12.57,12.57,0,0,1-.15-4.15c.13-1.75,1.27-3,2.51-4.05.82-6-.58-11.9-.47-17.91.73.19,1.26,1.07,2.14.62a7.24,7.24,0,0,0,0-1c-.22-1.42.47-2.24,1.62-3a51.64,51.64,0,0,1,5.57-2.9,7.92,7.92,0,0,0,4.18-4.75,1.4,1.4,0,0,0-.18-1.47A13,13,0,0,1,66.27,193.23Z"/><path class="cls-3" d="M196.91,144.3h0Z"/><polygon class="cls-3" points="124.94 275.52 124.94 275.52 124.94 275.52 124.94 275.52"/><path class="cls-4" d="M129.29,270.38c-2.09-.76-3.54-2-3.81-4.41-.4-3.55-.91-7.08-1-10.65-.82-2.35-.24-4.86-.89-7.25-.31-1.15.14-2.54-.25-3.64-.61-1.71.28-3.45-.37-5.11-.19-.5.17-1,.46-1.46.43-.65.93-1.26,1.45-2a4.57,4.57,0,0,0-.84-1,5,5,0,0,1-2-4.08c-.12-2.62-.81-5.18-.66-7.82a7.26,7.26,0,0,1,.35-2.3,2.78,2.78,0,0,1,2.91-2c2.71.33,5.42.06,8.12.18a9.1,9.1,0,0,1,3.11.34,2,2,0,0,0,.77.12c4.38-.25,8.69.91,13.06.56a17,17,0,0,1,9.28,2.27,10.66,10.66,0,0,1,2.33,1.67c1.26,1.13,1.87,1.08,3.17,0a15,15,0,0,0,4.1-5.68,123.51,123.51,0,0,0,4.3-12.63c1-3.34,1.9-6.7,2.61-10.12.59-2.8,1-5.64,1.53-8.46.84-4.89,1.27-9.84,2.6-14.64.07-.25,0-.56.16-.76,1.05-1.52.28-2.48-.88-3.5-3.54-3.14-4.63-7.28-4.44-11.81a14.47,14.47,0,0,1,1-4.06,16.11,16.11,0,0,1,4.45-7.29c.8-.68,1.47-1.49,2.24-2.21a5.08,5.08,0,0,1,7.08-.06c1.36,1.23,2.61,2.58,3.92,3.87.36.37.77.7,1.15,1.05l.18-.05a1,1,0,0,0,.44.47l.07.06a1.44,1.44,0,0,0,.45.5l0,0c.13.2.33.36.47.56l0,0a1.34,1.34,0,0,1,.51.6l-.05,0c.42.2.29.75.64,1v0c.15.2.38.36.44.63l-.06-.06c.45.23.36.74.58,1.09l0-.05c.44.29.38.81.55,1.23a.24.24,0,0,0,.12.32c.26.3.15.77.48,1h0c.29.31.24.77.48,1.11l0,0c.55.44.19,1.15.49,1.66l0,0c.47.18.35.73.63,1l0,0c.37.33.34.82.51,1.23a.25.25,0,0,0,.1.34c.27.31.2.77.45,1.09l0,0c.39.32.34.82.52,1.23a.24.24,0,0,0,.1.33c.28.31.19.77.47,1.08l0,0c.36.32.31.81.51,1.19a.31.31,0,0,0,.1.38c.26.32.19.77.45,1.08l0,0c.54.39.07,1.16.58,1.55h0c.29.35.25.82.46,1.2a.31.31,0,0,0,.11.39c.24.32.16.77.45,1.07v0a3.17,3.17,0,0,1,.48,1.26.21.21,0,0,0,.08.31,4.31,4.31,0,0,1,.45,1.26.22.22,0,0,0,.09.32c.4.49.11,1.15.4,1.67l0-.05c.49.23.38.78.6,1.15a.31.31,0,0,0,.1.38c.26.35.23.81.43,1.18a.33.33,0,0,0,.11.4c.24.31.16.76.45,1.06v0c.34.35.32.83.48,1.24a.25.25,0,0,0,.11.34c.27.31.19.77.46,1.08l0,0c.36.34.34.83.5,1.25a.23.23,0,0,0,.1.32c.28.3.19.77.47,1.08v0c.35.34.32.83.49,1.24a.24.24,0,0,0,.11.33c.27.32.2.78.45,1.1l0,0c.63.61.05,1.51.51,2.17l0,0a.87.87,0,0,1,.57.74.18.18,0,0,0,.09.27c.29.31.2.78.47,1.09l0,0c.54.41.1,1.16.55,1.6v0c.35.35.33.83.49,1.25a.21.21,0,0,0,.08.32c.31.34.25.82.46,1.2a.31.31,0,0,0,.1.38c.26.32.19.77.44,1.09l0,0c.55.41.11,1.15.55,1.6v0c.36.34.34.84.5,1.26a.19.19,0,0,0,.08.3,4.08,4.08,0,0,1,.44,1.27.21.21,0,0,0,.09.31c.53.61-.06,1.5.5,2.11h0c.31.29.23.77.52,1.06h0c.48.43.07,1.16.51,1.6v0c.5.47.14,1.2.52,1.7l0,2.26c-.15.43-.13.93-.51,1.26l0,0c-.26.31-.15.84-.6,1l0-.06a1.2,1.2,0,0,1-.49.62h0a6.12,6.12,0,0,0-.45.56l0,0c-.22.31-.29.69-.52,1a4.47,4.47,0,0,1-1.24,1.15c1.56-.22,3.4-1.49,4.29.33s-1.33,2.53-2.37,3.48c-2.26,2.05-4.72,3.9-6.09,6.73-1.64,3.39-.91,6.09,2.18,8.16a12.64,12.64,0,0,0,8.21,2c2.68-.18,5.31-.19,7.41-2.43.58-.62,2.31-1.77,3,.4a1.1,1.1,0,0,1-.22.7l0,.53a.66.66,0,0,1,0,1l0,0c-.29.29-.16.85-.65,1l.07-.07c-.15.49-.71.35-1,.65h0a1,1,0,0,1-.63.46l0-.06c-.17.49-.72.37-1,.62l0,0a1.27,1.27,0,0,1-.68.42,6.35,6.35,0,0,0-2.27,1.26c-6.33,5.54-18.2,2.45-22-5.37-1.92-3.93-.63-7.87.82-11.69.41-1.06,1.44-2.21-.09-3.24a3.9,3.9,0,0,1-.86-.81v0a1.7,1.7,0,0,1-.58-.52h0a3,3,0,0,1-.54-.53h0a2.31,2.31,0,0,1-.54-.54v0a2.71,2.71,0,0,1-.53-.54h0a2.31,2.31,0,0,1-.54-.54v0a3,3,0,0,1-.53-.54h0a2.31,2.31,0,0,1-.54-.54v0a1.48,1.48,0,0,1-.51-.6l.05.06c-.44-.31-.39-.83-.54-1.26a.2.2,0,0,0-.11-.29c-.28-.3-.18-.77-.48-1.06h0c-.32-.3-.25-.77-.49-1.1l0,0c-.4-.32-.37-.83-.52-1.26v-.09c.08-.26.2-.52,0-.76v0a1.3,1.3,0,0,1-.5-.61l.05.06c-.46-.27-.37-.8-.57-1.19a.28.28,0,0,0-.11-.36c-.26-.32-.19-.76-.44-1.09l0,0c-.38-.33-.36-.84-.51-1.26a.19.19,0,0,0-.08-.3c-.31-.32-.24-.81-.48-1.16a.38.38,0,0,0-.1-.43c-.24-.31-.16-.76-.45-1.06v0c-.34-.34-.3-.82-.49-1.21a.31.31,0,0,0-.12-.38c-.24-.31-.16-.76-.45-1.06v0c-.34-.32-.29-.81-.49-1.2a.32.32,0,0,0-.12-.38c-.24-.3-.15-.76-.46-1h0c-.3-.3-.24-.77-.49-1.1l0,0c-.13-.1-.19-.21-.15-.32s.08-.17.13-.17v0c.12-.13.15-.24.09-.34s-.1-.15-.15-.15l0-.06a1.89,1.89,0,0,0-.46-.52v0c-.16-.2-.38-.35-.46-.61l.05.05c-.43-.24-.34-.74-.56-1.09l0,0c-.42-.24-.33-.74-.55-1.09v0c-1.05-.28-.81.53-.87,1-.13,1.25.23,2.53-.21,3.76a2.18,2.18,0,0,0-.11,1.38c-.46.89.06,1.93-.43,2.82,0,.3-.05.6-.08.91-.51.86.09,1.92-.47,2.77a.34.34,0,0,0,0,.41c-.47.68,0,1.54-.44,2.21a.4.4,0,0,0-.07.45c-.56.83.06,1.86-.46,2.7l-.09.91c-.54,1,.13,2.26-.46,3.3a.36.36,0,0,0,0,.43c-.59,1,.08,2.21-.45,3.23,0,.33,0,.65-.08,1-.63,1.2.16,2.57-.48,3.76a.35.35,0,0,0-.05.42c-.53.64.15,1.6-.59,2.18l.05-.07a1,1,0,0,1-.56.58l0,0a1,1,0,0,1-.57.57l0-.05a1,1,0,0,1-.57.57l0,0a1,1,0,0,1-.57.56l.05,0a1,1,0,0,1-.57.57l0,0a1,1,0,0,1-.57.57l0,0a.8.8,0,0,1-.61.53l.06-.06c-.18.49-.72.37-1.05.61l0,0c-.24.41-.74.32-1.08.55l0,0c-.23.4-.74.29-1,.57h0c-.25.34-.75.22-1,.56h0c-.2.16-.34.4-.63.43l.05-.05c-.19.47-.72.36-1.05.6l0,0c-.23.4-.75.29-1,.58h0c-.25.33-.76.21-1,.55l0,0c-.2.15-.35.39-.62.43l0,0c-.2.46-.73.34-1,.61l0,0c-.25.37-.76.26-1,.57h0a8.32,8.32,0,0,1-1.64,1l0,0c-.22.42-.74.31-1,.59h0a1,1,0,0,1-.62.48l.05-.06c-.18.49-.72.37-1.05.61l0,0c-.23.4-.74.3-1,.57h0c-2.38.8-4.9-.19-7.29.58l0,0c-.36.24-.24.75-.57,1v0c-.3.29-.19.82-.6,1l.05-.05c-.09.26-.31.41-.45.62l0,0c-.36.24-.23.75-.57,1v0c-.3.29-.17.84-.64,1l.06-.06a1.11,1.11,0,0,1-.47.63h0c-.31.27-.18.83-.65,1l.06-.06a.94.94,0,0,1-.51.62l0,0a3,3,0,0,1-.48.58v0c-.45.45-.61,1.13-1.16,1.51l.05-.05a1.08,1.08,0,0,1-.53.6l0,0a1.67,1.67,0,0,1-.53.56h0a2.51,2.51,0,0,1-.54.54v0a2.31,2.31,0,0,1-.54.54h0a2.51,2.51,0,0,1-.54.54v0a2.47,2.47,0,0,1-.53.54h0a2.31,2.31,0,0,1-.54.54v0a1.85,1.85,0,0,1-.55.53l0,0a1.89,1.89,0,0,1-.53.56h0a48.47,48.47,0,0,1-6.23,6.34l0,0a2,2,0,0,0-.48.49l-.05,0a1.83,1.83,0,0,0-.48.48l0,0a3.35,3.35,0,0,0-.52.47h0a5.35,5.35,0,0,1-.55.51v0a2.47,2.47,0,0,1-.53.54h0a2.13,2.13,0,0,1-.55.53l0,0a1.3,1.3,0,0,1-.59.52l0,0a1,1,0,0,1-.56.57l0,0a1.41,1.41,0,0,1-.52.59l0,0a2.56,2.56,0,0,1-.54.55v0a2.47,2.47,0,0,1-.53.54h0a5.17,5.17,0,0,1-.5.55v0a2.91,2.91,0,0,0-.47.52l0,0c-.48.42-.63,1.09-1.14,1.49l0,0a1.61,1.61,0,0,1-.52.58v0a2.3,2.3,0,0,1-.53.55v0a2.31,2.31,0,0,1-.54.54h0a3,3,0,0,1-.53.54v0a2.31,2.31,0,0,1-.54.54h0C129.61,270.51,129.48,270.55,129.29,270.38Z"/><path class="cls-4" d="M86.58,208.46a32.7,32.7,0,0,1,.87-5.65c.43-2.09,1.26-4.17.92-6.41-.06-.43.37-.93.67-1.64,1,1.37,2.08,2.4,2.31,3.92a5.47,5.47,0,0,0,1,2.4c1,1.39,1.41,2.79.35,4.34-.08.11,0,.33,0,.59.63.23,1.26.51,1.92.7,1,.28,1.84.55,2.2,1.63.16.47.68.44,1.09.58a111.45,111.45,0,0,1,11.7,4.55,20.15,20.15,0,0,1,4.18,3.12,4,4,0,0,1,1.3,2.22c.21,1,.61,2,.9,3a41.45,41.45,0,0,1,1.23,6.92c.32,2.67.4,5.36.86,8,.39,2.31.48,4.68.66,7a8.73,8.73,0,0,0,.33,2.59,2,2,0,0,1,.15.76c-.18,3,.52,5.91.55,8.87a70.3,70.3,0,0,0,1,9.6,15.91,15.91,0,0,1,.11,1.83,19,19,0,0,0,.38,3.89,4.79,4.79,0,0,1-1.45,5.22,1,1,0,0,1-1.52,0l0,0c-.33-.24-.79-.16-1.1-.46L117,276l-.18,0c-.42-.15-.9-.14-1.25-.48h0c-.43-.45-1.17,0-1.57-.55v0c-.31-.27-.8-.18-1.07-.54l0,0c-.22-1.51-1.1-1.95-2.6-1.87s-2.87.37-4.25-.26h0c-.46-.42-1.16,0-1.61-.48l-.16-.11-.18,0c-.54-.33-1.26,0-1.75-.5h0c-.61-.54-1.51.08-2.11-.53h0c-.62-.54-1.52.07-2.13-.52l-.14-.11-.16.06c-.72-.4-1.63.07-2.32-.47l-.14-.11-.16.06a1.5,1.5,0,0,1-.75-.43l0,0a2.48,2.48,0,0,0-.49-.48l0,0a1.83,1.83,0,0,0-.48-.48l0,0a1.86,1.86,0,0,0-.48-.49l0,0a1.86,1.86,0,0,0-.49-.48l0,0a2.07,2.07,0,0,0-.48-.5l0,0c-.61-1.39.16-2.92-.47-4.3,0-.32,0-.64-.05-1-.63-1.56.18-3.26-.47-4.81,0-.32,0-.64,0-1-.65-1.56.18-3.26-.48-4.82a2.38,2.38,0,0,0-.07-1.49c-.55-1.43.12-3-.43-4.39a2.17,2.17,0,0,0-.08-1.38c-.63-1.56.18-3.25-.47-4.81,0-.32,0-.64,0-1-.93-.9.81-2.69-1.1-3.27h0a22.66,22.66,0,0,1-2.14,1.09l0,0c-.21.43-.74.32-1,.6h0a1,1,0,0,1-.62.48l.05-.06c-.19.49-.72.37-1.05.6l0,0c-.21.41-.74.28-1,.6h0c-.19.18-.34.41-.62.45l0-.05c-.19.46-.72.35-1,.61l0,0c-.5.41-1.28.41-1.6,1.09l0,0a1.89,1.89,0,0,1-.55.54h0a1.1,1.1,0,0,1-.61.49l0-.06c-.17.46-.73.32-1,.65h0a2.11,2.11,0,0,1-.59.48l0,0c-.2.39-.74.24-1,.61l0,0c-.19.16-.38.3-.58.45l0,0A9.34,9.34,0,0,1,73.52,244h0a1,1,0,0,1-.62.49l0-.06c-.17.47-.72.34-1,.64h0a1.26,1.26,0,0,1-.61.48l.05,0c-.19.44-.73.31-1,.63h0a1.3,1.3,0,0,1-.62.46l0-.05c-.18.45-.73.32-1,.62h0a1.05,1.05,0,0,1-.63.46l.06-.06c-.3.7-1.13.16-1.52.66h0a3.39,3.39,0,0,1-.55.52v0a1.3,1.3,0,0,1-.58.51l0,0c-.21.41-.74.3-1,.6h0a1.25,1.25,0,0,1-.62.47l0,0c-.2.46-.73.35-1,.59h0c-.22.38-.74.26-1,.59h0a1.62,1.62,0,0,1-.61.46l0,0c-.18.43-.73.29-1,.63l0,0a3,3,0,0,1-.59.47l0,0c-.2.39-.74.25-1,.62l0,0a3.63,3.63,0,0,1-.84.29A5,5,0,0,1,54,249.59a149.49,149.49,0,0,1-2.62-18.12c-.22-2.53.32-4.88,2.5-6.54,1.5-2,3.8-2.75,5.84-3.88,6.64-3.68,13.1-7.7,20.28-10.34C82.16,209.9,84.65,210,86.58,208.46Z"/><path class="cls-4" d="M112.44,114.32c-1.76-1-3.76-1.34-5.64-2a65,65,0,0,1-6.55-2.65,6.07,6.07,0,0,1-1.13-.66.68.68,0,0,1-.21-.92.93.93,0,0,1,.6-.4,4.59,4.59,0,0,1,1.28.16c3.29.85,6.64,1.36,10,1.89,3.69.58,7.35,1.33,11,1.94,2.75.45,5.51.77,8.26,1.2,3.19.49,6.4.72,9.59,1.1,3.8.44,7.55,1.21,11.32,1.85l10.55,1.76c2.49.42,5,.78,7.45,1.3a2.68,2.68,0,0,0,2.23-.31c3.5-2.45,7.39-4.35,10.57-7.24a48.61,48.61,0,0,0,7.25-7.91,68.08,68.08,0,0,0,7.65-13.67c.51-1.29,1.22-2.51,1.74-3.81a60.24,60.24,0,0,0,3.33-12.33c.72-4,1.46-8,2.06-12.08a18.72,18.72,0,0,1,.85-3c.1-.31.34-.69.77-.49a1,1,0,0,1,.37.61,33.57,33.57,0,0,1,.6,6.49,2.15,2.15,0,0,1,0,2,.27.27,0,0,0-.05.39c-.57,1.22.11,2.58-.43,3.8a2.27,2.27,0,0,0-.1,1.43c-.55,1,.13,2.27-.46,3.31a.33.33,0,0,0-.06.41c-.47.67,0,1.54-.46,2.21a.35.35,0,0,0-.06.41c-.38.5-.06,1.19-.45,1.68a.35.35,0,0,0-.07.42c-.39.5,0,1.2-.48,1.69a.26.26,0,0,0-.07.35c-.18.4-.16.86-.43,1.22a.27.27,0,0,0-.09.37c-.19.38-.16.85-.45,1.21a.21.21,0,0,0-.08.32c-.43.71.11,1.63-.53,2.29l0,0c-.11.22-.16.5-.45.6-.91,1-1.71,2-1.28,3.44a1.59,1.59,0,0,1-.23,1,21.92,21.92,0,0,0-1.54,5,25,25,0,0,1-3.33,8.21,1.32,1.32,0,0,0-.17,1.45,3.63,3.63,0,0,1,.38,1.25c.07,1,.09,1.95-1.15,2.29a1.57,1.57,0,0,0-1,.81,5.78,5.78,0,0,1-2.49,2.26c-1.72,1-3.41,2.15-5.21,3-2.46,1.17-4.61,2.84-7,4.11a.7.7,0,0,0-.12,1.26c.33.28.68.54,1,.81a7.39,7.39,0,0,1,2.48,4.21,4.38,4.38,0,0,1-.9,4.17,12.57,12.57,0,0,1-5.7,4,16.13,16.13,0,0,1-5.1,1,14,14,0,0,0-1.81.24,6.85,6.85,0,0,1-1.54.2c-2.08-.19-4.16-.39-6.22-.71a69.22,69.22,0,0,1-11.95-2.75,8.15,8.15,0,0,0-2.33-.16,21.45,21.45,0,0,1-5.47-.41c-1.25-.35-2.59-.1-3.9-.32a27.92,27.92,0,0,1-6.47-2,30.74,30.74,0,0,1-10.4-6.91,4.25,4.25,0,0,1-1-3.86,1.47,1.47,0,0,1,.75-1,3.7,3.7,0,0,1,1.68-.68A6.17,6.17,0,0,0,123,119c1-.29,2.33-1.45,2.11-1.72-.56-.66-1.38-.65-2.15-.81s-1.46-.64-2.28-.36a2.12,2.12,0,0,1-2-.14h0c-.63-.54-1.52.06-2.13-.52l-.14-.1-.17,0c-.7-.42-1.63.11-2.29-.52l0,0C113.59,114.43,112.81,115,112.44,114.32Z"/><path class="cls-4" d="M34.71,257.7l-.15-.11-.18.05c-.71-.41-1.61.07-2.3-.47l-.15-.11-.17.06c-.72-.41-1.6.05-2.3-.46l-.17-.1-.2,0c-.68-.45-1.59.09-2.24-.5h0l-.57-.45,0,0a2,2,0,0,0-.48-.49l0,0a2,2,0,0,0-.49-.48l0,0a2,2,0,0,0-.48-.49l-.05,0a1.83,1.83,0,0,0-.48-.48l0,0a3,3,0,0,0-.48-.53h0c-.7-2.82.18-5.73-.47-8.55a3.79,3.79,0,0,0-.09-2c-.59-1.93.17-4-.45-5.88a6,6,0,0,0-.07-2.52c-.48-3.11-.08-6.23-.23-9.34a6.42,6.42,0,0,0-.23-2.82,8.14,8.14,0,0,0-.08-3.07c-.59-2.65.19-5.37-.42-8a2.46,2.46,0,0,0-.08-1.42c-.63-1.92.18-3.95-.47-5.86v-1.92c.67-2.45-.19-5,.48-7.44h0a2.08,2.08,0,0,0,.45-.53l.06-.06a1.28,1.28,0,0,0,.49-.46l.05,0a1.78,1.78,0,0,1,.72-.41.25.25,0,0,0,.34-.1,2.27,2.27,0,0,1,2.09,0,.23.23,0,0,0,.33.09c.43.2.91.13,1.34.29,2.51,2.76,6.05,3.53,9.38,4.25,5.72,1.23,7.37,5.24,8,10.2a135.46,135.46,0,0,1,1.49,17.71c-.08,9.18,1.56,18.26,1.23,27.43a32,32,0,0,0,.29,3.91c.26,2.66-.54,3.47-3.41,3.59-.45,0-.93.08-1.31-.26l-.14-.12-.17.05c-.55-.31-1.27,0-1.77-.49h0c-.62-.54-1.52.07-2.12-.53h0c-.62-.55-1.52.06-2.13-.53l-.14-.1-.16.06C35.94,257.86,35.23,258.15,34.71,257.7Z"/><path class="cls-4" d="M95.6,144.91a4,4,0,0,1,.9,3.86A43.12,43.12,0,0,0,95.06,157c0,.86-1,1.32-.83,2.13a5.14,5.14,0,0,1,.27,2.31c-.69,2.18-.33,4.48-.86,6.7A50,50,0,0,0,93,174c-.2,1.72-.38,3.45-.7,5.16a9.24,9.24,0,0,1-1.58,4.08A23.66,23.66,0,0,0,89,186.46c-.74,1.38-1.49,2.75-2.23,4.12a3.84,3.84,0,0,1-.32,1.9,16.23,16.23,0,0,1-2.2,3.24c-2.11,2.41-4.14,4.61-5.45,7.88-1.76,4.42-6.24,6.72-11.16,7.67a12.75,12.75,0,0,1-11.68-3.41c-.83-2.3.13-3.83,2.1-5,1.73-1,3.57-1.8,5.31-2.79,3.48-2,3.85-3.63,2.05-7.11a8.62,8.62,0,0,1,.33-8.69,11.53,11.53,0,0,0,1.12-1.09l0,0a1.89,1.89,0,0,1,.47-.62h0c.34-.25.2-.81.65-1l-.05,0a1.2,1.2,0,0,1,.49-.62l0,0a4.26,4.26,0,0,0,.41-.54.22.22,0,0,0,.16-.29,1,1,0,0,1,.54-.75l0,0a1.32,1.32,0,0,1,.55-.57l0,0c.25-.32.17-.82.55-1.08l0,0,.44-.58a.2.2,0,0,0,.13-.28,1,1,0,0,1,.51-.76l0,0c.12-.22.33-.38.45-.59l0-.05c.37-.22.24-.74.59-1l0,0c.14-.18.28-.36.41-.55a.23.23,0,0,0,.15-.31,1.16,1.16,0,0,1,.49-.74h0c.29-.28.16-.84.63-1l-.06.06a1.2,1.2,0,0,1,.48-.63h0c.3-.28.18-.83.63-1l0,.06a1.23,1.23,0,0,1,.47-.63h0c.3-.28.19-.82.61-1l0,.06c.08-.27.3-.42.46-.62v0c.34-.25.21-.78.6-1l0,.05a6.85,6.85,0,0,1,.45-.61l0,0c.37-.23.24-.75.59-1l0,0a4.19,4.19,0,0,0,.4-.54.25.25,0,0,0,.17-.31,1,1,0,0,1,.53-.73l0,0a1.84,1.84,0,0,1,.53-.58l0,0c.28-.31.21-.78.49-1.09v0c.35-.25.22-.78.61-1l0,.05a1.9,1.9,0,0,1,.5-.59h0c.16-.18.34-.36.52-.53h0c.17-.18.35-.35.53-.52h0c.47-.43.06-1.15.51-1.59h0c.33-.27.22-.78.58-1l0,0c.13-.22.33-.37.46-.59l0,0a1.25,1.25,0,0,0,.46-.48l.06-.06a1,1,0,0,0,.46-.47l.07-.06a1.13,1.13,0,0,0,.46-.46l0-.06c.67-.53,0-1.47.59-2v0c.28-.3.18-.82.59-1.05l0,.05c.09-.25.31-.4.44-.62l0,0c.37-.22.24-.75.6-1l0,0c.27-.32.17-.84.59-1.06l0,0c.08-.26.31-.41.45-.62v0c.36-.24.23-.75.58-1v0c.28-.3.17-.83.6-1.05l-.05.06c.07-.27.3-.42.46-.62v0a1.88,1.88,0,0,0,.45-.52l.06-.06a1,1,0,0,0,.46-.47l.07-.06a1.08,1.08,0,0,0,.46-.46l.06-.06a1.13,1.13,0,0,0,.46-.46l.07-.07a1.08,1.08,0,0,0,.46-.46l.06-.07a4.78,4.78,0,0,0,.59-.41l0,0c.17-.18.32-.18.44.06l0,0c.61.07.83.58,1.13,1l0,0A4.37,4.37,0,0,1,95.6,144.91Z"/><path class="cls-5" d="M174.19,19.86H174l-.16.14c-.33.22-.78.13-1.07.43l-.51.08a13,13,0,0,1-4.7,0l-.23-.11-.26,0c-.31-.3-.8-.2-1.09-.52h0a1.27,1.27,0,0,0-.51-.38.26.26,0,0,0-.33-.21.74.74,0,0,1-.66-.61l.06.06a.66.66,0,0,1-.58-.58l.06.06a.65.65,0,0,1-.58-.58l.05,0a.65.65,0,0,1-.58-.58l.06.06a.66.66,0,0,1-.58-.58l0,.05a.66.66,0,0,1-.58-.58l.06.06a.65.65,0,0,1-.58-.59l.07.06c-.5-.12-.35-.71-.69-1h0a1.3,1.3,0,0,1-.45-.75.2.2,0,0,0-.12-.31c-.25-.35-.21-.8-.43-1.16a1,1,0,0,0-.08-.94,3.42,3.42,0,0,1,0-2.61.79.79,0,0,0,.09-.82c.32-.55,0-1.31.54-1.79l0,0c.24-.34.15-.84.56-1.09l-.05,0a1.29,1.29,0,0,1,.56-.57l0,0a1.31,1.31,0,0,1,.57-.57l0,0a1.37,1.37,0,0,1,.56-.56l0,0a1.31,1.31,0,0,1,.57-.57l0,0a1.32,1.32,0,0,1,.56-.56l0,0a1.21,1.21,0,0,1,.58-.56l-.05,0c.2-.41.75-.27,1-.63h0a1.46,1.46,0,0,1,.75-.43A.21.21,0,0,0,166,1c.31-.26.77-.15,1-.47h0c.49-.44,1.19-.11,1.7-.48a7,7,0,0,0,2.38,0c.5.37,1.16.09,1.68.4l.84.16a1.83,1.83,0,0,1,.73.35.38.38,0,0,0,.43.14,4.12,4.12,0,0,1,.65.44l0,0A1,1,0,0,0,176,2L176,2a20.88,20.88,0,0,1,2.57,2.58l.06.06a.92.92,0,0,0,.45.46l.07.07a1.6,1.6,0,0,0,.44.53h0a1.55,1.55,0,0,1,.45.72c0,2.31,0,4.61,0,6.92a1.57,1.57,0,0,1-.42.78l0,0c-.36.22-.23.76-.61,1l0,0a2.57,2.57,0,0,1-.5.59h0c-.18.17-.35.34-.52.53h0a6.38,6.38,0,0,0-.52.52h0a6.63,6.63,0,0,0-.53.53h0a6.38,6.38,0,0,0-.52.52h0a6.63,6.63,0,0,0-.53.53h0a6.38,6.38,0,0,0-.52.52h0l-.55.52h0A1.5,1.5,0,0,1,174.19,19.86Z"/><path class="cls-6" d="M204.1,220.57c.42.11.85.19,1.26.33.95.32,1,.47.68,1.26-.53,1.2-1,2.4-1.58,3.6a16.18,16.18,0,0,0-1.25,7.14,7.65,7.65,0,0,0,1.15,3.7A14.45,14.45,0,0,0,213,243a13.58,13.58,0,0,0,8.48,0,7.53,7.53,0,0,0,3.57-2.11,3,3,0,0,1,2.82-1,.31.31,0,0,1,.12.35c-.05.11-.1.16-.14.16h0a3.87,3.87,0,0,1-.53.54v0a2.76,2.76,0,0,1-.54.54h0a2.76,2.76,0,0,1-.54.54l0,0a2,2,0,0,1-.56.53l0,0a1.53,1.53,0,0,1-.56.54l0,0c-.24.4-.75.3-1,.58h0c-.28.35-.76.27-1.08.52l0,0c-.44.54-1.19.15-1.68.53l-.21,0-.18.07a21.16,21.16,0,0,1-7.36,0l-.19-.07-.2,0c-.51-.36-1.22,0-1.7-.49h0c-.42-.48-1.18,0-1.57-.58l0,0c-.32-.25-.82-.16-1.08-.54l0,0a3.29,3.29,0,0,1-.57-.49h0c-.26-.32-.79-.2-1-.6l0,0a1.39,1.39,0,0,1-.56-.54l0,0a1.41,1.41,0,0,1-.55-.56l0,0a1.53,1.53,0,0,1-.55-.55l0,0a1.48,1.48,0,0,1-.55-.56l0,0a1.53,1.53,0,0,1-.55-.55l0,0a1.48,1.48,0,0,1-.55-.56l0,0a1.48,1.48,0,0,1-.55-.56l0,0c-.38-.21-.24-.75-.62-1l0-.05a4.15,4.15,0,0,0-.46-.56h0c-.34-.26-.23-.76-.56-1h0c-.29-.3-.21-.77-.5-1.08v0c-.58-.65,0-1.55-.51-2.22,0-.49,0-1-.07-1.46a3.38,3.38,0,0,1,0-2.61.6.6,0,0,0,0-.47c.53-.64,0-1.51.48-2.15a.55.55,0,0,0,.06-.43c.24-.35.18-.83.47-1.16h0c.33-.27.24-.74.5-1l0,0c.53-.38,0-1.15.58-1.53v0A2.2,2.2,0,0,1,204.1,220.57Z"/><path class="cls-4" d="M106.65,167.56a1.17,1.17,0,0,1,1.22.13c.92.64,1.86,1.26,2.78,1.9a8,8,0,0,0,2.2,1.35,2.23,2.23,0,0,1-.4.65,1.44,1.44,0,0,0-.25,2.09,7.36,7.36,0,0,0,.69.79c.6.78.6,1-.14,1.78-.55.56-1.16,1.06-1.74,1.59a2,2,0,0,0-.44,2.55,5.21,5.21,0,0,0,2.14,1.88,1.36,1.36,0,0,0,1.46-.1,21.22,21.22,0,0,1,2.29-1.27c1.11-.52,1.59-.38,2.18.61.31.53.56,1.09.84,1.63s.47.94.72,1.4c.91,1.75,2.12,3,4.32,2.33,1.19,2-.36,3.15-1.55,4.17-1.52,1.29-2.44,2.49-1.74,4.66a2.85,2.85,0,0,1-2,3.74c-1.88,1.4-1.89,1.42-4.19.8-1.07-.29-2.24-.37-3-1.33-.24-.3-.62-.22-1-.11a2.42,2.42,0,0,1-2.56-.84,5.65,5.65,0,0,0-2-1.68,2.44,2.44,0,0,1-1.21-1.63,22,22,0,0,0-2.38-5.76,8.73,8.73,0,0,0-1-1.17,3.08,3.08,0,0,1-.74-4,2.49,2.49,0,0,0,.25-1.71,4.5,4.5,0,0,1,.05-1.55c.3-2.41.69-4.8.9-7.22a3.67,3.67,0,0,1,1.13-2.52C104.6,169.69,105.62,168.62,106.65,167.56Z"/><path class="cls-4" d="M153.79,176.94a2.2,2.2,0,0,1-.44-.28,1.57,1.57,0,0,0-2.31-.17c-.9.67-1.86,1.29-2.79,1.94a.94.94,0,0,1-1.38,0,32.88,32.88,0,0,1-4.43-4.89l1.61-2a1.9,1.9,0,0,0,0-2.42c-.66-1-1.43-1.77-2.83-1.27a5.75,5.75,0,0,1-1.56,0,2.32,2.32,0,0,1-2.09-.84,2.65,2.65,0,0,0-.56-.55c-1.86-1.26-2.15-3.26-2.49-5.23a1.66,1.66,0,0,1,.93-1.72c2.07-2.27,2.1-2.38,5.08-1.46,3.48,1.07,7.07,1.77,10.47,3.11a2.32,2.32,0,0,0,1.25,0,6.56,6.56,0,0,1,6.19,2.59,2.18,2.18,0,0,1,.58,2.4c-1.08,1.91-.79,4.07-1.37,6.06a4.73,4.73,0,0,1-1.32,2.47A11,11,0,0,1,153.79,176.94Z"/><path class="cls-7" d="M113.54,133.35a5.16,5.16,0,0,1,5.65,5.25c.06,2.85-3.31,5.54-5.61,5.6s-5.31-2.73-5.25-5.55c0-1.83,1.31-3,2.26-4.27A3,3,0,0,1,113.54,133.35Z"/><path class="cls-8" d="M119.25,199.44a4.11,4.11,0,0,0,1.18-4.68,22.9,22.9,0,0,1-.45-2.33,12.62,12.62,0,0,0,1.83-1c.62-.46,1.09-1.13,1.71-1.61a2.89,2.89,0,0,0,1-3,6,6,0,0,1,1,0,3.72,3.72,0,0,1,3.39,4.56,2.26,2.26,0,0,1-1.45,2c-.25.09-.48.28-.72.28-1.88,0-2.86,1.45-4.06,2.55a2.14,2.14,0,0,0-.35,3.19.73.73,0,0,1-.73.53A4.39,4.39,0,0,1,119.25,199.44Z"/><path class="cls-9" d="M131.34,139.91a3.3,3.3,0,0,1-3.1,3.21c-1.38-.09-2.63-1.71-2.6-3.38a2.85,2.85,0,1,1,5.7.17Z"/><path class="cls-10" d="M103,188.89a5.15,5.15,0,0,1,2.63,4.2,7.94,7.94,0,0,0,1,3.19,8.8,8.8,0,0,1-3.51-.7,1.61,1.61,0,0,1-1.23-1.5A11.54,11.54,0,0,1,103,188.89Z"/><path class="cls-11" d="M86.75,193.74c-.15-.58.08-1.3-.62-1.67l.59-1.49C87.7,191.62,87.26,192.68,86.75,193.74Z"/><path class="cls-12" d="M95.6,144.91a.62.62,0,0,1-.55-.59A.74.74,0,0,1,95.6,144.91Z"/><path class="cls-4" d="M150.77,110.75a35.27,35.27,0,0,1-6-1.22c-8.21-2-16.39-4.09-24.58-6.17a34.63,34.63,0,0,1-3.5-1.09,2.21,2.21,0,0,1-1.69-2.6,4.57,4.57,0,0,1,.17-1.29c.45-1.31.45-2.77,1.28-3.95,1.41-.36,2.71.23,4.05.49,3.93.73,7.88,1.38,11.8,2.15,2.56.5,5.09,1.18,7.64,1.74q6.89,1.51,13.77,3a4.21,4.21,0,0,1,1.7.63.79.79,0,0,1,.32.65,32.67,32.67,0,0,1-1.28,5.58C153.64,110.71,153.63,110.78,150.77,110.75Z"/><path class="cls-4" d="M116.6,74.1c0-.62,0-1.23,0-1.84a3.42,3.42,0,0,1,.84-2.43A34.31,34.31,0,0,1,121,66a4.81,4.81,0,0,1,4.92-.71,10.66,10.66,0,0,1,7.16,7.4c.93,3.18-.25,5-2.06,6.81a10.7,10.7,0,0,1-3.83,2.23,8.8,8.8,0,0,1-9.76-3.13,4.2,4.2,0,0,1-.83-2.45C116.61,75.49,116.6,74.79,116.6,74.1Z"/><path class="cls-4" d="M149.66,79.77a8,8,0,0,1,.42-2.57,4.73,4.73,0,0,1,3.5-3.18,15.61,15.61,0,0,1,2.54-.49,7,7,0,0,1,6.26,2.56,8,8,0,0,1,1.91,4.77A6.28,6.28,0,0,1,163,85a10.06,10.06,0,0,1-4.07,3.16,4.75,4.75,0,0,1-4.26-.28,9,9,0,0,1-4.39-4.3A8.65,8.65,0,0,1,149.66,79.77Z"/><path class="cls-7" d="M184.83,91.61a19.31,19.31,0,0,1,1.59-7.9,11.07,11.07,0,0,1,1.12-2.06,1.82,1.82,0,0,1,1.55-.86,2.9,2.9,0,0,0,1,0c.56-.2,1.06-.7,1.71-.4a3.85,3.85,0,0,1,1.78,1.85,9.75,9.75,0,0,1,1,3.5,18.51,18.51,0,0,1-.89,8,7.25,7.25,0,0,1-3.07,4.1c-2.2,1.26-3.81.8-5.18-1.63a5.29,5.29,0,0,1-.67-2.51C184.82,93,184.83,92.31,184.83,91.61Z"/><path class="cls-4" d="M153.44,46.71a14.06,14.06,0,0,1,6,1.45,4,4,0,0,1,1.84,2.09,2.88,2.88,0,0,1-1.12,3.89c-1.73,1.31-3.62,2.36-6,2.07a8.56,8.56,0,0,1-3.2-1A5.3,5.3,0,0,1,148.15,49a1.87,1.87,0,0,1,.67-1.09C150.15,46.82,150.66,46.66,153.44,46.71Z"/><path class="cls-13" d="M155,225.59a2.8,2.8,0,0,1,2.55.94.55.55,0,0,1,0,.88.67.67,0,0,1-.92.12A3.61,3.61,0,0,1,155,225.59Z"/><path class="cls-14" d="M160.17,122.25c2.62,0,5.12.81,7.69,1.15a5.88,5.88,0,0,1,1.59.82c.45.22,1.19.14,1.29.72.13.76-.74.83-1.15,1.2a.79.79,0,0,1-1.17-.1c-1.4-1.64-3.51-1.79-5.33-2.53a1.5,1.5,0,0,0-1.26.07c-.86.4-1.29-.14-1.68-.76a.34.34,0,0,1-.12-.38C160.08,122.31,160.12,122.25,160.17,122.25Z"/><path class="cls-15" d="M160.17,122.25c0,.19,0,.38,0,.57a135,135,0,0,1-14.27-2.88,1.48,1.48,0,0,1,1.35-.25c3.38.83,6.88,1,10.22,1.94C158.35,121.9,159.41,121.4,160.17,122.25Z"/><path class="cls-16" d="M69.71,197.43c-.13.08-.27.24-.39.22-.41-.07-.49-.39-.4-.74,0-.1.25-.25.34-.22A.57.57,0,0,1,69.71,197.43Z"/><path class="cls-17" d="M185.52,96.17a5.39,5.39,0,0,0,1.31,3.09,3.19,3.19,0,0,0,3.78,1,5.58,5.58,0,0,0,3.09-2.7,16.71,16.71,0,0,0,1.06-12.69,4.57,4.57,0,0,0-1.18-2,2.61,2.61,0,0,0-.81-.65,1.4,1.4,0,0,0-2,.65,5.56,5.56,0,0,0,.87.56,3.16,3.16,0,0,1,2,2.55,16.19,16.19,0,0,1-.85,10.25A4.59,4.59,0,0,1,191,98.36a2.36,2.36,0,0,1-3.68-1.09,5.53,5.53,0,0,1-.43-1.49,18.91,18.91,0,0,1,.94-9A6.15,6.15,0,0,1,190,83.29a.38.38,0,0,0,0-.64.69.69,0,0,0-.48-.11,2.7,2.7,0,0,0-1.85,1.7A21.22,21.22,0,0,0,185.52,96.17Z"/><path class="cls-18" d="M183.32,71.27a8.85,8.85,0,0,0,2.53-1.76,3.9,3.9,0,0,0,.37-.6c-.06-.13-.07-.23-.13-.26s-.33-.17-.46-.13a5.65,5.65,0,0,0-2.7,1.91.46.46,0,0,0-.1.24,1.56,1.56,0,0,0,.08.48C183,71.37,183.11,71.39,183.32,71.27Z"/><path class="cls-18" d="M121.58,59.92c2,.71,3.93,1.46,5.93,2.07a115.47,115.47,0,0,0,16.64,3.58,168.54,168.54,0,0,1,24.71,5.79,110.17,110.17,0,0,0,10.88,2.72.49.49,0,0,0,.41-.23.64.64,0,0,0,.08-.49,1.33,1.33,0,0,0-1.15-.92,53.5,53.5,0,0,1-5.85-1.4c-4.34-1.35-8.63-2.83-13-4s-8.65-2.15-13-2.86a168.72,168.72,0,0,1-20.74-4.37c-1.5-.45-3.07-.66-4.46-1-.46.13-1,0-.87.53C121.1,59.61,121.37,59.85,121.58,59.92Z"/><path class="cls-17" d="M163.92,76.63a4.05,4.05,0,0,0-1.67.7c-1.27.76-2.56,1.49-3.82,2.27a1,1,0,0,1-1.39-.14c-1-1-2-1.94-3-2.89-.64-.59-1.28-1.18-2-1.73a.81.81,0,0,0-1,0,1,1,0,0,0-.42.9,4.46,4.46,0,0,0,.9,2.42c.86,1.3,1.74,2.59,2.74,4.07-1.05.79-2,1.45-2.84,2.17a1.62,1.62,0,0,0-.43,2.1,1.53,1.53,0,0,0,1.84.56A29.38,29.38,0,0,0,156,85.71a1.37,1.37,0,0,1,1.85.32c.42.45.85.87,1.3,1.29.9.82,1.8,1.64,2.73,2.42a1,1,0,0,0,1,.24,2.29,2.29,0,0,0,1.48-3.45,8,8,0,0,0-1-1.17c-.66-.77-2-1.21-1.88-2.3s1.62-1.14,2.4-1.81a4.62,4.62,0,0,1,.67-.41,4,4,0,0,0,1.27-1.3,1.87,1.87,0,0,0,.15-2A2,2,0,0,0,163.92,76.63Z"/><path class="cls-17" d="M147,111.77c1.7.42,3.4.79,5.12,1.1s2.18,0,2.86-1.57a21.59,21.59,0,0,0,1-3c.24-.83.4-1.7.57-2.55.08-.4.58-.78.21-1.18a3.31,3.31,0,0,0-1.07-.7,4.59,4.59,0,0,0-1-.32c-4.09-.87-8.22-1.6-12.26-2.65-8-2.06-16.07-3.27-24.1-4.91-1-.21-1.31-.11-1.57.79a22.59,22.59,0,0,0-1.09,4.88c0,1.48.23,2,1.44,2.39,1.48.52,3,1,4.5,1.39q12.69,3.18,25.38,6.3Zm-29.29-9h0c-.87-.23-1.07-.47-.83-1.26a21.41,21.41,0,0,1,1.12-4c1.42-.2,2.71.36,4,.62,3.77.72,7.55,1.4,11.31,2.17,2.23.45,4.41,1,6.62,1.56,4.76,1.11,9.53,2.19,14.29,3.29.64.15.91.51.76,1.13-.35,1.35-.75,2.69-1.12,4-.15.53-.53.63-1.37.55-.24-.05-.83-.18-1.43-.29-6.69-1.3-13.25-3.15-19.88-4.67-4.17-1-8.33-1.94-12.49-2.91C118.37,103,118,102.9,117.68,102.81Z"/><path class="cls-17" d="M117.82,79.34a8.46,8.46,0,0,0,4.1-.53c.86-.36,1.71-1.31,2.62-.87s1.35,1.32,2,2a17.58,17.58,0,0,0,3,2.91,2.32,2.32,0,0,0,.92.45c.81.11,2.24-1.42,2.13-2.26a4.36,4.36,0,0,0-1.39-2.42c-3.32-3.49-3.34-2.66,1-5,.54-.29,1.12-.49,1.65-.79a7,7,0,0,0,1.28-.9,2,2,0,0,0,.2-2.82,1.73,1.73,0,0,0-2.28-.71c-1,.45-1.89.89-2.83,1.37-1.24.63-2.46,1.31-3.71,1.94-1,.51-1.21.46-2-.44-.64-.72-1.21-1.49-1.86-2.2-.81-.91-1.64-1.81-2.51-2.66a3.35,3.35,0,0,0-1.1-.67c-.55-.23-1.35.45-1.17,1a11.87,11.87,0,0,0,.85,1.89c1.07,1.89,2.17,3.77,3.25,5.63a10,10,0,0,1-4.31,2.94,7.21,7.21,0,0,0-.94.41.72.72,0,0,0-.07,1.12A2,2,0,0,0,117.82,79.34Z"/><path class="cls-17" d="M128.93,145a3.52,3.52,0,0,0,3.34-3.4,3.06,3.06,0,0,0-2.83-2.91c-2,0-3.21,1.1-3.23,3a3.24,3.24,0,0,0,2.72,3.32Zm-1-4.25h0c.18-.31.5-.48,1.18-.41a5.92,5.92,0,0,1,.88.46,1.23,1.23,0,0,1-1,2.19A1.57,1.57,0,0,1,127.91,140.77Z"/><path class="cls-17" d="M114.27,146.1a6.08,6.08,0,0,0,5.7-5.77c-.06-3.29-2.32-5.31-5.86-5.31a3.33,3.33,0,0,0-2.84,1c-1.07,1.35-2.44,2.63-2.35,4.54a5.78,5.78,0,0,0,5.35,5.49Zm-2.6-7.11h0c.34-.09.7-.15.81-.53.26-.93,1-.79,1.69-.81a5,5,0,0,1,2,.33,2.51,2.51,0,0,1,1.5,3,3.53,3.53,0,0,1-6.83-.28C110.77,140,110.78,139.24,111.67,139Z"/><path class="cls-17" d="M233.33,227c-2.27-5.63-6-9.77-12.08-11.43-.49-.13-1.06-.06-1.46-.49s0-.83.1-1.24a10.57,10.57,0,0,0-.18-5.18c-.36-1.08-.55-2.2-.91-3.28q-3.78-11.58-8.3-22.91c-.81-2-1.65-4-2.35-6.11a264.86,264.86,0,0,0-10-25.34,3.41,3.41,0,0,1-.24-2c.25-1.73.42-3.47.53-5.21a97.65,97.65,0,0,1,1.78-14.56,3.18,3.18,0,0,0-2.3-4.07,21.94,21.94,0,0,0-2.55-.59,74.93,74.93,0,0,0-8.85-1c-.38,0-.87.14-1.11-.37.26-.67.89-.84,1.42-1.07,3-1.26,5.78-2.88,8.65-4.36a4.27,4.27,0,0,0,2.45-3.16c.4-2,.88-3.92,1.39-5.86,1.29-4.9,2.64-9.78,3.49-14.79,1.16-6.89,2.5-13.75,3.95-20.59a136.29,136.29,0,0,0,2.55-14.18,16,16,0,0,0-.17-6,2.34,2.34,0,0,0-1.63-1.89c-2.46-.58-4.75-1.73-7.32-2a61.7,61.7,0,0,1-9.06-1.45,94,94,0,0,0-9.26-1.8c-2.59-.37-5.19-.68-7.79-1.07-4-.6-7.83-1.79-11.76-2.65-.48-.1-1.05-.1-1.42-.66.08-.29.14-.63.24-1a120.1,120.1,0,0,1,5.77-14.9c.15-.32.32-.63.47-.94a1.37,1.37,0,0,1,1.46-.88c.26,0,.52.07.78.09a10.93,10.93,0,0,0,9.92-4.8A12.27,12.27,0,0,0,181.37,7.4a9.68,9.68,0,0,0-5.51-6A13.21,13.21,0,0,0,171,.4a9.28,9.28,0,0,0-7.6,3.44,27.46,27.46,0,0,0-1.8,2.57,9.42,9.42,0,0,0-1.41,3.07C159.11,14,160,18,163.32,21.3a1.52,1.52,0,0,1,.36,2.06,89,89,0,0,0-4.49,10.89c-.7,2-1.39,4-2,6-.22.7-.59,1-1.32.93-.35,0-.7-.07-1-.14-4.3-.82-8.67-1.06-13-1.52a21.57,21.57,0,0,0-5.38.3,43.06,43.06,0,0,0-8.55,2.41c-1.56.56-3.11,1.14-4.72,1.57A108.14,108.14,0,0,0,107.78,49a10.81,10.81,0,0,0-2.26,1.29,2,2,0,0,0-.89,2,10.68,10.68,0,0,1-.35,4.39,162,162,0,0,0-2.75,16.54c-.66,6-1.13,12-1.7,18-.26,2.7-.45,5.41-.86,8.08-.56,3.71-1.29,7.4-2,11.09a7.37,7.37,0,0,0-.2,2.33,1.54,1.54,0,0,0,1.84,1.34,4,4,0,0,1,2,0l14,3.54a11.33,11.33,0,0,1,1.26.37c.32.13.83,0,1,.6a5.74,5.74,0,0,1-.94.5c-3.24,1-6.48,2.09-9.74,3.08a17.66,17.66,0,0,1-4.64.83,2.6,2.6,0,0,0-2.84,2.71,70.94,70.94,0,0,1-1.41,9.05,9.39,9.39,0,0,1-1.39,3.36c-1.29,2-2.59,3.94-3.75,6a4.91,4.91,0,0,1-2.69,2.25c-3.94,1.55-7,4-7.54,8.57a2.2,2.2,0,0,1-1.36,1.77c-1.08.57-2.12,1.22-3.16,1.86a18.42,18.42,0,0,0-4.06,3.29,21.14,21.14,0,0,0-1.56,2.1.47.47,0,0,0,.09.45.45.45,0,0,0,.44.06c.49-.5.92-1,1.41-1.55a15.07,15.07,0,0,1,7.49-4.08.82.82,0,0,1,.94.25,1.06,1.06,0,0,1,.13,1.22c-.25.45-.53.9-.81,1.34C76.78,169.2,72,176.62,67,183.88a2.51,2.51,0,0,1-2.11,1.2,17.53,17.53,0,0,0-10.55,4.75,10.43,10.43,0,0,0-3.26,5c-.13.42-.26.83-.38,1.26a1,1,0,0,1-1.17.79,21.27,21.27,0,0,1-3.09-.56c-3.26-1-6.5-2-9.74-3.07a8.1,8.1,0,0,1-2.14-1,2.79,2.79,0,0,0-2.72-.21,85.68,85.68,0,0,1-8.27,2.53,1.56,1.56,0,0,0-1.28,1.46c-.07.52-.1,1-.16,1.56a137.42,137.42,0,0,0-.15,15.72c.1,5.68.44,11.35.67,17,.12,3,.19,5.94.35,8.9.24,4.63.75,9.24.71,13.88a29.83,29.83,0,0,0,.15,3.41A1.54,1.54,0,0,0,26,258a2.46,2.46,0,0,1,2,.2A62.22,62.22,0,0,0,39.64,262c2,.47,3.87,1,5.81,1.58a2.63,2.63,0,0,1,1.44,1c1.06,1.39,1.31,1.44,2.77.45,2.83-1.91,5.6-3.89,8.39-5.85a3.84,3.84,0,0,0,1.43-1.51,5.76,5.76,0,0,1,2.38-2.36c1.53-1,3.08-2,4.63-3a181.18,181.18,0,0,0,21.58-15.32c.26-.22.56-.52.91-.22a1.07,1.07,0,0,1,.3.67c.27,3.05.52,6.1.79,9.14.59,6.71,1.21,13.41,1.79,20.11.1,1.22,0,2.45.07,3.67a2,2,0,0,0,1.66,2.07c.59.16,1.2.24,1.8.35a121.78,121.78,0,0,1,20.87,6,20.79,20.79,0,0,1,2.16.95.81.81,0,0,1,.34,1.12h2.62a10.15,10.15,0,0,1,2.51-1.35c1.14-.65,2.29-1.27,3.43-1.92a3.23,3.23,0,0,0,1.71-1.91,4.39,4.39,0,0,1,1.69-2.24c1.15-1.07,2.3-2.14,3.37-3.29,2.9-3.16,6-6.12,9.11-9.06,4.39-4.15,8.72-8.36,11.92-13.56a4,4,0,0,1,2-1.6,51.19,51.19,0,0,0,4.95-2.39c4.57-2.57,9.09-5.23,13.63-7.84,2-1.14,3.92-2.32,5.94-3.36a6.58,6.58,0,0,0,3.72-5.61c.21-2.08.45-4.17.75-6.24q1.6-11.16,3.27-22.31c0-.38-.06-.87.65-1.06a9.84,9.84,0,0,1,.62,1.06c.91,2,1.86,4,2.68,6,2,4.85,4,9.7,5.84,14.59a7.78,7.78,0,0,0,3.73,4.51,5,5,0,0,1,.86.7,20,20,0,0,0-2.25,9.11,13.37,13.37,0,0,0,4.1,10.41c5,4.76,14.94,6.72,21.58,1.83a18.73,18.73,0,0,0,6.56-8.94,12.81,12.81,0,0,0-.41-9.47Zm-14.45,16.39h0a17.28,17.28,0,0,1-8.36-1.72,9.07,9.07,0,0,1-5.18-7.37,19.21,19.21,0,0,1,.79-9,1.26,1.26,0,0,1,1.32-1,9.24,9.24,0,0,0,5.36-1.81,13.43,13.43,0,0,0,1.52-1c1.09-1,2.27-1.64,3.38-1.27a10.77,10.77,0,0,1,9,3.78,15.27,15.27,0,0,1,3.65,6.56,6.4,6.4,0,0,1-.15,4.1c-.07.16-.09.34-.15.5-1.88,5.22-5.47,8.16-11.14,8.29Zm-37.13-18.68h0c-.56,3.77-.54,3.12-3.13,4.58-3.87,2.2-7.71,4.47-11.57,6.72a17.4,17.4,0,0,1-3.52,1.8,6.67,6.67,0,0,1,0-2.68q.18-2.08.33-4.17c0-.14-.18-.41-.23-.4-.23.06-.6.14-.64.29-.26.93-.45,1.87-.65,2.81-.32,1.53-.62,3.08-.95,4.61-.11.51-.22,1-.79,1.28-.24.1-.5.31-.71.26-.47-.1-.31-.52-.25-.83a6.93,6.93,0,0,1,.26-1,11.66,11.66,0,0,0-.87-8.92,10.82,10.82,0,0,0-9-6.35,16.53,16.53,0,0,0-10.58,2.17,59.1,59.1,0,0,0-11.8,8.67c-.35.34-.66.85-1.3.73-.09-.14-.23-.26-.25-.41-.2-1.56-.43-3.12-.54-4.68a80.93,80.93,0,0,1-.12-12.06,11,11,0,0,0-.89-4.32,2.31,2.31,0,0,0-1.8-1.38c-1.43-.38-2.88-.72-4.31-1.11-5.48-1.51-11-3-16.42-4.52-1.18-.32-2.37-.61-3.57-.86s-2.11.69-3.23.9c-2,.37-3.82,1.22-5.83,1.39-.48-.32-.27-.76-.21-1.17q1-6.75,2-13.49c.12-.86.19-1.73.25-2.61a9.22,9.22,0,0,1,1.14-4.26c.74-1.24.67-2.68.89-4,1-6,1.66-12,2.24-18A104.88,104.88,0,0,1,98.22,149c.26-1.05.42-1.16,1.43-1a15.55,15.55,0,0,1,6.81,3.19,2.16,2.16,0,0,1,.87,2.71c-.63,1.82-1.14,3.67-1.65,5.52a128.21,128.21,0,0,0-3.59,19.31c-.58,5-1.57,9.84-2.46,14.74a24.46,24.46,0,0,0-.81,4.9,1.8,1.8,0,0,0,.79,1.55c.39.28.79.5,1.19.21,1-.71,1.67-.37,2.54.27a6.34,6.34,0,0,0,2.23.7c1.36.35,2.74.6,4.07,1a131.71,131.71,0,0,0,17.68,3.75c7.33,1.16,14.67,2.3,21.93,3.93,2.38.53,3.88-.52,4-3,.12-1.93.35-3.83.65-5.73q1.06-6.6,2.18-13.19a7.24,7.24,0,0,1,.4-1.52c.15-.4.51-.42.84-.2a7.66,7.66,0,0,1,2.21,2.22A16.76,16.76,0,0,1,162,199.4a.85.85,0,0,1-.88.79,6.33,6.33,0,0,0-4,1.75,4.21,4.21,0,0,0-1,4.38,2.79,2.79,0,0,0,3.64,1.68,5.1,5.1,0,0,0,2.45-1.9c.45-.64.86-1.31,1.42-2.18a13.21,13.21,0,0,1,1.37.48c2.13,1,2.15,1.08,1.81,3.39-.58,3.89-1.23,7.77-1.71,11.67-.3,2.52-.36,5.06-.52,7.59,0,.27.07.55.34.61.55.15.49-.35.54-.63.54-3.28,1.07-6.55,1.57-9.84.42-2.76.79-5.53,1.2-8.3a1.73,1.73,0,0,1,.58-1.22,6.7,6.7,0,0,1,2.1,2.56c1.77,2.75,3.11,5.68,2.77,9.09,0,.29,0,.52.36.51a.5.5,0,0,0,.35-.29,5.9,5.9,0,0,0,.34-3.09,40.87,40.87,0,0,0-1.52-6.36,12.42,12.42,0,0,0-3.07-5.42,3.17,3.17,0,0,1-1-3.06c.46-3,.86-6.05,1.26-9.09.86-6.5,1.88-13,2.45-19.51.28-3.13.73-6.25,1.1-9.37a1.2,1.2,0,0,1,.14-.5.6.6,0,0,1,.36-.31.47.47,0,0,1,.34.28c1.58,6.27,4.72,11.81,8.09,17.24a14.25,14.25,0,0,1,.88,1.9c.1.24.16.5.25.74a34.66,34.66,0,0,1,2.14,5.62c.4,2-.4,4-.56,6a64.2,64.2,0,0,1-.57,7.05c-.5,2.57-.76,5.19-1.22,7.77-.88,4.82-1.37,9.69-2,14.54,0,.26,0,.52-.08.78Zm-52,43.86h0c-.33-.08-.33-.38-.36-.62-.36-3.46-.71-6.93-1.07-10.4s-.7-6.76-1-10.14c-.11-1.11-.14-2.24-.23-3.89a15,15,0,0,1,5.56,6.15A49.66,49.66,0,0,1,136,260.61a2.53,2.53,0,0,1-.79,2.58c-1.68,1.64-3.25,3.4-4.86,5.12a.65.65,0,0,1-.66.26Zm7.57-7.94h0c-.39-1.95-.73-3.92-1.21-5.85a36.71,36.71,0,0,0-1.34-3.95,17.13,17.13,0,0,0-6.63-8.23l-.42-.3c-1.25-.94-1.31-1.54-.24-2.77.28-.34.59-.64.9-.95,1.19-1.16,2.41-2.29,3.57-3.47a4.06,4.06,0,0,1,4.79-.93,9.82,9.82,0,0,1,4.29,3.31,22.09,22.09,0,0,1,2.52,4.27,45.21,45.21,0,0,1,2.37,6.92,16.06,16.06,0,0,1,.38,2.58,2,2,0,0,1-.58,1.68,99.82,99.82,0,0,1-7.9,7.63c-.11.09-.33,0-.5.06Zm10.8-10.39h0a.41.41,0,0,1-.64-.17,9.8,9.8,0,0,1-.33-1.52,28.89,28.89,0,0,0-1.59-6.6,24,24,0,0,0-3-5.21,11.72,11.72,0,0,0-5.58-4.18,8.12,8.12,0,0,1-1-.56,28.13,28.13,0,0,1,6.82-3.84,15.22,15.22,0,0,1,8.77-.32c2.87.63,5.72,4.78,4.79,8.28a18.17,18.17,0,0,1-1.16,3.19,49,49,0,0,1-6.41,10.17,4.34,4.34,0,0,1-.72.76ZM87.63,233.52h0a37.29,37.29,0,0,0-3.6,2.12c-1.3.8-1.85,1.22-2.14-.85a29.23,29.23,0,0,0-1.17-4.55,15.89,15.89,0,0,0-6.63-8.82c-.51-.33-1-.69-1.47-1a1.38,1.38,0,0,1,.76-.79,75.74,75.74,0,0,1,10-4,22.67,22.67,0,0,1,3.08-.61c.61-.11,1,.17,1.11.81a9.29,9.29,0,0,1,.17,1.29c.35,4.79.68,9.58,1,14.37a1.73,1.73,0,0,1-1.12,2ZM58.56,251.46h0c-.33-1.89-.63-3.78-1-5.67-.81-4.74-1.3-9.51-1.69-14.29-.05-.69.32-1,.95-.82A11.24,11.24,0,0,1,63.24,235a19.35,19.35,0,0,1,3.51,9.91c0,.51,0,1,0,1.38a1.72,1.72,0,0,1-.81,1.54c-2.13,1.37-4.25,2.74-6.39,4.1a.65.65,0,0,1-1-.48ZM48.44,259.9h0a2.2,2.2,0,0,1-.58-1.68c-.13-3.06-.35-6.11-.39-9.16-.1-6.83-.58-13.62-1-20.43-.34-5.41-.87-10.8-1.3-16.2-.14-1.83-.41-3.65-.66-5.46a6.48,6.48,0,0,0-.48-1.49.86.86,0,0,0-.83-.54c-.45,0-.55.36-.55.72a10.26,10.26,0,0,0,.06,1.57c.59,4,1,8,1.25,12,.48,6.71.95,13.43,1.35,20.14.36,6,.61,12.05.9,18.07a12.61,12.61,0,0,1-.09,1.36c-2.74-.69-5.27-1.37-7.82-1.95-3.23-.74-6.48-1.41-9.73-2.07a1.15,1.15,0,0,1-1.05-1.25c0-1.31,0-2.63-.05-3.94-.31-5.75-.68-11.51-1-17.27-.15-3.23-.08-6.47-.25-9.7-.23-4.45-.32-8.9-.8-13.34-.36-3.39-.5-6.8-.73-10.2a5.27,5.27,0,0,1,0-1.05.56.56,0,0,1,.75-.49c.67.18,1.32.43,2,.66,3.64,1.23,7.27,2.49,10.91,3.7,1.61.53,2.62.39,2.52-.22-.19-1.11-1.23-1.13-2-1.4-2.73-.91-5.49-1.75-8.23-2.62-.25-.08-.49-.19-.74-.28s-.29-.22-.21-.4.16-.34.29-.39c1-.38,2-.74,2.94-1.1a3.48,3.48,0,0,1,2.07,0,118.18,118.18,0,0,1,11.8,3.48c.41.15.82.32,1.21.5a3.85,3.85,0,0,1,2.41,3.66c.22,7.6,1.09,15.16,1.26,22.77A128.17,128.17,0,0,0,53,240.75c.66,4.68,1.34,9.34,2.32,14a1.7,1.7,0,0,1-.71,2c-1.68,1.1-3.32,2.27-5,3.4-.46.32-.82.05-1.15-.25Zm9.09-67.48h0a34.84,34.84,0,0,1,6.89-3.75.47.47,0,0,1,.72.44c0,1,0,1.93,0,2.89a9.73,9.73,0,0,0,2.75,6.88,23.94,23.94,0,0,0,3.93,3.45,9.12,9.12,0,0,0,3.8,1.66,6.73,6.73,0,0,1,1.09.33,4.85,4.85,0,0,1-2.16,2.6,15.66,15.66,0,0,1-15.51.9c-6.11-2.81-6.32-12-1.5-15.4Zm46.56-64.74h0a8.19,8.19,0,0,1,1.54.29c3.72.95,7.42,2,11.17,2.83,5.12,1.12,10.29,2,15.42,3.09,12,2.49,23.92,5.07,35.77,8.12,1.27.33,2.56.53,3.86.74.31.05.77.05.79-.43a.82.82,0,0,0-.34-.62,7.86,7.86,0,0,0-3.1-1.33c-6-1.4-11.89-2.87-17.87-4.17-8.19-1.78-16.37-3.63-24.63-5.08-5.6-1-11.18-2-16.68-3.43l-2.38-.64a2.23,2.23,0,0,1,1.52-.91c3.91-1.24,7.84-2.44,11.74-3.71a17.67,17.67,0,0,0,3.62-1.49,4,4,0,0,1,3.51-.36c.41.14.82.25,1.33.4a5.1,5.1,0,0,1-.29,2.55,14.3,14.3,0,0,0-.37,3.12,2.2,2.2,0,0,0,1.22,2.16,19.08,19.08,0,0,0,3.1,1.39c5.08,1.61,10.18,3.12,15.39,4.25,2.91.63,5.82,1.2,8.73,1.8.43.09.85.21,1.28.27a3.63,3.63,0,0,0,4.37-2.76,12.35,12.35,0,0,0,.54-5c2.1.3,3.93.54,5.09,2.4.46.74.82.76,1.55.27,2.7-1.79,5.6-3.23,8.43-4.79a3.92,3.92,0,0,1,3.24-.36,100.87,100.87,0,0,0,13,3.06c.24,0,.58.09.51.43a1,1,0,0,1-.43.58c-2.07,1.32-4.19,2.54-6.2,3.92a40.69,40.69,0,0,1-5.29,3.4,8.61,8.61,0,0,0-1.67,1.24.71.71,0,0,0-.19.47.87.87,0,0,0,.24.39s.18,0,.25,0a36.64,36.64,0,0,0,5.59-2.83,51.47,51.47,0,0,1,6.28-3.81,2.64,2.64,0,0,1,1.61-.53c.44,2.12-.33,4.21-.39,6.32a37.77,37.77,0,0,1-.68,6.69c-1.34-.76-2.57-1.38-3.71-2.14a6.1,6.1,0,0,0-5.27-.77,13.71,13.71,0,0,0-8.72,7.39,8.53,8.53,0,0,1-1.43,2.77c.09-1,.17-1.76.22-2.54s.06-1.58.07-2.36,0-1.4-.07-2.09c0-.22-.19-.54-.36-.59-.52-.15-.52.32-.54.62-.45,7.69-1.56,15.3-2.54,22.93q-1.93,15-3.85,29.9c-.13,1-.36,2.06-.58,3.32-.42-.12-.67-.2-.93-.26-1.67-.44-2.34-1.39-2.21-3.22a19.2,19.2,0,0,0-1.33-7.69,12.23,12.23,0,0,0-4.93-6.59,1.76,1.76,0,0,1-.86-2.18c.54-2.29,1-4.61,1.58-6.89a54.6,54.6,0,0,0,1.31-7.49,4.92,4.92,0,0,1,.68-2.18,2.37,2.37,0,0,0-1.62-3.6,7.09,7.09,0,0,0-1.31-.09,38.47,38.47,0,0,1-9-1.49,98.44,98.44,0,0,0-17.42-3.65c-.34,0-.69-.08-1-.13a.71.71,0,0,1-.63-.93c1.45-7.88,8.55-10.54,14.37-8.3a4.44,4.44,0,0,1,.81.55c-.14,1-1,1.24-1.46,1.86a4,4,0,0,0-.5,4.43,2.14,2.14,0,0,0,3.29.91A4.86,4.86,0,0,0,148.7,151c.06-1.17.36-1.39,1.46-1.17a16.45,16.45,0,0,1,8.83,4.27,4,4,0,0,0,.55.54.47.47,0,0,0,.44,0c.1-.09.2-.36.15-.45a5.23,5.23,0,0,0-.88-1.27c-3.11-2.9-6.44-5.41-10.89-5.75a1.89,1.89,0,0,1-1.39-.63c-2.76-3.2-9.19-3.08-12.9-.61a12.92,12.92,0,0,0-5.59,7.65c-.14.51-.22,1-.35,1.53-.2.77-.49,1-1.32.93-1.82-.22-3.65-.43-5.44-.81-2.22-.47-4.4-1.1-6.6-1.65a12.79,12.79,0,0,0-1.78-.43,7.85,7.85,0,0,1-5.53-3,12.9,12.9,0,0,0-6-3.56l-1.75-.55a.77.77,0,0,1-.56-1c.08-.43.14-.86.22-1.29q1.48-7.32,3-14.64c.23-1.16.62-1.48,1.76-1.43Zm-1.92-16h0c-1.22-.19-1.36-.35-1.19-1.5s.38-2.6.68-3.87a92.92,92.92,0,0,0,1.82-13c.56-6,1.07-12,1.67-18,.26-2.6.66-5.2,1.06-7.79.53-3.37.87-6.76,1.08-10.16,0-.44.08-.87.15-1.3.12-.73.46-.94,1-.55,1.64,1.08,3.57,1.39,5.36,2a1.32,1.32,0,0,0,.76,0,.57.57,0,0,0,.32-.37.55.55,0,0,0-.06-.47,1.9,1.9,0,0,0-.6-.49c-.62-.32-1.27-.59-1.88-.93-1-.56-2.45-.39-3-1.72.78-.91,1.94-1.06,2.94-1.52A46.32,46.32,0,0,1,120,49.5c3.05-.79,6-1.77,9-2.85.66-.24,1.29-.56,2-.75a24.75,24.75,0,0,0,8.26-3.84,1.72,1.72,0,0,1,1.71-.26,114.39,114.39,0,0,0,13.81,4.06.74.74,0,0,1,.64,1,18.19,18.19,0,0,0-.44,5.2c.05.69,0,1.46.9,1.71.68.19,1.34-.22,1.74-1.26.58-1.55,1-3.15,1.57-4.71.27-.82.56-1,1.33-.87,2,.41,3.93.84,5.88,1.33A93.36,93.36,0,0,0,179,50.54a103.76,103.76,0,0,1,12.37,2.23,61.14,61.14,0,0,0,8.27,1.34,14.74,14.74,0,0,1,5.11,1.39,57.66,57.66,0,0,1-5.42,4.21c-1.06.77-2.13,1.53-3.15,2.35a11.42,11.42,0,0,0-1.46,1.49c-.39.45-.44,1.36-.14,1.44.5.12.74-.32,1.08-.56.92-.67,1.83-1.36,2.78-2a58.54,58.54,0,0,0,5.79-4.08c.39-.32.85-.57,1.27-.85.58.38.29.8.22,1.17-1.78,9-3.63,18-5.33,27-.93,4.9-1.6,9.84-2.83,14.67-.92,3.55-1.82,7.1-2.8,10.64-.3,1.09-.07,2.47-.89,3.22s-1.93.72-2.87,1.16c-2.38,1.1-4.76,2.21-7.08,3.41-3.34,1.73-6.63,3.54-9.95,5.3a2.59,2.59,0,0,1-1.45.53,3.16,3.16,0,0,1-.06-2.3c.69-4.22,1.31-8.46,2.19-12.65,1.74-8.3,3-16.67,4.09-25.08.2-1.64.54-3.27.79-4.91a9.16,9.16,0,0,0,0-1.57c0-.24-.11-.57-.45-.52a1.1,1.1,0,0,0-.61.38,5,5,0,0,0-.79,2.2c-.25,1.19-.4,2.41-.58,3.62-.9,6.14-1.67,12.3-2.73,18.41-.88,5.07-2.05,10.1-2.82,15.19-.35,2.34-.6,4.68-.92,7-.11.83-.39,1-1.24.85a24.65,24.65,0,0,1-2.53-.64,65.9,65.9,0,0,0-10.18-2.45c-6.31-1-12.45-2.73-18.66-4.18-6.55-1.53-13.09-3.12-19.74-4.15-4.83-.74-9.7-1.29-14.55-1.93-.52-.07-1-.1-1.56-.18ZM164.51,7.85h0a2.08,2.08,0,0,1,.66-.79,10.15,10.15,0,0,1,10.41-.66,5.46,5.46,0,0,1,2.52,3.82,8.48,8.48,0,0,1-2,7.06A4.9,4.9,0,0,1,173.17,19a22.24,22.24,0,0,1-2.23.3c-3.58,0-5.79-1.29-6.78-4a10.11,10.11,0,0,1,.35-7.41Zm-4.24,119.89h0c-.3,1.18-.53,2.18-.82,3.17a.92.92,0,0,1-1.21.67c-2.91-.61-5.81-1.18-8.72-1.78a156.81,156.81,0,0,1-15.39-4.19c-1.27-.4-1.31-.54-1.31-1.88a9.5,9.5,0,0,1,.08-1.31c0-.15.16-.29.31-.55,3,.43,5.89,1.3,8.84,2s6.11,1.48,9.18,2.14,6,1.16,9,1.74Zm36.41,30.7h0a43.11,43.11,0,0,0-15.84,9A12.77,12.77,0,0,1,178.6,162a15.53,15.53,0,0,1,.9-8.5,18.32,18.32,0,0,1,3.37-5.87,3.66,3.66,0,0,1,2.77-1.24,6.55,6.55,0,0,1,5,1.87,23.58,23.58,0,0,1,5.8,8.63,2.07,2.07,0,0,1,.27,1.6Zm-49.23,11.81h0c-.91-1.07-1.86-2.09-2.78-3.15a1.92,1.92,0,0,0-2.06-.78l-.26.05c-3.47.26-3.8-.09-3.56-3.76a10.79,10.79,0,0,1,3.27.74c2.61.69,5.21,1.44,7.83,2.12a1.33,1.33,0,0,1,1.15,1.21c.36,2.54,2,3.78,4.47,4.09.33,1.55-.49,2.88-.69,4.53-2.18-.8-2.18-.8-3.93.39l-1.31.89c-1.36.95-1.34,1-2.54-.33-.67-.75-.65-.91,0-1.77.16-.2.36-.38.52-.58,1.15-1.51,1.14-2.15-.15-3.65Zm-5.89,32.86h0a4.7,4.7,0,0,1-1,.09q-6.33-1-12.67-2.11a11.19,11.19,0,0,1-1.51-.4c-.39-.12-.48-.48-.51-.84a.63.63,0,0,1,.53-.75,10,10,0,0,0,4.17-2.13c2.42-1.95,3-4.22,1.66-7-1.53-3.19-4.76-5-7.6-4.44-1.23.26-1.71-.22-2.18-1.21a14.46,14.46,0,0,0-2.76-4.12,1,1,0,0,0-1.4-.22c-1.13.66-2.28,1.29-3.42,1.94a.63.63,0,0,1-.91-.12.78.78,0,0,1,0-1.15c.7-.78,1.4-1.56,2-2.38a1.78,1.78,0,0,0,.14-2.4,2.44,2.44,0,0,1-.47-.92,1.53,1.53,0,0,1,1.38-2.06c1.38-.19,2.77-.35,4.17-.47s1.52.06,1.73,1.31c0,.17,0,.35,0,.52.23,1.31.59,1.68,1.84,1.77,1,.07,1.93,0,2.89.11a2.67,2.67,0,0,0,2.92-1.72c.14-.31.21-.66.58-.84a19.89,19.89,0,0,1,4.5,1.28c.72.27,1.42.57,2.08.84a4.42,4.42,0,0,1-.81,2.32,2.11,2.11,0,0,0,.54,2.82,13.46,13.46,0,0,1,3.87,5.2c.64,1.45.91,1.49,2.69,1.17.86-.15,1.16,0,1.26.83s.16,1.74.21,2.61a1.07,1.07,0,0,1-.83,1.15,9.6,9.6,0,0,0-1.31.83,2.18,2.18,0,0,0-1.11,1.67,15.7,15.7,0,0,1-1.41,4.21c-.82,1.61-.94,3.15.6,4.6Zm-24.3-9.1h0c.21.93.49,1.85.71,2.78a7,7,0,0,1,.15,1.3c0,.82-.28,1.13-1.4,1l-1.44-.37c-1.52-.42-1.47-.42-1.39-2.07.23-5.06-1.69-9.05-6.18-11.54-2.84-1.58-2.28-.91-2-4,.19-2.26.57-4.5.89-6.75a4.47,4.47,0,0,1,.37-1.23.94.94,0,0,1,1.49-.46c1.11.71,2.19,1.44,3.24,2.22,2.91,2.16,3.23,2,.1,4.5-1.33,1.07-1.36,2-.21,3.31.29.32.6.63.92.93a1.9,1.9,0,0,0,2.58.34,28.37,28.37,0,0,1,2.82-1.39.7.7,0,0,1,.91.27,22.4,22.4,0,0,1,3.18,6.56.85.85,0,0,1-.65,1.2c-.76.21-1.53.35-2.29.53-1.67.39-2.16,1.17-1.78,2.85Zm-5.36,1.85h0a4.84,4.84,0,0,1-.19,1,.75.75,0,0,1-.74.6,1.07,1.07,0,0,1-.91-.41,2.2,2.2,0,0,1-.25-.72c-.19-.85-.37-1.7-.55-2.55a7.77,7.77,0,0,0-3.48-5c-1.27-.84-1.25-.87-.87-2.28a3.26,3.26,0,0,1,.2-.48c0-.07.13-.11.2-.17,4.82,1.23,7,6.52,6.59,10Zm43.65-27.13h0c-.75-.44-1.49-.9-2.2-1.4a.89.89,0,0,1-.34-.65c0-.5.48-.39.8-.36.95.09,1.9.21,2.79.3a2.06,2.06,0,0,1-.09,1.61c-.14.55-.54.75-1,.5Zm-9.67-18.26h0a.63.63,0,0,1,.49-.07c.12.07.16.29.23.44,0,1.1-.46,1.81-1.26,2-.18.05-.61-.17-.63-.31a1.88,1.88,0,0,1,1.17-2.07Zm-52-.65h0c0,.09.11.18.09.25-.51,2.72-1,5.45-1.55,8.17-.2,0-.42,0-.5-.1-.65-.69-1.61-1.32-1.82-2.14-.26-1,.81-1.81,1.3-2.7s1.06-1.8,1.6-2.69c.21-.34.39-.74.88-.79ZM92,162.53h0c-.26,2.58-.47,4.73-.7,6.88-.06.51-.21,1-.29,1.43-.7.44-1.08-.08-1.47-.33a17.59,17.59,0,0,1-4.75-4.39c-.66-.9-.62-1.12,0-2.07.44-.65.91-.59,1.55-.31a4.3,4.3,0,0,0,4.44-.5c.27-.19.58-.34,1.2-.71Zm-3-1.45h0a4.72,4.72,0,0,1-.71.15c-1.06,0-1.37-.42-1-1.12a3.83,3.83,0,0,1,.25-.44c.52-.82,1.16-.86,1.84-.14s.44,1.31-.35,1.55Zm-.38-11.88h0c.07,0,.18,0,.29.07,0-.19,0-.18.1,0l0,0h0c-1,1.64-1.94,3.28-2.93,4.92a1.38,1.38,0,0,1-1.25.79c-.37,0-.78-.1-.68-.53a7,7,0,0,1,4.45-5.32Zm-5.27,17.58h0c.82,1,1.53,1.86,2.29,2.69a10.74,10.74,0,0,0,4,2.85c1.22.47,1.23.57,1.07,1.7-.34,2.42-.7,4.83-1,7.25a6.57,6.57,0,0,1-1.24,3.38,7.28,7.28,0,0,0-.78,1.36c-.82,1.62-.91,2-3,1.24a44.15,44.15,0,0,1-6.36-3,10.21,10.21,0,0,1-2.47-1.91c-1.77-2-1.71-1.76-.42-3.73,2.28-3.5,4.54-7,6.83-10.53a2.83,2.83,0,0,1,1.1-1.26ZM55.54,224h0c-.13-2.53-.2-5.06-.32-7.6-.09-1.82-.24-3.64-.35-5.43.68-.36,1,.15,1.43.4a18.37,18.37,0,0,0,9.93,2.89,13.62,13.62,0,0,0,5.36-1.08c3.42-1.44,6.62-3.21,8.61-6.54a6.09,6.09,0,0,0,1.11-2.35,5.27,5.27,0,0,1,2-3.43,33.85,33.85,0,0,0,2.79-3.4A50.77,50.77,0,0,1,84.62,209a2.57,2.57,0,0,1-2,2.09,76.38,76.38,0,0,0-18.58,9c-2.05,1.33-4,2.85-6,4.28a6.69,6.69,0,0,1-2,1.28c-.69-.34-.53-1-.56-1.58Zm17.71-42.22h0a4.59,4.59,0,0,1,.69.58,15.82,15.82,0,0,0,8.9,5.64c.67.18,1.34.36,2,.56,1,.29,1.15.61.69,1.51a36.47,36.47,0,0,1-4.37,7.13,5.64,5.64,0,0,1-7.09,1.25,13.69,13.69,0,0,1-4.2-3.89,5.25,5.25,0,0,1-1-2.94,9.26,9.26,0,0,1,1.37-5.51c.93-1.46,2-2.87,3-4.33Zm-5,64.26h0c-.37-.36-.2-.81-.19-1.22a18.49,18.49,0,0,0-3.35-10.3,12.58,12.58,0,0,0-6-4.88c-.47-.19-1-.18-1.4-.73-.11-.56.45-.65.77-.83,3.71-2.12,7.45-4.2,11.16-6.33a2.12,2.12,0,0,1,2.2,0,15.06,15.06,0,0,1,6.64,6.5,41.26,41.26,0,0,1,2.72,7.35,2.26,2.26,0,0,1-1,2.9c-3.42,2.27-6.77,4.65-10.16,7a2.19,2.19,0,0,1-1.39.61Zm92-42h0a1.06,1.06,0,0,1-1.16.84c-.14,0-.4-.16-.39-.23A1.11,1.11,0,0,1,159,204a.92.92,0,0,1,1.18-.15c.06,0,.08.14.13.21ZM182.1,170h0c-.62-1-.58-1.22.27-2a29.62,29.62,0,0,1,5.08-3.68,40.9,40.9,0,0,1,8.57-3.9c1.39-.44,1.7-.32,2.2,1,1.75,4.47,3.47,8.95,5.2,13.43.15.4.28.82.43,1.26-.16.22-.27.49-.47.61-.52.3-1.08.56-1.63.81a79.44,79.44,0,0,1-10.88,3.75,18.49,18.49,0,0,0-2,.59c-.71.32-1-.07-1.2-.57A65.77,65.77,0,0,0,182.1,170Zm8.45,12.9h0c4.51-1.08,9-2.23,12.95-4.76.59-.37,1-.22,1.22.41,1.42,3.65,2.85,7.31,4.24,11,.39,1,.25,1.37-.63,2a8.5,8.5,0,0,1-1.1.7,56.16,56.16,0,0,1-8.38,3.67,21.57,21.57,0,0,1-3.06.72c-1.16.2-1.36.11-1.87-.92a121.61,121.61,0,0,1-5.34-12.22c.81-.24,1.39-.44,2-.58Zm5.06,16.37h0c-.18-.43-.22-.93.34-1a27.3,27.3,0,0,0,4.79-1.28c1.62-.64,3.24-1.29,4.81-2s2.89-1.56,4.33-2.34a6.56,6.56,0,0,1,1.16,2.62c1.08,2.85,2.07,5.74,3.11,8.6a1.28,1.28,0,0,1-.39,1.63,32.08,32.08,0,0,1-11.08,5.73,9.16,9.16,0,0,1-1.29.23,1.06,1.06,0,0,1-1.25-.68c-.42-1.06-.81-2.12-1.22-3.17-1.1-2.76-2.21-5.5-3.31-8.26Zm5.44,13.71h0a28,28,0,0,0,11.78-4.88c.51-.33,1-.74,1.49-1.05.3-.19.72-.25.87.19.37,1.07.76,2.14,1,3.24a4.31,4.31,0,0,1-.12,2.33,9.7,9.7,0,0,1-9.61,6.68,3.82,3.82,0,0,1-3.79-2.65c-.43-1.23-1-2.39-1.65-3.86Zm-85.33,10.89h0a85.67,85.67,0,0,1,1,11.75c.06,1.92.33,3.82.5,5.74q.42,4.56.82,9.14c.07.87.18,1.74.19,2.62.1,5.95.88,11.85,1.43,17.76a23.48,23.48,0,0,1,.2,4.08,2.4,2.4,0,0,1-1.69-.29,127.4,127.4,0,0,0-21.32-6.34c-.92-.18-1.12-.44-1.16-1.44-.24-5.86-.94-11.68-1.46-17.51-.42-4.79-.73-9.59-1.27-14.37-.66-5.72-1.51-11.43-2.28-17.15-.11-.78-.23-1.55-.33-2.33a1.21,1.21,0,0,1,.37-1.19c1.18-.91,1.12-2.07.42-3.63a81.9,81.9,0,0,1,12.22,3.93c2,.75,3.88,1.57,5.83,2.36,2.5,1,4,1.14,3.79.52-.46-1.48-1.88-2-3.1-2.53-3.09-1.46-6.31-2.57-9.51-3.74-.82-.3-1.88-.17-2.34-1.19,1-.41,1.89.06,2.78.3,3.71,1,7.39,2.12,11.09,3.15,2.78.77,5.58,1.47,8.36,2.23,1.19.32,1.21.36,1.23,1.62,0,2.37.07,4.73,0,7.09a75.59,75.59,0,0,0,.58,8.37c.43,5.49,1,11,1.51,16.45.65,6.43,1.36,12.86,2.07,19.29a11.24,11.24,0,0,0,.62,3.07c.53,1.3,0,1.93-1,2.56-.81.51-1.5,1.2-2.29,1.75-.34.24-.67.05-.76-.36a9.37,9.37,0,0,1-.21-1.29c-.51-5.31-1.07-10.61-1.49-15.92-.26-3.31-.26-6.64-.65-9.94-.48-4-.86-8-1.28-12-.29-2.78-.58-5.56-.85-8.34a35,35,0,0,0-1.18-5.37.46.46,0,0,0-.61-.31c-.12,0-.21.27-.22.42A4,4,0,0,0,115.72,223.83Z"/><path class="cls-19" d="M67.07,144.91a1.56,1.56,0,1,1,0-3.12H79.71a1.56,1.56,0,1,1,0,3.12Z"/><path class="cls-19" d="M60.84,141.79a1.56,1.56,0,0,1,0,3.12H57.63a1.56,1.56,0,1,1,0-3.12Z"/><path class="cls-19" d="M117.58,31.29a1.56,1.56,0,1,1,0-3.11h30.65a1.56,1.56,0,1,1,0,3.11Z"/><path class="cls-19" d="M111.35,28.18a1.56,1.56,0,1,1,0,3.11h-3.21a1.56,1.56,0,1,1,0-3.11Z"/><path class="cls-19" d="M35.42,150.12a5.6,5.6,0,1,1-4,9.55l-.09-.1a5.58,5.58,0,0,1,.09-7.81l.1-.09a5.55,5.55,0,0,1,3.85-1.55ZM37.17,154a2.44,2.44,0,0,0-1.75-.73,2.48,2.48,0,0,0-1.69.66l-.06.07a2.49,2.49,0,0,0-.06,3.44l.06.06a2.51,2.51,0,0,0,1.75.72,2.47,2.47,0,0,0,1.75-.72h0a2.51,2.51,0,0,0,.72-1.75A2.44,2.44,0,0,0,37.17,154Z"/><path class="cls-19" d="M94.46,33.11a5.6,5.6,0,0,1,4,1.64h0a5.59,5.59,0,0,1,0,7.91l-.1.09a5.59,5.59,0,0,1-9.44-4,5.61,5.61,0,0,1,1.64-4h0a5.61,5.61,0,0,1,3.95-1.64ZM96.21,37a2.49,2.49,0,0,0-3.5,0h0a2.49,2.49,0,0,0,0,3.5h0a2.48,2.48,0,0,0,3.44,0l.06-.06a2.45,2.45,0,0,0,.72-1.75A2.48,2.48,0,0,0,96.22,37Z"/><path class="cls-19" d="M228.19,81.57a5.59,5.59,0,0,1,4,9.54l-.1.09a5.59,5.59,0,1,1-3.86-9.63Zm1.75,3.83a2.47,2.47,0,0,0-1.75-.72,2.43,2.43,0,0,0-1.74.73h0A2.48,2.48,0,0,0,229.88,89l.06-.06a2.46,2.46,0,0,0,0-3.5Z"/><path class="cls-19" d="M55.48,90.08a1.56,1.56,0,1,1,3.11,0v13a1.56,1.56,0,1,1-3.11,0Z"/><path class="cls-19" d="M63.55,95.05a1.56,1.56,0,1,1,0,3.11h-13a1.56,1.56,0,1,1,0-3.11Z"/><path class="cls-19" d="M194,26.51a1.56,1.56,0,0,1,3.12,0v13a1.56,1.56,0,1,1-3.12,0Z"/><path class="cls-19" d="M202.09,31.48a1.56,1.56,0,1,1,0,3.11h-13a1.56,1.56,0,1,1,0-3.11Z"/><path class="cls-19" d="M225.5,127.68a1.56,1.56,0,0,1,2.2,2.2l-9.22,9.22a1.56,1.56,0,0,1-2.2-2.2Z"/><path class="cls-19" d="M227.7,136.9a1.56,1.56,0,0,1-2.2,2.2l-9.22-9.22a1.56,1.56,0,0,1,2.2-2.2Z"/><path class="cls-19" d="M6.52,184.06a1.56,1.56,0,0,1,3.12,0v13a1.56,1.56,0,0,1-3.12,0Z"/><path class="cls-19" d="M14.6,189a1.56,1.56,0,0,1,0,3.12h-13a1.56,1.56,0,1,1,0-3.12Z"/><path class="cls-19" d="M190.64,253.36a1.56,1.56,0,1,1,0,3.12H178a1.56,1.56,0,1,1,0-3.12Z"/><path class="cls-19" d="M196.87,256.48a1.56,1.56,0,1,1,0-3.12h3.22a1.56,1.56,0,1,1,0,3.12Z"/><path class="cls-19" d="M224.74,183.15a5.59,5.59,0,0,1,3.95,9.54h0a5.58,5.58,0,0,1-7.9,0h0a5.58,5.58,0,0,1,0-7.9l.09-.09a5.59,5.59,0,0,1,3.86-1.55Zm1.75,3.84a2.51,2.51,0,0,0-1.75-.72,2.46,2.46,0,0,0-1.69.66L223,187a2.43,2.43,0,0,0-.73,1.74,2.47,2.47,0,0,0,.72,1.75h0a2.47,2.47,0,0,0,1.75.72,2.51,2.51,0,0,0,1.75-.72h0a2.43,2.43,0,0,0,.72-1.75,2.46,2.46,0,0,0-.72-1.74Z"/></g></g></svg>